<svg viewBox="0 0 24 24" xmlns="http://www.w3.org/2000/svg">
<path d="M12 3C16.9705 3 21 7.02949 21 12C21 16.9705 16.9705 21 12 21C7.02949 21 3 16.9705 3 12C3 7.02949 7.02949 3 12 3ZM12 4.5C7.85801 4.5 4.5 7.85801 4.5 12C4.5 14.1385 5.39501 16.0675 6.82999 17.434L9.3735 14.4015C9.8016 14.6989 10.2772 14.9213 10.78 15.059L8.016 18.3555C9.20933 19.1054 10.5906 19.5022 12 19.5C13.328 19.5022 14.6325 19.1501 15.779 18.48L12.9625 15.1215C13.4806 15.0115 13.9758 14.8126 14.426 14.5335L16.9945 17.595C17.7836 16.8922 18.4148 16.0303 18.8466 15.0659C19.2785 14.1015 19.5012 13.0566 19.5 12C19.5 7.85801 16.142 4.5 12 4.5ZM12 7.00001C12.7967 6.99969 13.5712 7.26286 14.2027 7.74853C14.8343 8.2342 15.2875 8.9151 15.4918 9.68517C15.696 10.4552 15.6399 11.2713 15.3321 12.0061C15.0243 12.741 14.4821 13.3534 13.79 13.748L13.775 13.7565L13.7585 13.766C13.7204 13.7872 13.6819 13.8077 13.643 13.8275L13.775 13.7565C13.2334 14.0623 12.6219 14.2227 12 14.222C11.5334 14.2227 11.0712 14.1327 10.639 13.957L10.634 13.955C10.5894 13.9367 10.5453 13.9176 10.5015 13.8975L10.6395 13.9575C10.4696 13.8883 10.3053 13.8063 10.148 13.712C9.46907 13.3069 8.94184 12.6902 8.64726 11.9565C8.35268 11.2228 8.30704 10.4127 8.51733 9.65056C8.72762 8.88842 9.18222 8.21636 9.81136 7.73755C10.4405 7.25873 11.2094 6.99963 12 7.00001ZM12 8.50001C11.7219 8.4987 11.4464 8.55233 11.1891 8.65783C10.9318 8.76333 10.6979 8.91862 10.5009 9.11477C10.3038 9.31093 10.1474 9.54408 10.0407 9.80085C9.93397 10.0576 9.87904 10.3329 9.87904 10.611C9.87904 10.8891 9.93397 11.1644 10.0407 11.4211C10.1474 11.6779 10.3038 11.9111 10.5009 12.1072C10.6979 12.3034 10.9318 12.4587 11.1891 12.5642C11.4464 12.6697 11.7219 12.7233 12 12.722C12.5581 12.7194 13.0925 12.4958 13.4863 12.1002C13.88 11.7046 14.1011 11.1692 14.1011 10.611C14.1011 10.0528 13.88 9.51741 13.4863 9.12181C13.0925 8.7262 12.5581 8.50264 12 8.50001Z"/>
</svg>
