<svg width="1200" height="168" viewBox="0 0 1200 168" fill="none" xmlns="http://www.w3.org/2000/svg">
<rect width="1200" height="168" fill="#08C99B"/>
<circle opacity="0.12" cx="170.5" cy="83.5" r="216.5" fill="#0071A2"/>
<circle opacity="0.6" cx="628.5" cy="219.5" r="132.5" fill="#00D896"/>
<path opacity="0.8" d="M1040.28 66C1033.38 246.842 1156.32 300.684 1218.65 305C1235.9 293.347 1242 252.309 1242.9 233.246C1247.21 145.631 1109.62 85.2423 1040.28 66Z" fill="#07BE9C"/>
<path d="M1255.4 105.675C1130.5 80.9847 1079.55 160.584 1069.69 203.47C1075.89 216.748 1103.73 225.511 1116.88 228.232C1177.28 240.869 1234.39 151.793 1255.4 105.675Z" fill="#03D298"/>
<path opacity="0.6" d="M0.258421 -2C-6.14158 165.6 107.925 215.5 165.758 219.5C181.758 208.7 187.425 170.667 188.258 153C192.258 71.8 64.5918 15.8333 0.258421 -2Z" fill="#00D896"/>
</svg>
