<svg viewBox="0 0 32 32" fill="none" xmlns="http://www.w3.org/2000/svg">
<path fill="black" d="M4.38976 16C4.38976 16.5199 4.81121 16.9413 5.3311 16.9413L15.0583 16.9413V26.6686C15.0583 27.1885 15.4798 27.6099 15.9997 27.6099C16.5196 27.6099 16.941 27.1885 16.941 26.6686L16.941 16.9413H26.6683C27.1881 16.9413 27.6096 16.5199 27.6096 16C27.6096 15.4801 27.1881 15.0587 26.6683 15.0587H16.941V5.33142C16.941 4.81153 16.5196 4.39008 15.9997 4.39008C15.4798 4.39008 15.0583 4.81153 15.0583 5.33142V15.0587L5.3311 15.0587C4.81121 15.0587 4.38976 15.4801 4.38976 16Z" />
<path fill="black" d="M5.3311 16.9413V17.1913V16.9413ZM15.0583 16.9413H15.3083V16.6913H15.0583V16.9413ZM15.0583 26.6686H15.3083H15.0583ZM16.941 26.6686H17.191H16.941ZM16.941 16.9413V16.6913H16.691V16.9413H16.941ZM26.6683 16.9413V16.6913V16.9413ZM26.6683 15.0587V15.3087V15.0587ZM16.941 15.0587H16.691V15.3087H16.941V15.0587ZM16.941 5.33142L17.191 5.33142L16.941 5.33142ZM15.0583 5.33142H15.3083H15.0583ZM15.0583 15.0587V15.3087H15.3083V15.0587H15.0583ZM5.3311 15.0587L5.3311 15.3087L5.3311 15.0587ZM5.3311 16.6913C4.94928 16.6913 4.63976 16.3818 4.63976 16H4.13976C4.13976 16.658 4.67314 17.1913 5.3311 17.1913V16.6913ZM15.0583 16.6913L5.3311 16.6913V17.1913H15.0583L15.0583 16.6913ZM15.3083 26.6686V16.9413L14.8083 16.9413L14.8083 26.6686H15.3083ZM15.9997 27.3599C15.6179 27.3599 15.3083 27.0504 15.3083 26.6686H14.8083C14.8083 27.3265 15.3417 27.8599 15.9997 27.8599L15.9997 27.3599ZM16.691 26.6686C16.691 27.0504 16.3815 27.3599 15.9997 27.3599L15.9997 27.8599C16.6576 27.8599 17.191 27.3265 17.191 26.6686H16.691ZM16.691 16.9413L16.691 26.6686H17.191L17.191 16.9413H16.691ZM26.6683 16.6913H16.941V17.1913L26.6683 17.1913L26.6683 16.6913ZM27.3596 16C27.3596 16.3818 27.0501 16.6913 26.6683 16.6913L26.6683 17.1913C27.3262 17.1913 27.8596 16.658 27.8596 16L27.3596 16ZM26.6683 15.3087C27.0501 15.3087 27.3596 15.6182 27.3596 16L27.8596 16C27.8596 15.342 27.3262 14.8087 26.6683 14.8087V15.3087ZM16.941 15.3087H26.6683V14.8087H16.941V15.3087ZM16.691 5.33142V15.0587H17.191L17.191 5.33142L16.691 5.33142ZM15.9997 4.64008C16.3815 4.64008 16.691 4.9496 16.691 5.33142L17.191 5.33142C17.191 4.67346 16.6576 4.14008 15.9997 4.14008L15.9997 4.64008ZM15.3083 5.33142C15.3083 4.94961 15.6179 4.64008 15.9997 4.64008L15.9997 4.14008C15.3417 4.14008 14.8083 4.67346 14.8083 5.33142L15.3083 5.33142ZM15.3083 15.0587V5.33142L14.8083 5.33142L14.8083 15.0587H15.3083ZM5.3311 15.3087H15.0583V14.8087L5.3311 14.8087V15.3087ZM4.63976 16C4.63976 15.6182 4.94928 15.3087 5.3311 15.3087V14.8087C4.67314 14.8087 4.13976 15.342 4.13976 16H4.63976Z"/>
</svg>
