<svg width="40" height="63" viewBox="0 0 40 63" fill="none" xmlns="http://www.w3.org/2000/svg">
<path d="M29.4444 6H10.5556C7.5 6 5 8.52 5 11.6V28.4C5 31.48 7.5 34 10.5556 34H29.4444C32.5 34 35 31.48 35 28.4V11.6C35 8.52 32.5 6 29.4444 6ZM32.7778 28.4C32.7778 30.248 31.2778 31.76 29.4444 31.76H10.5556C8.72222 31.76 7.22222 30.248 7.22222 28.4V11.6C7.22222 9.752 8.72222 8.24 10.5556 8.24H29.4444C31.2778 8.24 32.7778 9.752 32.7778 11.6V28.4Z" fill="#B8C2CF"/>
<path d="M14.5838 18.5806C16.4264 18.5806 17.934 17.1 17.934 15.2903C17.934 13.4806 16.4264 12 14.5838 12C12.7411 12 11.2335 13.4806 11.2335 15.2903C11.2335 17.1 12.7411 18.5806 14.5838 18.5806ZM14.5838 14.1935C15.198 14.1935 15.7005 14.6871 15.7005 15.2903C15.7005 15.8935 15.198 16.3871 14.5838 16.3871C13.9695 16.3871 13.467 15.8935 13.467 15.2903C13.467 14.6871 13.9695 14.1935 14.5838 14.1935ZM30.7208 27.1903L30.6091 27.0806L24.4112 20.9935C23.5178 20.1161 22.1218 20.1161 21.2284 20.9935L18.4365 23.7355L17.1523 22.4742C16.2589 21.5968 14.8629 21.5968 13.9695 22.4742L9.27919 27.0806C9.11168 27.3 9 27.5742 9 27.9032C9 28.5065 9.50254 29 10.1168 29C10.4518 29 10.6751 28.8903 10.8985 28.671L15.5888 24.0645L20.2792 28.671C20.5025 28.8903 20.7817 29 21.1168 29C21.731 29 22.2335 28.5065 22.2335 27.9032C22.2335 27.5742 22.066 27.3 21.8985 27.0806L20.0558 25.271L22.8477 22.529L29.1574 28.7258C29.3807 28.8903 29.6041 29 29.8832 29C30.4975 29 31 28.5065 31 27.9032C31 27.629 30.8883 27.3548 30.7208 27.1903Z" fill="#B8C2CF"/>
<path d="M8.568 52.618H5.74V55.516H4.256V52.618H1.428V51.274H4.256V48.376H5.74V51.274H8.568V52.618ZM16.9101 55.012H12.8361L12.1361 57H10.4701L13.9561 47.256H15.8041L19.2901 57H17.6101L16.9101 55.012ZM16.4621 53.71L14.8801 49.188L13.2841 53.71H16.4621ZM20.2739 53.108C20.2739 52.3333 20.4325 51.6473 20.7499 51.05C21.0765 50.4527 21.5152 49.9907 22.0659 49.664C22.6259 49.328 23.2465 49.16 23.9279 49.16C24.4319 49.16 24.9265 49.272 25.4119 49.496C25.9065 49.7107 26.2985 50 26.5879 50.364V46.64H28.1979V57H26.5879V55.838C26.3265 56.2113 25.9625 56.5193 25.4959 56.762C25.0385 57.0047 24.5112 57.126 23.9139 57.126C23.2419 57.126 22.6259 56.958 22.0659 56.622C21.5152 56.2767 21.0765 55.8007 20.7499 55.194C20.4325 54.578 20.2739 53.8827 20.2739 53.108ZM26.5879 53.136C26.5879 52.604 26.4759 52.142 26.2519 51.75C26.0372 51.358 25.7525 51.0593 25.3979 50.854C25.0432 50.6487 24.6605 50.546 24.2499 50.546C23.8392 50.546 23.4565 50.6487 23.1019 50.854C22.7472 51.05 22.4579 51.344 22.2339 51.736C22.0192 52.1187 21.9119 52.576 21.9119 53.108C21.9119 53.64 22.0192 54.1067 22.2339 54.508C22.4579 54.9093 22.7472 55.2173 23.1019 55.432C23.4659 55.6373 23.8485 55.74 24.2499 55.74C24.6605 55.74 25.0432 55.6373 25.3979 55.432C25.7525 55.2267 26.0372 54.928 26.2519 54.536C26.4759 54.1347 26.5879 53.668 26.5879 53.136ZM29.7621 53.108C29.7621 52.3333 29.9208 51.6473 30.2381 51.05C30.5648 50.4527 31.0035 49.9907 31.5541 49.664C32.1141 49.328 32.7348 49.16 33.4161 49.16C33.9201 49.16 34.4148 49.272 34.9001 49.496C35.3948 49.7107 35.7868 50 36.0761 50.364V46.64H37.6861V57H36.0761V55.838C35.8148 56.2113 35.4508 56.5193 34.9841 56.762C34.5268 57.0047 33.9995 57.126 33.4021 57.126C32.7301 57.126 32.1141 56.958 31.5541 56.622C31.0035 56.2767 30.5648 55.8007 30.2381 55.194C29.9208 54.578 29.7621 53.8827 29.7621 53.108ZM36.0761 53.136C36.0761 52.604 35.9641 52.142 35.7401 51.75C35.5255 51.358 35.2408 51.0593 34.8861 50.854C34.5315 50.6487 34.1488 50.546 33.7381 50.546C33.3275 50.546 32.9448 50.6487 32.5901 50.854C32.2355 51.05 31.9461 51.344 31.7221 51.736C31.5075 52.1187 31.4001 52.576 31.4001 53.108C31.4001 53.64 31.5075 54.1067 31.7221 54.508C31.9461 54.9093 32.2355 55.2173 32.5901 55.432C32.9541 55.6373 33.3368 55.74 33.7381 55.74C34.1488 55.74 34.5315 55.6373 34.8861 55.432C35.2408 55.2267 35.5255 54.928 35.7401 54.536C35.9641 54.1347 36.0761 53.668 36.0761 53.136Z" fill="#B8C2CF"/>
</svg>
