<svg xmlns="http://www.w3.org/2000/svg" width="20" height="20" viewBox="0 0 20 20" fill="none">
  <path d="M13.5002 9.16665C13.0399 9.16665 12.6668 9.53974 12.6668 9.99998C12.6668 10.4602 13.0399 10.8333 13.5002 10.8333C13.9604 10.8333 14.3335 10.4602 14.3335 9.99998C14.3335 9.53974 13.9604 9.16665 13.5002 9.16665Z" fill="#5C6764"/>
  <path fill-rule="evenodd" clip-rule="evenodd" d="M0.75 4.75C0.75 3.64543 1.64543 2.75 2.75 2.75H16C17.1046 2.75 18 3.64544 18 4.75V6.06213C18.7329 6.35887 19.2498 7.0774 19.2498 7.91669V12.0834C19.2498 12.9226 18.7329 13.6412 18 13.9379V15.25C18 16.3546 17.1046 17.25 16 17.25H2.75C1.64543 17.25 0.75 16.3546 0.75 15.25V4.75ZM16.5 4.75V5.91669H11.4165C10.3119 5.91669 9.4165 6.81212 9.4165 7.91669V12.0834C9.4165 13.1879 10.3119 14.0834 11.4165 14.0834H16.5V15.25C16.5 15.5262 16.2762 15.75 16 15.75H2.75C2.47385 15.75 2.25 15.5262 2.25 15.25V4.75C2.25 4.47386 2.47386 4.25 2.75 4.25H16C16.2762 4.25 16.5 4.47385 16.5 4.75ZM11.4165 7.41669C11.1404 7.41669 10.9165 7.64054 10.9165 7.91669V12.0834C10.9165 12.3595 11.1404 12.5834 11.4165 12.5834H17.2498C17.526 12.5834 17.7498 12.3595 17.7498 12.0834V7.91669C17.7498 7.64054 17.526 7.41669 17.2498 7.41669H11.4165Z" fill="#5C6764"/>
</svg>
