<svg viewBox="0 0 24 24" fill="none" xmlns="http://www.w3.org/2000/svg">
<path d="M19 11C19 10.4477 19.4477 10 20 10C20.5523 10 21 10.4477 21 11V19C21 20.1046 20.1046 21 19 21H4.99999C3.89543 21 3 20.1046 3 19V11C3 10.4477 3.44773 10 4.00001 10C4.55229 10 4.99999 10.4477 4.99999 11V19H19V11ZM6.10594 7.00001H17.8411L16.0662 5.04677C16.0529 5.03204 16.0365 5.02027 16.0183 5.01221C16.0001 5.00416 15.9804 4.99999 15.9605 4.99999H7.91995C7.87875 4.99999 7.83956 5.0178 7.81242 5.04881L6.10591 6.99998L6.10594 7.00001ZM3.24727 7.23056L6.30698 3.73214C6.50812 3.50217 6.7561 3.31787 7.0343 3.1916C7.3125 3.06532 7.61448 3 7.92 3H15.9605C16.2592 3 16.5546 3.06243 16.8277 3.18328C17.1008 3.30413 17.3456 3.48073 17.5465 3.70177L20.7401 7.21641C20.9073 7.40045 21 7.64021 21 7.8889V7.99999C21 8.55227 20.5523 9 20 9H4.00001C3.44773 9 3 8.55227 3 7.99999V7.8889C2.99999 7.64675 3.08785 7.41282 3.24727 7.23054V7.23056ZM9 15C8.44772 15 7.99999 14.5523 7.99999 14C7.99999 13.4477 8.44772 13 9 13H15C15.5523 13 16 13.4477 16 14C16 14.5523 15.5523 15 15 15H9Z"/>
</svg>
