<svg viewBox="0 0 16 16" xmlns="http://www.w3.org/2000/svg">
<path d="M5.0755 3.62451C5.0755 2.68562 5.83662 1.92451 6.7755 1.92451H12.3755C13.3144 1.92451 14.0755 2.68562 14.0755 3.62451V9.22451C14.0755 10.1634 13.3144 10.9245 12.3755 10.9245H6.7755C5.83662 10.9245 5.0755 10.1634 5.0755 9.22451V3.62451ZM6.7755 2.92451C6.3889 2.92451 6.0755 3.23791 6.0755 3.62451V9.22451C6.0755 9.61111 6.3889 9.92451 6.7755 9.92451H12.3755C12.7621 9.92451 13.0755 9.61111 13.0755 9.22451V3.62451C13.0755 3.23791 12.7621 2.92451 12.3755 2.92451H6.7755Z"/>
<path d="M3.56139 6.04766C3.17479 6.04766 2.86139 6.36107 2.86139 6.74766V12.3477C2.86139 12.7343 3.17479 13.0477 3.56139 13.0477H9.16139C9.54799 13.0477 9.86139 12.7343 9.86139 12.3477V11.5477H10.8614V12.3477C10.8614 13.2865 10.1003 14.0477 9.16139 14.0477H3.56139C2.6225 14.0477 1.86139 13.2865 1.86139 12.3477V6.74766C1.86139 5.80878 2.62251 5.04766 3.56139 5.04766H4.36139V6.04766H3.56139Z"/>
</svg>
