<svg width="32" height="32" viewBox="0 0 32 32" fill="none" xmlns="http://www.w3.org/2000/svg">
<path d="M10 13.6667C10 11.6416 11.6416 10 13.6667 10H25.3333C27.3584 10 29 11.6416 29 13.6667V25.3333C29 27.3584 27.3584 29 25.3333 29H13.6667C11.6416 29 10 27.3584 10 25.3333V13.6667ZM13.6667 12C12.7462 12 12 12.7462 12 13.6667V25.3333C12 26.2538 12.7462 27 13.6667 27H25.3333C26.2538 27 27 26.2538 27 25.3333V13.6667C27 12.7462 26.2538 12 25.3333 12H13.6667Z" fill="#051D17"/>
<path d="M2.72426 9.83462C2.20014 7.87858 3.36094 5.86801 5.31698 5.34389L15.6202 2.58315C17.5762 2.05903 19.5868 3.21983 20.1109 5.17588L21.4913 10.3275C21.6342 10.8609 21.3176 11.4093 20.7842 11.5522C20.2507 11.6952 19.7024 11.3786 19.5594 10.8451L18.1791 5.69352C17.9408 4.80441 17.0269 4.27677 16.1378 4.515L5.83462 7.27574C4.94551 7.51398 4.41787 8.42787 4.65611 9.31698L7.41685 19.6202C7.65508 20.5093 8.56898 21.0369 9.45809 20.7987L10.746 20.4536C11.2795 20.3107 11.8278 20.6273 11.9707 21.1607C12.1137 21.6942 11.7971 22.2425 11.2636 22.3855L9.97572 22.7306C8.01968 23.2547 6.00911 22.0939 5.48499 20.1378L2.72426 9.83462Z" fill="#051D17"/>
<path d="M14.9963 19.5C14.9963 18.9477 15.444 18.5 15.9963 18.5H23.0037C23.556 18.5 24.0037 18.9477 24.0037 19.5C24.0037 20.0523 23.556 20.5 23.0037 20.5H15.9963C15.444 20.5 14.9963 20.0523 14.9963 19.5Z" fill="#051D17"/>
<path d="M19.5 24.0038C18.9477 24.0038 18.5 23.5561 18.5 23.0038L18.5 15.9964C18.5 15.4441 18.9477 14.9964 19.5 14.9964C20.0523 14.9964 20.5 15.4441 20.5 15.9964L20.5 23.0038C20.5 23.5561 20.0523 24.0038 19.5 24.0038Z" fill="#051D17"/>
</svg>
