<svg viewBox="0 0 24 24" fill="none" xmlns="http://www.w3.org/2000/svg">
<path fill-rule="evenodd" clip-rule="evenodd" d="M14.0863 2.30432C13.3335 1.898 12.4537 1.79509 11.6274 2.0167L4.38344 3.95767L4.20327 4.01024L4.19998 4.01133C3.38762 4.27958 2.70868 4.84845 2.30236 5.60129C1.89604 6.35413 1.79314 7.23391 2.01474 8.06019L3.95571 15.3052L4.00838 15.4836L4.00936 15.4866C4.21957 16.1242 4.6164 16.684 5.14844 17.0934C5.68048 17.5029 6.32321 17.7432 6.99338 17.7831L7.09933 17.7894V16.0877L7.01033 16.0779C6.68011 16.0413 6.36861 15.906 6.1166 15.6894C5.86459 15.4729 5.68381 15.1853 5.59792 14.8644L3.65655 7.62276L3.62548 7.47904C3.55418 7.07312 3.63736 6.6552 3.8587 6.3075C4.08037 5.95928 4.42453 5.7068 4.82323 5.59988L12.0672 3.65787C12.2766 3.6017 12.495 3.58734 12.7099 3.61561C12.9249 3.64388 13.1321 3.71423 13.3199 3.82263C13.5076 3.93103 13.6721 4.07536 13.804 4.24737C13.936 4.41938 14.0327 4.61572 14.0887 4.82513L14.6965 7.09929H16.4566L15.73 4.38542L15.6813 4.2199V4.21721L15.6763 4.20193C15.408 3.38958 14.8392 2.71064 14.0863 2.30432ZM18.7493 7.90029H11.2493L10.9653 7.90797V7.91314C10.1464 7.98279 9.38029 8.35136 8.81432 8.95038C8.22666 9.57235 7.89928 10.3956 7.89933 11.2513L7.89929 18.7513L7.90433 18.937L7.90449 18.94C7.95294 19.7943 8.32645 20.5976 8.94842 21.1853C9.57039 21.773 10.3937 22.1003 11.2493 22.1003L18.7493 22.1003L18.936 22.0953L18.939 22.0951C19.7933 22.0467 20.5967 21.6732 21.1843 21.0512C21.772 20.4292 22.0994 19.606 22.0993 18.7503L22.0994 11.2503L22.0943 11.0626L22.0942 11.0596C22.0455 10.2055 21.6718 9.40234 21.0499 8.8149C20.428 8.22746 19.6048 7.90022 18.7493 7.90029ZM10.1317 10.0365C10.4363 9.75602 10.8352 9.60031 11.2493 9.60029H18.7493C19.1869 9.60029 19.6066 9.77413 19.9161 10.0836C20.2255 10.393 20.3993 10.8127 20.3993 11.2503V18.7482L20.3935 18.8871C20.3592 19.2992 20.1714 19.6834 19.8673 19.9637C19.5626 20.2444 19.1636 20.4003 18.7493 20.4003H11.2514L11.1125 20.3945C10.7004 20.3602 10.3162 20.1724 10.0359 19.8682C9.75521 19.5636 9.59937 19.1645 9.59933 18.7503V11.2524L9.60516 11.1125C9.63967 10.7006 9.82756 10.3166 10.1317 10.0365ZM14.9993 10.9013C14.7739 10.9013 14.5577 10.9908 14.3983 11.1502C14.2389 11.3097 14.1493 11.5259 14.1493 11.7513V14.1493H11.7493C11.5239 14.1493 11.3077 14.2388 11.1483 14.3982C10.9889 14.5577 10.8993 14.7739 10.8993 14.9993C10.8993 15.2247 10.9889 15.4409 11.1483 15.6003C11.3077 15.7597 11.5239 15.8493 11.7493 15.8493H14.1493V18.2513C14.1493 18.4767 14.2389 18.6929 14.3983 18.8523C14.5577 19.0117 14.7739 19.1013 14.9993 19.1013C15.2248 19.1013 15.441 19.0117 15.6004 18.8523C15.7598 18.6929 15.8493 18.4767 15.8493 18.2513V15.8493H18.2493C18.4748 15.8493 18.691 15.7597 18.8504 15.6003C19.0098 15.4409 19.0993 15.2247 19.0993 14.9993C19.0993 14.7739 19.0098 14.5577 18.8504 14.3982C18.691 14.2388 18.4748 14.1493 18.2493 14.1493H15.8493V11.7513C15.8493 11.5259 15.7598 11.3097 15.6004 11.1502C15.441 10.9908 15.2248 10.9013 14.9993 10.9013Z"/>
</svg>
