<svg width="11" height="11" viewBox="0 0 11 11" fill="none" xmlns="http://www.w3.org/2000/svg">
<path fill-rule="evenodd" clip-rule="evenodd" d="M8.21864 6.09087L9.40046 4.91192C9.70263 4.60875 9.69965 4.11239 9.39254 3.80527L7.19419 1.60782C7.04657 1.4602 6.8524 1.37797 6.64534 1.375C6.43631 1.37599 6.23619 1.45129 6.08758 1.5999L4.88587 2.79967C4.87847 2.80708 4.8714 2.81469 4.86468 2.82249L4.81414 2.87303C4.80752 2.87886 4.80105 2.88493 4.79472 2.89126C4.7884 2.89758 4.78232 2.90406 4.7765 2.91067L1.88605 5.80123C1.6998 5.98848 1.58587 6.23913 1.56506 6.50861L1.37683 8.96464C1.36296 9.14099 1.42835 9.31536 1.55615 9.44316C1.67206 9.56007 1.82859 9.62447 1.98908 9.62447C2.00394 9.62447 2.01979 9.62447 2.03465 9.62248L4.49059 9.43425C4.76006 9.41443 5.0107 9.29951 5.19794 9.11325L8.19777 6.11331C8.20505 6.10602 8.21201 6.09854 8.21864 6.09087ZM5.08708 3.76716L2.46957 6.38477C2.42102 6.43332 2.39328 6.49771 2.38734 6.57103L2.21793 8.78135L4.42718 8.61194C4.50148 8.60599 4.56588 8.57825 4.61442 8.52971L7.23193 5.9121L5.08708 3.76716ZM8.78227 4.36107L7.81513 5.32824L5.66987 3.1829L6.63643 2.21712L8.78227 4.36107Z" fill="white"/>
</svg>
