<svg width="24" height="24" viewBox="0 0 24 24" fill="none" xmlns="http://www.w3.org/2000/svg">
<rect x="0.5" y="0.5" width="23" height="23" rx="11.5" fill="#22293D" stroke="#3E4659"/>
<path fill-rule="evenodd" clip-rule="evenodd" d="M15.9544 12.8594L17.6734 11.1446C18.1129 10.7036 18.1086 9.98166 17.6619 9.53493L14.4643 6.33865C14.2496 6.12393 13.9671 6.00432 13.666 6C13.3619 6.00144 13.0708 6.11096 12.8547 6.32712L11.1067 8.07225C11.0959 8.08302 11.0857 8.09409 11.0759 8.10544L11.0024 8.17895C10.9928 8.18743 10.9833 8.19627 10.9741 8.20547C10.9649 8.21467 10.9561 8.22409 10.9476 8.23371L6.74334 12.4382C6.47243 12.7105 6.30672 13.0751 6.27646 13.4671L6.00266 17.0395C5.98249 17.296 6.0776 17.5496 6.26349 17.7355C6.43209 17.9056 6.65977 17.9992 6.89321 17.9992C6.91482 17.9992 6.93788 17.9992 6.9595 17.9963L10.5318 17.7225C10.9237 17.6937 11.2883 17.5266 11.5606 17.2556L15.924 12.8921C15.9346 12.8815 15.9447 12.8706 15.9544 12.8594ZM11.3994 9.47951L7.5921 13.2869C7.52149 13.3576 7.48114 13.4512 7.4725 13.5579L7.22608 16.7729L10.4395 16.5265C10.5476 16.5178 10.6413 16.4775 10.7119 16.4068L14.5192 12.5994L11.3994 9.47951ZM16.7742 10.3434L15.3675 11.7502L12.2471 8.62967L13.653 7.22491L16.7742 10.3434Z" fill="white"/>
</svg>
