<svg width="24" height="24" viewBox="0 0 24 24" fill="none" xmlns="http://www.w3.org/2000/svg">
<path fill-rule="evenodd" clip-rule="evenodd" d="M17.9316 13.2892L20.5101 10.7169C21.1694 10.0555 21.1629 8.9725 20.4928 8.3024L15.6964 3.50798C15.3743 3.1859 14.9507 3.00648 14.4989 3C14.0428 3.00216 13.6062 3.16644 13.282 3.49068L10.6601 6.10838C10.6439 6.12453 10.6285 6.14114 10.6138 6.15816L10.5036 6.26843C10.4891 6.28115 10.475 6.2944 10.4612 6.3082C10.4474 6.322 10.4342 6.33613 10.4214 6.35056L4.11502 12.6572C3.70865 13.0658 3.46008 13.6127 3.41468 14.2006L3.004 19.5592C2.97374 19.944 3.1164 20.3244 3.39523 20.6033C3.64813 20.8583 3.98965 20.9988 4.33981 20.9988C4.37224 20.9988 4.40682 20.9988 4.43924 20.9945L9.79764 20.5838C10.3856 20.5406 10.9324 20.2898 11.341 19.8834L17.886 13.3381C17.9019 13.3222 17.9171 13.3059 17.9316 13.2892ZM11.0991 8.21927L5.38815 13.9304C5.28224 14.0363 5.22171 14.1768 5.20874 14.3368L4.83912 19.1593L9.65931 18.7897C9.82142 18.7767 9.96192 18.7162 10.0678 18.6103L15.7788 12.8991L11.0991 8.21927ZM19.1613 9.51506L17.0512 11.6253L12.3706 6.9445L14.4795 4.83736L19.1613 9.51506Z" fill="white"/>
</svg>
