<svg width="18" height="18" viewBox="0 0 18 18" fill="none" xmlns="http://www.w3.org/2000/svg">
<path fill-rule="evenodd" clip-rule="evenodd" d="M14.9316 10.2892L17.5101 7.71691C18.1694 7.05546 18.1629 5.9725 17.4928 5.3024L12.6964 0.507976C12.3743 0.185897 11.9507 0.0064848 11.4989 0C11.0428 0.0021616 10.6062 0.166443 10.282 0.490683L7.66008 3.10838C7.64392 3.12453 7.62851 3.14114 7.61384 3.15816L7.50358 3.26843C7.48914 3.28115 7.47501 3.2944 7.46122 3.3082C7.44742 3.322 7.43416 3.33613 7.42145 3.35056L1.11502 9.65723C0.708651 10.0658 0.460077 10.6127 0.414685 11.2006L0.00399675 16.5592C-0.0262645 16.944 0.116396 17.3244 0.395231 17.6033C0.648129 17.8583 0.989648 17.9988 1.33981 17.9988C1.37224 17.9988 1.40682 17.9988 1.43924 17.9945L6.79764 17.5838C7.38558 17.5406 7.93244 17.2898 8.34097 16.8834L14.886 10.3381C14.9019 10.3222 14.9171 10.3059 14.9316 10.2892ZM8.09908 5.21927L2.38815 10.9304C2.28224 11.0363 2.22171 11.1768 2.20874 11.3368L1.83912 16.1593L6.65931 15.7897C6.82142 15.7767 6.96192 15.7162 7.06783 15.6103L12.7788 9.89913L8.09908 5.21927ZM16.1613 6.51506L14.0512 8.62525L9.37062 3.9445L11.4795 1.83736L16.1613 6.51506Z" fill="white"/>
</svg>
