<svg viewBox="0 0 48 48" fill="none" xmlns="http://www.w3.org/2000/svg">
<path d="M48 24C48 37.2548 37.2548 48 24 48C10.7452 48 0 37.2548 0 24C0 10.7452 10.7452 0 24 0C37.2548 0 48 10.7452 48 24Z" fill="white"/>
<path d="M26.1913 15.5026C27.8212 15.5026 29.1425 14.1813 29.1425 12.5513C29.1425 10.9214 27.8212 9.6001 26.1913 9.6001C24.5613 9.6001 23.24 10.9214 23.24 12.5513C23.24 14.1813 24.5613 15.5026 26.1913 15.5026ZM39.5227 24.0001C39.5227 27.3161 36.8345 30.0043 33.5185 30.0043C30.2024 30.0043 27.5142 27.3161 27.5142 24.0001C27.5142 20.684 30.2024 17.9959 33.5185 17.9959C36.8345 17.9959 39.5227 20.684 39.5227 24.0001ZM29.1425 35.4489C29.1425 37.0788 27.8212 38.4001 26.1913 38.4001C24.5613 38.4001 23.24 37.0788 23.24 35.4489C23.24 33.8189 24.5613 32.4976 26.1913 32.4976C27.8212 32.4976 29.1425 33.8189 29.1425 35.4489ZM11.0789 15.7061C10.2139 17.9959 11.4351 20.5909 13.7248 21.4559C15.2513 22.0156 16.8796 21.7103 18.0499 20.7436C19.1185 19.9803 20.4923 19.7259 21.8153 20.2347C22.6803 20.54 23.3418 21.0997 23.7997 21.8121L23.8506 21.9139C24.0542 22.2192 24.3595 22.5245 24.7665 22.6262C25.6824 22.9824 26.751 22.4736 27.0563 21.5577C27.4125 20.6418 26.9036 19.5732 25.9877 19.2679C25.5807 19.1153 25.1736 19.1153 24.7665 19.2679C23.9524 19.5224 23.0365 19.5224 22.1715 19.2171C20.8994 18.7591 20.0344 17.7414 19.6782 16.5711L19.6273 16.4694C19.6273 16.4185 19.6273 16.3676 19.5764 16.3676V16.2658C19.2202 14.8411 18.2534 13.6199 16.7778 13.1111C14.4881 12.1952 11.893 13.3655 11.0789 15.7061ZM13.7248 26.5443C11.4351 27.4093 10.2139 30.0043 11.0789 32.2941C11.9439 34.6347 14.4881 35.805 16.7778 34.8891C18.2534 34.3803 19.2202 33.1591 19.5764 31.7344V31.6326C19.6273 31.6326 19.6273 31.5817 19.6273 31.5308L19.6782 31.4291C20.0344 30.2588 20.8994 29.2411 22.1715 28.7831C23.0365 28.4778 23.9524 28.4778 24.7665 28.7323C25.1736 28.8849 25.5807 28.8849 25.9877 28.7323C26.9036 28.427 27.4125 27.3584 27.0563 26.4425C26.751 25.5266 25.6824 25.0178 24.7665 25.3739C24.3595 25.4757 24.0542 25.781 23.8506 26.0863L23.7997 26.1881C23.3418 26.9004 22.6803 27.4602 21.8153 27.7655C20.4923 28.2743 19.1185 28.0199 18.0499 27.2566C16.8796 26.2899 15.2513 25.9845 13.7248 26.5443Z" fill="#266CD3"/>
</svg>
