<svg width="16" height="16" viewBox="0 0 16 16" fill="none" xmlns="http://www.w3.org/2000/svg">
<path d="M13.9094 1.79688H2.09063C1.76406 1.79688 1.5 2.06094 1.5 2.3875V2.97813C1.5 3.30469 1.76406 3.56875 2.09063 3.56875H13.9094C14.2359 3.56875 14.5 3.30469 14.5 2.97813V2.3875C14.5 2.06094 14.2359 1.79688 13.9094 1.79688ZM13.9094 7.11406H6.22656C5.9 7.11406 5.63594 7.37813 5.63594 7.70469V8.29531C5.63594 8.62188 5.9 8.88594 6.22656 8.88594H13.9078C14.2344 8.88594 14.4984 8.62188 14.4984 8.29531V7.70469C14.5 7.37813 14.2359 7.11406 13.9094 7.11406ZM13.9094 12.4312H2.09063C1.76406 12.4312 1.5 12.6953 1.5 13.0219V13.6125C1.5 13.9391 1.76406 14.2031 2.09063 14.2031H13.9094C14.2359 14.2031 14.5 13.9391 14.5 13.6125V13.0219C14.5 12.6953 14.2359 12.4312 13.9094 12.4312ZM4.15938 9.38594V6.61406C4.15938 6.27031 3.70312 6.09687 3.4375 6.34062L1.92031 7.72656C1.75469 7.87813 1.75469 8.12187 1.92031 8.27344L3.4375 9.65938C3.70312 9.90156 4.15938 9.72969 4.15938 9.38594Z" fill="white"/>
</svg>
