<svg xmlns="http://www.w3.org/2000/svg" width="81" height="80" viewBox="0 0 81 80" fill="none">
  <path fill-rule="evenodd" clip-rule="evenodd" d="M10.5 11.5C8.29086 11.5 6.5 13.2909 6.5 15.5V60C6.5 62.2091 8.29086 64 10.5 64H59.5C61.7091 64 63.5 62.2091 63.5 60V15.5C63.5 13.2909 61.7091 11.5 59.5 11.5H45H34.5H24.5H10.5ZM18.5 30C21.2614 30 23.5 27.7614 23.5 25C23.5 22.2386 21.2614 20 18.5 20C15.7386 20 13.5 22.2386 13.5 25C13.5 27.7614 15.7386 30 18.5 30Z" fill="#3490FF"/>
  <mask id="mask0_6279_11676" style="mask-type:alpha" maskUnits="userSpaceOnUse" x="6" y="30" width="58" height="34">
    <path d="M6.5 34C6.5 31.7909 8.29086 30 10.5 30H22.9915C23.9637 30 24.9027 30.3541 25.6328 30.9961L31.9222 36.5264C33.4051 37.8304 35.6178 37.8571 37.1317 36.5892L43.8855 30.9333C44.6055 30.3304 45.5146 30 46.4537 30H59.5C61.7091 30 63.5 31.7909 63.5 34V60C63.5 62.2091 61.7091 64 59.5 64H10.5C8.29086 64 6.5 62.2091 6.5 60V34Z" fill="#00BF91"/>
  </mask>
  <g mask="url(#mask0_6279_11676)">
    <path d="M9.67671 56.4428L4.81168 67.3042C4.66793 67.6251 4.91054 67.9856 5.26197 67.9732L107.851 64.3628C108.772 64.3304 109.162 63.1741 108.449 62.5898L72.768 33.367C72.4985 33.1463 72.1203 33.116 71.8191 33.291L56.0623 42.4448C50.4321 45.7156 43.6628 46.3932 37.4959 44.3033C26.4799 40.57 14.4315 45.8275 9.67671 56.4428Z" fill="#1B76E2"/>
    <path d="M6.06803 67.0165L0.924202 77.5327C0.753431 77.8819 1.06272 78.2734 1.4419 78.1881L63.7195 64.1756C64.1758 64.0729 64.5 63.6677 64.5 63.2V40.9864C64.5 40.4243 63.8279 40.1345 63.4193 40.5204L51.9522 51.3475C46.4215 56.5694 38.5058 58.4052 31.2412 56.1507C21.3189 53.0714 10.6329 57.6839 6.06803 67.0165Z" fill="#00E4AE"/>
  </g>
  <rect x="52.5" y="46" width="21.8948" height="21.8948" rx="10.9474" fill="#1B76E2"/>
  <rect x="57.5527" y="55.6948" width="12" height="2.4" rx="1.2" fill="white"/>
  <rect x="64.752" y="50.8948" width="12" height="2.4" rx="1.2" transform="rotate(90 64.752 50.8948)" fill="white"/>
</svg>