<svg width="80" height="80" viewBox="0 0 80 80" fill="none" xmlns="http://www.w3.org/2000/svg">
<g clip-path="url(#clip0_6210_9521)">
<path d="M73.1486 41.7302H65.4473C63.4048 41.7302 61.4459 42.5416 60.0016 43.9859C58.5574 45.4301 57.746 47.389 57.746 49.4315C57.746 51.474 58.5574 53.4329 60.0016 54.8771C61.4459 56.3214 63.4048 57.1328 65.4473 57.1328H73.1486V64.8341C73.1486 65.8554 72.7429 66.8348 72.0208 67.5569C71.2986 68.2791 70.3192 68.6847 69.2979 68.6847H25.0992C24.0779 68.6847 23.0985 68.2791 22.3764 67.5569C21.6542 66.8348 21.2485 65.8554 21.2485 64.8341V32.9949C21.2485 32.4893 21.3481 31.9885 21.5416 31.5214C21.7352 31.0542 22.0188 30.6297 22.3764 30.2721C22.7339 29.9145 23.1584 29.6309 23.6256 29.4374C24.0928 29.2439 24.5935 29.1443 25.0992 29.1443H69.2979C69.8036 29.1443 70.3043 29.2439 70.7715 29.4374C71.2387 29.6309 71.6632 29.9145 72.0208 30.2721C72.3783 30.6297 72.662 31.0542 72.8555 31.5214C73.049 31.9885 73.1486 32.4893 73.1486 32.9949V41.7302Z" fill="#3490FF"/>
<path d="M73.1487 45.5808H65.4474C64.9417 45.5807 64.4409 45.6803 63.9737 45.8738C63.5064 46.0672 63.0819 46.3509 62.7242 46.7084C62.3666 47.066 62.0829 47.4905 61.8894 47.9577C61.6958 48.425 61.5962 48.9257 61.5962 49.4315C61.5962 49.9372 61.6958 50.438 61.8894 50.9052C62.0829 51.3724 62.3666 51.7969 62.7242 52.1545C63.0819 52.5121 63.5064 52.7957 63.9737 52.9892C64.4409 53.1826 64.9417 53.2822 65.4474 53.2821H73.1487C73.6545 53.2822 74.1552 53.1826 74.6225 52.9892C75.0897 52.7957 75.5143 52.5121 75.8719 52.1545C76.2296 51.7969 76.5132 51.3724 76.7068 50.9052C76.9003 50.438 77 49.9372 77 49.4315C77 48.9257 76.9003 48.425 76.7068 47.9577C76.5132 47.4905 76.2296 47.066 75.8719 46.7084C75.5143 46.3509 75.0897 46.0672 74.6225 45.8738C74.1552 45.6803 73.6545 45.5807 73.1487 45.5808Z" fill="#1B76E2"/>
<path d="M59.6712 25.2936V16.8511C59.6713 16.2096 59.5111 15.5782 59.2051 15.0143C58.8992 14.4504 58.4572 13.9719 57.9193 13.6222C57.3814 13.2725 56.7647 13.0628 56.1251 13.0121C55.4856 12.9613 54.8435 13.0712 54.2572 13.3316L27.0244 25.2936H59.6712Z" fill="#1B76E2"/>
<path d="M3.29225 55.826C8.74388 68.2432 20.443 69.7515 26.2729 68.6284C20.587 66.8275 18.3511 60.3585 14.7278 56.9837C11.8291 54.2839 5.99438 54.7018 3.29225 55.826Z" fill="#26B7AD"/>
<path d="M14.7538 43.4695C11.618 56.4794 19.0693 64.689 25.1961 68.647C25.971 69.1476 26.9444 68.1469 26.6638 67.2681C24.971 61.9668 26.7751 55.621 26.0757 50.784C25.461 46.5326 19.5433 43.8289 15.9296 42.7753C15.412 42.6244 14.8801 42.9454 14.7538 43.4695Z" fill="#00E4AE"/>
</g>
<defs>
<clipPath id="clip0_6210_9521">
<rect width="80" height="80" fill="white"/>
</clipPath>
</defs>
</svg>
