<svg width="81" height="80" viewBox="0 0 81 80" fill="none" xmlns="http://www.w3.org/2000/svg">
<rect x="12.5" y="15.5" width="56" height="13.0919" rx="2" fill="#3490FF"/>
<rect x="12.5" y="33.6272" width="56" height="13.0919" rx="2" fill="#1B76E2"/>
<rect x="12.5" y="51.7544" width="56" height="13.0919" rx="2" fill="#00E4AE"/>
<mask id="mask0_6279_11696" style="mask-type:alpha" maskUnits="userSpaceOnUse" x="12" y="15" width="57" height="50">
<path d="M12.5 17.5377C12.5 16.4123 13.3599 15.5 14.4206 15.5H66.5795C67.6401 15.5 68.5 16.4123 68.5 17.5377V26.5541C68.5 27.6795 67.6401 28.5919 66.5795 28.5919H14.4205C13.3599 28.5919 12.5 27.6795 12.5 26.5541V17.5377Z" fill="#00BF91"/>
<path d="M12.5 35.6649C12.5 34.5395 13.3599 33.6272 14.4206 33.6272H66.5795C67.6401 33.6272 68.5 34.5395 68.5 35.6649V44.6813C68.5 45.8067 67.6401 46.7191 66.5795 46.7191H14.4205C13.3599 46.7191 12.5 45.8067 12.5 44.6813V35.6649Z" fill="#00A6ED"/>
<path d="M12.5 53.7921C12.5 52.6667 13.3599 51.7544 14.4206 51.7544H66.5795C67.6401 51.7544 68.5 52.6667 68.5 53.7921V62.8085C68.5 63.9339 67.6401 64.8462 66.5795 64.8462H14.4205C13.3599 64.8462 12.5 63.9339 12.5 62.8085V53.7921Z" fill="#A7F55D"/>
</mask>
<g mask="url(#mask0_6279_11696)">
<path d="M53.2966 28.7103C56.1559 28.1036 58.4574 25.9868 59.3008 23.1881C62.0636 14.0198 75.6741 16.5547 74.951 26.1029L72.5593 57.6825C72.1546 63.0257 67.9329 67.2859 62.5936 67.7391L41.5523 69.5252C30.5486 70.4592 28.5498 54.416 39.2177 51.5612C44.0222 50.2755 46.6875 45.0551 44.8248 40.4436C42.8965 35.6698 45.7465 30.3125 50.7829 29.2437L53.2966 28.7103Z" fill="url(#paint0_linear_6279_11696)" fill-opacity="0.5"/>
</g>
<rect x="47.5" y="44.5" width="33" height="13.2453" rx="6.62264" fill="white"/>
<path d="M54.72 54.6926C53.9 54.6926 53.2267 54.4993 52.7 54.1126C52.1733 53.7193 51.89 53.1593 51.85 52.4326H53.94C53.96 52.6793 54.0333 52.8593 54.16 52.9726C54.2867 53.086 54.45 53.1426 54.65 53.1426C54.83 53.1426 54.9767 53.0993 55.09 53.0126C55.21 52.9193 55.27 52.7926 55.27 52.6326C55.27 52.426 55.1733 52.266 54.98 52.1526C54.7867 52.0393 54.4733 51.9126 54.04 51.7726C53.58 51.6193 53.2067 51.4726 52.92 51.3326C52.64 51.186 52.3933 50.976 52.18 50.7026C51.9733 50.4226 51.87 50.0593 51.87 49.6126C51.87 49.1593 51.9833 48.7726 52.21 48.4526C52.4367 48.126 52.75 47.8793 53.15 47.7126C53.55 47.546 54.0033 47.4626 54.51 47.4626C55.33 47.4626 55.9833 47.656 56.47 48.0426C56.9633 48.4226 57.2267 48.9593 57.26 49.6526H55.13C55.1233 49.4393 55.0567 49.2793 54.93 49.1726C54.81 49.066 54.6533 49.0126 54.46 49.0126C54.3133 49.0126 54.1933 49.056 54.1 49.1426C54.0067 49.2293 53.96 49.3526 53.96 49.5126C53.96 49.646 54.01 49.7626 54.11 49.8626C54.2167 49.956 54.3467 50.0393 54.5 50.1126C54.6533 50.1793 54.88 50.266 55.18 50.3726C55.6267 50.526 55.9933 50.6793 56.28 50.8326C56.5733 50.9793 56.8233 51.1893 57.03 51.4626C57.2433 51.7293 57.35 52.0693 57.35 52.4826C57.35 52.9026 57.2433 53.2793 57.03 53.6126C56.8233 53.946 56.52 54.2093 56.12 54.4026C55.7267 54.596 55.26 54.6926 54.72 54.6926ZM62.7212 53.4726H60.2212L59.8412 54.6226H57.7812L60.3512 47.5726H62.6112L65.1712 54.6226H63.1012L62.7212 53.4726ZM62.2312 51.9726L61.4712 49.6926L60.7212 51.9726H62.2312ZM67.77 53.1226H69.96V54.6226H65.81V47.5726H67.77V53.1226ZM72.6821 49.1426V50.2926H74.9321V51.7826H72.6821V53.0526H75.2321V54.6226H70.7221V47.5726H75.2321V49.1426H72.6821Z" fill="#3490FF"/>
<defs>
<linearGradient id="paint0_linear_6279_11696" x1="43.289" y1="3.78302" x2="43.289" y2="66.9529" gradientUnits="userSpaceOnUse">
<stop stop-color="white"/>
<stop offset="0.515625" stop-color="white" stop-opacity="0.44"/>
<stop offset="1" stop-color="white"/>
</linearGradient>
</defs>
</svg>
