<svg xmlns="http://www.w3.org/2000/svg" width="81" height="80" viewBox="0 0 81 80" fill="none">
  <path d="M25.5352 42.193C28.5974 42.193 38.6266 37.3684 41.3246 35.1754L42.6404 36.0526C40.0088 38.2456 33.4653 41.8128 29.9211 42.6316L25.5352 42.193Z" fill="#26B7AD"/>
  <path d="M40.4473 36.9296V36.93C50.0965 38.6844 61.8001 39.5616 64.5702 26.4037C66.1399 18.9476 67.6403 17.193 68.9561 15C62.231 15.731 52.7281 14.1227 45.7105 21.1404C40.4477 26.4032 40.4473 35.1739 40.4473 36.9296Z" fill="#00E4AE"/>
  <path d="M40.4473 36.9298C44.687 37.6608 52.563 35.4209 57.1139 27.7193C62.586 18.4589 64.0183 19.2977 68.7772 15.5034C69.0104 15.2277 69.2246 15.068 69.3946 15C69.1826 15.1767 68.977 15.3442 68.7772 15.5034C68.0077 16.4133 67.0323 18.5863 66.7631 22.8947C66.3245 29.9123 61.9385 37.807 55.7981 38.6842C50.8859 39.386 43.5174 37.807 40.4473 36.9298Z" fill="#26B7AD"/>
  <rect x="11.5" y="15.8773" width="22.807" height="22.807" rx="2" fill="#1B76E2"/>
  <rect x="11.5" y="42.1929" width="22.807" height="22.807" rx="2" fill="#3490FF"/>
  <rect x="39.5703" y="42.1929" width="22.807" height="22.807" rx="2" fill="#3490FF"/>
</svg>