<svg viewBox="0 0 40 40" xmlns="http://www.w3.org/2000/svg">
<path d="M9.65269 7.90848L11.2554 9.51126C11.7371 9.99288 11.7371 10.7738 11.2554 11.2554C11.2554 11.2554 11.2554 11.2554 11.2554 11.2554M9.65269 7.90848L11.1847 11.1847L11.2554 11.2554M9.65269 7.90848C9.17103 7.42683 8.39014 7.42683 7.90848 7.90848C7.42683 8.39014 7.42683 9.17103 7.90848 9.65269L9.51126 11.2554C9.99288 11.7371 10.7738 11.7371 11.2554 11.2554M9.65269 7.90848L11.2554 11.2554M7.90848 30.3473L7.97919 30.418L7.90848 30.3473C7.42683 30.829 7.42683 31.6099 7.90848 32.0915C8.39014 32.5732 9.17103 32.5732 9.65269 32.0915L11.2554 30.4887C11.7371 30.0071 11.7371 29.2262 11.2554 28.7446C10.7738 28.2629 9.99288 28.2629 9.51126 28.7446L7.90848 30.3473ZM30.3473 7.90848L30.4039 7.96505L30.3473 7.90848L28.7446 9.51126C28.2629 9.99288 28.2629 10.7738 28.7446 11.2554C29.2262 11.7371 30.0071 11.7371 30.4887 11.2554L32.0915 9.65269C32.5732 9.17103 32.5732 8.39014 32.0915 7.90848C31.6099 7.42683 30.829 7.42683 30.3473 7.90848ZM30.3 20C30.3 14.3115 25.6885 9.7 20 9.7C14.3115 9.7 9.7 14.3115 9.7 20C9.7 25.6885 14.3115 30.3 20 30.3C25.6885 30.3 30.3 25.6885 30.3 20ZM12.1667 20C12.1667 15.6738 15.6738 12.1667 20 12.1667C24.3262 12.1667 27.8333 15.6738 27.8333 20C27.8333 24.3262 24.3262 27.8333 20 27.8333C15.6738 27.8333 12.1667 24.3262 12.1667 20ZM21.2333 33.6C21.2333 32.9189 20.6811 32.3667 20 32.3667C19.3189 32.3667 18.7667 32.9189 18.7667 33.6V35.8667C18.7667 36.5478 19.3189 37.1 20 37.1C20.6811 37.1 21.2333 36.5478 21.2333 35.8667V33.6ZM32.0915 30.3473L30.4887 28.7446C30.0071 28.2629 29.2262 28.2629 28.7446 28.7446C28.2629 29.2262 28.2629 30.0071 28.7446 30.4887L30.3473 32.0915C30.829 32.5732 31.6099 32.5732 32.0915 32.0915C32.5732 31.6099 32.5732 30.829 32.0915 30.3473ZM7.63333 20C7.63333 19.3189 7.08115 18.7667 6.4 18.7667H4.13333C3.45219 18.7667 2.9 19.3189 2.9 20C2.9 20.6811 3.45219 21.2333 4.13333 21.2333H6.4C7.08115 21.2333 7.63333 20.6811 7.63333 20ZM37.1 20C37.1 19.3189 36.5478 18.7667 35.8667 18.7667H33.6C32.9189 18.7667 32.3667 19.3189 32.3667 20C32.3667 20.6811 32.9189 21.2333 33.6 21.2333H35.8667C36.5478 21.2333 37.1 20.6811 37.1 20ZM21.2333 4.13333C21.2333 3.45219 20.6811 2.9 20 2.9C19.3189 2.9 18.7667 3.45219 18.7667 4.13333V6.4C18.7667 7.08115 19.3189 7.63333 20 7.63333C20.6811 7.63333 21.2333 7.08115 21.2333 6.4V4.13333Z" fill="#051D17" stroke="#051D17" stroke-width="0.2"/>
</svg>
