<svg viewBox="0 0 24 24" xmlns="http://www.w3.org/2000/svg">
<path d="M12.67 12.9H3.1V11.1H12.67H12.9108L12.7408 10.9294L10.2313 8.41014L11.5 7.14142L16.3586 12L11.5 16.8586L10.2313 15.5899L12.7408 13.0706L12.9108 12.9H12.67ZM5 4.9H4.9V5V8.9H3.1V5C3.1 4.49609 3.30018 4.01282 3.6565 3.6565C4.01282 3.30018 4.49609 3.1 5 3.1H19C20.0448 3.1 20.9 3.95523 20.9 5V19C20.9 20.0448 20.0448 20.9 19 20.9H5C4.49609 20.9 4.01282 20.6998 3.6565 20.3435C3.30018 19.9872 3.1 19.5039 3.1 19V15.1H4.9V19V19.1H5H19H19.1V19V5V4.9H19H5Z"  stroke="#22293D" stroke-width="0.2"/>
</svg>
