<svg width="32" height="32" viewBox="0 0 32 32" fill="none" xmlns="http://www.w3.org/2000/svg">
<path d="M12.6585 16C12.6585 15.4477 13.1062 15 13.6585 15H26.9963C27.5486 15 27.9963 15.4477 27.9963 16C27.9963 16.5523 27.5486 17 26.9963 17H13.6585C13.1062 17 12.6585 16.5523 12.6585 16Z" fill="#051D17"/>
<path d="M21.9251 10.9288C22.3156 10.5383 22.9488 10.5383 23.3393 10.9288L27.7033 15.2929C28.0939 15.6834 28.0939 16.3166 27.7033 16.7071C27.3128 17.0976 26.6796 17.0976 26.2891 16.7071L21.9251 12.3431C21.5345 11.9525 21.5345 11.3194 21.9251 10.9288Z" fill="#051D17"/>
<path d="M27.7035 15.2929C28.0941 15.6834 28.0941 16.3166 27.7035 16.7071L23.3395 21.0712C22.949 21.4617 22.3158 21.4617 21.9253 21.0712C21.5347 20.6806 21.5347 20.0475 21.9253 19.657L26.2893 15.2929C26.6798 14.9024 27.313 14.9024 27.7035 15.2929Z" fill="#051D17"/>
<path d="M5 8.66667C5 6.64162 6.64162 5 8.66667 5H18C18.5523 5 19 5.44772 19 6C19 6.55228 18.5523 7 18 7H8.66667C7.74619 7 7 7.74619 7 8.66667V23.3333C7 24.2538 7.74619 25 8.66667 25H18C18.5523 25 19 25.4477 19 26C19 26.5523 18.5523 27 18 27H8.66667C6.64162 27 5 25.3584 5 23.3333V8.66667Z" fill="#051D17"/>
</svg>
