<svg viewBox="0 0 24 24" xmlns="http://www.w3.org/2000/svg">
<path d="M9.3 12.9H4.8C3.81 12.9 3 13.71 3 14.7V19.2C3 20.19 3.81 21 4.8 21H9.3C10.29 21 11.1 20.19 11.1 19.2V14.7C11.1 13.71 10.29 12.9 9.3 12.9ZM9.3 19.2H4.8V14.7H9.3V19.2ZM19.2 12.9H14.7C13.71 12.9 12.9 13.71 12.9 14.7V19.2C12.9 20.19 13.71 21 14.7 21H19.2C20.19 21 21 20.19 21 19.2V14.7C21 13.71 20.19 12.9 19.2 12.9ZM19.2 19.2H14.7V14.7H19.2V19.2ZM9.3 3H4.8C3.81 3 3 3.81 3 4.8V9.3C3 10.29 3.81 11.1 4.8 11.1H9.3C10.29 11.1 11.1 10.29 11.1 9.3V4.8C11.1 3.81 10.29 3 9.3 3ZM9.3 9.3H4.8V4.8H9.3V9.3ZM19.2 3H14.7C13.71 3 12.9 3.81 12.9 4.8V9.3C12.9 10.29 13.71 11.1 14.7 11.1H19.2C20.19 11.1 21 10.29 21 9.3V4.8C21 3.81 20.19 3 19.2 3ZM19.2 9.3H14.7V4.8H19.2V9.3Z"/>
</svg>
