<svg viewBox="0 0 24 24" xmlns="http://www.w3.org/2000/svg">
<path d="M7.5932 19.9988C7.25718 19.9988 6.92418 19.8939 6.63526 19.6826C6.09776 19.2933 5.85524 18.6493 5.99893 18.0024L6.98807 13.5684C6.99261 13.541 6.98349 13.5121 6.96068 13.4924L3.55618 10.4862C3.06042 10.0483 2.87796 9.38383 3.08248 8.75434C3.28699 8.12328 3.82455 7.69296 4.48442 7.63065L9.00584 7.20104C9.03623 7.19798 9.05982 7.18054 9.07119 7.15313L10.8769 2.98527C11.1407 2.37707 11.7162 2 12.3784 2H12.38C13.0429 2 13.6176 2.37856 13.8807 2.98607L15.6872 7.15313C15.8575 7.54693 15.6765 8.00615 15.2819 8.1765C14.8873 8.34828 14.4281 8.16582 14.2578 7.77201L12.4514 3.60414C12.4438 3.58592 12.4309 3.557 12.3784 3.557C12.3267 3.557 12.313 3.58595 12.307 3.60489L10.5005 7.77203C10.2633 8.3194 9.74634 8.69426 9.15332 8.75129L4.63116 9.18081C4.61215 9.18236 4.57949 9.18541 4.56276 9.23481C4.54753 9.285 4.5719 9.30624 4.5871 9.31843L7.99309 12.3253C8.43865 12.7192 8.63556 13.3259 8.5071 13.9075L7.51716 18.3414C7.51411 18.3604 7.50654 18.3924 7.54909 18.4227C7.59169 18.4539 7.61905 18.4372 7.63582 18.4266L11.5467 16.1169C12.0621 15.8143 12.6993 15.8143 13.2117 16.1169L17.1225 18.4266C17.1393 18.4372 17.1659 18.4539 17.2093 18.4227C17.2518 18.3924 17.2442 18.3604 17.2412 18.3414L16.252 13.9082C16.122 13.3243 16.3197 12.7176 16.7668 12.3246L20.1712 9.31996C20.1865 9.30622 20.2108 9.28497 20.1956 9.23478C20.1781 9.18539 20.1462 9.18236 20.1272 9.18079L17.9634 8.9748C17.5362 8.93521 17.2222 8.55358 17.2632 8.12631C17.3035 7.69903 17.6768 7.38578 18.1124 7.4253L20.274 7.63062C20.9346 7.69292 21.4706 8.12326 21.6759 8.75432C21.8804 9.38531 21.6987 10.0483 21.2007 10.4862L17.7961 13.4924C17.7749 13.5121 17.7642 13.541 17.7718 13.5699L18.7594 18.0023C18.9031 18.6493 18.6606 19.2932 18.1231 19.6826C17.5871 20.0733 16.9006 20.1052 16.3303 19.7677L12.4195 17.4572C12.3952 17.4427 12.3633 17.4427 12.3389 17.4572L8.42803 19.7677C8.16493 19.922 7.87909 19.9988 7.5932 19.9988Z"/>
</svg>
