<svg viewBox="0 0 40 40" xmlns="http://www.w3.org/2000/svg">
<path d="M19.9585 34C20.2768 34 20.608 33.9873 20.9391 33.9618C27.8922 33.4909 33.4955 27.891 33.9667 20.9419C34.4761 13.4966 29.0893 6.94208 21.7031 6.01299C21.3818 5.97124 21.0554 6.03069 20.7695 6.18308C20.4836 6.33546 20.2523 6.57318 20.1079 6.86312C19.9636 7.15307 19.9133 7.48079 19.9641 7.80064C20.015 8.12049 20.1643 8.41653 20.3915 8.64752C21.2656 9.54477 21.9257 10.6277 22.3226 11.8155C22.7195 13.0033 22.8429 14.2653 22.6837 15.5074C22.2253 19.1983 19.2071 22.2147 15.5141 22.6728C12.9671 22.991 10.4711 22.151 8.65005 20.3819C8.16613 19.9238 7.45299 19.8092 6.86719 20.102C6.26866 20.3947 5.92482 21.0438 6.01397 21.6928C6.87993 28.7691 12.9162 34 19.9585 34ZM23.9062 9.14387C26.2501 10.0057 28.2509 11.6043 29.608 13.6996C30.9652 15.7949 31.6054 18.2738 31.4325 20.7638C31.0377 26.4528 26.4532 31.0346 20.7608 31.4291C15.5523 31.7855 10.8532 28.6164 9.13397 23.9074C11.1678 25.0391 13.5109 25.4896 15.8197 25.1928C20.6462 24.5819 24.5939 20.6492 25.2052 15.8129C25.4981 13.4711 25.0269 11.1548 23.9062 9.14387Z" fill="white"/>
</svg>
