<svg viewBox="0 0 96 96" xmlns="http://www.w3.org/2000/svg">
<circle fill="#00BF91" stroke="#373D3D"/>
<path d="M72.2075 42.592C72.2075 29.1076 61.2757 18.1758 47.7912 18.1758C34.3068 18.1758 23.375 29.1076 23.375 42.592C23.375 53.077 29.9848 62.0147 39.2636 65.4744C36.4347 67.8873 34.6359 71.4714 34.6359 75.4811C34.6359 76.102 34.8826 76.6975 35.3217 77.1366C35.7607 77.5757 36.3562 77.8223 36.9772 77.8223C37.5981 77.8223 38.1937 77.5757 38.6327 77.1366C39.0718 76.6975 39.3185 76.102 39.3185 75.4811C39.3185 70.8092 43.1194 67.0083 47.7912 67.0083C52.4631 67.0083 56.264 70.8092 56.264 75.4811C56.264 76.102 56.5107 76.6975 56.9498 77.1366C57.3888 77.5757 57.9844 77.8223 58.6053 77.8223C59.2262 77.8223 59.8218 77.5757 60.2608 77.1366C60.6999 76.6975 60.9466 76.102 60.9466 75.4811C60.9466 71.4714 59.1478 67.8873 56.3189 65.4744C65.5977 62.0147 72.2075 53.077 72.2075 42.592ZM47.7912 62.3257C36.9096 62.3257 28.0576 53.4737 28.0576 42.592C28.0576 31.7111 36.9096 22.8583 47.7912 22.8583C58.6729 22.8583 67.5249 31.7111 67.5249 42.592C67.5249 53.4737 58.6729 62.3257 47.7912 62.3257Z" fill="#1A1C1C"/>
<path d="M54.8527 47.7559C53.9028 47.7559 53.0901 48.3238 52.7228 49.1352C52.7255 49.1265 52.7269 49.1158 52.7295 49.1078C51.7656 50.8256 49.8732 52.0765 47.7673 52.0765C46.7602 52.0756 45.7717 51.8048 44.9048 51.2922C44.0378 50.7796 43.3241 50.044 42.8379 49.162C42.8486 49.1874 42.852 49.2162 42.8627 49.2416C42.6796 48.8269 42.38 48.4743 42.0004 48.2266C41.6208 47.9789 41.1774 47.8468 40.7241 47.8462C40.1031 47.8462 39.5076 48.0928 39.0686 48.5319C38.6295 48.971 38.3828 49.5665 38.3828 50.1875C38.3828 50.6838 38.5393 51.1434 38.8036 51.522C40.5749 54.6453 43.9196 56.7591 47.7673 56.7591C51.6579 56.7591 55.0313 54.5958 56.7873 51.4136C57.0265 51.0618 57.1654 50.6514 57.1889 50.2266C57.2124 49.8018 57.1198 49.3786 56.9208 49.0025C56.7219 48.6264 56.4243 48.3116 56.0599 48.092C55.6955 47.8723 55.2782 47.7561 54.8527 47.7559Z" fill="#1A1C1C"/>
</svg>
