<svg width="32" height="32" viewBox="0 0 32 32" fill="none" xmlns="http://www.w3.org/2000/svg">
<path d="M16 4C22.6273 4 28 9.37266 28 16C28 22.6273 22.6273 28 16 28C9.37266 28 4 22.6273 4 16C4 9.37266 9.37266 4 16 4ZM16 6C10.4773 6 6 10.4773 6 16C6 18.8513 7.19334 21.4233 9.10666 23.2453L12.498 19.202C13.0688 19.5986 13.703 19.895 14.3733 20.0787L10.688 24.474C12.2791 25.4739 14.1208 26.003 16 26C17.7706 26.0029 19.51 25.5334 21.0387 24.64L17.2833 20.162C17.9742 20.0154 18.6344 19.7501 19.2347 19.378L22.6594 23.46C23.7114 22.523 24.5531 21.3737 25.1289 20.0879C25.7047 18.8021 26.0016 17.4089 26 16C26 10.4773 21.5227 6 16 6ZM16 9.33334C17.0623 9.33291 18.0949 9.68381 18.937 10.3314C19.779 10.9789 20.3833 11.8868 20.6557 12.9136C20.928 13.9403 20.8532 15.0283 20.4428 16.0081C20.0324 16.9879 19.3095 17.8045 18.3867 18.3307L18.3667 18.342L18.3447 18.3547C18.2938 18.3829 18.2425 18.4103 18.1907 18.4367L18.3667 18.342C17.6446 18.7497 16.8292 18.9636 16 18.9627C15.3779 18.9636 14.7616 18.8436 14.1853 18.6093L14.1787 18.6067C14.1193 18.5823 14.0604 18.5567 14.002 18.53L14.186 18.61C13.9595 18.5178 13.7404 18.4083 13.5307 18.2827C12.6254 17.7425 11.9225 16.9202 11.5297 15.942C11.1369 14.9637 11.076 13.8836 11.3564 12.8674C11.6368 11.8512 12.243 10.9551 13.0818 10.3167C13.9207 9.67831 14.9458 9.33284 16 9.33334ZM16 11.3333C15.6293 11.3316 15.2618 11.4031 14.9188 11.5438C14.5758 11.6844 14.2639 11.8915 14.0011 12.153C13.7384 12.4146 13.5299 12.7254 13.3876 13.0678C13.2453 13.4102 13.172 13.7773 13.172 14.148C13.172 14.5187 13.2453 14.8858 13.3876 15.2282C13.5299 15.5706 13.7384 15.8814 14.0011 16.143C14.2639 16.4045 14.5758 16.6116 14.9188 16.7522C15.2618 16.8929 15.6293 16.9644 16 16.9627C16.7442 16.9591 17.4567 16.6611 17.9817 16.1336C18.5067 15.6061 18.8014 14.8922 18.8014 14.148C18.8014 13.4038 18.5067 12.6899 17.9817 12.1624C17.4567 11.6349 16.7442 11.3369 16 11.3333Z" fill="white"/>
</svg>
