<svg xmlns="http://www.w3.org/2000/svg" width="20" height="20" viewBox="0 0 20 20" fill="none">
  <path fill-rule="evenodd" clip-rule="evenodd" d="M9.99984 16.6665C13.6817 16.6665 16.6665 13.6817 16.6665 9.99984C16.6665 6.31794 13.6817 3.33317 9.99984 3.33317C6.31794 3.33317 3.33317 6.31794 3.33317 9.99984C3.33317 13.6817 6.31794 16.6665 9.99984 16.6665ZM9.99984 18.3332C14.6022 18.3332 18.3332 14.6022 18.3332 9.99984C18.3332 5.39746 14.6022 1.6665 9.99984 1.6665C5.39746 1.6665 1.6665 5.39746 1.6665 9.99984C1.6665 14.6022 5.39746 18.3332 9.99984 18.3332ZM10.8331 14.1667C10.8331 14.6269 10.46 15 9.99976 15C9.53952 15 9.16642 14.6269 9.16642 14.1667C9.16642 13.7064 9.53952 13.3333 9.99976 13.3333C10.46 13.3333 10.8331 13.7064 10.8331 14.1667ZM13.2195 9.19607C13.4094 8.48729 13.3602 7.73565 13.0794 7.05773C12.7985 6.3798 12.3019 5.81348 11.6664 5.44659C11.0309 5.0797 10.2922 4.93274 9.56467 5.02852C8.83716 5.1243 8.16159 5.45745 7.64273 5.97632C7.12387 6.49518 6.79072 7.17075 6.69494 7.89825C6.63487 8.35455 6.95607 8.77315 7.41237 8.83323C7.86867 8.8933 8.28727 8.57209 8.34735 8.11579C8.39524 7.75204 8.56181 7.41426 8.82124 7.15483C9.08067 6.8954 9.41846 6.72882 9.78221 6.68093C10.146 6.63304 10.5154 6.70652 10.8331 6.88996C11.1508 7.07341 11.3992 7.35657 11.5396 7.69553C11.68 8.0345 11.7046 8.41031 11.6096 8.7647C11.5147 9.11909 11.3054 9.43225 11.0144 9.65559C10.9259 9.7235 10.8326 9.77935 10.7087 9.84797L10.6476 9.88152L10.6475 9.88154C10.5392 9.94079 10.3959 10.0192 10.2604 10.1085C9.8821 10.358 9.53732 10.7037 9.24833 11.3064C9.04935 11.7214 9.22447 12.2191 9.63947 12.4181C10.0545 12.6171 10.5522 12.442 10.7512 12.0269C10.9059 11.7043 11.0448 11.5877 11.178 11.4999C11.2512 11.4516 11.3216 11.4129 11.4252 11.3561L11.4252 11.3561L11.5161 11.306C11.6602 11.2262 11.8403 11.1226 12.029 10.9778C12.6111 10.5312 13.0296 9.90485 13.2195 9.19607Z" fill="#5C6764"/>
</svg>
