<svg xmlns="http://www.w3.org/2000/svg" width="20" height="20" viewBox="0 0 20 20" fill="none">
  <path d="M9.01713 5.47631C9.48537 5.28236 10.0006 5.23161 10.4977 5.33049C10.9948 5.42936 11.4513 5.67342 11.8097 6.03179C12.1681 6.39016 12.4121 6.84676 12.511 7.34383C12.6099 7.84091 12.5592 8.35614 12.3652 8.82438C12.2515 9.09885 12.0606 9.34641 11.9088 9.52054C11.7493 9.70348 11.5877 9.85616 11.4856 9.94413C11.3173 10.0891 11.0553 10.3334 10.9854 10.4212C10.8974 10.5318 10.778 10.7184 10.7236 10.8879C10.6898 10.9934 10.691 11.0686 10.694 11.2589C10.6945 11.2899 10.6951 11.324 10.6955 11.3617C10.6965 11.448 10.6265 11.518 10.5402 11.518H9.44182C9.37535 11.518 9.32096 11.4641 9.31922 11.3977C9.31316 11.1675 9.30383 10.8125 9.41433 10.468C9.53827 10.0816 9.76482 9.74674 9.90981 9.56466C10.0729 9.35979 10.4344 9.03481 10.5881 8.90241C10.647 8.85166 10.761 8.74466 10.8724 8.61693C10.9914 8.4804 11.0666 8.36632 11.0949 8.29819C11.1847 8.0812 11.2083 7.84243 11.1624 7.61208C11.1166 7.38173 11.0035 7.17014 10.8375 7.00406C10.6714 6.83799 10.4598 6.72489 10.2294 6.67907C9.99908 6.63325 9.76031 6.65677 9.54332 6.74664C9.32634 6.83652 9.14087 6.98873 9.01039 7.18401C8.90896 7.33581 8.8443 7.50833 8.82052 7.68795C8.8092 7.7735 8.7403 7.84375 8.65401 7.84375L7.59151 7.84375C7.50522 7.84375 7.43476 7.77372 7.44002 7.68759C7.46761 7.23567 7.61455 6.7981 7.86712 6.4201C8.14869 5.9987 8.5489 5.67026 9.01713 5.47631Z" fill="#808080"/>
  <path d="M11.1853 13.5938C11.1853 14.2151 10.6816 14.7188 10.0603 14.7188C9.43894 14.7188 8.93526 14.2151 8.93526 13.5938C8.93526 12.9724 9.43894 12.4688 10.0603 12.4688C10.6816 12.4688 11.1853 12.9724 11.1853 13.5938Z" fill="#808080"/>
  <path fill-rule="evenodd" clip-rule="evenodd" d="M10 1.1875C5.13299 1.1875 1.1875 5.13299 1.1875 10C1.1875 14.867 5.13299 18.8125 10 18.8125C14.867 18.8125 18.8125 14.867 18.8125 10C18.8125 5.13299 14.867 1.1875 10 1.1875ZM2.5625 10C2.5625 5.89238 5.89238 2.5625 10 2.5625C14.1076 2.5625 17.4375 5.89238 17.4375 10C17.4375 14.1076 14.1076 17.4375 10 17.4375C5.89238 17.4375 2.5625 14.1076 2.5625 10Z" fill="#808080"/>
</svg>