<svg viewBox="0 0 24 24" xmlns="http://www.w3.org/2000/svg">
<path fill-rule="evenodd" clip-rule="evenodd" d="M12 20.0823L16.4984 17.5418C16.6832 17.4374 16.9019 17.4107 17.1064 17.4675C17.3109 17.5244 17.4845 17.6602 17.5889 17.845C17.6933 18.0298 17.72 18.2485 17.6631 18.453C17.6062 18.6575 17.4705 18.8311 17.2856 18.9355L12.3936 21.6975C12.2735 21.7654 12.1379 21.801 12 21.801C11.8621 21.801 11.7264 21.7653 11.6063 21.6975L3.60635 17.1805C3.4831 17.1108 3.38055 17.0097 3.30916 16.8874C3.23776 16.7651 3.2001 16.6261 3.20001 16.4845V7.51654C3.19996 7.37481 3.23755 7.2356 3.30896 7.11317C3.38037 6.99074 3.48302 6.88947 3.60641 6.81974L11.6064 2.30274C11.7265 2.23488 11.8621 2.19922 12 2.19922C12.1379 2.19922 12.2736 2.23492 12.3937 2.30278L20.3936 6.81974C20.5169 6.88941 20.6195 6.99055 20.6909 7.11283C20.7623 7.2351 20.7999 7.37414 20.8 7.51574V16.4827C20.8 16.5877 20.7793 16.6918 20.7392 16.7888C20.699 16.8859 20.64 16.9741 20.5657 17.0484C20.4915 17.1227 20.4033 17.1817 20.3062 17.2219C20.2091 17.2621 20.1051 17.2828 20 17.2828C19.8949 17.2828 19.7909 17.2621 19.6938 17.2219C19.5968 17.1817 19.5086 17.1227 19.4343 17.0484C19.36 16.9741 19.3011 16.8859 19.2609 16.7888C19.2207 16.6918 19.2 16.5877 19.2 16.4826V7.98386L12 3.91895L4.80001 7.98386V16.0174L12 20.0823ZM8.20001 12.0006C8.20001 11.7885 8.2843 11.585 8.43433 11.4349C8.58436 11.2849 8.78784 11.2006 9.00001 11.2006C9.21219 11.2006 9.41567 11.2849 9.5657 11.4349C9.71573 11.585 9.80001 11.7885 9.80001 12.0006C9.80001 12.4357 9.92904 12.8611 10.1708 13.2229C10.4125 13.5847 10.7561 13.8666 11.1581 14.0332C11.5601 14.1997 12.0025 14.2432 12.4292 14.1584C12.856 14.0735 13.248 13.8639 13.5556 13.5563C13.8633 13.2486 14.0729 12.8566 14.1577 12.4298C14.2426 12.0031 14.1991 11.5607 14.0325 11.1587C13.866 10.7567 13.5841 10.4131 13.2223 10.1714C12.8605 9.92965 12.4351 9.80062 12 9.80062C11.7878 9.80062 11.5844 9.71634 11.4343 9.56631C11.2843 9.41628 11.2 9.2128 11.2 9.00062C11.2 8.78845 11.2843 8.58497 11.4343 8.43494C11.5844 8.28491 11.7878 8.20062 12 8.20062C12.7516 8.20062 13.4863 8.42349 14.1112 8.84104C14.7361 9.25859 15.2231 9.85207 15.5108 10.5464C15.7984 11.2408 15.8736 12.0048 15.727 12.742C15.5804 13.4791 15.2185 14.1562 14.687 14.6876C14.1556 15.2191 13.4785 15.581 12.7414 15.7276C12.0042 15.8742 11.2402 15.799 10.5458 15.5114C9.85146 15.2238 9.25798 14.7367 8.84043 14.1118C8.42288 13.4869 8.20001 12.7522 8.20001 12.0006Z"/>
</svg>
