<svg viewBox="0 0 16 16" fill="none" xmlns="http://www.w3.org/2000/svg">
<circle cx="8" cy="8" r="7" />
<path d="M7.93531 5.83601C7.67383 5.83601 7.45257 5.74717 7.27154 5.56949C7.09051 5.39181 7 5.17465 7 4.918C7 4.66136 7.09051 4.4442 7.27154 4.26652C7.45257 4.08884 7.67383 4 7.93531 4C8.18674 4 8.39794 4.08884 8.56891 4.26652C8.74994 4.4442 8.84046 4.66136 8.84046 4.918C8.84046 5.17465 8.74994 5.39181 8.56891 5.56949C8.39794 5.74717 8.18674 5.83601 7.93531 5.83601ZM7.91269 7.15379C8.29177 7.15379 8.59909 7.4611 8.59909 7.84019V12.1136C8.59909 12.4927 8.29177 12.8 7.91269 12.8C7.5336 12.8 7.22629 12.4927 7.22629 12.1136V7.84019C7.22629 7.4611 7.5336 7.15379 7.91269 7.15379Z"/>
</svg>
