<svg viewBox="0 0 138 28" fill="none" xmlns="http://www.w3.org/2000/svg">
<path d="M135.778 0.00967407H121.507V4.5892H135.778V0.00967407Z" fill="white"/>
<path d="M130.864 25.7151V8.3942H126.411V25.7151H130.864Z" fill="white"/>
<path d="M135.778 4.57952C137.005 4.57952 138 3.55653 138 2.2946C138 1.03267 137.005 0.00967407 135.778 0.00967407C134.551 0.00967407 133.557 1.03267 133.557 2.2946C133.557 3.55653 134.551 4.57952 135.778 4.57952Z" fill="white"/>
<path d="M121.507 4.57952C122.734 4.57952 123.728 3.55653 123.728 2.2946C123.728 1.03267 122.734 0.00967407 121.507 0.00967407C120.28 0.00967407 119.285 1.03267 119.285 2.2946C119.285 3.55653 120.28 4.57952 121.507 4.57952Z" fill="white"/>
<path d="M128.642 28C129.869 28 130.864 26.977 130.864 25.7151C130.864 24.4531 129.869 23.4301 128.642 23.4301C127.415 23.4301 126.421 24.4531 126.421 25.7151C126.421 26.977 127.415 28 128.642 28Z" fill="white"/>
<path d="M128.642 10.6791C129.869 10.6791 130.864 9.65611 130.864 8.39418C130.864 7.13225 129.869 6.10925 128.642 6.10925C127.415 6.10925 126.421 7.13225 126.421 8.39418C126.421 9.65611 127.415 10.6791 128.642 10.6791Z" fill="white"/>
<path d="M16.4933 9.41079H4.45279V4.56984H16.4933C16.7979 4.59022 17.1032 4.54612 17.3906 4.44027C17.6779 4.33442 17.941 4.16907 18.1637 3.95445C18.3864 3.73983 18.5639 3.4805 18.6853 3.1925C18.8067 2.9045 18.8693 2.59396 18.8693 2.28008C18.8693 1.9662 18.8067 1.65566 18.6853 1.36766C18.5639 1.07966 18.3864 0.820328 18.1637 0.605707C17.941 0.391085 17.6779 0.225736 17.3906 0.119886C17.1032 0.0140365 16.7979 -0.0300632 16.4933 -0.00968525H2.22166C1.92831 -0.00969609 1.63787 0.0500407 1.36708 0.166078C1.0963 0.282115 0.850539 0.452155 0.643986 0.666385C0.437434 0.880615 0.274178 1.13479 0.16364 1.41425C0.0531027 1.69371 -0.0025283 1.99292 -4.22825e-05 2.2946V25.7151C0.0367465 26.2966 0.287314 26.842 0.700803 27.2405C1.11429 27.639 1.65972 27.8607 2.22637 27.8607C2.79303 27.8607 3.33845 27.639 3.75194 27.2405C4.16543 26.842 4.416 26.2966 4.45279 25.7151V13.9903H16.4933C16.7979 14.0107 17.1032 13.9666 17.3906 13.8607C17.6779 13.7549 17.941 13.5895 18.1637 13.3749C18.3864 13.1603 18.5639 12.901 18.6853 12.613C18.8067 12.325 18.8693 12.0144 18.8693 11.7006C18.8693 11.3867 18.8067 11.0761 18.6853 10.7881C18.5639 10.5001 18.3864 10.2408 18.1637 10.0262C17.941 9.81156 17.6779 9.64621 17.3906 9.54036C17.1032 9.43451 16.7979 9.39041 16.4933 9.41079Z" fill="white"/>
<path d="M64.2035 16.2849H56.7947C56.4901 16.2646 56.1847 16.3087 55.8974 16.4145C55.6101 16.5204 55.347 16.6857 55.1243 16.9003C54.9016 17.1149 54.724 17.3743 54.6027 17.6623C54.4813 17.9503 54.4187 18.2608 54.4187 18.5747C54.4187 18.8886 54.4813 19.1991 54.6027 19.4871C54.724 19.7751 54.9016 20.0344 55.1243 20.2491C55.347 20.4637 55.6101 20.629 55.8974 20.7349C56.1847 20.8407 56.4901 20.8848 56.7947 20.8645H61.9818V25.7054C62.0186 26.287 62.2692 26.8323 62.6826 27.2308C63.0961 27.6293 63.6416 27.851 64.2082 27.851C64.7749 27.851 65.3203 27.6293 65.7338 27.2308C66.1473 26.8323 66.3978 26.287 66.4346 25.7054V18.5699C66.4346 18.269 66.3768 17.9711 66.2646 17.6932C66.1524 17.4154 65.9879 17.163 65.7806 16.9507C65.5733 16.7384 65.3272 16.5703 65.0566 16.4561C64.786 16.3418 64.496 16.2837 64.2035 16.2849Z" fill="white"/>
<path d="M64.2035 0H49.8942C49.305 0 48.7399 0.240732 48.3232 0.669239C47.9066 1.09775 47.6725 1.67892 47.6725 2.28492V25.7151C47.7093 26.2966 47.9598 26.842 48.3733 27.2405C48.7868 27.639 49.3322 27.8607 49.8989 27.8607C50.4656 27.8607 51.011 27.639 51.4245 27.2405C51.838 26.842 52.0885 26.2966 52.1253 25.7151V13.9903H64.2035C64.7936 13.9903 65.3597 13.7499 65.7778 13.3217C66.196 12.8934 66.4321 12.3123 66.4346 11.7054V2.29461C66.4346 1.68604 66.1996 1.1024 65.7811 0.672074C65.3627 0.241752 64.7952 0 64.2035 0ZM52.163 4.58921H61.9818V9.43015H52.163V4.58921Z" fill="white"/>
<path d="M40.3485 0H26.0768C25.4876 0 24.9225 0.240732 24.5058 0.669239C24.0892 1.09775 23.8551 1.67892 23.8551 2.28492V25.7054C23.8551 26.3123 24.0889 26.8945 24.5052 27.3245C24.9216 27.7546 25.4867 27.9974 26.0768 28H40.3485C40.9402 28 41.5077 27.7582 41.9261 27.3279C42.3445 26.8976 42.5796 26.314 42.5796 25.7054V2.28492C42.5771 1.67804 42.3409 1.09688 41.9228 0.668648C41.5046 0.240418 40.9386 -5.40232e-06 40.3485 0V0ZM38.9363 21.7358H34.6718V23.2365C34.688 23.4431 34.6624 23.6508 34.5966 23.8467C34.5309 24.0426 34.4264 24.2223 34.2897 24.3746C34.1531 24.5269 33.9873 24.6485 33.8027 24.7316C33.6181 24.8147 33.4188 24.8576 33.2173 24.8576C33.0158 24.8576 32.8165 24.8147 32.632 24.7316C32.4474 24.6485 32.2816 24.5269 32.1449 24.3746C32.0083 24.2223 31.9038 24.0426 31.8381 23.8467C31.7723 23.6508 31.7467 23.4431 31.7629 23.2365V21.7358H27.4983C27.2431 21.7349 26.9925 21.6652 26.7716 21.5336C26.5508 21.402 26.3673 21.213 26.2397 20.9857C26.112 20.7584 26.0446 20.5006 26.0441 20.2381C26.0436 19.9755 26.11 19.7175 26.2368 19.4896L29.3811 13.8741H28.9481C28.6914 13.8742 28.4393 13.8047 28.2171 13.6726C27.995 13.5405 27.8106 13.3504 27.6826 13.1216C27.5547 12.8928 27.4877 12.6333 27.4884 12.3694C27.4891 12.1054 27.5575 11.8463 27.6866 11.6183L31.9512 4.0083C32.0808 3.7814 32.2658 3.59327 32.4879 3.46256C32.71 3.33185 32.9614 3.26308 33.2173 3.26308C33.4732 3.26308 33.7247 3.33185 33.9468 3.46256C34.1689 3.59327 34.3539 3.7814 34.4835 4.0083L38.7481 11.6183C38.8749 11.8461 38.9414 12.1042 38.9409 12.3667C38.9404 12.6292 38.8729 12.887 38.7452 13.1143C38.6176 13.3417 38.4341 13.5306 38.2133 13.6622C37.9924 13.7938 37.7419 13.8636 37.4866 13.8645H37.0535L40.1978 19.4799C40.327 19.708 40.3953 19.9671 40.396 20.2311C40.3967 20.495 40.3297 20.7545 40.2018 20.9833C40.0738 21.2121 39.8895 21.4021 39.6673 21.5343C39.4451 21.6664 39.193 21.7359 38.9363 21.7358Z" fill="#1B76E2"/>
<path d="M76.018 16.2849H88.068C88.6334 16.2471 89.1637 15.9894 89.5512 15.5641C89.9386 15.1389 90.1543 14.5779 90.1543 13.9951C90.1543 13.4124 89.9386 12.8514 89.5512 12.4262C89.1637 12.0009 88.6334 11.7432 88.068 11.7054H76.018V4.58919H88.068C88.6334 4.55136 89.1637 4.29366 89.5512 3.86841C89.9386 3.44315 90.1543 2.88221 90.1543 2.29943C90.1543 1.71665 89.9386 1.15571 89.5512 0.730451C89.1637 0.305198 88.6334 0.0475 88.068 0.0096644H73.7963C73.5026 0.00711192 73.2112 0.0642589 72.9389 0.177825C72.6667 0.291391 72.4189 0.45914 72.2098 0.671442C72.0008 0.883744 71.8346 1.13642 71.7207 1.41496C71.6069 1.69351 71.5476 1.99244 71.5464 2.29459V25.7151C71.5489 26.3219 71.785 26.9031 72.2032 27.3313C72.6213 27.7596 73.1874 28 73.7775 28H88.068C88.6334 27.9621 89.1637 27.7044 89.5512 27.2792C89.9386 26.8539 90.1543 26.293 90.1543 25.7102C90.1543 25.1274 89.9386 24.5665 89.5512 24.1412C89.1637 23.716 88.6334 23.4583 88.068 23.4205H76.018V16.2849Z" fill="white"/>
<path d="M111.923 11.7054H99.8732V4.5892H111.923C112.489 4.55137 113.019 4.29367 113.406 3.86842C113.794 3.44316 114.009 2.88222 114.009 2.29944C114.009 1.71666 113.794 1.15571 113.406 0.730461C113.019 0.305207 112.489 0.0475097 111.923 0.00967407H97.6515C97.0614 0.00966867 96.4953 0.250092 96.0772 0.678322C95.659 1.10655 95.4229 1.68771 95.4204 2.2946V13.9903C95.4204 14.5989 95.6554 15.1825 96.0738 15.6128C96.4923 16.0432 97.0598 16.2849 97.6515 16.2849H109.692V23.4205H97.6515C97.3469 23.4001 97.0416 23.4442 96.7542 23.55C96.4669 23.6559 96.2038 23.8212 95.9811 24.0359C95.7584 24.2505 95.5808 24.5098 95.4595 24.7978C95.3381 25.0858 95.2755 25.3963 95.2755 25.7102C95.2755 26.0241 95.3381 26.3347 95.4595 26.6227C95.5808 26.9106 95.7584 27.17 95.9811 27.3846C96.2038 27.5992 96.4669 27.7646 96.7542 27.8704C97.0416 27.9763 97.3469 28.0204 97.6515 28H111.923C112.512 28 113.077 27.7593 113.494 27.3308C113.911 26.9022 114.145 26.3211 114.145 25.7151V13.9903C114.145 13.3843 113.911 12.8031 113.494 12.3746C113.077 11.9461 112.512 11.7054 111.923 11.7054Z" fill="white"/>
</svg>
