<svg width="138" height="28" viewBox="0 0 138 28" fill="none" xmlns="http://www.w3.org/2000/svg">
<g clip-path="url(#clip0_32120_126481)">
<path d="M135.778 0.00964355H121.507V4.58917H135.778V0.00964355Z" fill="white"/>
<path d="M130.864 25.7151V8.39417H126.411V25.7151H130.864Z" fill="white"/>
<path d="M135.778 4.57949C137.005 4.57949 138 3.5565 138 2.29457C138 1.03264 137.005 0.00964355 135.778 0.00964355C134.551 0.00964355 133.557 1.03264 133.557 2.29457C133.557 3.5565 134.551 4.57949 135.778 4.57949Z" fill="white"/>
<path d="M121.507 4.57949C122.734 4.57949 123.728 3.5565 123.728 2.29457C123.728 1.03264 122.734 0.00964355 121.507 0.00964355C120.28 0.00964355 119.285 1.03264 119.285 2.29457C119.285 3.5565 120.28 4.57949 121.507 4.57949Z" fill="white"/>
<path d="M128.643 28C129.87 28 130.864 26.977 130.864 25.7151C130.864 24.4532 129.87 23.4302 128.643 23.4302C127.416 23.4302 126.421 24.4532 126.421 25.7151C126.421 26.977 127.416 28 128.643 28Z" fill="white"/>
<path d="M128.643 10.6791C129.87 10.6791 130.864 9.65611 130.864 8.39418C130.864 7.13225 129.87 6.10925 128.643 6.10925C127.416 6.10925 126.421 7.13225 126.421 8.39418C126.421 9.65611 127.416 10.6791 128.643 10.6791Z" fill="white"/>
<path d="M16.4934 9.41079H4.45291V4.56984H16.4934C16.798 4.59022 17.1034 4.54612 17.3907 4.44027C17.678 4.33442 17.9411 4.16907 18.1638 3.95445C18.3866 3.73983 18.5641 3.4805 18.6854 3.1925C18.8068 2.9045 18.8694 2.59396 18.8694 2.28008C18.8694 1.9662 18.8068 1.65566 18.6854 1.36766C18.5641 1.07966 18.3866 0.820328 18.1638 0.605707C17.9411 0.391085 17.678 0.225736 17.3907 0.119886C17.1034 0.0140365 16.798 -0.0300632 16.4934 -0.00968525H2.22179C1.92844 -0.00969609 1.63799 0.0500407 1.3672 0.166078C1.09642 0.282115 0.850661 0.452155 0.644108 0.666385C0.437556 0.880615 0.2743 1.13479 0.163762 1.41425C0.0532248 1.69371 -0.00240623 1.99292 7.97878e-05 2.2946V25.7151C0.0368686 26.2966 0.287436 26.842 0.700925 27.2405C1.11441 27.639 1.65984 27.8607 2.22649 27.8607C2.79315 27.8607 3.33857 27.639 3.75206 27.2405C4.16555 26.842 4.41612 26.2966 4.45291 25.7151V13.9903H16.4934C16.798 14.0107 17.1034 13.9666 17.3907 13.8607C17.678 13.7549 17.9411 13.5895 18.1638 13.3749C18.3866 13.1603 18.5641 12.901 18.6854 12.613C18.8068 12.325 18.8694 12.0144 18.8694 11.7006C18.8694 11.3867 18.8068 11.0761 18.6854 10.7881C18.5641 10.5001 18.3866 10.2408 18.1638 10.0262C17.9411 9.81156 17.678 9.64621 17.3907 9.54036C17.1034 9.43451 16.798 9.39041 16.4934 9.41079Z" fill="white"/>
<path d="M64.2037 16.2849H56.7949C56.4904 16.2645 56.185 16.3086 55.8977 16.4144C55.6103 16.5203 55.3472 16.6856 55.1245 16.9003C54.9018 17.1149 54.7243 17.3742 54.6029 17.6622C54.4816 17.9502 54.4189 18.2608 54.4189 18.5746C54.4189 18.8885 54.4816 19.1991 54.6029 19.4871C54.7243 19.7751 54.9018 20.0344 55.1245 20.249C55.3472 20.4636 55.6103 20.629 55.8977 20.7348C56.185 20.8407 56.4904 20.8848 56.7949 20.8644H61.982V25.7053C62.0188 26.2869 62.2694 26.8323 62.6829 27.2307C63.0964 27.6292 63.6418 27.851 64.2085 27.851C64.7751 27.851 65.3205 27.6292 65.734 27.2307C66.1475 26.8323 66.3981 26.2869 66.4349 25.7053V18.5698C66.4349 18.2689 66.3771 17.971 66.2649 17.6931C66.1526 17.4153 65.9881 17.163 65.7808 16.9507C65.5735 16.7384 65.3275 16.5703 65.0568 16.456C64.7862 16.3418 64.4963 16.2836 64.2037 16.2849Z" fill="white"/>
<path d="M64.2036 0H49.8943C49.3051 0 48.74 0.240732 48.3233 0.669239C47.9067 1.09775 47.6726 1.67892 47.6726 2.28492V25.7151C47.7094 26.2966 47.96 26.842 48.3735 27.2405C48.7869 27.639 49.3324 27.8607 49.899 27.8607C50.4657 27.8607 51.0111 27.639 51.4246 27.2405C51.8381 26.842 52.0886 26.2966 52.1254 25.7151V13.9903H64.2036C64.7937 13.9903 65.3598 13.7499 65.7779 13.3217C66.1961 12.8934 66.4322 12.3123 66.4347 11.7054V2.29461C66.4347 1.68604 66.1997 1.1024 65.7813 0.672074C65.3628 0.241752 64.7953 0 64.2036 0ZM52.1631 4.58921H61.9819V9.43015H52.1631V4.58921Z" fill="white"/>
<path d="M26.0772 0H40.3488C40.9389 -5.40232e-06 41.505 0.240418 41.9231 0.668648C42.3413 1.09688 42.5774 1.67804 42.5799 2.28492V25.7054C42.5799 26.314 42.3449 26.8976 41.9265 27.3279C41.508 27.7582 40.9405 28 40.3488 28H26.0772C25.4871 27.9974 24.922 27.7546 24.5056 27.3245C24.0892 26.8945 23.8555 26.3123 23.8555 25.7054V2.28492C23.8555 1.67892 24.0895 1.09775 24.5062 0.669239C24.9228 0.240732 25.4879 0 26.0772 0Z" fill="white"/>
<path d="M40.3488 0H26.0772C25.4879 0 24.9228 0.240732 24.5062 0.669239C24.0895 1.09775 23.8555 1.67892 23.8555 2.28492V25.7054C23.8555 26.3123 24.0892 26.8945 24.5056 27.3245C24.922 27.7546 25.4871 27.9974 26.0772 28H40.3488C40.9405 28 41.508 27.7582 41.9265 27.3279C42.3449 26.8976 42.5799 26.314 42.5799 25.7054V2.28492C42.5774 1.67804 42.3413 1.09688 41.9231 0.668648C41.505 0.240418 40.9389 -5.40232e-06 40.3488 0V0ZM38.9367 21.7358H34.6722V23.2365C34.6883 23.4431 34.6627 23.6508 34.597 23.8467C34.5312 24.0426 34.4267 24.2223 34.2901 24.3746C34.1535 24.5269 33.9876 24.6485 33.8031 24.7316C33.6185 24.8147 33.4192 24.8576 33.2177 24.8576C33.0162 24.8576 32.8169 24.8147 32.6323 24.7316C32.4478 24.6485 32.2819 24.5269 32.1453 24.3746C32.0087 24.2223 31.9042 24.0426 31.8384 23.8467C31.7727 23.6508 31.7471 23.4431 31.7632 23.2365V21.7358H27.4987C27.2434 21.7349 26.9929 21.6652 26.772 21.5336C26.5511 21.402 26.3677 21.213 26.24 20.9857C26.1124 20.7584 26.0449 20.5006 26.0444 20.2381C26.0439 19.9755 26.1104 19.7175 26.2372 19.4896L29.3815 13.8741H28.9484C28.6918 13.8742 28.4397 13.8047 28.2175 13.6726C27.9953 13.5405 27.811 13.3504 27.683 13.1216C27.5551 12.8928 27.4881 12.6333 27.4888 12.3694C27.4894 12.1054 27.5578 11.8463 27.687 11.6183L31.9515 4.0083C32.0812 3.7814 32.2662 3.59327 32.4883 3.46256C32.7104 3.33185 32.9618 3.26308 33.2177 3.26308C33.4736 3.26308 33.725 3.33185 33.9471 3.46256C34.1692 3.59327 34.3543 3.7814 34.4839 4.0083L38.7484 11.6183C38.8752 11.8461 38.9417 12.1042 38.9412 12.3667C38.9407 12.6292 38.8733 12.887 38.7456 13.1143C38.6179 13.3417 38.4345 13.5306 38.2136 13.6622C37.9928 13.7938 37.7422 13.8636 37.487 13.8645H37.0539L40.1982 19.4799C40.3273 19.708 40.3957 19.9671 40.3964 20.2311C40.3971 20.495 40.3301 20.7545 40.2021 20.9833C40.0742 21.2121 39.8898 21.4021 39.6677 21.5343C39.4455 21.6664 39.1934 21.7359 38.9367 21.7358Z" fill="#1B76E2"/>
<path d="M76.0185 16.2848H88.0685C88.6339 16.247 89.1642 15.9893 89.5517 15.5641C89.9391 15.1388 90.1547 14.5779 90.1547 13.9951C90.1547 13.4123 89.9391 12.8514 89.5517 12.4261C89.1642 12.0008 88.6339 11.7432 88.0685 11.7053H76.0185V4.58913H88.0685C88.6339 4.5513 89.1642 4.2936 89.5517 3.86835C89.9391 3.44309 90.1547 2.88215 90.1547 2.29937C90.1547 1.71659 89.9391 1.15564 89.5517 0.73039C89.1642 0.305137 88.6339 0.047439 88.0685 0.00960337H73.7968C73.503 0.00705089 73.2117 0.0641978 72.9394 0.177764C72.6672 0.29133 72.4194 0.459079 72.2103 0.671381C72.0013 0.883683 71.8351 1.13636 71.7212 1.4149C71.6073 1.69345 71.5481 1.99237 71.5469 2.29453V25.715C71.5494 26.3219 71.7855 26.903 72.2037 27.3313C72.6218 27.7595 73.1879 27.9999 73.778 27.9999H88.0685C88.6339 27.9621 89.1642 27.7044 89.5517 27.2791C89.9391 26.8539 90.1547 26.2929 90.1547 25.7102C90.1547 25.1274 89.9391 24.5664 89.5517 24.1412C89.1642 23.7159 88.6339 23.4582 88.0685 23.4204H76.0185V16.2848Z" fill="white"/>
<path d="M111.923 11.7055H99.8731V4.58929H111.923C112.488 4.55146 113.019 4.29376 113.406 3.86851C113.794 3.44325 114.009 2.88231 114.009 2.29953C114.009 1.71675 113.794 1.15581 113.406 0.730552C113.019 0.305299 112.488 0.0476012 111.923 0.00976563H97.6514C97.0613 0.00976022 96.4952 0.250183 96.077 0.678413C95.6589 1.10664 95.4227 1.6878 95.4202 2.29469V13.9904C95.4202 14.599 95.6553 15.1826 96.0737 15.6129C96.4921 16.0433 97.0596 16.285 97.6514 16.285H109.692V23.4206H97.6514C97.3468 23.4002 97.0414 23.4443 96.7541 23.5501C96.4668 23.656 96.2036 23.8213 95.9809 24.0359C95.7582 24.2506 95.5807 24.5099 95.4594 24.7979C95.338 25.0859 95.2754 25.3964 95.2754 25.7103C95.2754 26.0242 95.338 26.3347 95.4594 26.6227C95.5807 26.9107 95.7582 27.1701 95.9809 27.3847C96.2036 27.5993 96.4668 27.7647 96.7541 27.8705C97.0414 27.9764 97.3468 28.0205 97.6514 28.0001H111.923C112.512 28.0001 113.077 27.7593 113.494 27.3308C113.911 26.9023 114.145 26.3212 114.145 25.7152V13.9904C114.145 13.3844 113.911 12.8032 113.494 12.3747C113.077 11.9462 112.512 11.7055 111.923 11.7055Z" fill="white"/>
</g>
<defs>
<clipPath id="clip0_32120_126481">
<rect width="138" height="28" fill="white"/>
</clipPath>
</defs>
</svg>
