<svg width="80" height="16" viewBox="0 0 80 16" fill="none" xmlns="http://www.w3.org/2000/svg">
<g clip-path="url(#clip0_5676_47)">
<path d="M78.7129 0.0055542H70.4395V2.62243H78.7129V0.0055542Z" fill="white"/>
<path d="M75.8633 14.6943V4.79669H73.2819V14.6943H75.8633Z" fill="white"/>
<path d="M78.7118 2.6169C79.4231 2.6169 79.9997 2.03233 79.9997 1.31123C79.9997 0.590123 79.4231 0.0055542 78.7118 0.0055542C78.0005 0.0055542 77.4238 0.590123 77.4238 1.31123C77.4238 2.03233 78.0005 2.6169 78.7118 2.6169Z" fill="white"/>
<path d="M70.4383 2.6169C71.1497 2.6169 71.7263 2.03233 71.7263 1.31123C71.7263 0.590123 71.1497 0.0055542 70.4383 0.0055542C69.727 0.0055542 69.1504 0.590123 69.1504 1.31123C69.1504 2.03233 69.727 2.6169 70.4383 2.6169Z" fill="white"/>
<path d="M74.5751 16C75.2864 16 75.863 15.4154 75.863 14.6943C75.863 13.9732 75.2864 13.3887 74.5751 13.3887C73.8637 13.3887 73.2871 13.9732 73.2871 14.6943C73.2871 15.4154 73.8637 16 74.5751 16Z" fill="white"/>
<path d="M74.5751 6.10237C75.2864 6.10237 75.863 5.5178 75.863 4.7967C75.863 4.0756 75.2864 3.49103 74.5751 3.49103C73.8637 3.49103 73.2871 4.0756 73.2871 4.7967C73.2871 5.5178 73.8637 6.10237 74.5751 6.10237Z" fill="white"/>
<path d="M9.56141 5.37759H2.5814V2.61134H9.56141C9.73796 2.62298 9.91499 2.59778 10.0816 2.5373C10.2481 2.47681 10.4007 2.38233 10.5298 2.25969C10.6589 2.13705 10.7618 1.98886 10.8321 1.82429C10.9025 1.65972 10.9388 1.48226 10.9388 1.3029C10.9388 1.12354 10.9025 0.946089 10.8321 0.781519C10.7618 0.616948 10.6589 0.468759 10.5298 0.346118C10.4007 0.223477 10.2481 0.128992 10.0816 0.0685065C9.91499 0.00802086 9.73796 -0.017179 9.56141 -0.00553443H1.28799C1.11793 -0.00554062 0.949559 0.0285947 0.792583 0.0949017C0.635606 0.161209 0.493137 0.258374 0.373396 0.380792C0.253656 0.503209 0.159015 0.648454 0.0949347 0.808144C0.0308549 0.967835 -0.00139491 1.13881 4.62538e-05 1.3112V14.6943C0.0213731 15.0266 0.16663 15.3383 0.406333 15.566C0.646036 15.7937 0.962225 15.9204 1.29072 15.9204C1.61922 15.9204 1.93541 15.7937 2.17511 15.566C2.41481 15.3383 2.56007 15.0266 2.5814 14.6943V7.99447H9.56141C9.73796 8.00611 9.91499 7.98091 10.0816 7.92043C10.2481 7.85994 10.4007 7.76546 10.5298 7.64281C10.6589 7.52017 10.7618 7.37198 10.8321 7.20741C10.9025 7.04284 10.9388 6.86539 10.9388 6.68603C10.9388 6.50667 10.9025 6.32922 10.8321 6.16465C10.7618 6.00007 10.6589 5.85189 10.5298 5.72924C10.4007 5.6066 10.2481 5.51212 10.0816 5.45163C9.91499 5.39115 9.73796 5.36595 9.56141 5.37759Z" fill="white"/>
<path d="M37.2192 9.30568H32.9243C32.7477 9.29404 32.5707 9.31924 32.4041 9.37972C32.2375 9.44021 32.085 9.5347 31.9559 9.65734C31.8268 9.77998 31.7239 9.92817 31.6535 10.0927C31.5832 10.2573 31.5469 10.4348 31.5469 10.6141C31.5469 10.7935 31.5832 10.9709 31.6535 11.1355C31.7239 11.3001 31.8268 11.4483 31.9559 11.5709C32.085 11.6935 32.2375 11.788 32.4041 11.8485C32.5707 11.909 32.7477 11.9342 32.9243 11.9226H35.9313V14.6888C35.9526 15.0211 36.0979 15.3328 36.3376 15.5605C36.5773 15.7882 36.8935 15.9149 37.222 15.9149C37.5504 15.9149 37.8666 15.7882 38.1063 15.5605C38.346 15.3328 38.4913 15.0211 38.5126 14.6888V10.6114C38.5126 10.4394 38.4791 10.2692 38.4141 10.1104C38.349 9.95164 38.2536 9.80746 38.1335 9.68614C38.0133 9.56483 37.8707 9.46877 37.7138 9.40348C37.5569 9.33819 37.3888 9.30496 37.2192 9.30568Z" fill="white"/>
<path d="M37.2199 0H28.9247C28.5831 0 28.2555 0.137561 28.0139 0.382422C27.7724 0.627283 27.6367 0.959385 27.6367 1.30567V14.6943C27.658 15.0266 27.8033 15.3383 28.043 15.566C28.2827 15.7937 28.5989 15.9204 28.9274 15.9204C29.2559 15.9204 29.5721 15.7937 29.8118 15.566C30.0515 15.3383 30.1967 15.0266 30.2181 14.6943V7.99447H37.2199C37.562 7.99447 37.8902 7.85709 38.1326 7.61238C38.375 7.36768 38.5119 7.03559 38.5133 6.6888V1.3112C38.5133 0.963451 38.3771 0.629941 38.1345 0.384043C37.8919 0.138144 37.5629 0 37.2199 0ZM30.2399 2.62241H35.932V5.38866H30.2399V2.62241Z" fill="white"/>
<path d="M23.3895 0H15.1161C14.7745 0 14.4469 0.137561 14.2054 0.382422C13.9638 0.627283 13.8281 0.959385 13.8281 1.30567V14.6888C13.8281 15.0356 13.9636 15.3683 14.205 15.614C14.4464 15.8597 14.774 15.9985 15.1161 16H23.3895C23.7325 16 24.0615 15.8619 24.3041 15.616C24.5466 15.3701 24.6829 15.0365 24.6829 14.6888V1.30567C24.6814 0.958878 24.5445 0.626788 24.3021 0.382084C24.0597 0.137381 23.7316 -3.08704e-06 23.3895 0V0ZM22.5709 12.4205H20.0987V13.278C20.108 13.396 20.0932 13.5148 20.0551 13.6267C20.017 13.7386 19.9564 13.8413 19.8772 13.9284C19.798 14.0154 19.7018 14.0848 19.5948 14.1323C19.4879 14.1798 19.3723 14.2044 19.2555 14.2044C19.1387 14.2044 19.0232 14.1798 18.9162 14.1323C18.8092 14.0848 18.713 14.0154 18.6338 13.9284C18.5546 13.8413 18.494 13.7386 18.4559 13.6267C18.4178 13.5148 18.403 13.396 18.4123 13.278V12.4205H15.9401C15.7922 12.42 15.6469 12.3801 15.5189 12.3049C15.3908 12.2297 15.2845 12.1217 15.2105 11.9918C15.1365 11.8619 15.0974 11.7146 15.0971 11.5646C15.0968 11.4146 15.1353 11.2671 15.2088 11.1369L17.0316 7.92808H16.7806C16.6318 7.92813 16.4856 7.88841 16.3568 7.81291C16.228 7.73741 16.1212 7.6288 16.047 7.49806C15.9728 7.36731 15.934 7.21905 15.9344 7.06822C15.9348 6.91739 15.9744 6.76934 16.0493 6.639L18.5215 2.29046C18.5966 2.1608 18.7039 2.0533 18.8326 1.97861C18.9614 1.90391 19.1072 1.86462 19.2555 1.86462C19.4038 1.86462 19.5496 1.90391 19.6784 1.97861C19.8071 2.0533 19.9144 2.1608 19.9895 2.29046L22.4617 6.639C22.5352 6.7692 22.5738 6.91667 22.5735 7.06668C22.5732 7.2167 22.5341 7.36401 22.4601 7.49391C22.3861 7.62382 22.2797 7.73176 22.1517 7.80698C22.0237 7.88219 21.8784 7.92204 21.7304 7.92254H21.4794L23.3022 11.1314C23.377 11.2617 23.4167 11.4098 23.4171 11.5606C23.4175 11.7114 23.3786 11.8597 23.3045 11.9905C23.2303 12.1212 23.1234 12.2298 22.9946 12.3053C22.8658 12.3808 22.7197 12.4205 22.5709 12.4205Z" fill="#00BF91"/>
<path d="M44.0688 9.30568H51.0543C51.3821 9.28406 51.6895 9.1368 51.9141 8.8938C52.1387 8.6508 52.2637 8.33026 52.2637 7.99724C52.2637 7.66423 52.1387 7.34368 51.9141 7.10068C51.6895 6.85768 51.3821 6.71042 51.0543 6.6888H44.0688V2.62241H51.0543C51.3821 2.60079 51.6895 2.45354 51.9141 2.21054C52.1387 1.96753 52.2637 1.64699 52.2637 1.31398C52.2637 0.98096 52.1387 0.66042 51.9141 0.417418C51.6895 0.174416 51.3821 0.0271603 51.0543 0.00553995H42.7809C42.6106 0.00408139 42.4417 0.0367368 42.2838 0.101632C42.126 0.166527 41.9824 0.262383 41.8612 0.383699C41.74 0.505014 41.6436 0.6494 41.5776 0.808568C41.5116 0.967736 41.4773 1.13855 41.4766 1.31121V14.6943C41.478 15.0411 41.6149 15.3732 41.8573 15.6179C42.0997 15.8626 42.4279 16 42.77 16H51.0543C51.3821 15.9784 51.6895 15.8311 51.9141 15.5881C52.1387 15.3451 52.2637 15.0246 52.2637 14.6916C52.2637 14.3586 52.1387 14.038 51.9141 13.795C51.6895 13.552 51.3821 13.4048 51.0543 13.3831H44.0688V9.30568Z" fill="white"/>
<path d="M64.8832 6.68882H57.8977V2.62243H64.8832C65.211 2.60081 65.5184 2.45355 65.743 2.21055C65.9677 1.96755 66.0926 1.64701 66.0926 1.31399C66.0926 0.980975 65.9677 0.660434 65.743 0.417432C65.5184 0.17443 65.211 0.0271745 64.8832 0.0055542H56.6098C56.2677 0.00555111 55.9396 0.142936 55.6971 0.387639C55.4547 0.632342 55.3178 0.964432 55.3164 1.31122V7.99449C55.3164 8.34224 55.4527 8.67575 55.6952 8.92165C55.9378 9.16755 56.2668 9.30569 56.6098 9.30569H63.5898V13.3831H56.6098C56.4332 13.3715 56.2562 13.3967 56.0897 13.4572C55.9231 13.5177 55.7705 13.6122 55.6414 13.7348C55.5123 13.8574 55.4094 14.0056 55.3391 14.1702C55.2687 14.3348 55.2324 14.5122 55.2324 14.6916C55.2324 14.8709 55.2687 15.0484 55.3391 15.213C55.4094 15.3775 55.5123 15.5257 55.6414 15.6484C55.7705 15.771 55.9231 15.8655 56.0897 15.926C56.2562 15.9865 56.4332 16.0117 56.6098 16H64.8832C65.2248 16 65.5524 15.8625 65.7939 15.6176C66.0355 15.3727 66.1712 15.0406 66.1712 14.6943V7.99449C66.1712 7.6482 66.0355 7.3161 65.7939 7.07124C65.5524 6.82638 65.2248 6.68882 64.8832 6.68882Z" fill="white"/>
</g>
<defs>
<clipPath id="clip0_5676_47">
<rect width="80" height="16" fill="white"/>
</clipPath>
</defs>
</svg>
