<svg viewBox="0 0 672 252" fill="none" xmlns="http://www.w3.org/2000/svg">
<g clip-path="url(#clip0_39991_93977)">
<path d="M598.747 31.5987C599.292 29.1785 602.741 29.1785 603.285 31.5987L605.491 41.4018C605.67 42.1992 606.255 42.844 607.031 43.0999L613.481 45.2267C615.611 45.929 615.611 48.9417 613.481 49.644L607.01 51.7778C606.245 52.0299 605.665 52.6597 605.477 53.4426L603.277 62.5897C602.706 64.9655 599.326 64.9655 598.755 62.5897L596.555 53.4426C596.367 52.6597 595.787 52.0299 595.023 51.7778L588.551 49.644C586.422 48.9417 586.422 45.929 588.551 45.2267L595.001 43.0999C595.777 42.844 596.362 42.1992 596.542 41.4018L598.747 31.5987Z" fill="#1B76E2"/>
<mask id="mask0_39991_93977" style="mask-type:luminance" maskUnits="userSpaceOnUse" x="7" y="118" width="72" height="83">
<path d="M7.89709 118.754H78.87V200.49H7.89709V118.754Z" fill="white"/>
</mask>
<g mask="url(#mask0_39991_93977)">
<path d="M25.9657 120.509C26.4539 120.509 26.924 120.665 27.2735 120.947L75.3743 159.573L27.2735 198.199C26.9119 198.487 26.4358 198.633 25.9657 198.633C25.4896 198.633 25.0135 198.487 24.6518 198.199L11.2058 187.399C10.8562 187.116 10.6634 186.746 10.6634 186.346C10.6634 185.951 10.8562 185.581 11.2058 185.298L41.5814 160.904C42.0214 160.548 42.2685 160.075 42.2685 159.573C42.2685 159.071 42.0214 158.599 41.5814 158.243L11.2058 133.844C10.8562 133.566 10.6634 133.191 10.6634 132.796C10.6634 132.396 10.8562 132.026 11.2058 131.743L24.6518 120.947C25.0014 120.665 25.4655 120.509 25.9597 120.509M25.9597 118.764C24.8869 118.764 23.8744 119.1 23.115 119.714L9.66292 130.515C8.90353 131.124 8.48767 131.933 8.48767 132.796C8.48767 133.659 8.90353 134.473 9.66292 135.082L40.0385 159.476C40.0747 159.5 40.0928 159.534 40.0928 159.573C40.0928 159.612 40.0747 159.642 40.0385 159.671L9.66292 184.06C8.90353 184.674 8.48767 185.483 8.48767 186.346C8.48767 187.209 8.90353 188.018 9.66292 188.632L23.115 199.432C23.8744 200.042 24.8869 200.378 25.9597 200.378C27.0325 200.378 28.045 200.042 28.8044 199.432L76.9051 160.806L78.442 159.573L76.9051 158.34L28.8104 119.714C28.045 119.1 27.0385 118.764 25.9657 118.764H25.9597Z" fill="#FF61E6"/>
</g>
<path d="M22.7052 123.126C23.1994 123.126 23.6634 123.282 24.013 123.56L72.1138 162.186L24.013 200.812C23.6514 201.104 23.1753 201.245 22.7052 201.245C22.2351 201.245 21.7589 201.104 21.3973 200.812L7.95129 190.016C7.60173 189.733 7.40887 189.363 7.40887 188.963C7.40887 188.568 7.60173 188.193 7.95129 187.915L38.3269 163.521C38.7669 163.165 39.014 162.693 39.014 162.191C39.014 161.684 38.7669 161.211 38.3269 160.86L7.94526 136.461C7.5957 136.178 7.40284 135.808 7.40284 135.413C7.40284 135.013 7.5957 134.643 7.94526 134.36L21.3973 123.56C21.7469 123.282 22.211 123.126 22.7052 123.126ZM22.7052 121.381C21.6263 121.381 20.6199 121.717 19.8605 122.327L6.41443 133.127C5.65504 133.736 5.23315 134.55 5.23315 135.413C5.23315 136.276 5.65504 137.085 6.41443 137.699L36.7901 162.088C36.8262 162.117 36.8383 162.147 36.8383 162.186C36.8383 162.225 36.8262 162.259 36.7901 162.283L6.41443 186.677C5.65504 187.291 5.23315 188.1 5.23315 188.963C5.23315 189.826 5.65504 190.64 6.41443 191.249L19.8605 202.05C20.6259 202.659 21.6324 202.995 22.7052 202.995C23.784 202.995 24.7905 202.659 25.5559 202.05L73.6506 163.424L75.1875 162.191L73.6506 160.957L25.5499 122.327C24.7905 121.717 23.778 121.381 22.7052 121.381Z" fill="white"/>
<mask id="mask1_39991_93977" style="mask-type:luminance" maskUnits="userSpaceOnUse" x="1" y="123" width="72" height="83">
<path d="M1.79175 123.131H72.6983V205.705H1.79175V123.131Z" fill="white"/>
</mask>
<g mask="url(#mask1_39991_93977)">
<path d="M19.312 125.85C19.8062 125.85 20.2703 126.006 20.6199 126.289L68.7206 164.915L20.6199 203.536C20.2582 203.829 19.7821 203.97 19.312 203.97C18.8359 203.97 18.3598 203.829 18.0042 203.536L4.55212 192.74C4.20256 192.458 4.0097 192.087 4.0097 191.688C4.0097 191.293 4.20256 190.918 4.55212 190.64L34.9277 166.246C35.3737 165.89 35.6148 165.417 35.6148 164.915C35.6148 164.408 35.3737 163.935 34.9277 163.585L4.55212 139.19C4.20256 138.908 4.0097 138.532 4.0097 138.138C4.0097 137.743 4.20256 137.368 4.55212 137.085L18.0042 126.289C18.3537 126.006 18.8178 125.85 19.312 125.85ZM19.312 124.111C18.2332 124.111 17.2267 124.442 16.4673 125.056L3.01526 135.857C2.25587 136.466 1.83398 137.275 1.83398 138.138C1.83398 139.005 2.25587 139.814 3.01526 140.424L33.3909 164.818C33.427 164.842 33.4391 164.876 33.4391 164.915C33.4391 164.954 33.427 164.983 33.3909 165.013L3.01526 189.402C2.25587 190.016 1.84001 190.825 1.84001 191.688C1.84001 192.55 2.25587 193.364 3.01526 193.974L16.4673 204.774C17.2267 205.383 18.2392 205.72 19.312 205.72C20.3848 205.72 21.3973 205.383 22.1567 204.774L70.2575 166.148L71.7944 164.915L70.2575 163.682L22.1567 125.056C21.3973 124.442 20.3848 124.111 19.312 124.111Z" fill="#22FFFB"/>
</g>
<mask id="mask2_39991_93977" style="mask-type:luminance" maskUnits="userSpaceOnUse" x="58" y="118" width="73" height="83">
<path d="M58.8125 118.754H130.123V200.49H58.8125V118.754Z" fill="white"/>
</mask>
<g mask="url(#mask2_39991_93977)">
<path d="M77.5982 120.509C78.0924 120.509 78.5565 120.665 78.9061 120.947L127.007 159.573L78.9061 198.199C78.5445 198.487 78.0683 198.633 77.5982 198.633C77.1221 198.633 76.652 198.487 76.2904 198.199L62.8444 187.399C62.4888 187.116 62.2959 186.745 62.2959 186.346C62.2959 185.951 62.4888 185.581 62.8444 185.298L93.214 160.904C93.6599 160.548 93.901 160.075 93.901 159.573C93.901 159.071 93.6599 158.599 93.214 158.243L62.8444 133.849C62.4888 133.571 62.2959 133.196 62.2959 132.801C62.2959 132.401 62.4888 132.031 62.8444 131.748L76.2904 120.952C76.64 120.67 77.104 120.514 77.5982 120.514M77.5982 118.769C76.5254 118.769 75.5129 119.105 74.7535 119.714L61.3075 130.515C60.5421 131.129 60.1262 131.938 60.1262 132.801C60.1262 133.663 60.5421 134.477 61.3075 135.087L91.6771 159.476C91.7133 159.505 91.7313 159.534 91.7313 159.578C91.7313 159.617 91.7133 159.646 91.6771 159.676L61.3075 184.065C60.5421 184.674 60.1262 185.488 60.1262 186.351C60.1262 187.213 60.5421 188.022 61.3075 188.637L74.7535 199.437C75.5129 200.046 76.5194 200.383 77.5982 200.383C78.671 200.383 79.6835 200.046 80.4429 199.437L128.544 160.811L130.081 159.578L128.544 158.345L80.4369 119.714C79.6775 119.1 78.671 118.764 77.5922 118.764L77.5982 118.769Z" fill="#FF61E6"/>
</g>
<path d="M74.3379 123.126C74.8321 123.126 75.2962 123.282 75.6458 123.56L123.747 162.186L75.6458 200.812C75.2902 201.104 74.8141 201.245 74.3379 201.245C73.8678 201.245 73.3917 201.104 73.0301 200.812L59.5841 190.016C59.2345 189.733 59.0416 189.363 59.0416 188.963C59.0416 188.568 59.2345 188.193 59.5841 187.915L89.9597 163.521C90.3996 163.165 90.6468 162.693 90.6468 162.191C90.6468 161.684 90.3996 161.211 89.9597 160.86L59.5841 136.466C59.2345 136.183 59.0416 135.813 59.0416 135.413C59.0416 135.018 59.2345 134.648 59.5841 134.365L73.0301 123.565C73.3797 123.287 73.8437 123.131 74.3379 123.131M74.3379 121.386C73.2651 121.386 72.2526 121.722 71.4932 122.331L58.0472 133.132C57.2878 133.741 56.8719 134.555 56.8719 135.418C56.8719 136.281 57.2878 137.09 58.0472 137.704L88.4228 162.093C88.459 162.122 88.4771 162.152 88.4771 162.191C88.4771 162.23 88.459 162.264 88.4228 162.288L58.0472 186.682C57.2878 187.291 56.8719 188.1 56.8719 188.968C56.8719 189.831 57.2878 190.64 58.0472 191.249L71.4932 202.05C72.2526 202.664 73.2651 202.995 74.3379 202.995C75.4168 202.995 76.4232 202.664 77.1826 202.054L125.283 163.428L126.82 162.195L125.283 160.962L77.1826 122.327C76.4232 121.717 75.4107 121.381 74.3379 121.381V121.386Z" fill="white"/>
<mask id="mask3_39991_93977" style="mask-type:luminance" maskUnits="userSpaceOnUse" x="52" y="123" width="72" height="83">
<path d="M52.6409 123.131H123.614V205.705H52.6409V123.131Z" fill="white"/>
</mask>
<g mask="url(#mask3_39991_93977)">
<path d="M70.9445 125.85C71.4388 125.85 71.9028 126.006 72.2524 126.289L120.353 164.915L72.2524 203.541C71.8908 203.829 71.4146 203.975 70.9445 203.975C70.4744 203.975 69.9983 203.829 69.6367 203.541L56.1907 192.74C55.8411 192.458 55.6482 192.087 55.6482 191.693C55.6482 191.293 55.8411 190.922 56.1907 190.64L86.5603 166.251C87.0063 165.895 87.2473 165.422 87.2473 164.915C87.2473 164.413 87.0063 163.94 86.5603 163.585L56.1907 139.19C55.8411 138.913 55.6482 138.537 55.6482 138.143C55.6482 137.743 55.8411 137.372 56.1907 137.09L69.6367 126.294C69.9863 126.011 70.4503 125.855 70.9445 125.855M70.9445 124.115C69.8718 124.115 68.8592 124.447 68.0998 125.061L54.6538 135.862C53.8944 136.471 53.4725 137.28 53.4725 138.143C53.4725 139.005 53.8944 139.819 54.6538 140.428L85.0294 164.822C85.0596 164.847 85.0776 164.881 85.0776 164.92C85.0776 164.959 85.0596 164.988 85.0294 165.017L54.6538 189.407C53.8944 190.021 53.4725 190.83 53.4725 191.693C53.4725 192.555 53.8944 193.369 54.6538 193.978L68.0998 204.779C68.8592 205.388 69.8718 205.725 70.9445 205.725C72.0173 205.725 73.0299 205.388 73.7892 204.779L121.89 166.153L123.427 164.92L121.89 163.687L73.7892 125.056C73.0299 124.442 72.0173 124.111 70.9445 124.111V124.115Z" fill="#22FFFB"/>
</g>
<mask id="mask4_39991_93977" style="mask-type:luminance" maskUnits="userSpaceOnUse" x="549" y="88" width="72" height="83">
<path d="M549.774 88.3213H620.747V170.057H549.774V88.3213Z" fill="white"/>
</mask>
<g mask="url(#mask4_39991_93977)">
<path d="M567.843 90.0759C568.331 90.0759 568.801 90.2318 569.151 90.5145L617.251 129.14L569.151 167.766C568.789 168.054 568.313 168.2 567.843 168.2C567.367 168.2 566.891 168.054 566.529 167.766L553.083 156.966C552.733 156.683 552.54 156.313 552.54 155.913C552.54 155.518 552.733 155.148 553.083 154.865L583.459 130.471C583.898 130.115 584.146 129.642 584.146 129.14C584.146 128.638 583.898 128.166 583.459 127.81L553.083 103.411C552.733 103.133 552.54 102.758 552.54 102.363C552.54 101.963 552.733 101.593 553.083 101.31L566.529 90.5145C566.878 90.2318 567.343 90.0759 567.837 90.0759M567.837 88.331C566.764 88.331 565.751 88.6673 564.992 89.2814L551.54 100.082C550.781 100.691 550.365 101.5 550.365 102.363C550.365 103.226 550.781 104.04 551.54 104.649L581.916 129.043C581.952 129.067 581.97 129.101 581.97 129.14C581.97 129.179 581.952 129.209 581.916 129.238L551.54 153.627C550.781 154.241 550.365 155.05 550.365 155.913C550.365 156.776 550.781 157.585 551.54 158.199L564.992 169C565.751 169.609 566.764 169.945 567.837 169.945C568.91 169.945 569.922 169.609 570.681 169L618.782 130.374L620.319 129.14L618.782 127.907L570.687 89.2814C569.922 88.6673 568.916 88.331 567.843 88.331H567.837Z" fill="#FF61E6"/>
</g>
<path d="M564.582 92.6931C565.076 92.6931 565.54 92.8491 565.89 93.1269L613.991 131.753L565.89 170.379C565.528 170.671 565.052 170.813 564.582 170.813C564.112 170.813 563.636 170.671 563.274 170.379L549.828 159.583C549.479 159.3 549.286 158.93 549.286 158.53C549.286 158.135 549.479 157.76 549.828 157.482L580.204 133.088C580.644 132.732 580.891 132.26 580.891 131.758C580.891 131.251 580.644 130.778 580.204 130.427L549.822 106.028C549.473 105.745 549.28 105.375 549.28 104.98C549.28 104.581 549.473 104.21 549.822 103.928L563.274 93.1269C563.624 92.8491 564.088 92.6931 564.582 92.6931ZM564.582 90.9482C563.503 90.9482 562.497 91.2845 561.737 91.8938L548.291 102.694C547.532 103.304 547.11 104.118 547.11 104.98C547.11 105.843 547.532 106.652 548.291 107.266L578.667 131.655C578.703 131.685 578.715 131.714 578.715 131.753C578.715 131.792 578.703 131.826 578.667 131.85L548.291 156.244C547.532 156.858 547.11 157.668 547.11 158.53C547.11 159.393 547.532 160.207 548.291 160.816L561.737 171.617C562.503 172.226 563.509 172.562 564.582 172.562C565.661 172.562 566.667 172.226 567.433 171.617L615.528 132.991L617.064 131.758L615.528 130.525L567.427 91.8938C566.667 91.2845 565.655 90.9482 564.582 90.9482Z" fill="white"/>
<mask id="mask5_39991_93977" style="mask-type:luminance" maskUnits="userSpaceOnUse" x="543" y="92" width="72" height="84">
<path d="M543.669 92.698H614.575V175.272H543.669V92.698Z" fill="white"/>
</mask>
<g mask="url(#mask5_39991_93977)">
<path d="M561.189 95.4177C561.683 95.4177 562.147 95.5736 562.497 95.8563L610.598 134.482L562.497 173.103C562.135 173.396 561.659 173.537 561.189 173.537C560.713 173.537 560.237 173.396 559.881 173.103L546.429 162.308C546.08 162.025 545.887 161.654 545.887 161.255C545.887 160.86 546.08 160.485 546.429 160.207L576.805 135.813C577.251 135.457 577.492 134.984 577.492 134.482C577.492 133.975 577.251 133.503 576.805 133.152L546.429 108.758C546.08 108.475 545.887 108.1 545.887 107.705C545.887 107.31 546.08 106.935 546.429 106.652L559.881 95.8563C560.231 95.5736 560.695 95.4177 561.189 95.4177ZM561.189 93.6777C560.11 93.6777 559.104 94.0091 558.344 94.6232L544.892 105.424C544.133 106.033 543.711 106.842 543.711 107.705C543.711 108.572 544.133 109.381 544.892 109.991L575.268 134.385C575.304 134.409 575.316 134.443 575.316 134.482C575.316 134.521 575.304 134.551 575.268 134.58L544.892 158.969C544.133 159.583 543.717 160.392 543.717 161.255C543.717 162.117 544.133 162.931 544.892 163.541L558.344 174.341C559.104 174.951 560.116 175.287 561.189 175.287C562.262 175.287 563.274 174.951 564.034 174.341L612.134 135.715L613.671 134.482L612.134 133.249L564.034 94.6232C563.274 94.0091 562.262 93.6777 561.189 93.6777Z" fill="#22FFFB"/>
</g>
<mask id="mask6_39991_93977" style="mask-type:luminance" maskUnits="userSpaceOnUse" x="600" y="88" width="72" height="83">
<path d="M600.689 88.3213H672V170.057H600.689V88.3213Z" fill="white"/>
</mask>
<g mask="url(#mask6_39991_93977)">
<path d="M619.475 90.0759C619.97 90.0759 620.434 90.2318 620.783 90.5145L668.884 129.14L620.783 167.766C620.422 168.054 619.945 168.2 619.475 168.2C618.999 168.2 618.529 168.054 618.167 167.766L604.721 156.966C604.366 156.683 604.173 156.313 604.173 155.913C604.173 155.518 604.366 155.148 604.721 154.865L635.091 130.471C635.537 130.115 635.778 129.642 635.778 129.14C635.778 128.638 635.537 128.166 635.091 127.81L604.721 103.416C604.366 103.138 604.173 102.763 604.173 102.368C604.173 101.968 604.366 101.598 604.721 101.315L618.167 90.5194C618.517 90.2367 618.981 90.0808 619.475 90.0808M619.475 88.3359C618.403 88.3359 617.39 88.6722 616.631 89.2814L603.185 100.082C602.419 100.696 602.003 101.505 602.003 102.368C602.003 103.231 602.419 104.045 603.185 104.654L633.554 129.043C633.59 129.072 633.608 129.101 633.608 129.145C633.608 129.184 633.59 129.214 633.554 129.243L603.185 153.632C602.419 154.241 602.003 155.055 602.003 155.918C602.003 156.781 602.419 157.59 603.185 158.204L616.631 169.004C617.39 169.614 618.396 169.95 619.475 169.95C620.548 169.95 621.561 169.614 622.32 169.004L670.421 130.378L671.958 129.145L670.421 127.912L622.314 89.2814C621.555 88.6673 620.548 88.331 619.469 88.331L619.475 88.3359Z" fill="#FF61E6"/>
</g>
<path d="M616.215 92.6931C616.709 92.6931 617.173 92.8491 617.523 93.1269L665.623 131.753L617.523 170.379C617.167 170.671 616.691 170.813 616.215 170.813C615.745 170.813 615.269 170.671 614.907 170.379L601.461 159.583C601.111 159.3 600.919 158.93 600.919 158.53C600.919 158.135 601.111 157.76 601.461 157.482L631.837 133.088C632.277 132.732 632.524 132.26 632.524 131.758C632.524 131.251 632.277 130.778 631.837 130.427L601.461 106.033C601.111 105.75 600.919 105.38 600.919 104.98C600.919 104.585 601.111 104.215 601.461 103.932L614.907 93.1317C615.257 92.8539 615.721 92.698 616.215 92.698M616.215 90.9531C615.142 90.9531 614.13 91.2894 613.37 91.8986L599.924 102.699C599.165 103.309 598.749 104.122 598.749 104.985C598.749 105.848 599.165 106.657 599.924 107.271L630.3 131.66C630.336 131.689 630.354 131.719 630.354 131.758C630.354 131.797 630.336 131.831 630.3 131.855L599.924 156.249C599.165 156.858 598.749 157.668 598.749 158.535C598.749 159.398 599.165 160.207 599.924 160.816L613.37 171.617C614.13 172.231 615.142 172.562 616.215 172.562C617.294 172.562 618.3 172.231 619.06 171.622L667.16 132.996L668.697 131.763L667.16 130.529L619.06 91.8938C618.3 91.2845 617.288 90.9482 616.215 90.9482V90.9531Z" fill="white"/>
<mask id="mask7_39991_93977" style="mask-type:luminance" maskUnits="userSpaceOnUse" x="594" y="92" width="72" height="84">
<path d="M594.518 92.698H665.491V175.272H594.518V92.698Z" fill="white"/>
</mask>
<g mask="url(#mask7_39991_93977)">
<path d="M612.821 95.4177C613.316 95.4177 613.78 95.5736 614.129 95.8563L662.23 134.482L614.129 173.108C613.768 173.396 613.292 173.542 612.821 173.542C612.351 173.542 611.875 173.396 611.514 173.108L598.068 162.308C597.718 162.025 597.525 161.654 597.525 161.26C597.525 160.86 597.718 160.49 598.068 160.207L628.437 135.818C628.883 135.462 629.124 134.989 629.124 134.482C629.124 133.98 628.883 133.507 628.437 133.152L598.068 108.758C597.718 108.48 597.525 108.105 597.525 107.71C597.525 107.31 597.718 106.94 598.068 106.657L611.514 95.8612C611.863 95.5785 612.327 95.4225 612.821 95.4225M612.821 93.6825C611.749 93.6825 610.736 94.014 609.977 94.6281L596.531 105.429C595.771 106.038 595.349 106.847 595.349 107.71C595.349 108.572 595.771 109.386 596.531 109.996L626.906 134.39C626.937 134.414 626.955 134.448 626.955 134.487C626.955 134.526 626.937 134.555 626.906 134.585L596.531 158.974C595.771 159.588 595.349 160.397 595.349 161.26C595.349 162.122 595.771 162.936 596.531 163.546L609.977 174.346C610.736 174.955 611.749 175.292 612.821 175.292C613.894 175.292 614.907 174.955 615.666 174.346L663.767 135.72L665.304 134.487L663.767 133.254L615.666 94.6232C614.907 94.0091 613.894 93.6777 612.821 93.6777V93.6825Z" fill="#22FFFB"/>
</g>
<path d="M147.266 71.3546L146.148 77.7843H139.625L132.683 117.155H139.206L138.041 123.631H124.063L133.289 71.3546H147.266ZM168.175 108.349H155.968L152.986 114.126H144.646L162.258 81.4185H171.483L177.54 114.126H169.107L168.175 108.349ZM167.243 102.292L165.333 90.1778L159.09 102.292H167.243ZM194.887 81.4185L189.109 114.126H181.142L186.919 81.4185H194.887ZM234.926 114.126H226.959L217.221 93.9518L213.634 114.126H205.666L211.444 81.4185H219.411L229.149 101.686L232.736 81.4185H240.704L234.926 114.126ZM267.771 81.4185L266.653 87.7084H253.328L252.116 94.7438H262.087L260.969 100.801H250.998L248.669 114.126H240.701L246.479 81.4185H267.771ZM295.488 81.4185L294.416 87.7084H285.703L281.044 114.126H273.077L277.736 87.7084H269.07L270.188 81.4185H295.488ZM307.36 123.864H293.383L294.501 117.388H301.024L307.966 78.0173H301.49L302.608 71.5876H316.586L307.36 123.864ZM355.313 81.4185L354.195 87.7084H340.87L339.658 94.7438H349.629L348.511 100.801H338.54L336.211 114.126H328.243L334.021 81.4185H355.313ZM365.418 92.8336C366.629 91.2805 368.012 90.0691 369.565 89.1994C371.149 88.2986 372.795 87.8482 374.503 87.8482L373.013 96.2814H370.823C368.835 96.2814 367.266 96.7162 366.117 97.5859C364.968 98.4246 364.207 99.9155 363.834 102.059L361.691 114.126H353.723L358.289 88.1278H366.257L365.418 92.8336ZM389.866 87.755C393.221 87.755 395.877 88.6713 397.834 90.504C399.822 92.3055 400.816 94.7749 400.816 97.9121C400.816 98.9371 400.738 99.8534 400.583 100.661C400.458 101.375 400.272 102.136 400.024 102.944H381.992C381.961 103.13 381.946 103.425 381.946 103.829C381.946 105.196 382.319 106.237 383.064 106.951C383.809 107.665 384.803 108.023 386.046 108.023C388.034 108.023 389.556 107.184 390.612 105.507H399.092C397.973 108.147 396.156 110.306 393.64 111.983C391.124 113.66 388.298 114.499 385.161 114.499C381.806 114.499 379.119 113.567 377.1 111.703C375.112 109.84 374.118 107.308 374.118 104.109C374.118 103.146 374.212 102.152 374.398 101.127C374.864 98.4246 375.827 96.0639 377.287 94.0449C378.746 92.026 380.564 90.4729 382.738 89.3857C384.912 88.2986 387.288 87.755 389.866 87.755ZM392.755 98.8905C392.817 98.4557 392.848 98.1606 392.848 98.0053C392.848 96.7628 392.46 95.8154 391.684 95.1632C390.907 94.4798 389.882 94.1381 388.608 94.1381C387.242 94.1381 386.03 94.5575 384.974 95.3961C383.949 96.2037 383.204 97.3685 382.738 98.8905H392.755ZM418.577 87.755C421.932 87.755 424.587 88.6713 426.544 90.504C428.532 92.3055 429.526 94.7749 429.526 97.9121C429.526 98.9371 429.448 99.8534 429.293 100.661C429.169 101.375 428.982 102.136 428.734 102.944H410.703C410.672 103.13 410.656 103.425 410.656 103.829C410.656 105.196 411.029 106.237 411.774 106.951C412.52 107.665 413.514 108.023 414.756 108.023C416.744 108.023 418.266 107.184 419.322 105.507H427.802C426.684 108.147 424.867 110.306 422.351 111.983C419.835 113.66 417.008 114.499 413.871 114.499C410.517 114.499 407.83 113.567 405.811 111.703C403.823 109.84 402.829 107.308 402.829 104.109C402.829 103.146 402.922 102.152 403.108 101.127C403.574 98.4246 404.537 96.0639 405.997 94.0449C407.457 92.026 409.274 90.4729 411.448 89.3857C413.623 88.2986 415.999 87.755 418.577 87.755ZM421.466 98.8905C421.528 98.4557 421.559 98.1606 421.559 98.0053C421.559 96.7628 421.171 95.8154 420.394 95.1632C419.617 94.4798 418.592 94.1381 417.319 94.1381C415.952 94.1381 414.741 94.5575 413.685 95.3961C412.66 96.2037 411.914 97.3685 411.448 98.8905H421.466ZM484.675 81.4185L478.898 114.126H470.93L474.425 94.5109L463.615 114.126H457.186L453.272 94.4177L449.824 114.126H441.857L447.634 81.4185H457.046L462.264 104.062L475.31 81.4185H484.675ZM493.712 85.4254C492.47 85.4254 491.476 85.0993 490.731 84.447C490.016 83.7636 489.659 82.9095 489.659 81.8844C489.659 80.4867 490.202 79.2908 491.29 78.2968C492.377 77.3029 493.697 76.8059 495.25 76.8059C496.492 76.8059 497.471 77.1476 498.185 77.8309C498.9 78.4832 499.257 79.3374 499.257 80.3935C499.257 81.7602 498.713 82.9405 497.626 83.9345C496.539 84.9284 495.234 85.4254 493.712 85.4254ZM497.16 88.1278L492.594 114.126H484.627L489.193 88.1278H497.16ZM518.822 87.8482C521.431 87.8482 523.481 88.5782 524.972 90.038C526.463 91.4979 527.208 93.5324 527.208 96.1416C527.208 97.0113 527.115 97.9431 526.929 98.9371L524.226 114.126H516.306L518.822 100.009C518.915 99.4807 518.962 99.0148 518.962 98.611C518.962 97.3064 518.589 96.2969 517.843 95.5825C517.129 94.8681 516.119 94.5109 514.815 94.5109C513.262 94.5109 511.957 94.9923 510.901 95.9552C509.845 96.9181 509.162 98.2693 508.851 100.009V99.7758L506.335 114.126H498.368L502.934 88.1278H510.901L510.295 91.6222C511.32 90.4729 512.563 89.5566 514.023 88.8732C515.514 88.1899 517.113 87.8482 518.822 87.8482ZM540.572 105.18C540.541 105.336 540.526 105.538 540.526 105.786C540.526 106.345 540.681 106.749 540.992 106.998C541.333 107.246 541.877 107.37 542.622 107.37H545.464L544.253 114.126H540.2C534.981 114.126 532.372 111.936 532.372 107.557C532.372 106.904 532.45 106.081 532.605 105.087L534.469 94.7438H531.3L532.465 88.1278H535.634L536.752 81.7913H544.719L543.601 88.1278H548.819L547.654 94.7438H542.436L540.572 105.18Z" fill="white"/>
<path fill-rule="evenodd" clip-rule="evenodd" d="M123.965 43.568C109.889 43.568 97.894 53.7868 95.6575 67.6847L90.4669 99.9407C87.6623 117.369 101.122 133.168 118.775 133.168H431.404L425.021 155.219C424.576 156.757 426.219 158.063 427.617 157.282L470.767 133.168H548.035C562.111 133.168 574.106 122.949 576.342 109.051L581.533 76.7953C584.338 59.3669 570.878 43.568 553.225 43.568H123.965Z" fill="url(#paint0_linear_39991_93977)"/>
<path d="M133.366 90.1812C133.883 87.1993 134.986 84.5471 136.678 82.2247C138.398 79.8736 140.52 78.0529 143.043 76.7627C145.566 75.4438 148.29 74.7843 151.215 74.7843C154.799 74.7843 157.695 75.7305 159.902 77.6229C162.139 79.5152 163.4 82.0957 163.687 85.3643H155.602C155.229 84.1314 154.541 83.1996 153.537 82.5688C152.562 81.9093 151.358 81.5796 149.925 81.5796C147.659 81.5796 145.695 82.3681 144.032 83.945C142.37 85.4933 141.309 87.572 140.85 90.1812C140.707 90.984 140.635 91.6865 140.635 92.2886C140.635 94.2956 141.194 95.8869 142.312 97.0625C143.43 98.238 144.964 98.8258 146.914 98.8258C148.319 98.8258 149.624 98.4961 150.828 97.8366C152.061 97.1772 153.093 96.231 153.924 94.9981H162.01C160.576 98.2667 158.411 100.847 155.516 102.74C152.62 104.603 149.38 105.535 145.796 105.535C143.215 105.535 140.965 105.033 139.044 104.03C137.123 103.026 135.646 101.607 134.614 99.772C133.582 97.937 133.065 95.8009 133.065 93.3638C133.065 92.2742 133.166 91.2134 133.366 90.1812ZM175.459 85.6654C176.577 84.2318 177.853 83.1135 179.287 82.3107C180.749 81.4792 182.269 81.0635 183.846 81.0635L182.47 88.8479H180.448C178.613 88.8479 177.165 89.2494 176.104 90.0522C175.043 90.8263 174.341 92.2026 173.997 94.1809L172.019 105.32H164.664L168.879 81.3215H176.233L175.459 85.6654ZM198.027 80.9775C201.124 80.9775 203.575 81.8233 205.381 83.515C207.216 85.1779 208.134 87.4574 208.134 90.3532C208.134 91.2994 208.062 92.1452 207.919 92.8907C207.804 93.5502 207.632 94.2526 207.403 94.9981H190.759C190.73 95.1701 190.716 95.4425 190.716 95.8152C190.716 97.0768 191.06 98.0373 191.748 98.6968C192.436 99.3562 193.353 99.686 194.5 99.686C196.335 99.686 197.74 98.9118 198.715 97.3635H206.543C205.51 99.8006 203.833 101.793 201.511 103.342C199.188 104.89 196.579 105.664 193.683 105.664C190.587 105.664 188.106 104.804 186.243 103.084C184.408 101.363 183.49 99.0265 183.49 96.0733C183.49 95.1845 183.576 94.267 183.748 93.3208C184.178 90.8263 185.067 88.6472 186.415 86.7836C187.762 84.9199 189.44 83.4863 191.447 82.4828C193.454 81.4792 195.647 80.9775 198.027 80.9775ZM200.694 91.2564C200.751 90.855 200.78 90.5826 200.78 90.4392C200.78 89.2924 200.421 88.4179 199.704 87.8158C198.988 87.185 198.041 86.8696 196.866 86.8696C195.604 86.8696 194.486 87.2566 193.511 88.0308C192.565 88.7763 191.877 89.8515 191.447 91.2564H200.694ZM210.25 93.2778C210.68 90.812 211.526 88.6472 212.788 86.7836C214.049 84.9199 215.569 83.4863 217.347 82.4828C219.124 81.4792 221.002 80.9775 222.981 80.9775C224.672 80.9775 226.092 81.3215 227.239 82.0097C228.385 82.6978 229.217 83.601 229.733 84.7192L230.335 81.3215H237.689L233.432 105.32H226.077L226.722 101.922C225.805 103.041 224.644 103.944 223.239 104.632C221.834 105.32 220.286 105.664 218.594 105.664C216.902 105.664 215.397 105.277 214.078 104.503C212.788 103.729 211.784 102.639 211.068 101.234C210.351 99.8006 209.992 98.1233 209.992 96.2023C209.992 95.2848 210.078 94.31 210.25 93.2778ZM228.228 93.3208C228.314 92.8047 228.357 92.3316 228.357 91.9015C228.357 90.4966 227.941 89.3927 227.109 88.5899C226.307 87.7871 225.274 87.3857 224.013 87.3857C222.551 87.3857 221.217 87.9161 220.013 88.977C218.809 90.0092 218.049 91.4428 217.734 93.2778C217.648 93.7939 217.605 94.267 217.605 94.697C217.605 96.102 218.006 97.2202 218.809 98.0517C219.64 98.8545 220.673 99.2559 221.906 99.2559C223.368 99.2559 224.701 98.7254 225.905 97.6646C227.109 96.6037 227.884 95.1558 228.228 93.3208ZM248.73 97.0625C248.701 97.2058 248.687 97.3922 248.687 97.6216C248.687 98.1377 248.83 98.5104 249.117 98.7398C249.433 98.9692 249.934 99.0838 250.622 99.0838H253.246L252.128 105.32H248.386C243.569 105.32 241.161 103.299 241.161 99.2559C241.161 98.6538 241.232 97.894 241.376 96.9765L243.096 87.4287H240.171L241.247 81.3215H244.171L245.203 75.4725H252.558L251.526 81.3215H256.342L255.267 87.4287H250.45L248.73 97.0625ZM271.191 80.9775C274.288 80.9775 276.739 81.8233 278.545 83.515C280.38 85.1779 281.298 87.4574 281.298 90.3532C281.298 91.2994 281.226 92.1452 281.083 92.8907C280.968 93.5502 280.796 94.2526 280.567 94.9981H263.923C263.894 95.1701 263.88 95.4425 263.88 95.8152C263.88 97.0768 264.224 98.0373 264.912 98.6968C265.6 99.3562 266.517 99.686 267.664 99.686C269.499 99.686 270.904 98.9118 271.879 97.3635H279.707C278.674 99.8006 276.997 101.793 274.675 103.342C272.352 104.89 269.743 105.664 266.847 105.664C263.751 105.664 261.27 104.804 259.407 103.084C257.572 101.363 256.654 99.0265 256.654 96.0733C256.654 95.1845 256.74 94.267 256.912 93.3208C257.342 90.8263 258.231 88.6472 259.579 86.7836C260.926 84.9199 262.604 83.4863 264.611 82.4828C266.618 81.4792 268.811 80.9775 271.191 80.9775ZM273.858 91.2564C273.915 90.855 273.944 90.5826 273.944 90.4392C273.944 89.2924 273.585 88.4179 272.868 87.8158C272.152 87.185 271.205 86.8696 270.03 86.8696C268.768 86.8696 267.65 87.2566 266.675 88.0308C265.729 88.7763 265.041 89.8515 264.611 91.2564H273.858ZM292.317 98.3527L285.35 110.825H280.533L284.834 98.3527H292.317ZM344.679 75.1284L339.346 105.32H331.991L335.217 87.2136L325.239 105.32H319.304L315.691 87.1276L312.509 105.32H305.154L310.487 75.1284H319.175L323.992 96.0303L336.034 75.1284H344.679ZM353.021 78.8271C351.874 78.8271 350.956 78.526 350.268 77.9239C349.609 77.2931 349.279 76.5046 349.279 75.5585C349.279 74.2682 349.781 73.1644 350.784 72.2469C351.788 71.3293 353.006 70.8706 354.44 70.8706C355.587 70.8706 356.49 71.186 357.15 71.8168C357.809 72.4189 358.139 73.2074 358.139 74.1822C358.139 75.4438 357.637 76.5333 356.633 77.4508C355.63 78.3683 354.426 78.8271 353.021 78.8271ZM356.203 81.3215L351.989 105.32H344.634L348.849 81.3215H356.203ZM376.199 81.0635C378.607 81.0635 380.5 81.7373 381.876 83.0849C383.252 84.4325 383.94 86.3105 383.94 88.7189C383.94 89.5217 383.854 90.3819 383.682 91.2994L381.188 105.32H373.876L376.199 92.2886C376.285 91.8012 376.328 91.3711 376.328 90.9983C376.328 89.7941 375.984 88.8623 375.296 88.2028C374.636 87.5434 373.704 87.2136 372.5 87.2136C371.066 87.2136 369.862 87.6581 368.887 88.5469C367.913 89.4357 367.282 90.683 366.995 92.2886V92.0735L364.673 105.32H357.318L361.533 81.3215H368.887L368.328 84.5471C369.274 83.4863 370.421 82.6405 371.769 82.0097C373.145 81.3789 374.622 81.0635 376.199 81.0635ZM396.276 97.0625C396.247 97.2058 396.233 97.3922 396.233 97.6216C396.233 98.1377 396.376 98.5104 396.663 98.7398C396.979 98.9692 397.48 99.0838 398.168 99.0838H400.792L399.674 105.32H395.932C391.115 105.32 388.707 103.299 388.707 99.2559C388.707 98.6538 388.778 97.894 388.922 96.9765L390.642 87.4287H387.717L388.793 81.3215H391.717L392.749 75.4725H400.104L399.072 81.3215H403.888L402.813 87.4287H397.996L396.276 97.0625ZM413.361 98.3527L406.394 110.825H401.577L405.878 98.3527H413.361ZM437.853 80.9345L436.778 87.2136H446.627L445.638 92.7617H435.789L434.585 99.5139H445.724L444.692 105.32H426.198L431.531 75.1284H450.025L448.992 80.9345H437.853ZM450.154 93.2778C450.584 90.812 451.43 88.6472 452.692 86.7836C453.953 84.9199 455.473 83.4863 457.251 82.4828C459.028 81.4792 460.906 80.9775 462.885 80.9775C464.576 80.9775 465.996 81.3215 467.142 82.0097C468.289 82.6978 469.121 83.601 469.637 84.7192L470.239 81.3215H477.593L473.336 105.32H465.981L466.626 101.922C465.709 103.041 464.548 103.944 463.143 104.632C461.738 105.32 460.19 105.664 458.498 105.664C456.806 105.664 455.301 105.277 453.982 104.503C452.692 103.729 451.688 102.639 450.971 101.234C450.255 99.8006 449.896 98.1233 449.896 96.2023C449.896 95.2848 449.982 94.31 450.154 93.2778ZM468.132 93.3208C468.218 92.8047 468.261 92.3316 468.261 91.9015C468.261 90.4966 467.845 89.3927 467.013 88.5899C466.211 87.7871 465.178 87.3857 463.917 87.3857C462.455 87.3857 461.121 87.9161 459.917 88.977C458.713 90.0092 457.953 91.4428 457.638 93.2778C457.552 93.7939 457.509 94.267 457.509 94.697C457.509 96.102 457.91 97.2202 458.713 98.0517C459.544 98.8545 460.577 99.2559 461.809 99.2559C463.272 99.2559 464.605 98.7254 465.809 97.6646C467.013 96.6037 467.788 95.1558 468.132 93.3208ZM489.451 85.6654C490.569 84.2318 491.845 83.1135 493.279 82.3107C494.741 81.4792 496.261 81.0635 497.838 81.0635L496.462 88.8479H494.44C492.605 88.8479 491.157 89.2494 490.096 90.0522C489.035 90.8263 488.333 92.2026 487.989 94.1809L486.011 105.32H478.656L482.871 81.3215H490.225L489.451 85.6654ZM515.933 81.0635C518.341 81.0635 520.234 81.7373 521.61 83.0849C522.986 84.4325 523.674 86.3105 523.674 88.7189C523.674 89.5217 523.588 90.3819 523.416 91.2994L520.922 105.32H513.61L515.933 92.2886C516.019 91.8012 516.062 91.3711 516.062 90.9983C516.062 89.7941 515.718 88.8623 515.03 88.2028C514.37 87.5434 513.438 87.2136 512.234 87.2136C510.8 87.2136 509.596 87.6581 508.621 88.5469C507.647 89.4357 507.016 90.683 506.729 92.2886V92.0735L504.407 105.32H497.052L501.267 81.3215H508.621L508.062 84.5471C509.008 83.4863 510.155 82.6405 511.503 82.0097C512.879 81.3789 514.356 81.0635 515.933 81.0635ZM541.257 74.0532L536.741 94.654H530.505L533.301 74.0532H541.257ZM531.795 105.664C530.648 105.664 529.731 105.363 529.043 104.761C528.383 104.13 528.054 103.342 528.054 102.395C528.054 101.077 528.541 99.9583 529.516 99.0408C530.519 98.1233 531.752 97.6646 533.215 97.6646C534.333 97.6646 535.222 97.98 535.881 98.6108C536.541 99.2129 536.87 100.001 536.87 100.976C536.87 102.266 536.368 103.37 535.365 104.288C534.39 105.205 533.2 105.664 531.795 105.664Z" fill="white"/>
<path d="M181.756 186.262V182.753L196.494 188.367V191.525L181.756 196.789V193.28L190.178 189.771L181.756 186.262Z" fill="#1A1A1A"/>
<path fill-rule="evenodd" clip-rule="evenodd" d="M289.825 171.851H274.465V207.691H289.825V171.851ZM233.505 171.851L210.83 207.325H225.824L229.482 201.84H251.425L255.082 207.325H270.442L247.767 171.851H233.505ZM234.602 192.697L240.453 182.457L246.305 192.697H234.602Z" fill="#1A1A1A"/>
<path d="M319.367 171.851C322.132 171.851 324.521 172.295 326.535 173.182C328.583 174.035 330.153 175.264 331.245 176.869C332.372 178.473 332.935 180.333 332.935 182.449C332.935 184.429 332.44 186.221 331.45 187.825C330.46 189.43 329.214 190.846 327.713 192.075C326.211 193.304 324.146 194.806 321.517 196.581C320.05 197.536 318.855 198.355 317.933 199.038H333.345V207.691H304.161V205.233C304.161 203.424 304.57 201.82 305.389 200.421C306.243 198.987 307.471 197.553 309.076 196.12C310.714 194.686 313.069 192.741 316.141 190.283C318.599 188.337 320.323 186.853 321.313 185.829C322.302 184.805 322.797 183.798 322.797 182.808C322.797 181.75 322.422 180.862 321.671 180.145C320.954 179.429 319.862 179.07 318.394 179.07C316.858 179.07 315.646 179.514 314.759 180.401C313.871 181.289 313.428 182.449 313.428 183.883V184.907H304.314C304.28 184.634 304.263 184.258 304.263 183.781C304.263 180.094 305.543 177.193 308.103 175.077C310.697 172.926 314.452 171.851 319.367 171.851Z" fill="#1A1A1A"/>
<path fill-rule="evenodd" clip-rule="evenodd" d="M403.697 207.691V171.851H444.183V180.479H418.298V186.452H440.201V193.089H418.298V207.691H403.697ZM347.68 207.691V171.851H364.937L384.848 195.744V171.851H400.113V207.691H382.857L362.282 183.134V207.691H347.68ZM447.767 171.851V181.143H461.705V207.691H476.306V181.143H490.244V171.851H447.767Z" fill="#1A1A1A"/>
</g>
<defs>
<linearGradient id="paint0_linear_39991_93977" x1="89.2167" y1="112.061" x2="582.783" y2="112.061" gradientUnits="userSpaceOnUse">
<stop offset="0.355" stop-color="#406AFF"/>
<stop offset="1" stop-color="#F42DF8"/>
</linearGradient>
<clipPath id="clip0_39991_93977">
<rect width="672" height="252" fill="white"/>
</clipPath>
</defs>
</svg>
