<svg viewBox="0 0 24 24" fill="none" xmlns="http://www.w3.org/2000/svg">
<path fill-rule="evenodd" clip-rule="evenodd" d="M22.0267 12.7796C22.3512 12.6234 22.5575 12.2951 22.5575 11.9349C22.5575 11.5748 22.3512 11.2465 22.0267 11.0902L3.8894 2.35748C3.54307 2.19072 3.13002 2.25228 2.84736 2.51278C2.5647 2.77328 2.4697 3.17994 2.60769 3.53871L5.83701 11.9349L2.60769 20.3312C2.4697 20.6899 2.5647 21.0966 2.84736 21.3571C3.13002 21.6176 3.54307 21.6791 3.8894 21.5124L22.0267 12.7796ZM6.84636 9.3361L5.20659 5.07269L19.4589 11.9349L5.20659 18.7972L6.8863 14.4299L11.3363 12.4694C11.7782 12.2747 11.7855 11.6502 11.3481 11.4453L6.84636 9.3361Z" fill="none"/>
</svg>
