<svg xmlns="http://www.w3.org/2000/svg" width="160" height="20" viewBox="0 0 160 20" fill="none">
  <path d="M3 4.00281V3.00281H4H5V2.00281V1.00281H155V2.00281V3.00281H156H157V4.00281V5.00281H158H159V15.0028H158H157V16.0028V17.0028H156H155V18.0028V19.0028H5V18.0028V17.0028H4H3V16.0028V15.0028H2H1V5.00281H2H3V4.00281Z" fill="#D6D1E7" stroke="#B1A7D0" stroke-width="2"/>
  <path d="M2 12.0028H0V16.0028H2V18.0028H4V20.0028H156V18.0028H158V16.0028H160V12.0028H158V16.0028H156V18.0028H4V16.0028H2V12.0028Z" fill="#9386BE"/>
  <path d="M2 14.0028H4V16.0028H2V14.0028Z" fill="#D6D1E7"/>
  <path d="M4 16.0028H6V18.0028H4V16.0028Z" fill="#D6D1E7"/>
  <path d="M156 14.0028H158V16.0028H156V14.0028Z" fill="#D6D1E7"/>
  <path d="M156 16.0028V18.0028H154V16.0028H156Z" fill="#D6D1E7"/>
  <path d="M4 10.0028H2V6.00281H4V4.00281H6V2.00281H154V4.00281H156V6.00281H158V10.0028H156V8.00281H154V6.00281H6V8.00281H4V10.0028Z" fill="#BBB2D6"/>
  <path d="M2 6.00281H4V4.00281H2V6.00281Z" fill="#BBB2D6"/>
  <path d="M4 4.00281H6V2.00281H4V4.00281Z" fill="#BBB2D6"/>
  <path d="M156 6.00281H158V4.00281H156V6.00281Z" fill="#BBB2D6"/>
  <path d="M156 4.00281V2.00281H154V4.00281H156Z" fill="#BBB2D6"/>
  <path d="M4 4.00281V2.00281H116V4.00281H118V16.0028H116V18.0028H4V16.0028H2V4.00281H4Z" fill="#FFC554"/>
  <path d="M4 14.0028H116V16.0028H4V14.0028Z" fill="#FFB933"/>
  <path d="M4 14.0028H2V16.0028H4V18.0028H116V16.0028H118V14.0028H116V16.0028H4V14.0028Z" fill="#E89900"/>
</svg>