<svg width="6" height="20" viewBox="0 0 6 20" fill="none" xmlns="http://www.w3.org/2000/svg">
<mask id="mask0_826_4526" style="mask-type:alpha" maskUnits="userSpaceOnUse" x="0" y="0" width="6" height="20">
<rect width="6" height="20" fill="#D9D9D9"/>
</mask>
<g mask="url(#mask0_826_4526)">
<path d="M157 4V5H158H159V15H158H157V16V17H156H155V18V19H5V18V17H4H3V16V15H2H1V5H2H3V4V3H4H5V2V1H155V2V3H156H157V4Z" fill="#D6D1E7" stroke="#B1A7D0" stroke-width="2"/>
<path d="M2 12H0V16H2V18H4V20H156V18H158V16H160V12H158V16H156V18H4V16H2V12Z" fill="#9386BE"/>
<path d="M2 14H4V16H2V14Z" fill="#D6D1E7"/>
<path d="M4 16H6V18H4V16Z" fill="#D6D1E7"/>
<path d="M156 14H158V16H156V14Z" fill="#D6D1E7"/>
<path d="M156 16V18H154V16H156Z" fill="#D6D1E7"/>
<path d="M4 10H2V6H4V4H6V2H154V4H156V6H158V10H156V8H154V6H6V8H4V10Z" fill="#BBB2D6"/>
<path d="M2 6H4V4H2V6Z" fill="#BBB2D6"/>
<path d="M4 4H6V2H4V4Z" fill="#BBB2D6"/>
<path d="M156 6H158V4H156V6Z" fill="#BBB2D6"/>
<path d="M156 4V2H154V4H156Z" fill="#BBB2D6"/>
</g>
</svg>
