<svg width="40" height="40" viewBox="0 0 40 40" fill="none" xmlns="http://www.w3.org/2000/svg">
<g opacity="0.7">
<path d="M27 14C27 14.5304 27.2107 15.0391 27.5858 15.4142C27.9609 15.7893 28.4696 16 29 16C29.5304 16 30.0391 15.7893 30.4142 15.4142C30.7893 15.0391 31 14.5304 31 14C31 13.4696 30.7893 12.9609 30.4142 12.5858C30.0391 12.2107 29.5304 12 29 12C28.4696 12 27.9609 12.2107 27.5858 12.5858C27.2107 12.9609 27 13.4696 27 14Z" fill="#E2E8E6"/>
<path d="M34.7625 8.38176C34.6789 8.28626 34.5773 8.20809 34.4633 8.15173C34.3494 8.09537 34.2254 8.06191 34.0985 8.05328L20.2991 7.0929C20.143 7.08086 19.9862 7.10725 19.8428 7.16974C19.6993 7.23223 19.5734 7.32891 19.4764 7.45123L16.6877 10.9084C16.5461 11.0837 16.4707 11.3028 16.4744 11.5276C16.4781 11.7524 16.5608 11.9689 16.708 12.1395L21.1287 17.2554L16.6683 23.115L17.7718 17.896C17.8084 17.7227 17.7964 17.5428 17.7369 17.3759C17.6775 17.2091 17.573 17.0617 17.4349 16.9501L11.6436 12.2618L14.0519 8.47808C14.1475 8.32756 14.1994 8.1536 14.2017 7.97553C14.2039 7.79745 14.1566 7.62224 14.0648 7.46934C13.973 7.31645 13.8405 7.19186 13.6819 7.10942C13.5232 7.02698 13.3447 6.98992 13.1662 7.00235L5.90067 7.5071C5.77379 7.5159 5.6499 7.5495 5.53607 7.60597C5.42225 7.66245 5.32072 7.74069 5.2373 7.83624C5.15387 7.93178 5.09019 8.04275 5.04989 8.1628C5.00958 8.28284 4.99345 8.40962 5.0024 8.53588L6.69053 32.558C6.69961 32.6845 6.73366 32.808 6.79074 32.9214C6.84782 33.0348 6.9268 33.1359 7.02317 33.219C7.11954 33.302 7.23141 33.3653 7.35239 33.4053C7.47336 33.4452 7.60106 33.4611 7.72819 33.4519L13.0675 33.055C13.6008 33.0155 14.0006 32.5532 13.9599 32.0234C13.9193 31.4936 13.4585 31.089 12.9223 31.1343L8.5529 31.4589L8.35834 28.6741L12.1489 28.2955C12.2755 28.283 12.3983 28.2457 12.5104 28.1859C12.6225 28.1261 12.7216 28.0449 12.8022 27.947C12.8827 27.849 12.9431 27.7362 12.9798 27.615C13.0165 27.4938 13.0289 27.3666 13.0162 27.2407C12.9895 26.9868 12.8632 26.7537 12.6647 26.5921C12.4662 26.4305 12.2116 26.3534 11.9563 26.3776L8.22379 26.7514L7.00125 9.36237L11.3919 9.05701L9.54796 11.9536C9.42116 12.1528 9.37221 12.3914 9.41039 12.6242C9.44857 12.8569 9.57122 13.0677 9.75511 13.2164L15.7565 18.0732L13.9793 26.4807C13.9506 26.6283 13.9582 26.7807 14.0016 26.9247C13.9959 27.0372 14.0104 27.1497 14.0442 27.2571L15.6026 31.9097C15.6619 32.0875 15.7721 32.2441 15.9196 32.3605C16.0672 32.4768 16.2456 32.5478 16.4331 32.5647L32.2564 33.9961C32.3847 34.0076 32.514 33.9935 32.6368 33.9547C32.7595 33.9159 32.8733 33.8531 32.9714 33.7701C33.0696 33.6871 33.1501 33.5854 33.2083 33.4711C33.2665 33.3567 33.3013 33.232 33.3105 33.1041L34.9977 9.08109C35.0154 8.82619 34.9308 8.5747 34.7625 8.38176ZM31.7705 27.3717L19.2905 26.1782C19.1637 26.1641 19.0353 26.1755 18.913 26.2117C18.7907 26.2479 18.6769 26.3082 18.5785 26.3889C18.48 26.4697 18.3988 26.5693 18.3397 26.6819C18.2806 26.7944 18.2448 26.9176 18.2345 27.0442C18.2223 27.1701 18.2352 27.2972 18.2724 27.4182C18.3096 27.5391 18.3704 27.6516 18.4513 27.7492C18.5322 27.8468 18.6316 27.9276 18.7439 27.9869C18.8562 28.0463 18.9791 28.0831 19.1056 28.0951L31.636 29.2934L31.4462 31.9887L17.2375 30.7027L16.0401 27.129L23.143 17.7968C23.277 17.6214 23.3464 17.4054 23.3395 17.1852C23.3326 16.9649 23.25 16.7537 23.1053 16.5869L18.7001 11.4893L20.6689 9.0493L32.9979 9.90662L31.7705 27.3717Z" fill="#E2E8E6"/>
</g>
</svg>
