<svg width="30" height="27" viewBox="0 0 30 27" fill="none" xmlns="http://www.w3.org/2000/svg">
<path d="M29.7625 1.38176C29.6789 1.28626 29.5773 1.20809 29.4633 1.15173C29.3494 1.09537 29.2254 1.06191 29.0985 1.05328L15.2991 0.092897C15.143 0.0808556 14.9862 0.107245 14.8428 0.169738C14.6993 0.232231 14.5734 0.328906 14.4764 0.451234L11.6877 3.90842C11.5461 4.08371 11.4707 4.30276 11.4744 4.5276C11.4781 4.75245 11.5608 4.96891 11.708 5.13948L16.1287 10.2554L11.6683 16.115L12.7718 10.896C12.8084 10.7227 12.7964 10.5428 12.7369 10.3759C12.6775 10.2091 12.573 10.0617 12.4349 9.95006L6.64361 5.26182L9.0519 1.47808C9.14755 1.32756 9.19938 1.1536 9.20166 0.975526C9.20394 0.797452 9.15656 0.622236 9.0648 0.469341C8.97304 0.316447 8.84048 0.191861 8.68185 0.109422C8.52322 0.0269835 8.34474 -0.01008 8.16622 0.00234927L0.900674 0.507104C0.773793 0.515903 0.649899 0.5495 0.536073 0.605975C0.422247 0.662449 0.32072 0.740694 0.237298 0.836237C0.153875 0.93178 0.090191 1.04275 0.0498864 1.1628C0.00958173 1.28284 -0.00655347 1.40962 0.00240305 1.53588L1.69053 25.558C1.69961 25.6845 1.73366 25.808 1.79074 25.9214C1.84782 26.0348 1.9268 26.1359 2.02317 26.219C2.11954 26.302 2.23141 26.3653 2.35239 26.4053C2.47336 26.4452 2.60106 26.4611 2.72819 26.4519L8.06748 26.055C8.60083 26.0155 9.0006 25.5532 8.95995 25.0234C8.91929 24.4936 8.45854 24.089 7.92229 24.1343L3.5529 24.4589L3.35834 21.6741L7.14889 21.2955C7.27545 21.283 7.39829 21.2457 7.51039 21.1859C7.62249 21.1261 7.72165 21.0449 7.80219 20.947C7.88274 20.849 7.9431 20.7362 7.97982 20.615C8.01653 20.4938 8.02889 20.3666 8.01618 20.2407C7.98952 19.9868 7.8632 19.7537 7.6647 19.5921C7.4662 19.4305 7.21159 19.3534 6.95626 19.3776L3.22379 19.7514L2.00125 2.36237L6.39194 2.05701L4.54796 4.95357C4.42116 5.15281 4.37221 5.39141 4.41039 5.62417C4.44857 5.85692 4.57122 6.06765 4.75511 6.21642L10.7565 11.0732L8.97931 19.4807C8.95056 19.6283 8.9582 19.7807 9.00157 19.9247C8.99595 20.0372 9.01037 20.1497 9.04416 20.2571L10.6026 24.9097C10.6619 25.0875 10.7721 25.2441 10.9196 25.3605C11.0672 25.4768 11.2456 25.5478 11.4331 25.5647L27.2564 26.9961C27.3847 27.0076 27.514 26.9935 27.6368 26.9547C27.7595 26.9159 27.8733 26.8531 27.9714 26.7701C28.0696 26.6871 28.1501 26.5854 28.2083 26.4711C28.2665 26.3567 28.3013 26.232 28.3105 26.1041L29.9977 2.08109C30.0154 1.82619 29.9308 1.5747 29.7625 1.38176ZM26.7705 20.3717L14.2905 19.1782C14.1637 19.1641 14.0353 19.1755 13.913 19.2117C13.7907 19.2479 13.6769 19.3082 13.5785 19.3889C13.48 19.4697 13.3988 19.5693 13.3397 19.6819C13.2806 19.7944 13.2448 19.9176 13.2345 20.0442C13.2223 20.1701 13.2352 20.2972 13.2724 20.4182C13.3096 20.5391 13.3704 20.6516 13.4513 20.7492C13.5322 20.8468 13.6316 20.9276 13.7439 20.9869C13.8562 21.0463 13.9791 21.0831 14.1056 21.0951L26.636 22.2934L26.4462 24.9887L12.2375 23.7027L11.0401 20.129L18.143 10.7968C18.277 10.6214 18.3464 10.4054 18.3395 10.1852C18.3326 9.96494 18.25 9.75373 18.1053 9.58691L13.7001 4.48927L15.6689 2.0493L27.9979 2.90662L26.7705 20.3717Z" fill="#ACB8B6"/>
</svg>
