<svg width="80" height="18" viewBox="0 0 80 18" fill="none" xmlns="http://www.w3.org/2000/svg">
<path d="M78.7119 1.00781H70.4385V3.62469H78.7119V1.00781Z" fill="#051D17"/>
<path d="M75.8633 15.6945V5.79688H73.2819V15.6945H75.8633Z" fill="#051D17"/>
<path d="M78.7123 3.61915C79.4236 3.61915 80.0002 3.03459 80.0002 2.31348C80.0002 1.59238 79.4236 1.00781 78.7123 1.00781C78.0009 1.00781 77.4243 1.59238 77.4243 2.31348C77.4243 3.03459 78.0009 3.61915 78.7123 3.61915Z" fill="#051D17"/>
<path d="M70.4388 3.61915C71.1501 3.61915 71.7268 3.03459 71.7268 2.31348C71.7268 1.59238 71.1501 1.00781 70.4388 1.00781C69.7275 1.00781 69.1509 1.59238 69.1509 2.31348C69.1509 3.03459 69.7275 3.61915 70.4388 3.61915Z" fill="#051D17"/>
<path d="M74.5755 17.002C75.2869 17.002 75.8635 16.4174 75.8635 15.6963C75.8635 14.9752 75.2869 14.3906 74.5755 14.3906C73.8642 14.3906 73.2876 14.9752 73.2876 15.6963C73.2876 16.4174 73.8642 17.002 74.5755 17.002Z" fill="#051D17"/>
<path d="M74.5755 7.10353C75.2869 7.10353 75.8635 6.51896 75.8635 5.79786C75.8635 5.07676 75.2869 4.49219 74.5755 4.49219C73.8642 4.49219 73.2876 5.07676 73.2876 5.79786C73.2876 6.51896 73.8642 7.10353 74.5755 7.10353Z" fill="#051D17"/>
<path d="M9.56141 6.37808H2.5814V3.61183H9.56141C9.73796 3.62347 9.91499 3.59827 10.0816 3.53779C10.2481 3.4773 10.4007 3.38282 10.5298 3.26018C10.6589 3.13753 10.7618 2.98935 10.8321 2.82478C10.9025 2.6602 10.9388 2.48275 10.9388 2.30339C10.9388 2.12403 10.9025 1.94658 10.8321 1.78201C10.7618 1.61744 10.6589 1.46925 10.5298 1.34661C10.4007 1.22397 10.2481 1.12948 10.0816 1.06899C9.91499 1.00851 9.73796 0.983309 9.56141 0.994954H1.28799C1.11793 0.994948 0.949559 1.02908 0.792583 1.09539C0.635606 1.1617 0.493137 1.25886 0.373396 1.38128C0.253656 1.5037 0.159015 1.64894 0.0949347 1.80863C0.0308549 1.96832 -0.00139491 2.1393 4.62538e-05 2.31169V15.6948C0.0213731 16.0271 0.16663 16.3388 0.406333 16.5665C0.646036 16.7942 0.962225 16.9209 1.29072 16.9209C1.61922 16.9209 1.93541 16.7942 2.17511 16.5665C2.41481 16.3388 2.56007 16.0271 2.5814 15.6948V8.99496H9.56141C9.73796 9.0066 9.91499 8.9814 10.0816 8.92091C10.2481 8.86043 10.4007 8.76594 10.5298 8.6433C10.6589 8.52066 10.7618 8.37247 10.8321 8.2079C10.9025 8.04333 10.9388 7.86588 10.9388 7.68652C10.9388 7.50716 10.9025 7.3297 10.8321 7.16513C10.7618 7.00056 10.6589 6.85237 10.5298 6.72973C10.4007 6.60709 10.2481 6.51261 10.0816 6.45212C9.91499 6.39164 9.73796 6.36644 9.56141 6.37808Z" fill="#051D17"/>
<path d="M37.2197 10.3075H32.9247C32.7482 10.2958 32.5712 10.321 32.4046 10.3815C32.238 10.442 32.0855 10.5365 31.9564 10.6591C31.8273 10.7817 31.7244 10.9299 31.654 11.0945C31.5837 11.2591 31.5474 11.4365 31.5474 11.6159C31.5474 11.7953 31.5837 11.9727 31.654 12.1373C31.7244 12.3018 31.8273 12.45 31.9564 12.5727C32.0855 12.6953 32.238 12.7898 32.4046 12.8503C32.5712 12.9108 32.7482 12.936 32.9247 12.9243H35.9318V15.6906C35.9531 16.0229 36.0984 16.3345 36.3381 16.5622C36.5778 16.7899 36.8939 16.9167 37.2224 16.9167C37.5509 16.9167 37.8671 16.7899 38.1068 16.5622C38.3465 16.3345 38.4918 16.0229 38.5131 15.6906V11.6131C38.5131 11.4412 38.4796 11.271 38.4146 11.1122C38.3495 10.9534 38.2541 10.8092 38.134 10.6879C38.0138 10.5666 37.8712 10.4705 37.7143 10.4052C37.5574 10.34 37.3893 10.3067 37.2197 10.3075Z" fill="#051D17"/>
<path d="M37.2194 1H28.9242C28.5826 1 28.255 1.13756 28.0135 1.38242C27.7719 1.62728 27.6362 1.95939 27.6362 2.30567V15.6943C27.6576 16.0266 27.8028 16.3383 28.0425 16.566C28.2822 16.7937 28.5984 16.9204 28.9269 16.9204C29.2554 16.9204 29.5716 16.7937 29.8113 16.566C30.051 16.3383 30.1963 16.0266 30.2176 15.6943V8.99447H37.2194C37.5615 8.99447 37.8897 8.85709 38.1321 8.61238C38.3745 8.36768 38.5114 8.03559 38.5128 7.6888V2.3112C38.5128 1.96345 38.3766 1.62994 38.134 1.38404C37.8914 1.13814 37.5625 1 37.2194 1ZM30.2394 3.62241H35.9315V6.38866H30.2394V3.62241Z" fill="#051D17"/>
<path d="M23.3905 1H15.117C14.7755 1 14.4479 1.13756 14.2063 1.38242C13.9648 1.62728 13.8291 1.95939 13.8291 2.30567V15.6888C13.8291 16.0356 13.9646 16.3683 14.206 16.614C14.4474 16.8597 14.775 16.9985 15.117 17H23.3905C23.7335 17 24.0625 16.8619 24.305 16.616C24.5476 16.3701 24.6839 16.0365 24.6839 15.6888V2.30567C24.6824 1.95888 24.5455 1.62679 24.3031 1.38208C24.0607 1.13738 23.7325 0.999997 23.3905 1V1ZM22.5719 13.4205H20.0997V14.278C20.109 14.396 20.0942 14.5148 20.0561 14.6267C20.0179 14.7386 19.9574 14.8413 19.8782 14.9284C19.799 15.0154 19.7028 15.0848 19.5958 15.1323C19.4888 15.1798 19.3733 15.2044 19.2565 15.2044C19.1397 15.2044 19.0241 15.1798 18.9171 15.1323C18.8101 15.0848 18.714 15.0154 18.6348 14.9284C18.5556 14.8413 18.495 14.7386 18.4569 14.6267C18.4188 14.5148 18.4039 14.396 18.4133 14.278V13.4205H15.9411C15.7931 13.42 15.6479 13.3801 15.5198 13.3049C15.3918 13.2297 15.2855 13.1217 15.2115 12.9918C15.1375 12.8619 15.0983 12.7146 15.0981 12.5646C15.0978 12.4146 15.1363 12.2671 15.2098 12.1369L17.0326 8.92808H16.7816C16.6328 8.92813 16.4866 8.88841 16.3578 8.81291C16.229 8.73741 16.1221 8.6288 16.048 8.49806C15.9738 8.36731 15.935 8.21905 15.9354 8.06822C15.9358 7.91739 15.9754 7.76934 16.0503 7.639L18.5225 3.29046C18.5976 3.1608 18.7049 3.0533 18.8336 2.97861C18.9624 2.90391 19.1081 2.86462 19.2565 2.86462C19.4048 2.86462 19.5506 2.90391 19.6793 2.97861C19.8081 3.0533 19.9154 3.1608 19.9905 3.29046L22.4627 7.639C22.5362 7.7692 22.5748 7.91667 22.5745 8.06668C22.5742 8.2167 22.5351 8.36401 22.4611 8.49391C22.3871 8.62382 22.2807 8.73176 22.1527 8.80698C22.0246 8.88219 21.8794 8.92204 21.7314 8.92254H21.4804L23.3031 12.1314C23.378 12.2617 23.4176 12.4098 23.418 12.5606C23.4185 12.7114 23.3796 12.8597 23.3054 12.9905C23.2313 13.1212 23.1244 13.2298 22.9956 13.3053C22.8668 13.3808 22.7206 13.4205 22.5719 13.4205Z" fill="#00BF91"/>
<path d="M44.0683 10.308H51.0538C51.3816 10.2864 51.689 10.1391 51.9136 9.89612C52.1382 9.65312 52.2632 9.33258 52.2632 8.99956C52.2632 8.66654 52.1382 8.346 51.9136 8.103C51.689 7.86 51.3816 7.71274 51.0538 7.69112H44.0683V3.62473H51.0538C51.3816 3.60311 51.689 3.45586 51.9136 3.21286C52.1382 2.96985 52.2632 2.64931 52.2632 2.3163C52.2632 1.98328 52.1382 1.66274 51.9136 1.41974C51.689 1.17674 51.3816 1.02948 51.0538 1.00786H42.7804C42.6101 1.0064 42.4412 1.03906 42.2833 1.10395C42.1255 1.16885 41.9819 1.2647 41.8607 1.38602C41.7395 1.50733 41.6431 1.65172 41.5771 1.81089C41.5111 1.97006 41.4768 2.14087 41.4761 2.31353V15.6967C41.4775 16.0434 41.6144 16.3755 41.8568 16.6202C42.0992 16.8649 42.4274 17.0023 42.7695 17.0023H51.0538C51.3816 16.9807 51.689 16.8335 51.9136 16.5904C52.1382 16.3474 52.2632 16.0269 52.2632 15.6939C52.2632 15.3609 52.1382 15.0403 51.9136 14.7973C51.689 14.5543 51.3816 14.4071 51.0538 14.3855H44.0683V10.308Z" fill="#051D17"/>
<path d="M64.8832 7.69108H57.8977V3.62469H64.8832C65.211 3.60307 65.5184 3.45581 65.743 3.21281C65.9677 2.96981 66.0926 2.64927 66.0926 2.31625C66.0926 1.98323 65.9677 1.66269 65.743 1.41969C65.5184 1.17669 65.211 1.02943 64.8832 1.00781H56.6098C56.2677 1.00781 55.9396 1.14519 55.6971 1.3899C55.4547 1.6346 55.3178 1.96669 55.3164 2.31348V8.99675C55.3164 9.3445 55.4527 9.67801 55.6952 9.92391C55.9378 10.1698 56.2668 10.308 56.6098 10.308H63.5898V14.3854H56.6098C56.4332 14.3738 56.2562 14.399 56.0897 14.4594C55.9231 14.5199 55.7705 14.6144 55.6414 14.7371C55.5123 14.8597 55.4094 15.0079 55.3391 15.1725C55.2687 15.337 55.2324 15.5145 55.2324 15.6938C55.2324 15.8732 55.2687 16.0507 55.3391 16.2152C55.4094 16.3798 55.5123 16.528 55.6414 16.6506C55.7705 16.7733 55.9231 16.8678 56.0897 16.9282C56.2562 16.9887 56.4332 17.0139 56.6098 17.0023H64.8832C65.2248 17.0023 65.5524 16.8647 65.7939 16.6199C66.0355 16.375 66.1712 16.0429 66.1712 15.6966V8.99675C66.1712 8.65046 66.0355 8.31836 65.7939 8.0735C65.5524 7.82864 65.2248 7.69108 64.8832 7.69108Z" fill="#051D17"/>
</svg>
