<svg width="18" height="18" viewBox="0 0 18 18" fill="none" xmlns="http://www.w3.org/2000/svg">
<path d="M7.65856 8.32732H0.674008C0.585384 8.32732 0.497631 8.30984 0.415771 8.27588C0.333911 8.24193 0.25955 8.19216 0.196945 8.12944C0.134341 8.06671 0.0847215 7.99225 0.0509274 7.91032C0.0171332 7.8284 -0.000172475 7.74061 1.29577e-06 7.65199V0.674039C1.29577e-06 0.495281 0.0710125 0.323845 0.197413 0.197444C0.323814 0.0710437 0.49525 3.23949e-05 0.674008 3.23949e-05H7.65856C7.74763 -0.000840846 7.83599 0.0159483 7.91852 0.0494291C8.00106 0.0829099 8.07615 0.132418 8.13944 0.195093C8.20272 0.257767 8.25296 0.332364 8.28725 0.414572C8.32153 0.49678 8.33918 0.584968 8.33918 0.674039V7.65199C8.33918 7.74112 8.32154 7.82937 8.28727 7.91165C8.253 7.99393 8.20278 8.06861 8.13951 8.13139C8.07624 8.19417 8.00117 8.24381 7.91862 8.27743C7.83608 8.31106 7.74769 8.32801 7.65856 8.32732ZM17.3259 18H10.348C10.2595 18 10.1718 17.9825 10.09 17.9487C10.0083 17.9148 9.93398 17.8651 9.87139 17.8026C9.8088 17.74 9.75915 17.6657 9.72528 17.5839C9.69141 17.5021 9.67397 17.4145 9.67397 17.326V10.348C9.6738 10.2594 9.69111 10.1716 9.7249 10.0897C9.75869 10.0077 9.80831 9.93329 9.87092 9.87056C9.93352 9.80784 10.0079 9.75807 10.0897 9.72412C10.1716 9.69016 10.2594 9.67268 10.348 9.67269H17.3259C17.4146 9.67268 17.5023 9.69016 17.5842 9.72412C17.666 9.75807 17.7404 9.80784 17.803 9.87056C17.8656 9.93329 17.9152 10.0077 17.949 10.0897C17.9828 10.1716 18.0001 10.2594 17.9999 10.348V17.326C17.9999 17.4145 17.9825 17.5021 17.9486 17.5839C17.9148 17.6657 17.8651 17.74 17.8025 17.8026C17.7399 17.8651 17.6656 17.9148 17.5839 17.9487C17.5021 17.9825 17.4144 18 17.3259 18ZM17.3259 8.32732H10.348C10.2594 8.32732 10.1716 8.30984 10.0897 8.27588C10.0079 8.24193 9.93352 8.19216 9.87092 8.12944C9.80831 8.06671 9.75869 7.99225 9.7249 7.91032C9.69111 7.8284 9.6738 7.74061 9.67397 7.65199V0.674039C9.67397 0.585527 9.69141 0.497882 9.72528 0.416108C9.75915 0.334334 9.8088 0.260032 9.87139 0.197444C9.93398 0.134857 10.0083 0.0852102 10.09 0.0513382C10.1718 0.0174662 10.2595 3.23949e-05 10.348 3.23949e-05H17.3259C17.4144 3.23949e-05 17.5021 0.0174662 17.5839 0.0513382C17.6656 0.0852102 17.7399 0.134857 17.8025 0.197444C17.8651 0.260032 17.9148 0.334334 17.9486 0.416108C17.9825 0.497882 17.9999 0.585527 17.9999 0.674039V7.65199C18.0001 7.74061 17.9828 7.8284 17.949 7.91032C17.9152 7.99225 17.8656 8.06671 17.803 8.12944C17.7404 8.19216 17.666 8.24193 17.5842 8.27588C17.5023 8.30984 17.4146 8.32732 17.3259 8.32732ZM7.65856 18H0.674008C0.585496 18 0.497851 17.9825 0.416077 17.9487C0.334303 17.9148 0.260001 17.8651 0.197413 17.8026C0.134826 17.74 0.0851791 17.6657 0.0513071 17.5839C0.0174351 17.5021 1.29577e-06 17.4145 1.29577e-06 17.326V10.348C-0.000172475 10.2594 0.0171332 10.1716 0.0509274 10.0897C0.0847215 10.0077 0.134341 9.93329 0.196945 9.87056C0.25955 9.80784 0.333911 9.75807 0.415771 9.72412C0.497631 9.69016 0.585384 9.67268 0.674008 9.67269H7.65856C7.74769 9.67199 7.83608 9.68894 7.91862 9.72256C8.00117 9.75619 8.07624 9.80583 8.13951 9.8686C8.20278 9.93138 8.253 10.0061 8.28727 10.0883C8.32154 10.1706 8.33918 10.2589 8.33918 10.348V17.326C8.33918 17.415 8.32153 17.5032 8.28725 17.5854C8.25296 17.6676 8.20272 17.7422 8.13944 17.8049C8.07615 17.8676 8.00106 17.9171 7.91852 17.9506C7.83599 17.9841 7.74763 18.0008 7.65856 18Z" fill="#051D17"/>
</svg>
