<svg width="24" height="24" viewBox="0 0 24 24" fill="none" xmlns="http://www.w3.org/2000/svg">
<path fill-rule="evenodd" clip-rule="evenodd" d="M9.53035 2.99373C9.89026 3.00697 10.2 3.25215 10.2955 3.59941L14.1384 17.5735L16.5503 11.4344C16.6744 11.1187 16.979 10.911 17.3182 10.911H20.625C20.8321 10.911 21 11.0789 21 11.286V12.186C21 12.3931 20.8321 12.561 20.625 12.561H17.8804L14.7679 20.4835C14.638 20.8141 14.311 21.0245 13.9563 21.0056C13.6016 20.9868 13.2987 20.7431 13.2045 20.4006L9.39901 6.56227L7.45905 12.0127C7.34203 12.3415 7.0308 12.561 6.68182 12.561H3.375C3.16789 12.561 3 12.3931 3 12.186V11.286C3 11.0789 3.16789 10.911 3.375 10.911H6.09976L8.72277 3.54153C8.84354 3.20223 9.17044 2.98048 9.53035 2.99373Z" fill="#1A1A1A"/>
</svg>
