<svg width="24" height="24" viewBox="0 0 24 24" fill="none" xmlns="http://www.w3.org/2000/svg">
<path d="M11.3251 3C11.118 3 10.9501 3.16789 10.9501 3.375V10.95H3.375C3.16789 10.95 3 11.1179 3 11.325V12.675C3 12.8821 3.16789 13.05 3.375 13.05H10.9501V20.625C10.9501 20.8321 11.118 21 11.3251 21H12.6751C12.8822 21 13.0501 20.8321 13.0501 20.625V13.05H20.625C20.8321 13.05 21 12.8821 21 12.675V11.325C21 11.1179 20.8321 10.95 20.625 10.95H13.0501V3.375C13.0501 3.16789 12.8822 3 12.6751 3H11.3251Z" fill="#1A1A1A"/>
</svg>
