<svg width="92" height="92" viewBox="0 0 92 92" fill="none" xmlns="http://www.w3.org/2000/svg">
<rect x="0.865978" y="0.499972" width="37.9962" height="35.2057" rx="5" transform="matrix(0.86601 -0.500028 -3.18351e-05 1 13.086 41.4324)" fill="white" stroke="#1A1A1A" stroke-width="2"/>
<rect x="0.865978" y="0.499972" width="37.9962" height="35.2057" rx="5" transform="matrix(0.86601 -0.500028 -3.18351e-05 1 25.086 20.4335)" fill="#1B76E2" stroke="#1A1A1A" stroke-width="2"/>
<path d="M37.8708 25.4803C37.8708 23.8799 39.4177 22.0347 40.5683 22.2623L47.2066 23.5756C48.2287 23.7778 48.2287 25.514 47.2065 26.8966L40.5678 35.8759C39.4172 37.4323 37.8704 37.3732 37.8705 35.7729L37.8706 30.6266L37.8708 25.4803Z" fill="white"/>
<path d="M45.7978 85.8993L60.5242 60.3925C61.21 59.2045 61.553 58.6105 61.9484 58.2339C62.2962 57.9025 62.6709 57.6862 63.0188 57.6158C63.4142 57.5359 63.7571 57.7339 64.4429 58.1298L71.1426 61.9979L71.1425 64.3976C71.1424 67.7576 71.1423 69.4376 70.576 71.0479C70.0778 72.4644 69.283 73.8411 68.3054 74.9808C67.194 76.2764 65.7391 77.1164 62.8293 78.7965L46.7774 88.0648C45.7282 88.6706 45.2036 88.9735 44.9607 88.8741C44.7499 88.788 44.6381 88.5407 44.6598 88.2091C44.6849 87.8269 45.0559 87.1844 45.7978 85.8993Z" fill="white"/>
<path d="M39.9697 65.5985C39.9698 62.2385 39.9698 60.5585 40.5361 58.9482C41.0343 57.5317 41.8291 56.155 42.8068 55.0154C43.9182 53.7198 45.3731 52.8797 48.2829 51.1996L62.8304 42.8C65.7402 41.1199 67.1951 40.2798 68.3065 40.292C69.2841 40.3028 70.0789 40.7616 70.5769 41.6029C71.1432 42.5593 71.1431 44.2393 71.143 47.5992L71.1425 64.3976C71.1424 67.7576 71.1423 69.4376 70.576 71.0479C70.0778 72.4644 69.283 73.8411 68.3054 74.9808C67.194 76.2764 65.7391 77.1164 62.8293 78.7965L48.2817 87.1962C45.3719 88.8763 43.917 89.7163 42.8057 89.7041C41.8281 89.6934 41.0333 89.2345 40.5352 88.3933C39.969 87.4369 39.969 85.7569 39.9691 82.3969L39.9697 65.5985Z" fill="white"/>
<path d="M49.4947 65.4982C51.4076 64.3937 52.9584 61.7076 52.9585 59.4987C52.9586 57.2898 51.4079 56.3945 49.4949 57.499C47.582 58.6035 46.0312 61.2896 46.0311 63.4985C46.031 65.7075 47.5817 66.6027 49.4947 65.4982Z" fill="white"/>
<path d="M62.8293 78.7965L46.7774 88.0648C45.7282 88.6706 45.2036 88.9735 44.9607 88.8741C44.7499 88.788 44.6381 88.5407 44.6598 88.2091C44.6849 87.8269 45.0559 87.1844 45.7978 85.8993L60.5242 60.3925C61.21 59.2045 61.553 58.6105 61.9484 58.2339C62.2962 57.9025 62.6709 57.6862 63.0188 57.6158C63.4142 57.5359 63.7571 57.7339 64.4429 58.1298L71.1426 61.9979L71.1425 64.3976M62.8293 78.7965C65.7391 77.1164 67.194 76.2764 68.3054 74.9808C69.283 73.8411 70.0778 72.4644 70.576 71.0479C71.1423 69.4376 71.1424 67.7576 71.1425 64.3976M62.8293 78.7965L48.2817 87.1962C45.3719 88.8763 43.917 89.7163 42.8057 89.7041C41.8281 89.6934 41.0333 89.2345 40.5352 88.3933C39.969 87.4369 39.969 85.7569 39.9691 82.3969L39.9697 65.5985C39.9698 62.2385 39.9698 60.5585 40.5361 58.9482C41.0343 57.5317 41.8291 56.155 42.8068 55.0154C43.9182 53.7198 45.3731 52.8797 48.2829 51.1996L62.8304 42.8C65.7402 41.1199 67.1951 40.2798 68.3065 40.292C69.2841 40.3028 70.0789 40.7616 70.5769 41.6029C71.1432 42.5593 71.1431 44.2393 71.143 47.5992L71.1425 64.3976M52.9585 59.4987C52.9584 61.7076 51.4076 64.3937 49.4947 65.4982C47.5817 66.6027 46.031 65.7075 46.0311 63.4985C46.0312 61.2896 47.582 58.6035 49.4949 57.499C51.4079 56.3945 52.9586 57.2898 52.9585 59.4987Z" stroke="#1A1A1A" stroke-width="2" stroke-linecap="round" stroke-linejoin="round"/>
<path d="M49.4953 66.4988C51.8867 65.118 53.8254 61.7601 53.8255 58.9987C53.8256 56.2373 51.887 55.118 49.4956 56.4988C47.1042 57.8796 45.1655 61.2376 45.1654 63.999C45.1653 66.7604 47.1038 67.8796 49.4953 66.4988Z" fill="#1B76E2"/>
<circle cx="16.4688" cy="88.4987" r="2.75" fill="white" stroke="#1A1A1A" stroke-width="1.5"/>
<path d="M73.7813 14.8577L72.4374 19.3219L68.5313 20.8577L72.4374 22.3935L73.7812 26.8577L75.1251 22.3935L79.0312 20.8577L75.1251 19.3219L73.7813 14.8577Z" fill="#1B76E2"/>
</svg>
