<svg width="20" height="20" viewBox="0 0 20 20" fill="none" xmlns="http://www.w3.org/2000/svg">
<path d="M10 17.1875C13.9695 17.1875 17.1875 13.9695 17.1875 10C17.1875 6.03045 13.9695 2.8125 10 2.8125C6.03045 2.8125 2.8125 6.03045 2.8125 10C2.8125 13.9695 6.03045 17.1875 10 17.1875ZM10 18.75C5.16751 18.75 1.25 14.8325 1.25 10C1.25 5.16751 5.16751 1.25 10 1.25C14.8325 1.25 18.75 5.16751 18.75 10C18.75 14.8325 14.8325 18.75 10 18.75ZM9.42651 10.7795C9.44878 10.8006 9.47289 10.8204 9.49879 10.8385L13.0825 13.3479C13.1956 13.4271 13.3515 13.3996 13.4307 13.2865L14.0401 12.4161C14.1193 12.303 14.0918 12.1472 13.9787 12.068L10.7812 9.82906V5.93916C10.7812 5.80109 10.6693 5.68916 10.5312 5.68916H9.46875C9.33068 5.68916 9.21875 5.80109 9.21875 5.93916V10.3142C9.21875 10.499 9.29898 10.6651 9.42651 10.7795Z" fill="#808080"/>
</svg>
