<svg width="20" height="20" viewBox="0 0 20 20" fill="none" xmlns="http://www.w3.org/2000/svg">
<g id="Icon_Color">
<g id="Union">
<path fill-rule="evenodd" clip-rule="evenodd" d="M10.0001 9.68098C8.80526 9.68098 7.83664 10.6496 7.83664 11.8444C7.83664 13.0392 8.80526 14.0078 10.0001 14.0078C11.1949 14.0078 12.1635 13.0392 12.1635 11.8444C12.1635 10.6496 11.1949 9.68098 10.0001 9.68098ZM9.21164 11.8444C9.21164 11.409 9.56465 11.056 10.0001 11.056C10.4355 11.056 10.7885 11.409 10.7885 11.8444C10.7885 12.2798 10.4355 12.6328 10.0001 12.6328C9.56465 12.6328 9.21164 12.2798 9.21164 11.8444Z" fill="#808080"/>
<path fill-rule="evenodd" clip-rule="evenodd" d="M10.5595 3.6961C10.4304 3.51543 10.2221 3.4082 10.0001 3.4082C9.77803 3.4082 9.56967 3.51543 9.44061 3.6961L6.09224 8.38383L2.92785 6.80164C2.69114 6.68328 2.40751 6.7113 2.19854 6.87369C1.98957 7.03608 1.89236 7.30399 1.94858 7.5626L3.79349 16.0492C3.8622 16.3653 4.14189 16.5907 4.4653 16.5907H15.5348C15.8582 16.5907 16.1379 16.3653 16.2066 16.0492L18.0515 7.5626C18.1078 7.30399 18.0105 7.03608 17.8016 6.87369C17.5926 6.7113 17.309 6.68328 17.0723 6.80164L13.9079 8.38383L10.5595 3.6961ZM6.86966 9.66107L10.0001 5.27852L13.1304 9.66107C13.3271 9.93636 13.6948 10.0277 13.9974 9.87639L16.4029 8.67362L14.9807 15.2157H5.0194L3.59722 8.67362L6.00276 9.87639C6.30535 10.0277 6.67303 9.93636 6.86966 9.66107Z" fill="#808080"/>
</g>
</g>
</svg>
