<svg xmlns="http://www.w3.org/2000/svg" width="24" height="24" viewBox="0 0 24 24" fill="none">
  <path fill-rule="evenodd" clip-rule="evenodd" d="M20.5244 10.1235C20.6709 10.2699 20.9083 10.2699 21.0547 10.1235L21.6911 9.48709C21.8376 9.34065 21.8376 9.10321 21.6911 8.95676L14.7968 2.06247C14.6504 1.91603 14.413 1.91603 14.2665 2.06247L13.6301 2.69887C13.4837 2.84531 13.4837 3.08275 13.6301 3.2292L13.8422 3.44132L6.52367 10.7599L6.31155 10.5478C6.16511 10.4013 5.92767 10.4013 5.78122 10.5478L5.14483 11.1842C4.99838 11.3306 4.99838 11.568 5.14483 11.7145L12.0391 18.6088C12.1856 18.7552 12.423 18.7552 12.5694 18.6088L13.2058 17.9724C13.3523 17.8259 13.3523 17.5885 13.2058 17.4421L12.9937 17.2299L16.0696 14.154L20.5244 18.6088C20.6708 18.7552 20.9082 18.7552 21.0547 18.6088L21.6911 17.9724C21.8375 17.8259 21.8375 17.5885 21.6911 17.4421L17.2363 12.9873L20.3123 9.91135L20.5244 10.1235ZM19.1455 8.74462L15.009 4.60805L7.6904 11.9266L11.827 16.0632L19.1455 8.74462Z" fill="#1A1A1A"/>
  <path d="M14.199 21.6723C14.199 21.8794 14.0311 22.0473 13.824 22.0473H2.57397C2.36687 22.0473 2.19897 21.8794 2.19897 21.6723V20.7723C2.19897 20.5652 2.36687 20.3973 2.57397 20.3973H13.824C14.0311 20.3973 14.199 20.5652 14.199 20.7723V21.6723Z" fill="#1A1A1A"/>
</svg>