<svg width="24" height="24" viewBox="0 0 24 24" fill="none" xmlns="http://www.w3.org/2000/svg">
<path d="M9.5441 9.91584C9.5441 9.4602 9.17474 9.09084 8.7191 9.09084C8.26347 9.09084 7.8941 9.4602 7.8941 9.91584C7.8941 12.1895 9.72777 14.0408 11.9998 14.0408C14.2719 14.0408 16.1055 12.1894 16.1055 9.91584C16.1055 9.4602 15.7361 9.09084 15.2805 9.09084C14.8249 9.09084 14.4555 9.4602 14.4555 9.91584C14.4555 11.2873 13.3515 12.3908 11.9998 12.3908C10.6481 12.3908 9.5441 11.2873 9.5441 9.91584Z" fill="white"/>
<path fill-rule="evenodd" clip-rule="evenodd" d="M5.98333 3.25684C6.13904 3.04801 6.38422 2.92499 6.64472 2.92499H17.3552C17.6157 2.92499 17.8609 3.04801 18.0166 3.25684L20.4771 6.55684C20.5903 6.70861 20.6434 6.88656 20.6407 7.06227V19.3816C20.6407 20.3168 19.8825 21.075 18.9473 21.075H5.05255C4.11731 21.075 3.35913 20.3168 3.35913 19.3816L3.35913 7.0478C3.35922 7.00028 3.3634 6.95265 3.37175 6.90547C3.39513 6.77321 3.45002 6.65182 3.52838 6.54934L5.98333 3.25684ZM16.9412 4.57499L18.1715 6.22503H5.82836L7.05867 4.57499H16.9412ZM5.00913 7.87503V19.3816C5.00913 19.4056 5.02856 19.425 5.05255 19.425H18.9473C18.9712 19.425 18.9907 19.4056 18.9907 19.3816V7.87503H5.00913Z" fill="white"/>
</svg>
