<svg width="24" height="24" viewBox="0 0 24 24" fill="current" xmlns="http://www.w3.org/2000/svg">
<path d="M20.2874 19.0125H4.9874V3.71252C4.9874 3.50542 4.81951 3.33752 4.6124 3.33752H3.7124C3.5053 3.33752 3.3374 3.50542 3.3374 3.71252V19.9125C3.3374 20.3267 3.67319 20.6625 4.0874 20.6625H20.2874C20.4945 20.6625 20.6624 20.4946 20.6624 20.2875V19.3875C20.6624 19.1804 20.4945 19.0125 20.2874 19.0125Z" fill="current"/>
<path d="M6.59998 16.1559C7.67138 16.079 8.35308 15.348 8.80407 14.5857C9.19593 13.9234 9.50655 13.0801 9.79387 12.2999C9.84675 12.1564 9.89884 12.015 9.9505 11.8772C10.3043 10.9336 10.6531 10.111 11.1198 9.52147C11.555 8.97177 12.0597 8.66252 12.7874 8.66252C13.5151 8.66252 14.0198 8.97177 14.455 9.52147C14.9217 10.111 15.2705 10.9336 15.6243 11.8772C15.676 12.015 15.7281 12.1564 15.7809 12.3C16.0683 13.0801 16.3789 13.9235 16.7707 14.5857C17.2217 15.348 17.9034 16.079 18.9748 16.1559C19.0781 16.1633 19.1624 16.0786 19.1624 15.975V14.7C19.1624 14.5965 19.0772 14.5156 18.9766 14.4913C18.7242 14.4306 18.4765 14.2284 18.1908 13.7455C17.8825 13.2244 17.634 12.5525 17.3436 11.767C17.2873 11.6148 17.2294 11.4583 17.1692 11.2978C16.82 10.3664 16.3953 9.31406 15.7487 8.49731C15.0706 7.64076 14.1222 7.01252 12.7874 7.01252C11.4526 7.01252 10.5042 7.64076 9.82611 8.49731C9.17952 9.31406 8.75484 10.3664 8.40556 11.2978C8.34544 11.4582 8.28763 11.6145 8.2314 11.7666C7.94093 12.5521 7.69234 13.2244 7.38401 13.7455C7.09834 14.2284 6.85058 14.4306 6.59824 14.4913C6.49756 14.5156 6.4124 14.5965 6.4124 14.7V15.975C6.4124 16.0786 6.49669 16.1633 6.59998 16.1559Z" fill="current"/>
</svg>
