<svg width="12" height="12" viewBox="0 0 12 12" fill="none" xmlns="http://www.w3.org/2000/svg">
<g id="Clear">
<path id="Union" fill-rule="evenodd" clip-rule="evenodd" d="M2.37018 8.49844C2.05776 8.81086 2.05776 9.31739 2.37018 9.62981C2.6826 9.94223 3.18913 9.94223 3.50155 9.62981L5.99999 7.13137L8.49844 9.62981C8.81086 9.94223 9.31739 9.94223 9.62981 9.62981C9.94223 9.31739 9.94223 8.81086 9.62981 8.49844L7.13136 6L9.62981 3.50155C9.94223 3.18913 9.94223 2.6826 9.62981 2.37018C9.31739 2.05776 8.81086 2.05776 8.49844 2.37018L5.99999 4.86862L3.50155 2.37018C3.18913 2.05776 2.6826 2.05776 2.37018 2.37018C2.05776 2.6826 2.05776 3.18913 2.37018 3.50155L4.86862 5.99999L2.37018 8.49844Z" fill="#C4C4C4"/>
</g>
</svg>
