<svg width="25" height="24" viewBox="0 0 25 24" fill="none" xmlns="http://www.w3.org/2000/svg">
<path d="M15.6216 4.32891C15.6216 4.49459 15.4873 4.62891 15.3216 4.62891H9.92158C9.7559 4.62891 9.62158 4.49459 9.62158 4.32891V3.05391C9.62158 2.88822 9.7559 2.75391 9.92158 2.75391H15.3216C15.4873 2.75391 15.6216 2.88822 15.6216 3.05391V4.32891ZM5.68408 7.70398H3.92158C3.7559 7.70398 3.62158 7.56967 3.62158 7.40398V6.12898C3.62158 5.96329 3.7559 5.82898 3.92158 5.82898H21.3216C21.4873 5.82898 21.6216 5.96329 21.6216 6.12898V7.40398C21.6216 7.56967 21.4873 7.70398 21.3216 7.70398H19.5591V20.4961C19.5591 20.9103 19.2233 21.2461 18.8091 21.2461H6.43408C6.01987 21.2461 5.68408 20.9103 5.68408 20.4961V7.70398ZM7.55908 7.70398V19.3711H17.6841V7.70398H7.55908ZM11.3841 10.6666C11.5498 10.6666 11.6841 10.8009 11.6841 10.9666V16.3666C11.6841 16.5323 11.5498 16.6666 11.3841 16.6666H10.1091C9.9434 16.6666 9.80908 16.5323 9.80908 16.3666V10.9666C9.80908 10.8009 9.9434 10.6666 10.1091 10.6666H11.3841ZM15.1341 16.6666C15.2998 16.6666 15.4341 16.5323 15.4341 16.3666V10.9666C15.4341 10.8009 15.2998 10.6666 15.1341 10.6666H13.8591C13.6934 10.6666 13.5591 10.8009 13.5591 10.9666V16.3666C13.5591 16.5323 13.6934 16.6666 13.8591 16.6666H15.1341Z" fill="#1B76E2"/>
</svg>
