<svg width="24" height="24" viewBox="0 0 24 24" fill="none" xmlns="http://www.w3.org/2000/svg">
<path d="M13.3501 8.13748C13.3501 8.88306 12.7457 9.48748 12.0001 9.48748C11.2545 9.48748 10.6501 8.88306 10.6501 8.13748C10.6501 7.39189 11.2545 6.78748 12.0001 6.78748C12.7457 6.78748 13.3501 7.39189 13.3501 8.13748Z" fill="#808080"/>
<path d="M11.1748 12.3375H10.1998C10.0963 12.3375 10.0123 12.2535 10.0123 12.15V10.875C10.0123 10.7714 10.0963 10.6875 10.1998 10.6875H12.4498C12.6569 10.6875 12.8248 10.8554 12.8248 11.0625V15.5625H13.8004C13.904 15.5625 13.9879 15.6464 13.9879 15.75V17.025C13.9879 17.1285 13.904 17.2125 13.8004 17.2125H10.1998C10.0963 17.2125 10.0123 17.1285 10.0123 17.025V15.75C10.0123 15.6464 10.0963 15.5625 10.1998 15.5625H11.1748V12.3375Z" fill="#808080"/>
<path fill-rule="evenodd" clip-rule="evenodd" d="M1.4248 12C1.4248 6.15964 6.15939 1.42505 11.9998 1.42505C17.8402 1.42505 22.5748 6.15964 22.5748 12C22.5748 17.8405 17.8402 22.5751 11.9998 22.5751C6.15939 22.5751 1.4248 17.8405 1.4248 12ZM11.9998 3.07505C7.07066 3.07505 3.0748 7.07091 3.0748 12C3.0748 16.9292 7.07066 20.9251 11.9998 20.9251C16.9289 20.9251 20.9248 16.9292 20.9248 12C20.9248 7.07091 16.9289 3.07505 11.9998 3.07505Z" fill="#808080"/>
</svg>
