<svg width="24" height="24" viewBox="0 0 24 24" fill="current" xmlns="http://www.w3.org/2000/svg">
<g id="Icon_Color">
<g id="Union">
<path fill-rule="evenodd" clip-rule="evenodd" d="M8.2438 13.1613C6.81063 13.1613 5.6488 14.3231 5.6488 15.7563C5.6488 17.1895 6.81063 18.3513 8.2438 18.3513C9.67698 18.3513 10.8388 17.1895 10.8388 15.7563C10.8388 14.3231 9.67698 13.1613 8.2438 13.1613ZM7.2988 15.7563C7.2988 15.2344 7.72189 14.8113 8.2438 14.8113C8.76571 14.8113 9.1888 15.2344 9.1888 15.7563C9.1888 16.2782 8.76571 16.7013 8.2438 16.7013C7.72189 16.7013 7.2988 16.2782 7.2988 15.7563Z" fill="current"/>
<path fill-rule="evenodd" clip-rule="evenodd" d="M14.0761 3.11023C13.461 2.49516 12.4638 2.49516 11.8487 3.11023L3.11011 11.8488C2.81474 12.1442 2.6488 12.5448 2.6488 12.9625V19.7763C2.6488 20.6461 3.35395 21.3512 4.2238 21.3512H11.0375C11.4553 21.3512 11.8559 21.1853 12.1512 20.8899L20.8898 12.1514C21.5049 11.5363 21.5049 10.5391 20.8898 9.92397L14.0761 3.11023ZM4.2988 12.9936L12.9624 4.32999L19.6701 11.0377L11.0065 19.7013H4.2988V12.9936Z" fill="current"/>
</g>
</g>
</svg>
