<svg width="24" height="24" viewBox="0 0 24 24" fill="none" xmlns="http://www.w3.org/2000/svg">
<g id="Icon_Color">
<g id="Union">
<path fill-rule="evenodd" clip-rule="evenodd" d="M8.24393 13.1608C6.81075 13.1608 5.64893 14.3226 5.64893 15.7558C5.64893 17.189 6.81075 18.3508 8.24393 18.3508C9.6771 18.3508 10.8389 17.189 10.8389 15.7558C10.8389 14.3226 9.6771 13.1608 8.24393 13.1608ZM7.29893 15.7558C7.29893 15.2339 7.72202 14.8108 8.24393 14.8108C8.76583 14.8108 9.18893 15.2339 9.18893 15.7558C9.18893 16.2777 8.76583 16.7008 8.24393 16.7008C7.72202 16.7008 7.29893 16.2777 7.29893 15.7558Z" fill="white"/>
<path fill-rule="evenodd" clip-rule="evenodd" d="M14.0762 3.10974C13.4611 2.49467 12.4639 2.49467 11.8488 3.10974L3.11023 11.8483C2.81486 12.1437 2.64893 12.5443 2.64893 12.962V19.7758C2.64893 20.6456 3.35408 21.3508 4.22393 21.3508H11.0377C11.4554 21.3508 11.856 21.1848 12.1514 20.8895L20.8899 12.1509C21.505 11.5358 21.505 10.5386 20.8899 9.92349L14.0762 3.10974ZM4.29893 12.9931L12.9625 4.3295L19.6702 11.0372L11.0066 19.7008H4.29893V12.9931Z" fill="white"/>
</g>
</g>
</svg>
