<svg width="32" height="32" viewBox="0 0 41 40" fill="none" xmlns="http://www.w3.org/2000/svg">
<path d="M38 20C38 29.665 30.165 37.5 20.5 37.5C10.835 37.5 3 29.665 3 20C3 10.335 10.835 2.5 20.5 2.5C30.165 2.5 38 10.335 38 20Z" fill="white"/>
<path d="M38 20C38 29.665 30.165 37.5 20.5 37.5C10.835 37.5 3 29.665 3 20C3 10.335 10.835 2.5 20.5 2.5C30.165 2.5 38 10.335 38 20ZM13.5617 14.5641C13.3664 14.7593 13.3664 15.0759 13.5617 15.2712L18.2906 20.0001L13.5618 24.7289C13.3665 24.9242 13.3665 25.2408 13.5618 25.436L15.0644 26.9386C15.2596 27.1339 15.5762 27.1339 15.7715 26.9386L20.5003 22.2098L25.2289 26.9384C25.4242 27.1337 25.7408 27.1337 25.9361 26.9384L27.4387 25.4358C27.6339 25.2406 27.6339 24.924 27.4387 24.7287L22.71 20.0001L27.4387 15.2714C27.634 15.0761 27.634 14.7595 27.4387 14.5643L25.9361 13.0617C25.7409 12.8664 25.4243 12.8664 25.229 13.0617L20.5003 17.7904L15.7714 13.0614C15.5761 12.8662 15.2595 12.8662 15.0643 13.0614L13.5617 14.5641Z" fill="#F53F3F"/>
</svg>
