<svg width="33" height="32" viewBox="0 0 33 32" fill="none" xmlns="http://www.w3.org/2000/svg">
<g clip-path="url(#clip0_37907_1715)">
<path d="M6.18961 10.4H26.8103C27.2136 10.4 27.54 10.7038 27.54 11.0774V25.9058C27.54 26.5461 27.266 27.1602 26.7783 27.6129C26.2906 28.0657 25.6292 28.32 24.9395 28.32H8.06047C7.37077 28.32 6.70932 28.0657 6.22163 27.6129C5.73394 27.1602 5.45996 26.5461 5.45996 25.9058V11.0783C5.45996 10.7038 5.7872 10.4009 6.18961 10.4009V10.4Z" fill="#F53F3F"/>
<path d="M20.7102 3.20201C18.1191 3.28978 17.1472 6.04633 16.8245 8.56243H21.2496C23.9485 7.46895 23.9485 3.09321 20.7102 3.20201Z" fill="#FFE15A"/>
<path d="M20.7101 5.7181C19.229 5.17228 18.4061 7.50461 18.2269 8.56151H19.4146C20.7101 7.79626 21.8978 6.15513 20.7101 5.7181Z" fill="#FFB113"/>
<path d="M12.5228 3.20384C15.1147 3.29161 16.0857 6.04816 16.4103 8.56426H11.9833C9.28621 7.46987 9.28621 3.09413 12.5228 3.20384Z" fill="#FFE15A"/>
<path d="M12.5237 5.71993C14.0048 5.17411 14.8277 7.50644 15.0069 8.56335H13.8192C12.5237 7.79809 11.336 6.15787 12.5237 5.71993Z" fill="#FFB113"/>
<path d="M3.81338 10.615C3.36721 9.34688 4.29429 8.01477 5.62091 8.01477H27.3789C28.7065 8.01477 29.6326 9.34688 29.1865 10.6132L28.2841 13.1731C28.1861 13.4548 28.0031 13.699 27.7604 13.8723C27.5178 14.0455 27.2273 14.1392 26.9291 14.1404H6.07073C5.77244 14.1392 5.48191 14.0453 5.23921 13.8719C4.99651 13.6985 4.81362 13.454 4.71577 13.1722L3.81338 10.615Z" fill="#FF8181"/>
<path d="M14.4199 8.16002C14.4199 7.80656 14.7065 7.52002 15.0599 7.52002H17.9399C18.2934 7.52002 18.5799 7.80656 18.5799 8.16002V28.32H14.4199V8.16002Z" fill="#FFE15A"/>
<path d="M7.40306 4.36284C7.4778 4.02954 7.9528 4.02954 8.02755 4.36284L8.61627 6.98811C8.64087 7.09783 8.72125 7.18658 8.828 7.2219L10.5808 7.80179C10.8735 7.89861 10.8735 8.31258 10.5808 8.4094L8.82508 8.99026C8.71991 9.02505 8.64022 9.11176 8.6144 9.21948L8.02649 11.6722C7.94806 11.9994 7.48255 11.9994 7.40412 11.6722L6.81621 9.21948C6.79039 9.11176 6.71069 9.02505 6.60553 8.99026L4.84981 8.4094C4.55716 8.31258 4.55715 7.89861 4.84981 7.80179L6.6026 7.2219C6.70935 7.18658 6.78973 7.09783 6.81434 6.98811L7.40306 4.36284Z" fill="#FFF2B8"/>
<path d="M2.57512 0.870242C2.62183 0.661926 2.91871 0.661926 2.96542 0.870241L3.30986 2.40617C3.32524 2.47474 3.37547 2.53021 3.44219 2.55229L4.46661 2.8912C4.64952 2.95172 4.64952 3.21045 4.46661 3.27096L3.44036 3.61048C3.37464 3.63223 3.32483 3.68642 3.30869 3.75374L2.96476 5.1886C2.91574 5.3931 2.6248 5.3931 2.57578 5.18859L2.23185 3.75374C2.21571 3.68642 2.16591 3.63223 2.10018 3.61048L1.07393 3.27096C0.891023 3.21045 0.891023 2.95172 1.07393 2.8912L2.09835 2.55229C2.16507 2.53021 2.2153 2.47474 2.23068 2.40617L2.57512 0.870242Z" fill="#FFFCEE"/>
<path d="M29.5751 0.870242C29.6218 0.661926 29.9187 0.661926 29.9654 0.870241L30.3099 2.40617C30.3252 2.47474 30.3755 2.53021 30.4422 2.55229L31.4666 2.8912C31.6495 2.95172 31.6495 3.21045 31.4666 3.27096L30.4404 3.61048C30.3746 3.63223 30.3248 3.68642 30.3087 3.75374L29.9648 5.1886C29.9157 5.3931 29.6248 5.3931 29.5758 5.18859L29.2319 3.75374C29.2157 3.68642 29.1659 3.63223 29.1002 3.61048L28.0739 3.27096C27.891 3.21045 27.891 2.95172 28.0739 2.8912L29.0983 2.55229C29.1651 2.53021 29.2153 2.47474 29.2307 2.40617L29.5751 0.870242Z" fill="#FFFCEE"/>
</g>
<defs>
<clipPath id="clip0_37907_1715">
<rect width="32" height="32" fill="white" transform="translate(0.5)"/>
</clipPath>
</defs>
</svg>
