<svg width="20" height="20" viewBox="0 0 20 20" fill="none" xmlns="http://www.w3.org/2000/svg">
<path d="M10 17.1875C13.9695 17.1875 17.1875 13.9695 17.1875 10C17.1875 6.03045 13.9695 2.8125 10 2.8125C6.03045 2.8125 2.8125 6.03045 2.8125 10C2.8125 13.9695 6.03045 17.1875 10 17.1875ZM10 18.75C5.16751 18.75 1.25 14.8325 1.25 10C1.25 5.16751 5.16751 1.25 10 1.25C14.8325 1.25 18.75 5.16751 18.75 10C18.75 14.8325 14.8325 18.75 10 18.75ZM11.2267 13.875C11.2267 14.4963 10.7231 15 10.1017 15C9.48042 15 8.97675 14.4963 8.97675 13.875C8.97675 13.2537 9.48042 12.75 10.1017 12.75C10.7231 12.75 11.2267 13.2537 11.2267 13.875ZM8.65228 8.21898C8.79035 8.21898 8.89934 8.10556 8.9304 7.97103C9.0428 7.48416 9.47904 7.1212 10.0001 7.1212C10.6063 7.1212 11.0978 7.61269 11.0978 8.21898C11.0978 8.56916 10.9348 8.88081 10.6773 9.08309C10.4037 9.29803 10.0523 9.58416 9.77033 9.93078C9.48497 10.2816 9.21881 10.7574 9.21881 11.348V11.5625C9.21881 11.7006 9.33074 11.8125 9.46881 11.8125H10.5313C10.6694 11.8125 10.7813 11.7006 10.7813 11.5625V11.348C10.7813 11.2483 10.8236 11.112 10.9825 10.9168C11.1447 10.7173 11.3732 10.5233 11.6425 10.3118C12.2608 9.82605 12.6603 9.06895 12.6603 8.21898C12.6603 6.74975 11.4693 5.5587 10.0001 5.5587C8.61505 5.5587 7.47725 6.61711 7.35135 7.96921C7.33855 8.10669 7.45171 8.21898 7.58978 8.21898H8.65228Z" fill="#808080"/>
</svg>
