<svg width="12" height="12" viewBox="0 0 12 12" fill="none" xmlns="http://www.w3.org/2000/svg">
<path fill-rule="evenodd" clip-rule="evenodd" d="M5.79378 0.392667C5.9214 0.318981 6.07865 0.318981 6.20628 0.392667L10.7529 3.01767C10.8805 3.09135 10.9592 3.22753 10.9592 3.3749V8.6249C10.9592 8.77227 10.8805 8.90845 10.7529 8.98214L6.20628 11.6071C6.07865 11.6808 5.9214 11.6808 5.79378 11.6071L1.24714 8.98214C1.11952 8.90845 1.04089 8.77227 1.04089 8.6249V3.3749C1.04089 3.22753 1.11952 3.09135 1.24714 3.01767L5.79378 0.392667ZM1.86589 4.0618L5.58753 6.04296V10.5354L1.86589 8.38675V4.0618ZM6.41253 10.5354L10.1342 8.38675V4.0618L6.41253 6.04296V10.5354ZM6.00003 5.32794L9.69631 3.36027L6.00003 1.22622L2.30374 3.36027L6.00003 5.32794Z" fill="#808080"/>
</svg>
