<svg width="20" height="20" viewBox="0 0 20 20" fill="none" xmlns="http://www.w3.org/2000/svg">
<g id="Icon_Color">
<g id="Union">
<path fill-rule="evenodd" clip-rule="evenodd" d="M6.86978 10.9673C5.67546 10.9673 4.70728 11.9355 4.70728 13.1298C4.70728 14.3241 5.67546 15.2923 6.86978 15.2923C8.06409 15.2923 9.03228 14.3241 9.03228 13.1298C9.03228 11.9355 8.06409 10.9673 6.86978 10.9673ZM6.08228 13.1298C6.08228 12.6949 6.43485 12.3423 6.86978 12.3423C7.3047 12.3423 7.65728 12.6949 7.65728 13.1298C7.65728 13.5648 7.3047 13.9173 6.86978 13.9173C6.43485 13.9173 6.08228 13.5648 6.08228 13.1298Z" fill="#808080"/>
<path fill-rule="evenodd" clip-rule="evenodd" d="M11.73 2.59145C11.2174 2.07889 10.3864 2.07889 9.87385 2.59145L2.5917 9.87361C2.34556 10.1197 2.20728 10.4536 2.20728 10.8017V16.4798C2.20728 17.2047 2.7949 17.7923 3.51978 17.7923H9.19789C9.54599 17.7923 9.87983 17.654 10.126 17.4079L17.4081 10.1257C17.9207 9.61316 17.9207 8.78213 17.4081 8.26957L11.73 2.59145ZM3.58228 10.8276L10.8019 3.60792L16.3917 9.19765L9.172 16.4173H3.58228V10.8276Z" fill="#808080"/>
</g>
</g>
</svg>
