<svg width="80" height="18" viewBox="0 0 80 18" fill="none" xmlns="http://www.w3.org/2000/svg">
<g clip-path="url(#clip0_32328_21194)">
<path d="M78.7121 0.889648H70.4387V3.54445H78.7121V0.889648Z" fill="white"/>
<path d="M75.8633 15.7913V5.75024H73.2819V15.7913H75.8633Z" fill="white"/>
<path d="M78.712 3.53884C79.4233 3.53884 80 2.9458 80 2.21424C80 1.48269 79.4233 0.889648 78.712 0.889648C78.0007 0.889648 77.4241 1.48269 77.4241 2.21424C77.4241 2.9458 78.0007 3.53884 78.712 3.53884Z" fill="white"/>
<path d="M70.4386 3.53884C71.15 3.53884 71.7266 2.9458 71.7266 2.21424C71.7266 1.48269 71.15 0.889648 70.4386 0.889648C69.7273 0.889648 69.1507 1.48269 69.1507 2.21424C69.1507 2.9458 69.7273 3.53884 70.4386 3.53884Z" fill="white"/>
<path d="M74.5754 17.1159C75.2867 17.1159 75.8633 16.5228 75.8633 15.7913C75.8633 15.0597 75.2867 14.4667 74.5754 14.4667C73.864 14.4667 73.2874 15.0597 73.2874 15.7913C73.2874 16.5228 73.864 17.1159 74.5754 17.1159Z" fill="white"/>
<path d="M74.5754 7.07485C75.2867 7.07485 75.8633 6.48181 75.8633 5.75025C75.8633 5.0187 75.2867 4.42566 74.5754 4.42566C73.864 4.42566 73.2874 5.0187 73.2874 5.75025C73.2874 6.48181 73.864 7.07485 74.5754 7.07485Z" fill="white"/>
<path d="M9.56135 6.33956H2.58133V3.53322H9.56135C9.7379 3.54503 9.91493 3.51947 10.0815 3.4581C10.2481 3.39674 10.4006 3.30089 10.5297 3.17647C10.6588 3.05205 10.7617 2.90171 10.8321 2.73476C10.9024 2.5678 10.9387 2.38778 10.9387 2.20582C10.9387 2.02386 10.9024 1.84383 10.8321 1.67688C10.7617 1.50992 10.6588 1.35958 10.5297 1.23517C10.4006 1.11075 10.2481 1.01489 10.0815 0.953531C9.91493 0.892169 9.7379 0.866603 9.56135 0.878417H1.28793C1.11787 0.878411 0.949498 0.913041 0.792522 0.980308C0.635545 1.04758 0.493076 1.14615 0.373335 1.27034C0.253595 1.39453 0.158954 1.54188 0.0948737 1.70389C0.0307939 1.86589 -0.00145595 2.03935 -1.47813e-05 2.21424V15.7913C0.0213121 16.1285 0.166569 16.4446 0.406272 16.6756C0.645975 16.9066 0.962164 17.0352 1.29066 17.0352C1.61916 17.0352 1.93534 16.9066 2.17505 16.6756C2.41475 16.4446 2.56001 16.1285 2.58133 15.7913V8.99436H9.56135C9.7379 9.00617 9.91493 8.98061 10.0815 8.91925C10.2481 8.85788 10.4006 8.76203 10.5297 8.63761C10.6588 8.51319 10.7617 8.36286 10.8321 8.1959C10.9024 8.02894 10.9387 7.84892 10.9387 7.66696C10.9387 7.485 10.9024 7.30498 10.8321 7.13802C10.7617 6.97106 10.6588 6.82073 10.5297 6.69631C10.4006 6.57189 10.2481 6.47604 10.0815 6.41467C9.91493 6.35331 9.7379 6.32775 9.56135 6.33956Z" fill="white"/>
<path d="M37.2195 10.3246H32.9245C32.7479 10.3128 32.5709 10.3383 32.4043 10.3997C32.2378 10.4611 32.0852 10.5569 31.9561 10.6813C31.827 10.8058 31.7241 10.9561 31.6538 11.123C31.5834 11.29 31.5471 11.47 31.5471 11.652C31.5471 11.8339 31.5834 12.014 31.6538 12.1809C31.7241 12.3479 31.827 12.4982 31.9561 12.6226C32.0852 12.7471 32.2378 12.8429 32.4043 12.9043C32.5709 12.9656 32.7479 12.9912 32.9245 12.9794H35.9315V15.7857C35.9528 16.1229 36.0981 16.439 36.3378 16.67C36.5775 16.901 36.8937 17.0296 37.2222 17.0296C37.5507 17.0296 37.8669 16.901 38.1066 16.67C38.3463 16.439 38.4915 16.1229 38.5129 15.7857V11.6492C38.5129 11.4748 38.4794 11.3021 38.4143 11.141C38.3492 10.9799 38.2539 10.8336 38.1337 10.7106C38.0135 10.5875 37.8709 10.49 37.714 10.4238C37.5571 10.3576 37.3891 10.3238 37.2195 10.3246Z" fill="white"/>
<path d="M37.2196 0.884033H28.9244C28.5828 0.884033 28.2552 1.02359 28.0136 1.272C27.7721 1.52041 27.6364 1.85732 27.6364 2.20863V15.7913C27.6577 16.1285 27.803 16.4446 28.0427 16.6756C28.2824 16.9066 28.5986 17.0352 28.9271 17.0352C29.2556 17.0352 29.5718 16.9066 29.8115 16.6756C30.0512 16.4446 30.1964 16.1285 30.2178 15.7913V8.99436H37.2196C37.5617 8.99437 37.8898 8.85499 38.1323 8.60674C38.3747 8.35849 38.5116 8.02159 38.513 7.66977V2.21424C38.513 1.86145 38.3767 1.5231 38.1342 1.27364C37.8916 1.02418 37.5626 0.884033 37.2196 0.884033ZM30.2396 3.54445H35.9317V6.35079H30.2396V3.54445Z" fill="white"/>
<path d="M15.1172 0.884033H23.3906C23.7327 0.88403 24.0608 1.02341 24.3032 1.27166C24.5456 1.5199 24.6825 1.85681 24.684 2.20863V15.7857C24.684 16.1385 24.5477 16.4768 24.3052 16.7263C24.0626 16.9758 23.7336 17.1159 23.3906 17.1159H15.1172C14.7751 17.1144 14.4475 16.9736 14.2061 16.7243C13.9647 16.475 13.8292 16.1375 13.8292 15.7857V2.20863C13.8292 1.85732 13.9649 1.52041 14.2065 1.272C14.448 1.02359 14.7756 0.884033 15.1172 0.884033Z" fill="white"/>
<path d="M23.3906 0.884033H15.1172C14.7756 0.884033 14.448 1.02359 14.2065 1.272C13.9649 1.52041 13.8292 1.85732 13.8292 2.20863V15.7857C13.8292 16.1375 13.9647 16.475 14.2061 16.7243C14.4475 16.9736 14.7751 17.1144 15.1172 17.1159H23.3906C23.7336 17.1159 24.0626 16.9758 24.3052 16.7263C24.5477 16.4768 24.684 16.1385 24.684 15.7857V2.20863C24.6825 1.85681 24.5456 1.5199 24.3032 1.27166C24.0608 1.02341 23.7327 0.88403 23.3906 0.884033V0.884033ZM22.572 13.4845H20.0998V14.3545C20.1091 14.4742 20.0943 14.5947 20.0562 14.7082C20.0181 14.8218 19.9575 14.926 19.8783 15.0143C19.7991 15.1025 19.7029 15.173 19.5959 15.2212C19.489 15.2694 19.3734 15.2943 19.2566 15.2943C19.1398 15.2943 19.0243 15.2694 18.9173 15.2212C18.8103 15.173 18.7141 15.1025 18.6349 15.0143C18.5557 14.926 18.4951 14.8218 18.457 14.7082C18.4189 14.5947 18.4041 14.4742 18.4134 14.3545V13.4845H15.9412C15.7933 13.484 15.648 13.4436 15.52 13.3673C15.3919 13.291 15.2856 13.1815 15.2116 13.0497C15.1376 12.9179 15.0985 12.7684 15.0982 12.6162C15.0979 12.4641 15.1364 12.3144 15.2099 12.1824L17.0327 8.92701H16.7817C16.6329 8.92706 16.4867 8.88676 16.3579 8.81017C16.2291 8.73358 16.1223 8.6234 16.0481 8.49076C15.9739 8.35812 15.9351 8.2077 15.9355 8.05469C15.9359 7.90168 15.9755 7.75148 16.0504 7.61925L18.5226 3.20768C18.5977 3.07615 18.705 2.96709 18.8337 2.89131C18.9625 2.81554 19.1083 2.77568 19.2566 2.77568C19.4049 2.77568 19.5507 2.81554 19.6795 2.89131C19.8082 2.96709 19.9155 3.07615 19.9906 3.20768L22.4628 7.61925C22.5363 7.75134 22.5749 7.90094 22.5746 8.05313C22.5743 8.20532 22.5352 8.35477 22.4612 8.48655C22.3872 8.61834 22.2808 8.72785 22.1528 8.80416C22.0248 8.88046 21.8795 8.92089 21.7315 8.9214H21.4805L23.3033 12.1768C23.3781 12.309 23.4178 12.4592 23.4182 12.6122C23.4186 12.7652 23.3797 12.9156 23.3056 13.0483C23.2314 13.1809 23.1245 13.2911 22.9957 13.3677C22.8669 13.4443 22.7208 13.4846 22.572 13.4845Z" fill="#1B76E2"/>
<path d="M44.0686 10.3245H51.0541C51.3819 10.3026 51.6893 10.1532 51.9139 9.90665C52.1386 9.66012 52.2636 9.33494 52.2636 8.9971C52.2636 8.65925 52.1386 8.33407 51.9139 8.08754C51.6893 7.84102 51.3819 7.69163 51.0541 7.6697H44.0686V3.54437H51.0541C51.3819 3.52244 51.6893 3.37305 51.9139 3.12653C52.1386 2.88 52.2636 2.55482 52.2636 2.21697C52.2636 1.87913 52.1386 1.55395 51.9139 1.30742C51.6893 1.0609 51.3819 0.911508 51.0541 0.889574H42.7807C42.6104 0.888094 42.4415 0.921223 42.2836 0.987058C42.1258 1.05289 41.9822 1.15014 41.861 1.27321C41.7398 1.39629 41.6434 1.54277 41.5774 1.70424C41.5114 1.86571 41.4771 2.03901 41.4764 2.21417V15.7913C41.4778 16.1431 41.6147 16.48 41.8571 16.7282C42.0995 16.9765 42.4277 17.1158 42.7698 17.1158H51.0541C51.3819 17.0939 51.6893 16.9445 51.9139 16.698C52.1386 16.4515 52.2636 16.1263 52.2636 15.7884C52.2636 15.4506 52.1386 15.1254 51.9139 14.8789C51.6893 14.6324 51.3819 14.483 51.0541 14.461H44.0686V10.3245Z" fill="white"/>
<path d="M64.8828 7.66977H57.8974V3.54445H64.8828C65.2107 3.52251 65.5181 3.37312 65.7427 3.1266C65.9673 2.88008 66.0923 2.55489 66.0923 2.21705C66.0923 1.87921 65.9673 1.55402 65.7427 1.3075C65.5181 1.06097 65.2107 0.911582 64.8828 0.889648H56.6094C56.2673 0.889645 55.9392 1.02902 55.6968 1.27727C55.4544 1.52552 55.3175 1.86242 55.316 2.21424V8.99436C55.316 9.34716 55.4523 9.6855 55.6949 9.93496C55.9374 10.1844 56.2664 10.3246 56.6094 10.3246H63.5894V14.4611H56.6094C56.4329 14.4493 56.2558 14.4749 56.0893 14.5362C55.9227 14.5976 55.7702 14.6935 55.6411 14.8179C55.512 14.9423 55.4091 15.0926 55.3387 15.2596C55.2684 15.4265 55.2321 15.6066 55.2321 15.7885C55.2321 15.9705 55.2684 16.1505 55.3387 16.3175C55.4091 16.4844 55.512 16.6348 55.6411 16.7592C55.7702 16.8836 55.9227 16.9794 56.0893 17.0408C56.2558 17.1022 56.4329 17.1277 56.6094 17.1159H64.8828C65.2244 17.1159 65.552 16.9764 65.7936 16.728C66.0351 16.4795 66.1708 16.1426 66.1708 15.7913V8.99436C66.1708 8.64306 66.0351 8.30615 65.7936 8.05774C65.552 7.80933 65.2244 7.66977 64.8828 7.66977Z" fill="white"/>
</g>
<defs>
<clipPath id="clip0_32328_21194">
<rect width="80" height="16.2319" fill="white" transform="translate(0 0.884033)"/>
</clipPath>
</defs>
</svg>
