<svg width="20" height="20" viewBox="0 0 20 20" fill="none" xmlns="http://www.w3.org/2000/svg">
<path d="M2.24585 17.0939C2.24585 17.439 2.52567 17.7189 2.87085 17.7189H10.8234C10.9614 17.7189 11.0734 17.6069 11.0734 17.4689V16.4064C11.0734 16.2683 10.9614 16.1564 10.8234 16.1564H3.80835L3.80835 3.84387L10.8234 3.84387C10.9614 3.84387 11.0734 3.73194 11.0734 3.59387V2.53137C11.0734 2.3933 10.9614 2.28137 10.8234 2.28137H2.87085C2.52567 2.28137 2.24585 2.56119 2.24585 2.90637V17.0939ZM13.7704 14.2425C13.6728 14.3402 13.5145 14.3402 13.4169 14.2425L12.6656 13.4912C12.5679 13.3936 12.5679 13.2353 12.6656 13.1377L15.0219 10.7813L5.4646 10.7813C5.32653 10.7813 5.2146 10.6694 5.2146 10.5313V9.46881C5.2146 9.33074 5.32653 9.21881 5.4646 9.21881L15.022 9.21881L12.6657 6.86246C12.5681 6.76483 12.5681 6.60654 12.6657 6.50891L13.417 5.75761C13.5146 5.65998 13.6729 5.65998 13.7705 5.75761L17.5711 9.55797C17.6403 9.62714 17.6899 9.70848 17.7198 9.79511C17.7958 10.0142 17.7462 10.2672 17.5712 10.4422L13.7704 14.2425Z" fill="#1A1A1A"/>
</svg>
