<svg width="12" height="12" viewBox="0 0 12 12" fill="none" xmlns="http://www.w3.org/2000/svg">
<g clip-path="url(#clip0_32052_7209)">
<path d="M6.77001 6.00003C6.77267 6.9009 6.41769 7.766 5.78302 8.40536C5.14835 9.04472 4.28588 9.40606 3.38501 9.41003C2.48415 9.40606 1.62168 9.04472 0.987008 8.40536C0.352339 7.766 -0.00264357 6.9009 1.48241e-05 6.00003C-0.00264357 5.09915 0.352339 4.23405 0.987008 3.59469C1.62168 2.95534 2.48415 2.594 3.38501 2.59003C4.28588 2.594 5.14835 2.95534 5.78302 3.59469C6.41769 4.23405 6.77267 5.09915 6.77001 6.00003ZM10.48 6.00003C10.48 7.77003 9.72501 9.21003 8.79001 9.21003C7.85501 9.21003 7.09501 7.77003 7.09501 6.00003C7.09501 4.23003 7.85501 2.79003 8.79001 2.79003C9.72501 2.79003 10.48 4.23003 10.48 6.00003ZM12 6.00003C12 7.58503 11.735 8.87503 11.405 8.87503C11.075 8.87503 10.81 7.58503 10.81 6.00003C10.81 4.41503 11.075 3.12503 11.405 3.12503C11.735 3.12503 12 4.41503 12 6.00003Z" fill="#808080"/>
</g>
<defs>
<clipPath id="clip0_32052_7209">
<rect width="12" height="12" fill="white"/>
</clipPath>
</defs>
</svg>
