<svg width="24" height="24" viewBox="0 0 24 24" fill="none" xmlns="http://www.w3.org/2000/svg">
<path d="M15.3754 12.1294C15.5825 12.1294 15.7504 11.9615 15.7504 11.7544V10.8544C15.7504 10.6473 15.5825 10.4794 15.3754 10.4794H8.62537C8.41826 10.4794 8.25037 10.6473 8.25037 10.8544V11.7544C8.25037 11.9615 8.41826 12.1294 8.62537 12.1294H15.3754Z" fill="#1A1A1A"/>
<path d="M15.7504 8.00437C15.7504 8.21148 15.5825 8.37937 15.3754 8.37937H8.62537C8.41826 8.37937 8.25037 8.21148 8.25037 8.00437V7.10437C8.25037 6.89726 8.41826 6.72937 8.62537 6.72937H15.3754C15.5825 6.72937 15.7504 6.89726 15.7504 7.10437V8.00437Z" fill="#1A1A1A"/>
<path d="M10.8754 15.8794C11.0825 15.8794 11.2504 15.7115 11.2504 15.5044V14.6044C11.2504 14.3973 11.0825 14.2294 10.8754 14.2294H8.62537C8.41826 14.2294 8.25037 14.3973 8.25037 14.6044V15.5044C8.25037 15.7115 8.41826 15.8794 8.62537 15.8794H10.8754Z" fill="#1A1A1A"/>
<path fill-rule="evenodd" clip-rule="evenodd" d="M5.62529 2.97937C4.96255 2.97937 4.42529 3.51663 4.42529 4.17937V19.5151C4.42529 20.5263 5.59937 21.0841 6.3833 20.4454L6.93779 19.9936L7.86729 20.7509C8.30864 21.1105 8.94195 21.1105 9.3833 20.7509L10.3128 19.9936L11.2423 20.7509C11.6836 21.1105 12.3169 21.1105 12.7583 20.7509L13.6878 19.9936L14.6173 20.7509C15.0586 21.1105 15.6919 21.1105 16.1333 20.7509L17.0628 19.9936L17.6173 20.4454C18.4012 21.0841 19.5753 20.5263 19.5753 19.5151V4.17937C19.5753 3.51663 19.038 2.97937 18.3753 2.97937H5.62529ZM6.07529 18.568V4.62937H17.9253V18.568L17.8208 18.4828C17.3794 18.1232 16.7461 18.1232 16.3048 18.4828L15.3753 19.2402L14.4458 18.4828C14.0044 18.1232 13.3711 18.1232 12.9298 18.4828L12.0003 19.2402L11.0708 18.4828C10.6294 18.1232 9.99614 18.1232 9.55479 18.4828L8.62529 19.2402L7.6958 18.4828C7.25444 18.1232 6.62114 18.1232 6.17979 18.4828L6.07529 18.568Z" fill="#1A1A1A"/>
</svg>
