<svg width="24" height="24" viewBox="0 0 24 24" fill="none" xmlns="http://www.w3.org/2000/svg">
<path d="M1.33333 2.66667H2.66667V1.33333H4V0H20V1.33333H21.3333V2.66667H22.6667V4H24V20H22.6667V21.3333H21.3333V22.6667H20V24H4V22.6667H2.66667V21.3333H1.33333V20H0V4H1.33333V2.66667Z" fill="#F5C1C3"/>
<path d="M1.33333 14.6665H0V19.9998H1.33333V14.6665Z" fill="#E65F65"/>
<path d="M22.6665 14.6665H23.9998V19.9998H22.6665V14.6665Z" fill="#E65F65"/>
<path d="M21.3335 20H22.6668V21.3333H21.3335V20Z" fill="#E65F65"/>
<path d="M21.3335 21.3333L20 21.3335V22.6665H4V23.9998H20V22.6665L21.3333 22.6668L21.3335 21.3333Z" fill="#E65F65"/>
<path d="M3.99984 21.3335H2.6665V22.6668H3.99984V21.3335Z" fill="#E65F65"/>
<path d="M1.33333 19.9998L2.66683 20V21.3333H1.3335L1.33333 19.9998Z" fill="#E65F65"/>
<path d="M19.9998 1.33301H18.6665V2.66634H19.9998V1.33301Z" fill="#F1A3A6"/>
<path d="M21.3333 2.6665L19.9998 2.66634L20 3.99984H21.333V5.33285H22.6663V3.99951L21.333 3.99984L21.3333 2.6665Z" fill="#F1A3A6"/>
<path d="M2.66732 18.6665H1.33398V19.9998H2.66732V18.6665Z" fill="#F1A3A6"/>
<path d="M2.66732 19.9998L4.00081 20V21.333H5.33382V22.6663H4.00049L4.00081 21.333L2.66748 21.3333L2.66732 19.9998Z" fill="#F1A3A6"/>
<path d="M22.6663 18.6665H21.333V19.9998H22.6663V18.6665Z" fill="#F1A3A6"/>
<path d="M20 20L21.333 19.9998L21.3333 21.3333H20V20Z" fill="#F1A3A6"/>
<path d="M18.6665 21.333L20 21.3333L19.9998 22.6663H18.6665V21.333Z" fill="#F1A3A6"/>
<path d="M4.00049 1.33301H5.33382V2.66634H4.00049V1.33301Z" fill="#F1A3A6"/>
<path d="M2.66748 2.6665L4.00049 2.66634L4.00081 3.99984H2.66748V2.6665Z" fill="#F1A3A6"/>
<path d="M2.66748 3.99984L1.33398 3.99951V5.33285H2.66732L2.66748 3.99984Z" fill="#F1A3A6"/>
<path d="M18.6667 4H5.33333V5.33333H4V18.6667H5.33333V20H18.6667V18.6667H20V5.33333H18.6667V4Z" fill="#F1A3A6"/>
<path d="M1.33333 14.6667H0V4H1.33333V14.6667Z" fill="#EA797E"/>
<path d="M22.6665 14.6667H23.9998V4H22.6665V14.6667Z" fill="#EA797E"/>
<path d="M21.3335 3.99984H22.6668V2.6665H21.3335V3.99984Z" fill="#EA797E"/>
<path d="M21.3335 2.6665L20 2.66634V1.33333H4V0H20V1.33333L21.3333 1.33301L21.3335 2.6665Z" fill="#EA797E"/>
<path d="M3.99984 2.66634H2.6665V1.33301H3.99984V2.66634Z" fill="#EA797E"/>
<path d="M1.33333 4L2.66683 3.99984V2.6665H1.3335L1.33333 4Z" fill="#EA797E"/>
<path fill-rule="evenodd" clip-rule="evenodd" d="M13.3327 6.6665H10.666V13.3332H13.3327V6.6665ZM13.3327 14.6665H10.666V17.3332H13.3327V14.6665Z" fill="#E0373E"/>
</svg>
