<svg width="40" height="40" viewBox="0 0 40 40" fill="none" xmlns="http://www.w3.org/2000/svg">
<g id="Notification">
<path id="Union" fill-rule="evenodd" clip-rule="evenodd" d="M19.7812 4.00031C19.0909 4.00031 18.5312 4.55995 18.5312 5.25031V7.34603C13.0772 8.06486 8.86762 12.732 8.86762 18.3824V29.25H6.88232C6.19197 29.25 5.63232 29.8096 5.63232 30.5C5.63232 31.1904 6.19197 31.75 6.88232 31.75H14.5993C14.812 34.5468 17.1488 36.75 20.0002 36.75C22.8515 36.75 25.1883 34.5468 25.401 31.75H33.1176C33.808 31.75 34.3676 31.1904 34.3676 30.5C34.3676 29.8096 33.808 29.25 33.1176 29.25H31.1323V18.3824C31.1323 12.5818 26.696 7.81748 21.0312 7.29713V5.25031C21.0312 4.55995 20.4716 4.00031 19.7812 4.00031ZM20 9.75C15.2324 9.75 11.3676 13.6148 11.3676 18.3824V29.25H15.8335H24.1668H28.6323V18.3824C28.6323 13.6148 24.7675 9.75 20 9.75ZM20.0002 34.25C18.5308 34.25 17.3152 33.1634 17.113 31.75H22.8873C22.6851 33.1634 21.4695 34.25 20.0002 34.25Z" fill="#1A1A1A"/>
</g>
</svg>
