<svg width="32" height="32" viewBox="0 0 32 32" fill="none" xmlns="http://www.w3.org/2000/svg">
<g id="Notification">
<path id="Union" fill-rule="evenodd" clip-rule="evenodd" d="M15.825 3.20024C15.2727 3.20024 14.825 3.64796 14.825 4.20024V5.87682C10.4618 6.45188 7.09409 10.1856 7.09409 14.7059V23.4H5.50586C4.95357 23.4 4.50586 23.8477 4.50586 24.4C4.50586 24.9523 4.95357 25.4 5.50586 25.4H11.6794C11.8496 27.6375 13.7191 29.4 16.0001 29.4C18.2812 29.4 20.1506 27.6375 20.3208 25.4H26.4941C27.0464 25.4 27.4941 24.9523 27.4941 24.4C27.4941 23.8477 27.0464 23.4 26.4941 23.4H24.9059V14.7059C24.9059 10.0655 21.3568 6.25398 16.825 5.8377V4.20024C16.825 3.64796 16.3773 3.20024 15.825 3.20024ZM16 7.8C12.186 7.8 9.09409 10.8919 9.09409 14.7059V23.4H12.6668H19.3335H22.9059V14.7059C22.9059 10.8919 19.814 7.8 16 7.8ZM16.0001 27.4C14.8247 27.4 13.8522 26.5307 13.6904 25.4H18.3098C18.1481 26.5307 17.1756 27.4 16.0001 27.4Z" fill="#1A1A1A"/>
</g>
</svg>
