<svg width="12" height="12" viewBox="0 0 12 12" fill="none" xmlns="http://www.w3.org/2000/svg">
<path fill-rule="evenodd" clip-rule="evenodd" d="M4.28962 2.21143C3.3041 2.21143 2.50517 3.01035 2.50517 3.99588C2.50517 4.9814 3.3041 5.78033 4.28962 5.78033C5.27515 5.78033 6.07407 4.9814 6.07407 3.99588C6.07407 3.01035 5.27515 2.21143 4.28962 2.21143ZM3.33017 3.99588C3.33017 3.46599 3.75973 3.03643 4.28962 3.03643C4.81951 3.03643 5.24908 3.46599 5.24908 3.99588C5.24908 4.52577 4.81951 4.95533 4.28962 4.95533C3.75973 4.95533 3.33017 4.52577 3.33017 3.99588Z" fill="#808080"/>
<path d="M1.5009 9.78856C1.5009 8.24839 2.74946 6.99984 4.28962 6.99984C5.82979 6.99984 7.07834 8.24839 7.07834 9.78856H7.90334C7.90334 7.79276 6.28543 6.17484 4.28962 6.17484C2.29382 6.17484 0.675903 7.79276 0.675903 9.78856H1.5009Z" fill="#808080"/>
<path d="M8.134 7.58124C7.97915 7.31213 7.79685 7.0608 7.59093 6.8311C7.81432 6.77875 8.04722 6.75107 8.28658 6.75107C9.96414 6.75107 11.3241 8.111 11.3241 9.78857H10.4991C10.4991 8.56664 9.50851 7.57607 8.28658 7.57607C8.23529 7.57607 8.18441 7.57781 8.134 7.58124Z" fill="#808080"/>
<path fill-rule="evenodd" clip-rule="evenodd" d="M8.28657 3.3375C7.54099 3.3375 6.93657 3.94191 6.93657 4.6875C6.93657 5.43308 7.54099 6.0375 8.28657 6.0375C9.03216 6.0375 9.63657 5.43308 9.63657 4.6875C9.63657 3.94191 9.03216 3.3375 8.28657 3.3375ZM7.76157 4.6875C7.76157 4.39755 7.99662 4.1625 8.28657 4.1625C8.57652 4.1625 8.81157 4.39755 8.81157 4.6875C8.81157 4.97745 8.57652 5.2125 8.28657 5.2125C7.99662 5.2125 7.76157 4.97745 7.76157 4.6875Z" fill="#808080"/>
</svg>
