<svg width="64" height="64" viewBox="0 0 64 64" fill="none" xmlns="http://www.w3.org/2000/svg">
<path fill-rule="evenodd" clip-rule="evenodd" d="M32 7C18.1929 7 7 18.1929 7 32C7 45.8071 18.1929 57 32 57C45.8071 57 57 45.8071 57 32C57 18.1929 45.8071 7 32 7ZM11.5455 32C11.5455 20.7033 20.7033 11.5455 32 11.5455C43.2967 11.5455 52.4545 20.7033 52.4545 32C52.4545 43.2967 43.2967 52.4545 32 52.4545C20.7033 52.4545 11.5455 43.2967 11.5455 32ZM26.8857 24.7253V31.6141V38.503C26.8857 39.8151 28.3062 40.6352 29.4426 39.9792L35.4085 36.5347L41.3744 33.0903C42.5107 32.4342 42.5107 30.794 41.3744 30.138L35.4085 26.6935L29.4426 23.2491C28.3062 22.593 26.8857 23.4131 26.8857 24.7253Z" fill="white"/>
</svg>
