<svg width="24" height="24" viewBox="0 0 24 24" fill="none" xmlns="http://www.w3.org/2000/svg">
<path d="M4.4624 11.9999C4.4624 7.8376 7.83662 4.46338 11.9989 4.46338C14.6372 4.46338 16.9603 5.81895 18.3073 7.87445H16.7988C16.6332 7.87445 16.4988 8.00877 16.4988 8.17445V9.44945C16.4988 9.61514 16.6332 9.74945 16.7988 9.74945L20.9988 9.75C21.4131 9.75 21.7488 9.41421 21.7488 9V4.8C21.7488 4.63431 21.6145 4.5 21.4488 4.5H20.1738C20.0082 4.5 19.8738 4.63431 19.8738 4.8V6.84437C18.1932 4.28242 15.2946 2.58838 11.9989 2.58838C6.80109 2.58838 2.5874 6.80206 2.5874 11.9999C2.5874 17.1978 6.80109 21.4114 11.9989 21.4114C16.2335 21.4114 19.8128 18.6156 20.9957 14.7707C21.0444 14.6124 20.9498 14.4471 20.7899 14.4035L19.5599 14.0679C19.4 14.0243 19.2357 14.1188 19.1857 14.2767C18.2205 17.3268 15.3666 19.5364 11.9989 19.5364C7.83662 19.5364 4.4624 16.1622 4.4624 11.9999Z" fill="#1B76E2"/>
</svg>
