<svg width="24" height="24" viewBox="0 0 24 24" fill="none" xmlns="http://www.w3.org/2000/svg">
<path fill-rule="evenodd" clip-rule="evenodd" d="M11.5876 0.785334C11.8428 0.637962 12.1573 0.637962 12.4126 0.785334L21.5058 6.03533C21.7611 6.18271 21.9183 6.45506 21.9183 6.7498V17.2498C21.9183 17.5445 21.7611 17.8169 21.5058 17.9643L12.4126 23.2143C12.1573 23.3616 11.8428 23.3616 11.5876 23.2143L2.49429 17.9643C2.23903 17.8169 2.08179 17.5445 2.08179 17.2498V6.7498C2.08179 6.45506 2.23903 6.18271 2.49429 6.03533L11.5876 0.785334ZM3.73179 8.1236L11.1751 12.0859V21.0709L3.73179 16.7735V8.1236ZM12.8251 21.0709L20.2683 16.7735V8.1236L12.8251 12.0859V21.0709ZM12.0001 10.6559L19.3926 6.72054L12.0001 2.45243L4.60748 6.72054L12.0001 10.6559Z" fill="#1B76E2"/>
</svg>
