<svg width="20" height="20" viewBox="0 0 20 20" fill="none" xmlns="http://www.w3.org/2000/svg">
<path d="M7.95346 8.26321C7.95346 7.88351 7.64566 7.57571 7.26596 7.57571C6.88626 7.57571 6.57846 7.88351 6.57846 8.26321C6.57846 10.1579 8.10651 11.7007 9.99989 11.7007C11.8933 11.7007 13.4213 10.1579 13.4213 8.26321C13.4213 7.88351 13.1135 7.57571 12.7338 7.57571C12.3541 7.57571 12.0463 7.88351 12.0463 8.26321C12.0463 9.40611 11.1263 10.3257 9.99989 10.3257C8.87348 10.3257 7.95346 9.4061 7.95346 8.26321Z" fill="#808080"/>
<path fill-rule="evenodd" clip-rule="evenodd" d="M4.98615 2.71405C5.1159 2.54002 5.32023 2.4375 5.5373 2.4375H14.4627C14.6798 2.4375 14.8841 2.54002 15.0139 2.71405L17.0643 5.46404C17.1586 5.59052 17.2029 5.73881 17.2006 5.88524V16.1513C17.2006 16.9307 16.5688 17.5625 15.7894 17.5625H4.2105C3.43113 17.5625 2.79932 16.9307 2.79932 16.1513L2.79932 5.87318C2.79939 5.83357 2.80287 5.79388 2.80983 5.75457C2.82931 5.64435 2.87505 5.54319 2.94036 5.45779L4.98615 2.71405ZM14.1177 3.8125L15.143 5.18753H4.85701L5.88226 3.8125H14.1177ZM4.17432 6.56253V16.1513C4.17432 16.1713 4.19051 16.1875 4.2105 16.1875H15.7894C15.8094 16.1875 15.8256 16.1713 15.8256 16.1513V6.56253H4.17432Z" fill="#808080"/>
</svg>
