<svg width="20" height="20" viewBox="0 0 20 20" fill="none" xmlns="http://www.w3.org/2000/svg">
<path d="M7.82912 16.1426L8.31616 17.2379C8.46094 17.564 8.69722 17.841 8.99635 18.0355C9.29547 18.2299 9.64458 18.3334 10.0013 18.3333C10.3581 18.3334 10.7072 18.2299 11.0063 18.0355C11.3055 17.841 11.5417 17.564 11.6865 17.2379L12.1736 16.1426C12.3469 15.7539 12.6386 15.4298 13.0069 15.2166C13.3776 15.0028 13.8063 14.9117 14.2319 14.9564L15.4236 15.0833C15.7783 15.1208 16.1363 15.0546 16.4541 14.8927C16.772 14.7308 17.0361 14.4802 17.2143 14.1713C17.3928 13.8625 17.4778 13.5085 17.4591 13.1524C17.4403 12.7962 17.3186 12.4531 17.1087 12.1648L16.4032 11.1953C16.152 10.8476 16.0177 10.429 16.0199 9.99996C16.0198 9.57212 16.1553 9.15525 16.4069 8.80922L17.1125 7.83977C17.3223 7.55142 17.444 7.20835 17.4628 6.85219C17.4815 6.49602 17.3965 6.14208 17.218 5.83329C17.0398 5.52432 16.7757 5.2737 16.4578 5.11182C16.14 4.94993 15.782 4.88373 15.4273 4.92126L14.2356 5.04811C13.81 5.0928 13.3813 5.00173 13.0106 4.78792C12.6415 4.5735 12.3498 4.24776 12.1773 3.85737L11.6865 2.762C11.5417 2.43594 11.3055 2.15889 11.0063 1.96446C10.7072 1.77003 10.3581 1.66657 10.0013 1.66663C9.64458 1.66657 9.29547 1.77003 8.99635 1.96446C8.69722 2.15889 8.46094 2.43594 8.31616 2.762L7.82912 3.85737C7.65656 4.24776 7.36485 4.5735 6.99579 4.78792C6.62513 5.00173 6.19634 5.0928 5.77079 5.04811L4.57542 4.92126C4.22069 4.88373 3.8627 4.94993 3.54485 5.11182C3.22699 5.2737 2.96293 5.52432 2.78468 5.83329C2.60619 6.14208 2.52116 6.49602 2.5399 6.85219C2.55864 7.20835 2.68034 7.55142 2.89023 7.83977L3.59579 8.80922C3.8474 9.15525 3.9829 9.57212 3.98282 9.99996C3.9829 10.4278 3.8474 10.8447 3.59579 11.1907L2.89023 12.1601C2.68034 12.4485 2.55864 12.7916 2.5399 13.1477C2.52116 13.5039 2.60619 13.8578 2.78468 14.1666C2.96311 14.4754 3.2272 14.7259 3.54501 14.8878C3.86282 15.0496 4.22072 15.1159 4.57542 15.0787L5.76708 14.9518C6.19264 14.9071 6.62143 14.9982 6.99208 15.212C7.36252 15.4258 7.65559 15.7516 7.82912 16.1426Z" stroke="black" stroke-width="1.66667" stroke-linecap="round" stroke-linejoin="round"/>
<path d="M9.99985 12.5C11.3806 12.5 12.4999 11.3807 12.4999 9.99996C12.4999 8.61925 11.3806 7.49996 9.99985 7.49996C8.61914 7.49996 7.49985 8.61925 7.49985 9.99996C7.49985 11.3807 8.61914 12.5 9.99985 12.5Z" stroke="black" stroke-width="1.66667" stroke-linecap="round" stroke-linejoin="round"/>
</svg>
