<svg width="41" height="41" viewBox="0 0 41 41" fill="none" xmlns="http://www.w3.org/2000/svg">
<path d="M38 20.3019C38 29.9669 30.165 37.8019 20.5 37.8019C10.835 37.8019 3 29.9669 3 20.3019C3 10.637 10.835 2.80194 20.5 2.80194C30.165 2.80194 38 10.637 38 20.3019Z" fill="white"/>
<path d="M38 20.3019C38 29.9669 30.165 37.8019 20.5 37.8019C10.835 37.8019 3 29.9669 3 20.3019C3 10.637 10.835 2.80194 20.5 2.80194C30.165 2.80194 38 10.637 38 20.3019ZM18.4315 26.6338C18.763 26.6431 19.0975 26.5212 19.3505 26.2682L29.6035 16.0151C29.7988 15.8199 29.7988 15.5033 29.6035 15.308L28.1009 13.8054C27.9057 13.6102 27.5891 13.6102 27.3938 13.8054L18.4653 22.734L13.6063 17.8749C13.411 17.6797 13.0944 17.6797 12.8992 17.8749L11.3966 19.3775C11.2013 19.5728 11.2013 19.8894 11.3966 20.0846L17.5801 26.2681C17.8159 26.504 18.1225 26.6259 18.4315 26.6338Z" fill="#00B73E"/>
</svg>
