<svg width="20" height="20" viewBox="0 0 20 20" fill="none" xmlns="http://www.w3.org/2000/svg">
<path fill-rule="evenodd" clip-rule="evenodd" d="M8.62937 1.96758C8.42372 1.79958 8.13971 1.76504 7.89978 1.87885C7.65986 1.99265 7.50693 2.23446 7.50693 2.50001C7.50693 3.02 7.43273 3.68877 7.30096 4.33462C7.16737 4.98936 6.98657 5.56102 6.79994 5.91202C6.57291 6.33899 6.45661 6.52433 6.34006 6.67607C6.25164 6.7912 6.16462 6.88695 6.02125 7.04473L6.02124 7.04474C5.95121 7.12181 5.86772 7.21368 5.76407 7.32983C5.64 7.46885 5.52679 7.59031 5.41963 7.70528C5.05957 8.09159 4.76782 8.40462 4.3621 9.06427C3.77123 10.025 3.68744 11.2413 3.68744 12.0318C3.68744 15.582 6.56235 18.1875 9.99994 18.1875C13.4575 18.1875 16.3124 15.4426 16.3124 11.9118C16.3124 11.092 16.2681 10.1874 15.8106 8.81232C15.5975 8.17182 15.4603 7.78156 15.3148 7.44821C15.1668 7.10889 15.0146 6.83926 14.7902 6.44518C14.6432 6.18728 14.3474 6.05278 14.0565 6.11161C13.7656 6.17045 13.5453 6.40934 13.5101 6.70406C13.4453 7.24738 13.2685 7.65504 13.0651 7.96038C13.0214 7.82505 12.9735 7.68261 12.9216 7.53535C12.6399 6.73572 12.2233 5.74267 11.6994 4.97511C10.8409 3.7176 9.7107 2.82459 8.96603 2.23624C8.84212 2.13834 8.7289 2.04888 8.62937 1.96758ZM8.6482 4.6095C8.69899 4.36056 8.74273 4.10595 8.77817 3.85317C9.38159 4.35793 10.0304 4.96909 10.5637 5.75033C10.9874 6.37102 11.357 7.23221 11.6247 7.99218C11.7566 8.36655 11.8594 8.70386 11.9284 8.95661C11.9631 9.08337 11.9881 9.18496 12.0039 9.2568C12.0132 9.29897 12.017 9.32105 12.0182 9.32812C12.0349 9.57125 12.1795 9.78893 12.4002 9.89769C12.6351 10.0134 12.9154 9.98568 13.123 9.82613C13.1382 9.81443 13.1567 9.80068 13.1781 9.78478C13.3889 9.62793 13.8806 9.26221 14.2867 8.6016C14.3484 8.77684 14.4194 8.98645 14.5059 9.2464C14.9033 10.4407 14.9374 11.1894 14.9374 11.9118C14.9374 13.654 14.0476 15.1549 12.7046 16.0215C12.748 15.8268 12.7708 15.6244 12.7708 15.4167C12.7708 14.1171 12.1608 12.9362 11.6106 12.1252C11.3295 11.711 11.0493 11.3718 10.839 11.1356C10.7335 11.0171 10.6447 10.9236 10.5811 10.8585C10.5493 10.8259 10.5237 10.8004 10.5053 10.7824L10.4833 10.7609L10.4766 10.7545L10.4744 10.7524L10.4729 10.751C10.2077 10.4997 9.79227 10.4997 9.52707 10.751L9.52561 10.7524L9.52338 10.7545L9.51669 10.7609L9.4947 10.7824C9.47633 10.8004 9.45071 10.8259 9.41887 10.8585C9.35523 10.9236 9.26649 11.0171 9.16101 11.1356C8.95068 11.3718 8.67049 11.711 8.38941 12.1252C7.83916 12.9362 7.22916 14.1171 7.22916 15.4167C7.22916 15.6399 7.25555 15.8569 7.30539 16.0649C5.95256 15.2315 5.06244 13.7699 5.06244 12.0318C5.06244 11.2801 5.15561 10.3988 5.53331 9.7846C5.86293 9.2487 6.05637 9.04083 6.38924 8.68316L6.38926 8.68313C6.50291 8.56101 6.63283 8.42141 6.78996 8.24534C6.86316 8.16332 6.93182 8.08773 6.99652 8.0165L6.99657 8.01644L6.99658 8.01643C7.1646 7.83145 7.30591 7.67588 7.43054 7.51361C7.61825 7.26921 7.77733 7.00264 8.01399 6.55755C8.29105 6.03648 8.50398 5.31634 8.6482 4.6095ZM10.4727 12.8972C10.3091 12.656 10.145 12.4437 9.99999 12.2687C9.85498 12.4437 9.6909 12.656 9.52723 12.8972C9.03585 13.6215 8.60416 14.524 8.60416 15.4167C8.60416 16.1876 9.22909 16.8125 9.99999 16.8125C10.7709 16.8125 11.3958 16.1876 11.3958 15.4167C11.3958 14.524 10.9641 13.6215 10.4727 12.8972Z" fill="#808080"/>
</svg>
