<svg width="20" height="20" viewBox="0 0 20 20" fill="none" xmlns="http://www.w3.org/2000/svg">
<g id="Icon_Color">
<g id="Union">
<path d="M12.8127 10.1074C12.9852 10.1074 13.1252 9.96751 13.1252 9.79492V9.04492C13.1252 8.87233 12.9852 8.73242 12.8127 8.73242H7.18765C7.01506 8.73242 6.87515 8.87233 6.87515 9.04492V9.79492C6.87515 9.96751 7.01506 10.1074 7.18765 10.1074H12.8127Z" fill="#808080"/>
<path d="M13.1252 6.66992C13.1252 6.84251 12.9852 6.98242 12.8127 6.98242H7.18765C7.01506 6.98242 6.87515 6.84251 6.87515 6.66992V5.91992C6.87515 5.74733 7.01506 5.60742 7.18765 5.60742H12.8127C12.9852 5.60742 13.1252 5.74733 13.1252 5.91992V6.66992Z" fill="#808080"/>
<path d="M9.06265 13.2324C9.23524 13.2324 9.37515 13.0925 9.37515 12.9199V12.1699C9.37515 11.9973 9.23524 11.8574 9.06265 11.8574H7.18765C7.01506 11.8574 6.87515 11.9973 6.87515 12.1699V12.9199C6.87515 13.0925 7.01506 13.2324 7.18765 13.2324H9.06265Z" fill="#808080"/>
<path fill-rule="evenodd" clip-rule="evenodd" d="M4.68759 2.48242C4.13531 2.48242 3.68759 2.93014 3.68759 3.48242V16.2622C3.68759 17.1049 4.66599 17.5697 5.31926 17.0374L5.78134 16.6609L6.55592 17.2921C6.92372 17.5917 7.45147 17.5917 7.81926 17.2921L8.59384 16.6609L9.36842 17.2921C9.73622 17.5917 10.264 17.5917 10.6318 17.2921L11.4063 16.6609L12.1809 17.2921C12.5487 17.5917 13.0765 17.5917 13.4443 17.2921L14.2188 16.6609L14.6809 17.0374C15.3342 17.5697 16.3126 17.1049 16.3126 16.2622V3.48242C16.3126 2.93014 15.8649 2.48242 15.3126 2.48242H4.68759ZM5.06259 15.4729V3.85742H14.9376V15.4729L14.8505 15.402C14.4827 15.1023 13.955 15.1023 13.5872 15.402L12.8126 16.0331L12.038 15.402C11.6702 15.1023 11.1425 15.1023 10.7747 15.402L10.0001 16.0331L9.22551 15.402C8.85772 15.1023 8.32997 15.1023 7.96217 15.402L7.18759 16.0331L6.41301 15.402C6.04522 15.1023 5.51747 15.1023 5.14967 15.402L5.06259 15.4729Z" fill="#808080"/>
</g>
</g>
</svg>
