<svg width="20" height="20" viewBox="0 0 20 20" fill="none" xmlns="http://www.w3.org/2000/svg">
<path d="M14.6664 8.76597C14.56 9.02287 14.3093 9.19038 14.0313 9.19038L5.59376 9.19038C5.42117 9.19038 5.28126 9.05047 5.28126 8.87788L5.28126 8.12788C5.28126 7.95529 5.42117 7.81538 5.59376 7.81538L12.3715 7.81538L11.2145 6.65837C11.0924 6.53633 11.0924 6.33847 11.2145 6.21643L11.7448 5.6861C11.8668 5.56406 12.0647 5.56406 12.1868 5.6861L14.5174 8.01674C14.714 8.21337 14.7728 8.50907 14.6664 8.76597Z" fill="#808080"/>
<path d="M14.7187 11.8721C14.7187 12.0447 14.5788 12.1846 14.4062 12.1846H7.62851L8.78552 13.3416C8.90756 13.4636 8.90756 13.6615 8.78552 13.7835L8.25519 14.3139C8.13315 14.4359 7.93529 14.4359 7.81325 14.3139L5.4826 11.9832C5.28598 11.7866 5.22716 11.4909 5.33357 11.234C5.43998 10.9771 5.69067 10.8096 5.96874 10.8096L14.4062 10.8096C14.5788 10.8096 14.7187 10.9495 14.7187 11.1221V11.8721Z" fill="#808080"/>
<path fill-rule="evenodd" clip-rule="evenodd" d="M1.25 10C1.25 5.16751 5.16751 1.25 10 1.25C14.8325 1.25 18.75 5.16751 18.75 10C18.75 14.8325 14.8325 18.75 10 18.75C5.16751 18.75 1.25 14.8325 1.25 10ZM10 2.625C5.9269 2.625 2.625 5.9269 2.625 10C2.625 14.0731 5.9269 17.375 10 17.375C14.0731 17.375 17.375 14.0731 17.375 10C17.375 5.9269 14.0731 2.625 10 2.625Z" fill="#808080"/>
</svg>
