<svg width="20" height="20" viewBox="0 0 20 20" fill="none" xmlns="http://www.w3.org/2000/svg">
<g id="Icon_Color">
<g id="Union">
<path d="M11.2817 14.7759C11.4037 14.8979 11.6016 14.8979 11.7236 14.7759L12.254 14.2455C12.376 14.1235 12.376 13.9256 12.254 13.8036L10.9723 12.522L12.254 11.2404C12.376 11.1183 12.376 10.9205 12.254 10.7984L11.7236 10.2681C11.6016 10.146 11.4037 10.146 11.2817 10.2681L10.0001 11.5497L8.71842 10.2681C8.59638 10.146 8.39852 10.146 8.27648 10.2681L7.74615 10.7984C7.62411 10.9204 7.62411 11.1183 7.74615 11.2403L9.0278 12.522L7.74617 13.8036C7.62413 13.9257 7.62413 14.1235 7.74617 14.2456L8.2765 14.7759C8.39854 14.8979 8.5964 14.8979 8.71844 14.7759L10.0001 13.4943L11.2817 14.7759Z" fill="#808080"/>
<path fill-rule="evenodd" clip-rule="evenodd" d="M4.41189 7.45944L9.07187 2.79946C9.58443 2.2869 10.4155 2.2869 10.928 2.79946L15.588 7.45944H16.8749C17.5998 7.45944 18.1874 8.04707 18.1874 8.77194V16.2719C18.1874 16.9968 17.5998 17.5844 16.8749 17.5844H3.12494C2.40007 17.5844 1.81244 16.9968 1.81244 16.2719V8.77194C1.81244 8.04707 2.40006 7.45944 3.12494 7.45944H4.41189ZM6.35643 7.45944L9.99995 3.81593L13.6435 7.45944H6.35643ZM3.18744 16.2094V8.83444H16.8124V16.2094H3.18744Z" fill="#808080"/>
</g>
</g>
</svg>
