<svg width="20" height="20" viewBox="0 0 20 20" fill="none" xmlns="http://www.w3.org/2000/svg">
<g id="Icon_Color">
<g id="Union">
<path fill-rule="evenodd" clip-rule="evenodd" d="M6.86984 10.9673C5.67552 10.9673 4.70734 11.9355 4.70734 13.1298C4.70734 14.3241 5.67552 15.2923 6.86984 15.2923C8.06415 15.2923 9.03234 14.3241 9.03234 13.1298C9.03234 11.9355 8.06415 10.9673 6.86984 10.9673ZM6.08234 13.1298C6.08234 12.6949 6.43491 12.3423 6.86984 12.3423C7.30476 12.3423 7.65734 12.6949 7.65734 13.1298C7.65734 13.5648 7.30476 13.9173 6.86984 13.9173C6.43491 13.9173 6.08234 13.5648 6.08234 13.1298Z" fill="#808080"/>
<path fill-rule="evenodd" clip-rule="evenodd" d="M11.7301 2.59145C11.2175 2.07889 10.3865 2.07889 9.87391 2.59145L2.59176 9.87361C2.34562 10.1197 2.20734 10.4536 2.20734 10.8017V16.4798C2.20734 17.2047 2.79496 17.7923 3.51984 17.7923H9.19795C9.54605 17.7923 9.87989 17.654 10.126 17.4079L17.4082 10.1257C17.9207 9.61316 17.9207 8.78213 17.4082 8.26957L11.7301 2.59145ZM3.58234 10.8276L10.802 3.60792L16.3917 9.19765L9.17207 16.4173H3.58234V10.8276Z" fill="#808080"/>
</g>
</g>
</svg>
