<svg width="20" height="20" viewBox="0 0 20 20" fill="none" xmlns="http://www.w3.org/2000/svg">
<path d="M12.9081 9.00726L9.68585 12.2295C9.44177 12.4736 9.04604 12.4736 8.80196 12.2295L7.09179 10.5193C6.96975 10.3973 6.96975 10.1994 7.09179 10.0774L7.62212 9.54705C7.74416 9.42501 7.94202 9.42501 8.06406 9.54705L9.2439 10.7269L11.9358 8.03499C12.0578 7.91295 12.2557 7.91295 12.3778 8.03499L12.9081 8.56532C13.0301 8.68736 13.0301 8.88522 12.9081 9.00726Z" fill="#808080"/>
<path fill-rule="evenodd" clip-rule="evenodd" d="M10.5866 2.13283C10.2595 1.8164 9.74034 1.8164 9.41325 2.13283L7.91481 3.58243L5.8505 3.29044C5.39987 3.2267 4.9799 3.53183 4.90127 3.9801L4.54106 6.0336L2.69937 7.01075C2.29734 7.22406 2.13693 7.71776 2.3368 8.12664L3.2524 9.99968L2.3368 11.8727C2.13693 12.2816 2.29734 12.7753 2.69937 12.9886L4.54106 13.9658L4.90127 16.0193C4.9799 16.4675 5.39987 16.7727 5.8505 16.7089L7.91481 16.4169L9.41325 17.8665C9.74034 18.183 10.2595 18.183 10.5866 17.8665L12.085 16.4169L14.1493 16.7089C14.5999 16.7727 15.0199 16.4675 15.0985 16.0193L15.4587 13.9658L17.3004 12.9886C17.7025 12.7753 17.8629 12.2816 17.663 11.8727L16.7474 9.99968L17.663 8.12664C17.8629 7.71776 17.7025 7.22406 17.3004 7.01075L15.4587 6.0336L15.0985 3.9801C15.0199 3.53183 14.5999 3.2267 14.1493 3.29044L12.085 3.58243L10.5866 2.13283ZM8.68419 4.75123L9.9999 3.47841L11.3156 4.75123C11.5027 4.93218 11.7627 5.01669 12.0204 4.98024L13.833 4.72387L14.1493 6.52695C14.1943 6.78329 14.355 7.00453 14.5849 7.12651L16.202 7.9845L15.398 9.62914C15.2838 9.86295 15.2838 10.1364 15.398 10.3702L16.202 12.0149L14.5849 12.8729C14.355 12.9948 14.1943 13.2161 14.1493 13.4724L13.833 15.2755L12.0204 15.0191C11.7627 14.9827 11.5027 15.0672 11.3156 15.2481L9.9999 16.521L8.68419 15.2481C8.49714 15.0672 8.23706 14.9827 7.97937 15.0191L6.1668 15.2755L5.85051 13.4724C5.80554 13.2161 5.6448 12.9948 5.41491 12.8729L3.79781 12.0149L4.60175 10.3702C4.71605 10.1364 4.71605 9.86295 4.60175 9.62914L3.79781 7.9845L5.41491 7.12651C5.6448 7.00453 5.80554 6.78329 5.85051 6.52695L6.1668 4.72387L7.97937 4.98024C8.23706 5.01669 8.49714 4.93218 8.68419 4.75123Z" fill="#808080"/>
</svg>
