<svg width="20" height="20" viewBox="0 0 20 20" fill="none" xmlns="http://www.w3.org/2000/svg">
<g id="Icon_Color">
<g id="Union">
<path fill-rule="evenodd" clip-rule="evenodd" d="M4.68759 2.48242C4.13531 2.48242 3.68759 2.93014 3.68759 3.48242V7.31412C3.68759 7.75312 3.97391 8.14079 4.39351 8.2699L8.07739 9.4034C8.39372 9.50073 8.73773 9.43524 8.99617 9.22849L11.708 7.05899L15.0185 8.07759C15.6616 8.27545 16.3126 7.79462 16.3126 7.12181V3.48242C16.3126 2.93014 15.8649 2.48242 15.3126 2.48242H4.68759ZM5.06259 7.03715V3.85742H14.9376V6.61407L11.9228 5.68644C11.6065 5.58911 11.2625 5.6546 11.004 5.86135L8.29213 8.03086L5.06259 7.03715Z" fill="#808080"/>
<path fill-rule="evenodd" clip-rule="evenodd" d="M12.6546 8.83661C12.3255 8.71472 11.9566 8.77426 11.6826 8.99349L8.96564 11.1671L4.94208 10.1082C4.308 9.94136 3.68759 10.4196 3.68759 11.0753V16.2622C3.68759 17.1049 4.66599 17.5697 5.31926 17.0374L5.78134 16.6609L6.55592 17.2921C6.92372 17.5917 7.45147 17.5917 7.81926 17.2921L8.59384 16.6609L9.36842 17.2921C9.73622 17.5917 10.264 17.5917 10.6318 17.2921L11.4063 16.6609L12.1809 17.2921C12.5487 17.5917 13.0765 17.5917 13.4443 17.2921L14.2188 16.6609L14.6809 17.0374C15.3342 17.5697 16.3126 17.1049 16.3126 16.2622V10.8874C16.3126 10.4691 16.0522 10.095 15.6599 9.94968L12.6546 8.83661ZM9.67731 12.3586L12.3759 10.1997L14.9376 11.1484V15.4729L14.8505 15.402C14.4827 15.1023 13.955 15.1023 13.5872 15.402L12.8126 16.0331L12.038 15.402C11.6702 15.1023 11.1425 15.1023 10.7747 15.402L10.0001 16.0331L9.22551 15.402C8.85772 15.1023 8.32997 15.1023 7.96217 15.402L7.18759 16.0331L6.41301 15.402C6.04522 15.1023 5.51747 15.1023 5.14967 15.402L5.06259 15.4729V11.5618L8.79812 12.5448C9.10414 12.6253 9.43021 12.5563 9.67731 12.3586Z" fill="#808080"/>
</g>
</g>
</svg>
