<svg width="24" height="24" viewBox="0 0 24 24" fill="none" xmlns="http://www.w3.org/2000/svg">
<g id="Icon_Color">
<path id="Union" fill-rule="evenodd" clip-rule="evenodd" d="M20.8334 3.16646C21.0575 3.39057 21.1334 3.72323 21.0287 4.02237L15.2537 20.5224C15.142 20.8416 14.8467 21.0604 14.5087 21.0741C14.1707 21.0879 13.8585 20.894 13.7212 20.5849L10.55 13.4499L3.41499 10.2787C3.10588 10.1413 2.91195 9.82918 2.92574 9.4912C2.93953 9.15321 3.15824 8.85789 3.47751 8.74614L19.9775 2.97114C20.2766 2.86645 20.6093 2.94236 20.8334 3.16646ZM12.1591 13.0075L14.3838 18.0132L18.2771 6.88952L12.1591 13.0075ZM17.1104 5.72279L5.98669 9.61608L10.9923 11.8408L17.1104 5.72279Z" fill="#1A1A1A"/>
</g>
</svg>
