<svg width="24" height="24" viewBox="0 0 24 24" fill="none" xmlns="http://www.w3.org/2000/svg">
<path d="M3.375 5.70007C3.16789 5.70007 3 5.86797 3 6.07507V7.57507C3 7.78218 3.16789 7.95007 3.375 7.95007H4.875C5.08211 7.95007 5.25 7.78218 5.25 7.57507V6.07507C5.25 5.86797 5.08211 5.70007 4.875 5.70007H3.375Z" fill="#1A1A1A"/>
<path d="M3.375 10.875C3.16789 10.875 3 11.0429 3 11.25V12.75C3 12.9571 3.16789 13.125 3.375 13.125H4.875C5.08211 13.125 5.25 12.9571 5.25 12.75V11.25C5.25 11.0429 5.08211 10.875 4.875 10.875H3.375Z" fill="#1A1A1A"/>
<path d="M3 16.4249C3 16.2178 3.16789 16.0499 3.375 16.0499H4.875C5.08211 16.0499 5.25 16.2178 5.25 16.4249V17.9249C5.25 18.132 5.08211 18.2999 4.875 18.2999H3.375C3.16789 18.2999 3 18.132 3 17.9249V16.4249Z" fill="#1A1A1A"/>
<path d="M6.75 6.375C6.75 6.16789 6.91789 6 7.125 6H20.625C20.8321 6 21 6.16789 21 6.375V7.275C21 7.48211 20.8321 7.65 20.625 7.65H7.125C6.91789 7.65 6.75 7.48211 6.75 7.275V6.375Z" fill="#1A1A1A"/>
<path d="M7.125 11.1749C6.91789 11.1749 6.75 11.3428 6.75 11.5499V12.4499C6.75 12.657 6.91789 12.8249 7.125 12.8249H20.625C20.8321 12.8249 21 12.657 21 12.4499V11.5499C21 11.3428 20.8321 11.1749 20.625 11.1749H7.125Z" fill="#1A1A1A"/>
<path d="M7.125 16.3499C6.91789 16.3499 6.75 16.5177 6.75 16.7249V17.6249C6.75 17.832 6.91789 17.9999 7.125 17.9999H20.625C20.8321 17.9999 21 17.832 21 17.6249V16.7249C21 16.5177 20.8321 16.3499 20.625 16.3499H7.125Z" fill="#1A1A1A"/>
</svg>
