<svg width="52" height="53" viewBox="0 0 52 53" fill="none" xmlns="http://www.w3.org/2000/svg">
<path d="M24.8537 7.40871C25.2677 6.99472 25.8498 6.85137 26.3802 6.97864C26.6617 7.04593 26.9286 7.18939 27.1483 7.40901L37.0083 17.27C37.2616 17.5233 37.2616 17.934 37.0083 18.1873L35.0589 20.1366C34.8056 20.3899 34.3949 20.3899 34.1416 20.1366L28.0271 14.0221L28.0271 38.1978C28.0271 38.556 27.7366 38.8464 27.3784 38.8464H24.6216C24.2634 38.8464 23.973 38.556 23.973 38.1978L23.973 14.0243L17.8603 20.1369C17.607 20.3903 17.1963 20.3903 16.943 20.1369L14.9937 18.1876C14.7404 17.9343 14.7404 17.5236 14.9937 17.2703L24.8537 7.40871ZM7.59446 46.5543C6.69886 46.5543 5.97284 45.8282 5.97284 44.9326V37.0678C5.97284 36.7095 6.26325 36.4191 6.62149 36.4191H9.37824C9.73648 36.4191 10.0269 36.7095 10.0269 37.0678V42.5002H41.9728V37.0678C41.9728 36.7095 42.2633 36.4191 42.6215 36.4191H45.3782C45.7365 36.4191 46.0269 36.7095 46.0269 37.0678V44.9326C46.0269 45.8282 45.3009 46.5543 44.4053 46.5543H7.59446Z" fill="#1B76E2"/>
</svg>
