<svg width="12" height="12" viewBox="0 0 12 12" fill="none" xmlns="http://www.w3.org/2000/svg">
<g id="Icon_Color">
<path id="Union" fill-rule="evenodd" clip-rule="evenodd" d="M4.72503 3.4877C4.72503 2.78353 5.29586 2.2127 6.00003 2.2127C6.70419 2.2127 7.27503 2.78353 7.27503 3.4877C7.27503 4.19186 6.70419 4.7627 6.00003 4.7627C5.29586 4.7627 4.72503 4.19186 4.72503 3.4877ZM6.00003 1.3877C4.84023 1.3877 3.90003 2.3279 3.90003 3.4877C3.90003 4.64749 4.84023 5.5877 6.00003 5.5877C7.15982 5.5877 8.10003 4.64749 8.10003 3.4877C8.10003 2.3279 7.15982 1.3877 6.00003 1.3877ZM2.38128 10.6127C2.43305 10.6127 2.4749 10.5705 2.47625 10.5187C2.52608 8.61534 4.08465 7.0877 6.00003 7.0877C7.9154 7.0877 9.47397 8.61534 9.5238 10.5187C9.52515 10.5705 9.567 10.6127 9.61878 10.6127H10.2563C10.3081 10.6127 10.3501 10.5704 10.349 10.5186C10.299 8.15963 8.37103 6.2627 6.00003 6.2627C3.62902 6.2627 1.70106 8.15963 1.65102 10.5186C1.64992 10.5704 1.692 10.6127 1.74378 10.6127H2.38128Z" fill="#808080"/>
</g>
</svg>
