<svg width="14" height="20" viewBox="0 0 14 20" fill="none" xmlns="http://www.w3.org/2000/svg">
<path d="M7.02131 15.4984C8.35036 15.4984 9.42217 14.4266 9.42217 13.0975C9.42217 11.7685 8.35036 10.6967 7.02131 10.6967C5.69227 10.6967 4.62046 11.7685 4.62046 13.0975C4.62046 14.4266 5.69227 15.4984 7.02131 15.4984Z" fill="#8B60F7"/>
<path d="M11.9088 8.21008C11.0728 7.35263 10.5369 6.17363 10.5369 4.88746C10.5369 3.60129 11.0728 2.42229 11.9088 1.58628L10.3225 0C9.07919 1.2433 8.30749 2.97964 8.30749 4.88746C8.30749 6.79528 9.07919 8.53162 10.3439 9.77492H10.3225C11.1799 10.6324 11.6944 11.7899 11.6944 13.0761C11.6944 15.6484 9.59366 17.7492 7.02131 17.7492C4.44897 17.7492 2.32678 15.6913 2.32678 13.0975C2.32678 10.6109 4.27748 8.57449 6.74264 8.42444C6.46397 7.73848 6.24961 7.00964 6.14243 6.23794C2.73407 6.66666 0.0974121 9.56056 0.0974121 13.0975C0.0974121 16.9132 3.18423 20 6.99988 20C10.8155 20 13.9023 16.9132 13.9023 13.0975C13.9238 11.1897 13.1521 9.47481 11.9088 8.21008Z" fill="#8B60F7"/>
</svg>
