<svg width="24" height="24" viewBox="0 0 24 24" fill="none" xmlns="http://www.w3.org/2000/svg">
<path d="M20.125 9.15625H3.875M3.875 12.4063H6.75667C7.19558 12.4063 7.41503 12.4063 7.62723 12.4441C7.81559 12.4777 7.99933 12.5333 8.17467 12.6098C8.37222 12.6961 8.55482 12.8178 8.92001 13.0613L9.39249 13.3762C9.75769 13.6197 9.94028 13.7414 10.1378 13.8277C10.3132 13.9042 10.4969 13.9598 10.6853 13.9934C10.8975 14.0312 11.1169 14.0312 11.5558 14.0312H12.4442C12.8831 14.0312 13.1025 14.0312 13.3147 13.9934C13.5031 13.9598 13.6868 13.9042 13.8622 13.8277C14.0597 13.7414 14.2423 13.6197 14.6075 13.3762L15.08 13.0613C15.4452 12.8178 15.6278 12.6961 15.8253 12.6098C16.0007 12.5333 16.1844 12.4777 16.3728 12.4441C16.585 12.4063 16.8044 12.4063 17.2433 12.4063H20.125M3.875 8.1L3.875 15.9C3.875 16.8101 3.875 17.2651 4.05211 17.6127C4.20791 17.9185 4.4565 18.1671 4.76227 18.3229C5.10987 18.5 5.56491 18.5 6.475 18.5H17.525C18.4351 18.5 18.8901 18.5 19.2377 18.3229C19.5435 18.1671 19.7921 17.9185 19.9479 17.6127C20.125 17.2651 20.125 16.8101 20.125 15.9V8.1C20.125 7.18992 20.125 6.73487 19.9479 6.38727C19.7921 6.0815 19.5435 5.83291 19.2377 5.67712C18.8901 5.5 18.4351 5.5 17.525 5.5L6.475 5.5C5.56492 5.5 5.10987 5.5 4.76227 5.67711C4.4565 5.83291 4.20791 6.0815 4.05211 6.38727C3.875 6.73487 3.875 7.18991 3.875 8.1Z" stroke="black" stroke-width="1.625" stroke-linecap="round" stroke-linejoin="round"/>
</svg>
