<svg width="40" height="40" viewBox="0 0 40 40" fill="none" xmlns="http://www.w3.org/2000/svg">
<path d="M37.5 20C37.5 29.665 29.665 37.5 20 37.5C10.335 37.5 2.5 29.665 2.5 20C2.5 10.335 10.335 2.5 20 2.5C29.665 2.5 37.5 10.335 37.5 20Z" fill="white"/>
<path d="M37.5 20C37.5 29.665 29.665 37.5 20 37.5C10.335 37.5 2.5 29.665 2.5 20C2.5 10.335 10.335 2.5 20 2.5C29.665 2.5 37.5 10.335 37.5 20ZM21.0625 22.5C21.3386 22.5 21.5625 22.2761 21.5625 22V11.75C21.5625 11.4739 21.3386 11.25 21.0625 11.25H18.9375C18.6614 11.25 18.4375 11.4739 18.4375 11.75V22C18.4375 22.2761 18.6614 22.5 18.9375 22.5H21.0625ZM19.9999 28.75C21.2426 28.75 22.2499 27.7427 22.2499 26.5C22.2499 25.2574 21.2426 24.25 19.9999 24.25C18.7573 24.25 17.7499 25.2574 17.7499 26.5C17.7499 27.7427 18.7573 28.75 19.9999 28.75Z" fill="#FF9900"/>
</svg>
