<svg width="64" height="64" viewBox="0 0 64 64" fill="none" xmlns="http://www.w3.org/2000/svg">
<g clip-path="url(#clip0_16202_62551)">
<rect width="64" height="64" fill="#F8F8F8"/>
<path d="M26.375 27.875V33.9877L28.7214 31.5258C29.1314 31.0956 29.8052 31.0585 30.26 31.441L36.4228 36.625H37.625V27.875H26.375ZM26.375 36.625H34.481L29.5452 32.4732L26.375 35.7996V36.625ZM25.125 27.75C25.125 27.1287 25.6287 26.625 26.25 26.625H37.75C38.3713 26.625 38.875 27.1287 38.875 27.75V36.75C38.875 37.3713 38.3713 37.875 37.75 37.875H26.25C25.6287 37.875 25.125 37.3713 25.125 36.75V27.75ZM34.821 28.875C33.8236 28.875 33.015 29.6836 33.015 30.681C33.015 31.6785 33.8236 32.487 34.821 32.487C35.8185 32.487 36.627 31.6785 36.627 30.681C36.627 29.6836 35.8185 28.875 34.821 28.875ZM34.265 30.681C34.265 30.3739 34.5139 30.125 34.821 30.125C35.1281 30.125 35.377 30.3739 35.377 30.681C35.377 30.9881 35.1281 31.237 34.821 31.237C34.5139 31.237 34.265 30.9881 34.265 30.681Z" fill="#D6D6D6"/>
</g>
<rect x="0.675676" y="0.675676" width="62.6486" height="62.6486" rx="7.32432" stroke="#E0E0E0" stroke-width="1.35135"/>
<defs>
<clipPath id="clip0_16202_62551">
<rect width="64" height="64" rx="8" fill="white"/>
</clipPath>
</defs>
</svg>
