<svg width="64" height="64" viewBox="0 0 64 64" fill="none" xmlns="http://www.w3.org/2000/svg">
<rect x="0.666667" y="0.666667" width="62.6667" height="62.6667" rx="7.33333" stroke="#C4C4C4" stroke-width="1.33333" stroke-dasharray="5.33 5.33"/>
<path d="M33.0499 41.075C33.0499 41.2407 32.9156 41.375 32.7499 41.375H31.2499C31.0842 41.375 30.9499 41.2407 30.9499 41.075V33.05H22.925C22.7593 33.05 22.625 32.9157 22.625 32.75V31.25C22.625 31.0843 22.7593 30.95 22.925 30.95H30.9499V22.925C30.9499 22.7593 31.0842 22.625 31.2499 22.625H32.7499C32.9156 22.625 33.0499 22.7593 33.0499 22.925V30.95H41.075C41.2407 30.95 41.375 31.0843 41.375 31.25V32.75C41.375 32.9157 41.2407 33.05 41.075 33.05H33.0499V41.075Z" fill="#101114"/>
</svg>
