<svg width="32" height="32" viewBox="0 0 32 32" fill="none" xmlns="http://www.w3.org/2000/svg">
<path d="M9.5 4C9.5 3.44772 9.94772 3 10.5 3C11.0523 3 11.5 3.44772 11.5 4V5H12.16H19.8398H20.5V4C20.5 3.44772 20.9477 3 21.5 3C22.0523 3 22.5 3.44772 22.5 4V5H24.5C26.7091 5 28.5 6.79086 28.5 9V12V14.66V25C28.5 27.2091 26.7091 29 24.5 29H7.5C5.29086 29 3.5 27.2091 3.5 25V14.66V12V9C3.5 6.79086 5.29086 5 7.5 5H9.5V4ZM9.5 7H7.5H6.84C6.09994 7 5.5 7.59994 5.5 8.34V12H26.5V8.34C26.5 7.59994 25.9001 7 25.16 7H24.5H22.5V9C22.5 9.55228 22.0523 10 21.5 10C20.9477 10 20.5 9.55228 20.5 9V7H19.8398H12.16H11.5V9C11.5 9.55228 11.0523 10 10.5 10C9.94772 10 9.5 9.55228 9.5 9V7ZM5.5 14V25.66C5.5 26.4001 6.09994 27 6.84 27H25.16C25.9001 27 26.5 26.4001 26.5 25.66V14H5.5ZM9.3 17C9.13431 17 9 17.1343 9 17.3V18.7C9 18.8657 9.13431 19 9.3 19H10.7C10.8657 19 11 18.8657 11 18.7V17.3C11 17.1343 10.8657 17 10.7 17H9.3ZM15.3 17C15.1343 17 15 17.1343 15 17.3V18.7C15 18.8657 15.1343 19 15.3 19H16.7C16.8657 19 17 18.8657 17 18.7V17.3C17 17.1343 16.8657 17 16.7 17H15.3ZM21 17.3C21 17.1343 21.1343 17 21.3 17H22.7C22.8657 17 23 17.1343 23 17.3V18.7C23 18.8657 22.8657 19 22.7 19H21.3C21.1343 19 21 18.8657 21 18.7V17.3ZM9.3 22C9.13431 22 9 22.1343 9 22.3V23.7C9 23.8657 9.13431 24 9.3 24H10.7C10.8657 24 11 23.8657 11 23.7V22.3C11 22.1343 10.8657 22 10.7 22H9.3ZM15 22.3C15 22.1343 15.1343 22 15.3 22H16.7C16.8657 22 17 22.1343 17 22.3V23.7C17 23.8657 16.8657 24 16.7 24H15.3C15.1343 24 15 23.8657 15 23.7V22.3ZM21.3 22C21.1343 22 21 22.1343 21 22.3V23.7C21 23.8657 21.1343 24 21.3 24H22.7C22.8657 24 23 23.8657 23 23.7V22.3C23 22.1343 22.8657 22 22.7 22H21.3Z" fill="#1A1A1A"/>
</svg>
