<svg width="20" height="20" viewBox="0 0 20 20" fill="none" xmlns="http://www.w3.org/2000/svg">
<path d="M2.96875 4.53125V12.1722L5.90175 9.09474C6.41422 8.55704 7.2565 8.51063 7.82494 8.98878L15.5286 15.4688H17.0312V4.53125H2.96875ZM2.96875 15.4688H13.1012L6.93152 10.279L2.96875 14.4369V15.4688ZM1.40625 4.375C1.40625 3.59835 2.03585 2.96875 2.8125 2.96875H17.1875C17.9641 2.96875 18.5938 3.59835 18.5938 4.375V15.625C18.5938 16.4016 17.9642 17.0312 17.1875 17.0312H2.8125C2.03585 17.0312 1.40625 16.4017 1.40625 15.625V4.375ZM13.5263 5.78125C12.2795 5.78125 11.2688 6.79194 11.2688 8.03875C11.2688 9.28557 12.2795 10.2963 13.5263 10.2963C14.7731 10.2963 15.7838 9.28557 15.7838 8.03875C15.7838 6.79194 14.7731 5.78125 13.5263 5.78125ZM12.8313 8.03875C12.8313 7.6549 13.1424 7.34375 13.5263 7.34375C13.9102 7.34375 14.2213 7.6549 14.2213 8.03875C14.2213 8.42261 13.9102 8.73375 13.5263 8.73375C13.1424 8.73375 12.8313 8.42261 12.8313 8.03875Z"/>
</svg>
