<svg xmlns="http://www.w3.org/2000/svg" width="14" height="14" viewBox="0 0 14 14" fill="none">
  <mask id="path-1-outside-1_1_1100" maskUnits="userSpaceOnUse" x="0" y="0" width="14" height="14" fill="black">
    <rect fill="white" width="14" height="14"/>
    <path fill-rule="evenodd" clip-rule="evenodd" d="M13 1H11V2H9V3H7V4H5V5H3V6H1V8H2V9H3V10H4V11V13H6V12H7V11H8V12H9V13H11V9H12V5H13V1Z"/>
  </mask>
  <path fill-rule="evenodd" clip-rule="evenodd" d="M13 1H11V2H9V3H7V4H5V5H3V6H1V8H2V9H3V10H4V11V13H6V12H7V11H8V12H9V13H11V9H12V5H13V1Z" fill="white"/>
  <path d="M11 1V0H10V1H11ZM13 1H14V0H13V1ZM11 2V3H12V2H11ZM9 2V1H8V2H9ZM9 3V4H10V3H9ZM7 3V2H6V3H7ZM7 4V5H8V4H7ZM5 4V3H4V4H5ZM5 5V6H6V5H5ZM3 5V4H2V5H3ZM3 6V7H4V6H3ZM1 6V5H0V6H1ZM1 8H0V9H1V8ZM2 8H3V7H2V8ZM2 9H1V10H2V9ZM3 9H4V8H3V9ZM3 10H2V11H3V10ZM4 10H5V9H4V10ZM4 13H3V14H4V13ZM6 13V14H7V13H6ZM6 12V11H5V12H6ZM7 12V13H8V12H7ZM7 11V10H6V11H7ZM8 11H9V10H8V11ZM8 12H7V13H8V12ZM9 12H10V11H9V12ZM9 13H8V14H9V13ZM11 13V14H12V13H11ZM11 9V8H10V9H11ZM12 9V10H13V9H12ZM12 5V4H11V5H12ZM13 5V6H14V5H13ZM11 2H13V0H11V2ZM12 2V1H10V2H12ZM9 3H11V1H9V3ZM10 3V2H8V3H10ZM7 4H9V2H7V4ZM8 4V3H6V4H8ZM5 5H7V3H5V5ZM6 5V4H4V5H6ZM3 6H5V4H3V6ZM4 6V5H2V6H4ZM1 7H3V5H1V7ZM2 8V6H0V8H2ZM2 7H1V9H2V7ZM3 9V8H1V9H3ZM3 8H2V10H3V8ZM4 10V9H2V10H4ZM4 9H3V11H4V9ZM5 11V10H3V11H5ZM5 13V11H3V13H5ZM6 12H4V14H6V12ZM5 12V13H7V12H5ZM7 11H6V13H7V11ZM6 11V12H8V11H6ZM8 10H7V12H8V10ZM9 12V11H7V12H9ZM9 11H8V13H9V11ZM10 13V12H8V13H10ZM11 12H9V14H11V12ZM10 9V13H12V9H10ZM12 8H11V10H12V8ZM11 5V9H13V5H11ZM13 4H12V6H13V4ZM12 1V5H14V1H12Z" fill="#6B4700" mask="url(#path-1-outside-1_1_1100)"/>
</svg>