<svg width="14" height="14" viewBox="0 0 14 14" fill="none" xmlns="http://www.w3.org/2000/svg">
<mask id="path-1-outside-1_1_1082" maskUnits="userSpaceOnUse" x="0.5" y="0" width="13" height="14" fill="black">
<rect fill="white" x="0.5" width="13" height="14"/>
<path fill-rule="evenodd" clip-rule="evenodd" d="M6 1H8V2H9V3H10V4H11V6H9.5V7H10.5V8H11.5V9H12.5V11H8V13H6V11H1.5V9H2.5V8H3.5V7H4.5V6H3V4H4V3H5V2H6V1Z"/>
</mask>
<path fill-rule="evenodd" clip-rule="evenodd" d="M6 1H8V2H9V3H10V4H11V6H9.5V7H10.5V8H11.5V9H12.5V11H8V13H6V11H1.5V9H2.5V8H3.5V7H4.5V6H3V4H4V3H5V2H6V1Z" fill="white"/>
<path d="M8 1H9V0H8V1ZM6 1V0H5V1H6ZM8 2H7V3H8V2ZM9 2H10V1H9V2ZM9 3H8V4H9V3ZM10 3H11V2H10V3ZM10 4H9V5H10V4ZM11 4H12V3H11V4ZM11 6V7H12V6H11ZM9.5 6V5H8.5V6H9.5ZM9.5 7H8.5V8H9.5V7ZM10.5 7H11.5V6H10.5V7ZM10.5 8H9.5V9H10.5V8ZM11.5 8H12.5V7H11.5V8ZM11.5 9H10.5V10H11.5V9ZM12.5 9H13.5V8H12.5V9ZM12.5 11V12H13.5V11H12.5ZM8 11V10H7V11H8ZM8 13V14H9V13H8ZM6 13H5V14H6V13ZM6 11H7V10H6V11ZM1.5 11H0.5V12H1.5V11ZM1.5 9V8H0.5V9H1.5ZM2.5 9V10H3.5V9H2.5ZM2.5 8V7H1.5V8H2.5ZM3.5 8V9H4.5V8H3.5ZM3.5 7V6H2.5V7H3.5ZM4.5 7V8H5.5V7H4.5ZM4.5 6H5.5V5H4.5V6ZM3 6H2V7H3V6ZM3 4V3H2V4H3ZM4 4V5H5V4H4ZM4 3V2H3V3H4ZM5 3V4H6V3H5ZM5 2V1H4V2H5ZM6 2V3H7V2H6ZM8 0H6V2H8V0ZM9 2V1H7V2H9ZM9 1H8V3H9V1ZM10 3V2H8V3H10ZM10 2H9V4H10V2ZM11 4V3H9V4H11ZM11 3H10V5H11V3ZM12 6V4H10V6H12ZM9.5 7H11V5H9.5V7ZM8.5 6V7H10.5V6H8.5ZM9.5 8H10.5V6H9.5V8ZM9.5 7V8H11.5V7H9.5ZM10.5 9H11.5V7H10.5V9ZM10.5 8V9H12.5V8H10.5ZM11.5 10H12.5V8H11.5V10ZM11.5 9V11H13.5V9H11.5ZM12.5 10H8V12H12.5V10ZM7 11V13H9V11H7ZM8 12H6V14H8V12ZM7 13V11H5V13H7ZM6 10H1.5V12H6V10ZM2.5 11V9H0.5V11H2.5ZM1.5 10H2.5V8H1.5V10ZM3.5 9V8H1.5V9H3.5ZM2.5 9H3.5V7H2.5V9ZM4.5 8V7H2.5V8H4.5ZM3.5 8H4.5V6H3.5V8ZM5.5 7V6H3.5V7H5.5ZM3 7H4.5V5H3V7ZM2 4V6H4V4H2ZM4 3H3V5H4V3ZM3 3V4H5V3H3ZM5 2H4V4H5V2ZM4 2V3H6V2H4ZM6 1H5V3H6V1ZM5 1V2H7V1H5Z" fill="#6B4700" mask="url(#path-1-outside-1_1_1082)"/>
</svg>
