<svg xmlns="http://www.w3.org/2000/svg" width="14" height="14" viewBox="0 0 14 14" fill="none">
  <mask id="path-1-outside-1_1_1091" maskUnits="userSpaceOnUse" x="0.25" y="0" width="14" height="14" fill="black">
    <rect fill="white" x="0.25" width="14" height="14"/>
    <path fill-rule="evenodd" clip-rule="evenodd" d="M1.25 1H3.25H5.25V3H6.75V5H8.25H8.75V7H9.75V9H11.25V11H12.75V13H10.75H8.75V11H7.25V9H5.75H5.25V7H4.25V5H2.75V3H1.25V1ZM3.25 11V9H5.25V11H3.25ZM3.25 11V13H1.25V11H3.25ZM10.75 3V5H8.75V3H10.75ZM10.75 3V1H12.75V3H10.75Z"/>
  </mask>
  <path fill-rule="evenodd" clip-rule="evenodd" d="M1.25 1H3.25H5.25V3H6.75V5H8.25H8.75V7H9.75V9H11.25V11H12.75V13H10.75H8.75V11H7.25V9H5.75H5.25V7H4.25V5H2.75V3H1.25V1ZM3.25 11V9H5.25V11H3.25ZM3.25 11V13H1.25V11H3.25ZM10.75 3V5H8.75V3H10.75ZM10.75 3V1H12.75V3H10.75Z" fill="white"/>
  <path d="M1.25 1V0H0.25V1H1.25ZM5.25 1H6.25V0H5.25V1ZM5.25 3H4.25V4H5.25V3ZM6.75 3H7.75V2H6.75V3ZM6.75 5H5.75V6H6.75V5ZM8.75 7H7.75V8H8.75V7ZM9.75 7H10.75V6H9.75V7ZM9.75 9H8.75V10H9.75V9ZM11.25 9H12.25V8H11.25V9ZM11.25 11H10.25V12H11.25V11ZM12.75 11H13.75V10H12.75V11ZM12.75 13V14H13.75V13H12.75ZM8.75 13H7.75V14H8.75V13ZM8.75 11H9.75V10H8.75V11ZM7.25 11H6.25V12H7.25V11ZM7.25 9H8.25V8H7.25V9ZM5.25 7H6.25V6H5.25V7ZM4.25 7H3.25V8H4.25V7ZM4.25 5H5.25V4H4.25V5ZM2.75 5H1.75V6H2.75V5ZM2.75 3H3.75V2H2.75V3ZM1.25 3H0.25V4H1.25V3ZM3.25 9V8H2.25V9H3.25ZM5.25 11V12H6.25V11H5.25ZM3.25 13V14H4.25V13H3.25ZM1.25 13H0.25V14H1.25V13ZM1.25 11V10H0.25V11H1.25ZM10.75 5V6H11.75V5H10.75ZM8.75 3V2H7.75V3H8.75ZM10.75 1V0H9.75V1H10.75ZM12.75 1H13.75V0H12.75V1ZM12.75 3V4H13.75V3H12.75ZM3.25 0H1.25V2H3.25V0ZM5.25 0H3.25V2H5.25V0ZM6.25 3V1H4.25V3H6.25ZM6.75 2H5.25V4H6.75V2ZM7.75 5V3H5.75V5H7.75ZM8.25 4H6.75V6H8.25V4ZM8.75 4H8.25V6H8.75V4ZM9.75 7V5H7.75V7H9.75ZM9.75 6H8.75V8H9.75V6ZM10.75 9V7H8.75V9H10.75ZM11.25 8H9.75V10H11.25V8ZM12.25 11V9H10.25V11H12.25ZM12.75 10H11.25V12H12.75V10ZM13.75 13V11H11.75V13H13.75ZM10.75 14H12.75V12H10.75V14ZM8.75 14H10.75V12H8.75V14ZM7.75 11V13H9.75V11H7.75ZM7.25 12H8.75V10H7.25V12ZM6.25 9V11H8.25V9H6.25ZM5.75 10H7.25V8H5.75V10ZM5.25 10H5.75V8H5.25V10ZM4.25 7V9H6.25V7H4.25ZM4.25 8H5.25V6H4.25V8ZM3.25 5V7H5.25V5H3.25ZM2.75 6H4.25V4H2.75V6ZM1.75 3V5H3.75V3H1.75ZM1.25 4H2.75V2H1.25V4ZM0.25 1V3H2.25V1H0.25ZM2.25 9V11H4.25V9H2.25ZM5.25 8H3.25V10H5.25V8ZM6.25 11V9H4.25V11H6.25ZM3.25 12H5.25V10H3.25V12ZM4.25 13V11H2.25V13H4.25ZM1.25 14H3.25V12H1.25V14ZM0.25 11V13H2.25V11H0.25ZM3.25 10H1.25V12H3.25V10ZM11.75 5V3H9.75V5H11.75ZM8.75 6H10.75V4H8.75V6ZM7.75 3V5H9.75V3H7.75ZM10.75 2H8.75V4H10.75V2ZM9.75 1V3H11.75V1H9.75ZM12.75 0H10.75V2H12.75V0ZM13.75 3V1H11.75V3H13.75ZM10.75 4H12.75V2H10.75V4Z" fill="#6B4700" mask="url(#path-1-outside-1_1_1091)"/>
</svg>