<svg width="24" height="24" viewBox="0 0 24 24" fill="none" xmlns="http://www.w3.org/2000/svg">
<path d="M13.0499 21.075C13.0499 21.2407 12.9156 21.375 12.7499 21.375H11.2499C11.0842 21.375 10.9499 21.2407 10.9499 21.075V13.05H2.925C2.75931 13.05 2.625 12.9157 2.625 12.75V11.25C2.625 11.0843 2.75931 10.95 2.925 10.95H10.9499V2.925C10.9499 2.75931 11.0842 2.625 11.2499 2.625H12.7499C12.9156 2.625 13.0499 2.75931 13.0499 2.925V10.95H21.075C21.2407 10.95 21.375 11.0843 21.375 11.25V12.75C21.375 12.9157 21.2407 13.05 21.075 13.05H13.0499V21.075Z" />
</svg>
