<svg width="104" height="104" viewBox="0 0 104 104" fill="none" xmlns="http://www.w3.org/2000/svg">
<circle cx="52" cy="52" r="52" fill="#F2F6F7"/>
<path d="M67.7106 30.1627L48.2031 35.9988C45.8303 36.6671 43.9366 39.0728 43.9366 41.3671V61.4371C43.9366 61.4371 42.522 60.5015 39.3734 60.947C34.7418 61.593 31 65.0457 31 68.6765C31 72.3074 34.7418 74.5349 39.3734 73.8889C44.005 73.2429 47.3817 69.9016 47.3817 66.2708V46.8914C47.3817 45.2876 49.3667 44.597 49.3667 44.597L66.6155 39.3178C66.6155 39.3178 68.532 38.6941 68.532 40.4093V56.4029C68.532 56.4029 66.7752 55.4228 63.6266 55.7792C58.995 56.3361 55.2532 59.7219 55.2532 63.3527C55.2532 66.9836 58.995 69.2779 63.6266 68.7433C68.2582 68.1865 72 64.8006 72 61.1698V33.1253C71.9772 30.8532 70.0607 29.5167 67.7106 30.1627Z" fill="#ADC5C5"/>
</svg>
