<svg width="22" height="20" viewBox="0 0 22 20" fill="none" xmlns="http://www.w3.org/2000/svg">
<path d="M0.0703393 9.99998C0.0646025 10.1266 0.10673 10.2551 0.197521 10.3564L8.18588 19.2676C8.37735 19.4812 8.7089 19.4902 8.91173 19.2874L10.1835 18.0156C10.3712 17.8278 10.3795 17.526 10.2022 17.3283L4.84892 11.3566L21.4307 11.3566C21.7068 11.3566 21.9307 11.1328 21.9307 10.8566L21.9307 9.05663C21.9307 8.78048 21.7068 8.55663 21.4307 8.55663L4.92666 8.55663L10.2022 2.67166C10.3795 2.47393 10.3712 2.17212 10.1835 1.98435L8.91174 0.712612C8.7089 0.509775 8.37735 0.51882 8.18588 0.732415L0.197521 9.64355C0.106731 9.74483 0.0646039 9.87341 0.0703393 9.99998Z"/>
</svg>
