<svg width="16" height="16" viewBox="0 0 16 16" fill="none" xmlns="http://www.w3.org/2000/svg">
<path fill-rule="evenodd" clip-rule="evenodd" d="M7.81523 2.20044C7.93271 2.15983 8.06043 2.15983 8.17791 2.20044L14.8446 4.50521C15.0675 4.58227 15.2173 4.79179 15.2182 5.02763C15.2191 5.26347 15.0709 5.47413 14.8486 5.55289L8.18191 7.91479C8.062 7.95727 7.93114 7.95727 7.81123 7.91479L1.14456 5.55289C0.922257 5.47413 0.774006 5.26347 0.774906 5.02763C0.775807 4.79179 0.925661 4.58227 1.14856 4.50521L7.81523 2.20044ZM3.00995 5.03616L7.99657 6.80285L12.9832 5.03616L7.99657 3.31221L3.00995 5.03616Z"/>
<path fill-rule="evenodd" clip-rule="evenodd" d="M0.806212 7.81846C0.907471 7.52915 1.22409 7.37671 1.5134 7.47797L7.99672 9.74713L14.48 7.47797C14.7694 7.37671 15.086 7.52915 15.1872 7.81846C15.2885 8.10777 15.136 8.42439 14.8467 8.52565L8.18007 10.859C8.06137 10.9005 7.93208 10.9005 7.81338 10.859L1.14671 8.52565C0.857399 8.42439 0.704954 8.10777 0.806212 7.81846Z" />
<path fill-rule="evenodd" clip-rule="evenodd" d="M0.806212 10.7619C0.907471 10.4726 1.22409 10.3202 1.5134 10.4214L7.99672 12.6906L14.48 10.4214C14.7694 10.3202 15.086 10.4726 15.1872 10.7619C15.2885 11.0513 15.136 11.3679 14.8467 11.4691L8.18007 13.8025C8.06137 13.844 7.93208 13.844 7.81338 13.8025L1.14671 11.4691C0.857399 11.3679 0.704954 11.0513 0.806212 10.7619Z"/>
</svg>
