<svg width="32" height="33" viewBox="0 0 32 33" fill="none" xmlns="http://www.w3.org/2000/svg">
<path d="M10.7656 9.95896V7.1875C10.7656 6.25552 11.4372 5.5 12.2656 5.5H25.2656C26.0941 5.5 26.7656 6.25552 26.7656 7.1875V21.8125C26.7656 22.7445 26.0941 23.5 25.2656 23.5H22.7743" stroke="#1A1A1A" stroke-width="2.66667" stroke-linecap="round" stroke-linejoin="round"/>
<path d="M20.5 10.2668H7.5C6.67157 10.2668 6 11.0224 6 11.9543V26.5793C6 27.5113 6.67157 28.2668 7.5 28.2668H20.5C21.3284 28.2668 22 27.5113 22 26.5793V11.9543C22 11.0224 21.3284 10.2668 20.5 10.2668Z" stroke="#1A1A1A" stroke-width="2.66667" stroke-linejoin="round"/>
<rect x="6" y="10.2668" width="16" height="18" rx="2.66667" stroke="#1A1A1A" stroke-width="2.66667" stroke-linecap="round" stroke-linejoin="round"/>
<path d="M10.7656 9.95441V8.16667C10.7656 6.69391 11.9595 5.5 13.4323 5.5H24.099C25.5717 5.5 26.7656 6.69391 26.7656 8.16667V20.8333C26.7656 22.3061 25.5717 23.5 24.099 23.5H22.1146" stroke="#1A1A1A" stroke-width="2.66667" stroke-linecap="round" stroke-linejoin="round"/>
</svg>
