<svg width="64" height="65" viewBox="0 0 64 65" fill="none" xmlns="http://www.w3.org/2000/svg">
<path fill-rule="evenodd" clip-rule="evenodd" d="M52.8699 13.7305C59.6462 23.3193 62.9927 34.1352 61.7417 46.5867C61.7364 46.6394 61.7079 46.6878 61.6629 46.7195C56.5314 50.346 51.5597 52.5468 46.6577 54.0064C46.5794 54.0292 46.4947 54.0017 46.447 53.9378C45.3145 52.4212 44.2855 50.8224 43.384 49.1434C43.3322 49.0445 43.3795 48.9254 43.486 48.8865C45.1202 48.2938 46.6742 47.5836 48.169 46.7426C48.2867 46.6762 48.2942 46.5138 48.1855 46.4358C47.8682 46.2092 47.554 45.971 47.2532 45.7328C47.197 45.6888 47.1212 45.6801 47.0575 45.7097C37.3532 50.0226 26.7227 50.0226 16.9038 45.7097C16.84 45.6823 16.7643 45.6916 16.7095 45.735C16.4095 45.9732 16.0945 46.2092 15.7803 46.4358C15.6715 46.5138 15.6805 46.6762 15.799 46.7426C17.2938 47.5677 18.8477 48.2938 20.4797 48.8893C20.5855 48.9283 20.6357 49.0445 20.5832 49.1434C19.7012 50.8246 18.6722 52.4234 17.5188 53.94C17.4685 54.0013 17.386 54.0295 17.308 54.0064C12.4293 52.5468 7.45752 50.346 2.32603 46.7195C2.28328 46.6878 2.25253 46.6372 2.24803 46.5845C1.20253 35.8141 3.33327 24.9088 11.1115 13.7284C11.1303 13.6988 11.1588 13.6757 11.1918 13.662C15.019 11.9714 19.1192 10.7277 23.4047 10.0175C23.4827 10.0059 23.5607 10.0406 23.6012 10.107C24.1307 11.0092 24.736 12.1663 25.1455 13.1119C29.6627 12.4479 34.2505 12.4479 38.8622 13.1119C39.2717 12.1866 39.856 11.0092 40.3832 10.107C40.4217 10.0394 40.501 10.0033 40.5797 10.0175C44.8675 10.7299 48.9677 11.9736 52.7919 13.662C52.8257 13.6757 52.8534 13.6988 52.8699 13.7305ZM27.4424 34.209C27.4897 31.0251 25.0777 28.3904 22.0499 28.3904C19.0469 28.3904 16.6582 31.002 16.6582 34.209C16.6582 37.4154 19.0942 40.027 22.0499 40.027C25.0537 40.027 27.4424 37.4154 27.4424 34.209ZM47.378 34.209C47.4252 31.0251 45.0132 28.3904 41.9862 28.3904C38.9825 28.3904 36.5938 31.002 36.5938 34.209C36.5938 37.4154 39.0297 40.027 41.9862 40.027C45.0132 40.027 47.378 37.4154 47.378 34.209Z" fill="#808080"/>
</svg>
