<svg width="20" height="20" viewBox="0 0 20 20" fill="none" xmlns="http://www.w3.org/2000/svg">
<path d="M10.7813 2.43945C10.7813 2.30138 10.6694 2.18945 10.5313 2.18945H9.46881C9.33074 2.18945 9.21881 2.30138 9.21881 2.43945L9.21881 11.7563L6.86289 9.4004C6.76525 9.30277 6.60696 9.30277 6.50933 9.4004L5.75803 10.1517C5.6604 10.2493 5.6604 10.4076 5.75803 10.5053L9.55824 14.3061C9.718 14.4658 9.94274 14.521 10.1474 14.4716C10.2556 14.4456 10.3582 14.3904 10.4426 14.306L14.2428 10.5054C14.3405 10.4077 14.3405 10.2494 14.2428 10.1518L13.4915 9.40052C13.3939 9.30289 13.2356 9.30289 13.138 9.40052L10.7813 11.7572L10.7813 2.43945ZM2.90625 17.7208C2.56107 17.7208 2.28125 17.4409 2.28125 17.0958V14.0645C2.28125 13.9264 2.39318 13.8145 2.53125 13.8145H3.59375C3.73182 13.8145 3.84375 13.9264 3.84375 14.0645V16.1583H16.1562V14.0645C16.1562 13.9264 16.2682 13.8145 16.4062 13.8145H17.4688C17.6068 13.8145 17.7188 13.9264 17.7188 14.0645V17.0958C17.7188 17.4409 17.4389 17.7208 17.0938 17.7208H2.90625Z"/>
</svg>
