<svg width="24" height="24" viewBox="0 0 24 24" fill="none" xmlns="http://www.w3.org/2000/svg">
<path d="M4.33907 15.8508L4.57533 13.6285L12.0235 6.92213L14.022 9.14183L6.5739 15.8481L4.33907 15.8508ZM15.4154 7.88721L13.4169 5.66751L14.9099 4.32319L16.9085 6.54283L15.4154 7.88721ZM2.34218 16.898C2.29503 17.3414 2.64292 17.7278 3.08887 17.7273L7.00722 17.7226C7.19225 17.7224 7.37067 17.6538 7.50817 17.53L18.9991 7.18345C19.307 6.90629 19.3318 6.43207 19.0546 6.12425L15.5505 2.23253C15.2734 1.92471 14.7991 1.89986 14.4913 2.17702L3.00036 12.5235C2.86286 12.6473 2.77597 12.8176 2.75641 13.0016L2.34218 16.898ZM21.375 19.8C21.375 19.6343 21.2407 19.5 21.075 19.5H2.925C2.75932 19.5 2.625 19.6343 2.625 19.8V21.075C2.625 21.2407 2.75931 21.375 2.925 21.375H21.075C21.2407 21.375 21.375 21.2407 21.375 21.075V19.8Z" />
</svg>
