<svg viewBox="0 0 48 48" fill="none" xmlns="http://www.w3.org/2000/svg">
<path fill-rule="evenodd" clip-rule="evenodd" d="M18 14C15.2386 14 13 16.2386 13 19V28.2982C13 31.0597 15.2386 33.2982 18 33.2982H30C32.7614 33.2982 35 31.0597 35 28.2982V19C35 16.2386 32.7614 14 30 14H18ZM16.6 18.2C16.1582 17.8686 15.5314 17.9582 15.2 18.4C14.8686 18.8418 14.9582 19.4686 15.4 19.8L22.2 24.9C23.2667 25.7 24.7333 25.7 25.8 24.9L32.6 19.8C33.0418 19.4686 33.1314 18.8418 32.8 18.4C32.4686 17.9582 31.8418 17.8686 31.4 18.2L24.6 23.3C24.2444 23.5667 23.7556 23.5667 23.4 23.3L16.6 18.2Z" fill="#CECFD1"/>
</svg>
