<svg width="24" height="24" viewBox="0 0 24 24" fill="none" xmlns="http://www.w3.org/2000/svg">
<g clip-path="url(#clip0_17233_20625)">
<path d="M22.5 12C22.5 6.20101 17.799 1.5 12 1.5C6.20102 1.5 1.5 6.20101 1.5 12C1.5 16.9243 4.89003 21.0561 9.46345 22.1908V15.2086H7.29827V12H9.46345V10.6174C9.46345 7.04353 11.0808 5.38705 14.5895 5.38705C15.2547 5.38705 16.4025 5.51746 16.872 5.64792V8.55658C16.6242 8.5305 16.1938 8.51744 15.659 8.51744C13.9373 8.51744 13.2721 9.16962 13.2721 10.8652V12H16.7017L16.1126 15.2086H13.2721V22.4231C18.4711 21.7952 22.5 17.3684 22.5 12Z" fill="#8C8C8C"/>
<path d="M16.1112 15.2086L16.7004 12H13.2707V10.8652C13.2707 9.16958 13.9359 8.51744 15.6576 8.51744C16.1924 8.51744 16.6228 8.53046 16.8706 8.55655V5.64792C16.4011 5.51747 15.2533 5.38701 14.5881 5.38701C11.0794 5.38701 9.46206 7.04354 9.46206 10.6174V12H7.29688V15.2086H9.46206V22.1908C10.2745 22.3923 11.1239 22.5 11.9986 22.5C12.4293 22.5 12.8536 22.4735 13.2707 22.4231V15.2086H16.1112Z" fill="white"/>
</g>
<defs>
<clipPath id="clip0_17233_20625">
<rect width="21" height="21" fill="white" transform="matrix(1 0 0 -1 1.5 22.5)"/>
</clipPath>
</defs>
</svg>
