<svg width="33" height="33" viewBox="0 0 33 33" fill="none" xmlns="http://www.w3.org/2000/svg">
<path d="M32.5 16.5C32.5 7.66345 25.3365 0.499994 16.5 0.499994C7.66346 0.499994 0.5 7.66345 0.5 16.5C0.5 24.0037 5.66576 30.2998 12.6348 32.0288V21.3893H9.33546V16.5H12.6348V14.3932C12.6348 8.94729 15.0993 6.42313 20.4459 6.42313C21.4595 6.42313 23.2085 6.62185 23.9241 6.82063V11.2529C23.5464 11.2131 22.8905 11.1932 22.0756 11.1932C19.4521 11.1932 18.4384 12.187 18.4384 14.7708V16.5H23.6645L22.7668 21.3893H18.4384V32.3828C26.3607 31.4259 32.5 24.6803 32.5 16.5Z" fill="#0866FF"/>
</svg>
