<svg width="20" height="20" viewBox="0 0 20 20" fill="none" xmlns="http://www.w3.org/2000/svg">
<path fill-rule="evenodd" clip-rule="evenodd" d="M9.99984 16.6665C13.6817 16.6665 16.6665 13.6817 16.6665 9.99984C16.6665 6.31794 13.6817 3.33317 9.99984 3.33317C6.31794 3.33317 3.33317 6.31794 3.33317 9.99984C3.33317 13.6817 6.31794 16.6665 9.99984 16.6665ZM9.99984 18.3332C14.6022 18.3332 18.3332 14.6022 18.3332 9.99984C18.3332 5.39746 14.6022 1.6665 9.99984 1.6665C5.39746 1.6665 1.6665 5.39746 1.6665 9.99984C1.6665 14.6022 5.39746 18.3332 9.99984 18.3332ZM10.8333 14.1664C10.8333 14.6267 10.4602 14.9998 9.99995 14.9998C9.53971 14.9998 9.16662 14.6267 9.16662 14.1664C9.16662 13.7062 9.53971 13.3331 9.99995 13.3331C10.4602 13.3331 10.8333 13.7062 10.8333 14.1664ZM13.2197 9.19582C13.4096 8.48705 13.3604 7.73541 13.0795 7.05748C12.7987 6.37956 12.3021 5.81323 11.6666 5.44634C11.0311 5.07945 10.2924 4.9325 9.56486 5.02828C8.83736 5.12406 8.16179 5.45721 7.64293 5.97607C7.12406 6.49493 6.79091 7.1705 6.69513 7.89801C6.63506 8.35431 6.95626 8.77291 7.41256 8.83298C7.86886 8.89306 8.28747 8.57185 8.34754 8.11555C8.39543 7.7518 8.56201 7.41401 8.82144 7.15458C9.08087 6.89515 9.41865 6.72857 9.7824 6.68069C10.1462 6.6328 10.5155 6.70627 10.8333 6.88972C11.151 7.07316 11.3993 7.35633 11.5397 7.69529C11.6802 8.03425 11.7048 8.41007 11.6098 8.76446C11.5149 9.11885 11.3056 9.432 11.0146 9.65535C10.9261 9.72326 10.8328 9.7791 10.7089 9.84773L10.6478 9.88128L10.6477 9.8813C10.5394 9.94054 10.3961 10.0189 10.2606 10.1083C9.88229 10.3578 9.53751 10.7034 9.24852 11.3061C9.04954 11.7211 9.22467 12.2189 9.63967 12.4178C10.0547 12.6168 10.5524 12.4417 10.7514 12.0267C10.9061 11.7041 11.045 11.5874 11.1782 11.4996C11.2513 11.4514 11.3218 11.4127 11.4254 11.3558L11.4254 11.3558L11.5163 11.3058C11.6603 11.226 11.8405 11.1224 12.0292 10.9776C12.6113 10.5309 13.0298 9.9046 13.2197 9.19582Z" fill="#808080"/>
</svg>
