<svg viewBox="0 0 48 48" fill="none" xmlns="http://www.w3.org/2000/svg">
<path d="M23.9964 20.332C21.9765 20.332 20.3281 21.9804 20.3281 24.0003C20.3281 26.0201 21.9765 27.6685 23.9964 27.6685C26.0162 27.6685 27.6646 26.0201 27.6646 24.0003C27.6646 21.9804 26.0162 20.332 23.9964 20.332Z" fill="#CECFD1"/>
<path d="M34.9992 24C34.9992 22.481 35.013 20.9757 34.9276 19.4594C34.8423 17.6982 34.4406 16.1352 33.1527 14.8473C31.8621 13.5567 30.3018 13.1577 28.5406 13.0724C27.0215 12.9871 25.5163 13.0008 24 13.0008C22.481 13.0008 20.9757 12.9871 19.4594 13.0724C17.6982 13.1577 16.1352 13.5594 14.8473 14.8473C13.5567 16.1379 13.1577 17.6982 13.0724 19.4594C12.9871 20.9785 13.0008 22.4837 13.0008 24C13.0008 25.5163 12.9871 27.0243 13.0724 28.5406C13.1577 30.3018 13.5594 31.8648 14.8473 33.1527C16.1379 34.4433 17.6982 34.8423 19.4594 34.9276C20.9785 35.0129 22.4837 34.9992 24 34.9992C25.519 34.9992 27.0243 35.0129 28.5406 34.9276C30.3018 34.8423 31.8648 34.4406 33.1527 33.1527C34.4433 31.8621 34.8423 30.3018 34.9276 28.5406C35.0157 27.0243 34.9992 25.519 34.9992 24ZM23.9973 29.6441C20.8739 29.6441 18.3532 27.1234 18.3532 24C18.3532 20.8766 20.8739 18.3559 23.9973 18.3559C27.1206 18.3559 29.6413 20.8766 29.6413 24C29.6413 27.1234 27.1206 29.6441 23.9973 29.6441ZM29.8725 19.4429C29.1432 19.4429 28.5543 18.854 28.5543 18.1248C28.5543 17.3955 29.1432 16.8066 29.8725 16.8066C30.6017 16.8066 31.1906 17.3955 31.1906 18.1248C31.1879 18.8568 30.6017 19.4429 29.8725 19.4429Z" fill="#CECFD1"/>
</svg>
