<svg width="24" height="24" viewBox="0 0 24 24" fill="none" xmlns="http://www.w3.org/2000/svg">
<path d="M11.9375 1.4375C6.13856 1.4375 1.4375 6.13856 1.4375 11.9375C1.4375 17.7364 6.13856 22.4375 11.9375 22.4375C17.7364 22.4375 22.4375 17.7364 22.4375 11.9375C22.4375 6.13856 17.7364 1.4375 11.9375 1.4375ZM11.8214 3.48858C11.86 3.48806 11.8987 3.4878 11.9375 3.4878C11.9763 3.4878 12.0151 3.48806 12.0537 3.48858C12.2123 3.52188 12.4265 3.62989 12.6909 3.90944C13.0286 4.26661 13.3784 4.83647 13.6928 5.62259C14.2361 6.98091 14.6164 8.83941 14.7079 10.9493H9.16718C9.25874 8.83941 9.63897 6.98091 10.1823 5.62259C10.4967 4.83647 10.8465 4.26661 11.1842 3.90944C11.4486 3.62989 11.6628 3.52188 11.8214 3.48858ZM15.1903 4.13146C17.9681 5.28111 20.0049 7.8589 20.3852 10.9493H16.686C16.5935 8.63031 16.1779 6.51369 15.5278 4.88857C15.423 4.62656 15.3106 4.37339 15.1903 4.13146ZM20.3995 12.9257C20.056 16.1009 17.9663 18.7524 15.1104 19.9004C15.2611 19.6118 15.4002 19.3057 15.5278 18.9864C16.1779 17.3613 16.5935 15.2447 16.686 12.9257H20.3995ZM8.76472 19.9005C5.90877 18.7525 3.81902 16.1009 3.47546 12.9257H7.18909C7.28159 15.2447 7.69721 17.3613 8.34725 18.9864C8.47495 19.3057 8.61401 19.6118 8.76472 19.9005ZM3.48983 10.9493C3.87015 7.85885 5.907 5.28103 8.68481 4.1314C8.56454 4.37336 8.45206 4.62655 8.34725 4.88857C7.69721 6.51369 7.28159 8.63031 7.18909 10.9493H3.48983ZM10.1823 18.2524C9.63897 16.8941 9.25874 15.0356 9.16718 12.9257H14.7079C14.6164 15.0356 14.2361 16.8941 13.6928 18.2524C13.3784 19.0385 13.0286 19.6084 12.6909 19.9656C12.3551 20.3207 12.1002 20.399 11.9376 20.399C11.7749 20.399 11.52 20.3207 11.1842 19.9656C10.8465 19.6084 10.4967 19.0385 10.1823 18.2524Z" fill="#1A1A1A"/>
</svg>
