<svg width="130" height="36" viewBox="0 0 130 36" fill="none" xmlns="http://www.w3.org/2000/svg">
<path d="M15.0114 29C7.82449 29 2.7233 22.5724 2 19C2.7213 15.4296 7.82449 9 15.0114 9C22.1984 9 27.2995 15.4296 28.0228 19C27.3015 22.5724 22.1984 29 15.0114 29ZM15.0114 11.1439C9.33721 11.1439 5.11361 16.1008 4.23202 19C5.11361 21.8992 9.33721 26.8581 15.0114 26.8581C20.6856 26.8581 24.9092 21.8992 25.7908 19C24.9092 16.1008 20.6856 11.1439 15.0114 11.1439ZM15.0114 23.2857C12.6151 23.2877 10.6736 21.3683 10.6736 19C10.6736 16.6317 12.6171 14.7143 15.0114 14.7143C17.4077 14.7143 19.3492 16.6317 19.3492 19C19.3492 21.3683 17.4057 23.2877 15.0114 23.2877V23.2857ZM15.0114 16.8561C13.8153 16.8561 12.8435 17.8179 12.8435 19C12.8435 20.1821 13.8153 21.1439 15.0114 21.1439C16.2076 21.1439 17.1793 20.1821 17.1793 19C17.1793 17.8179 16.2076 16.8561 15.0114 16.8561Z" fill="white"/>
<path d="M49.464 14.288C49.464 15.136 49.264 15.936 48.864 16.688C48.464 17.44 47.824 18.056 46.944 18.536C46.064 19 44.936 19.232 43.56 19.232H40.536V26H37.8V9.32H43.56C44.84 9.32 45.92 9.544 46.8 9.992C47.696 10.424 48.36 11.016 48.792 11.768C49.24 12.52 49.464 13.36 49.464 14.288ZM43.56 17C44.6 17 45.376 16.768 45.888 16.304C46.4 15.824 46.656 15.152 46.656 14.288C46.656 12.464 45.624 11.552 43.56 11.552H40.536V17H43.56ZM54.8094 14.696C55.2094 14.024 55.7374 13.504 56.3934 13.136C57.0654 12.752 57.8574 12.56 58.7694 12.56V15.392H58.0734C57.0014 15.392 56.1854 15.664 55.6254 16.208C55.0814 16.752 54.8094 17.696 54.8094 19.04V26H52.0734V12.776H54.8094V14.696ZM73.4044 19.064C73.4044 19.56 73.3724 20.008 73.3084 20.408H63.2044C63.2844 21.464 63.6764 22.312 64.3804 22.952C65.0844 23.592 65.9484 23.912 66.9724 23.912C68.4444 23.912 69.4844 23.296 70.0924 22.064H73.0444C72.6444 23.28 71.9164 24.28 70.8604 25.064C69.8204 25.832 68.5244 26.216 66.9724 26.216C65.7084 26.216 64.5724 25.936 63.5644 25.376C62.5724 24.8 61.7884 24 61.2124 22.976C60.6524 21.936 60.3724 20.736 60.3724 19.376C60.3724 18.016 60.6444 16.824 61.1884 15.8C61.7484 14.76 62.5244 13.96 63.5164 13.4C64.5244 12.84 65.6764 12.56 66.9724 12.56C68.2204 12.56 69.3324 12.832 70.3084 13.376C71.2844 13.92 72.0444 14.688 72.5884 15.68C73.1324 16.656 73.4044 17.784 73.4044 19.064ZM70.5484 18.2C70.5324 17.192 70.1724 16.384 69.4684 15.776C68.7644 15.168 67.8924 14.864 66.8524 14.864C65.9084 14.864 65.1004 15.168 64.4284 15.776C63.7564 16.368 63.3564 17.176 63.2284 18.2H70.5484ZM81.2089 23.552L84.9529 12.776H87.8569L82.8169 26H79.5529L74.5369 12.776H77.4649L81.2089 23.552ZM91.317 11.024C90.821 11.024 90.405 10.856 90.069 10.52C89.733 10.184 89.565 9.768 89.565 9.272C89.565 8.776 89.733 8.36 90.069 8.024C90.405 7.688 90.821 7.52 91.317 7.52C91.797 7.52 92.205 7.688 92.541 8.024C92.877 8.36 93.045 8.776 93.045 9.272C93.045 9.768 92.877 10.184 92.541 10.52C92.205 10.856 91.797 11.024 91.317 11.024ZM92.661 12.776V26H89.925V12.776H92.661ZM108.373 19.064C108.373 19.56 108.341 20.008 108.277 20.408H98.1731C98.2531 21.464 98.6451 22.312 99.3491 22.952C100.053 23.592 100.917 23.912 101.941 23.912C103.413 23.912 104.453 23.296 105.061 22.064H108.013C107.613 23.28 106.885 24.28 105.829 25.064C104.789 25.832 103.493 26.216 101.941 26.216C100.677 26.216 99.5411 25.936 98.5331 25.376C97.5411 24.8 96.7571 24 96.1811 22.976C95.6211 21.936 95.3411 20.736 95.3411 19.376C95.3411 18.016 95.6131 16.824 96.1571 15.8C96.7171 14.76 97.4931 13.96 98.4851 13.4C99.4931 12.84 100.645 12.56 101.941 12.56C103.189 12.56 104.301 12.832 105.277 13.376C106.253 13.92 107.013 14.688 107.557 15.68C108.101 16.656 108.373 17.784 108.373 19.064ZM105.517 18.2C105.501 17.192 105.141 16.384 104.437 15.776C103.733 15.168 102.861 14.864 101.821 14.864C100.877 14.864 100.069 15.168 99.3971 15.776C98.7251 16.368 98.3251 17.176 98.1971 18.2H105.517ZM128.826 12.776L124.722 26H121.842L119.178 16.232L116.514 26H113.634L109.506 12.776H112.29L115.05 23.408L117.858 12.776H120.714L123.402 23.36L126.138 12.776H128.826Z" fill="white"/>
</svg>
