<svg width="24" height="24" viewBox="0 0 24 24" fill="none" xmlns="http://www.w3.org/2000/svg">
<path d="M16.7935 8.14922C18.1226 8.14922 19.2002 7.07168 19.2002 5.74249C19.2002 4.41329 18.1226 3.33575 16.7935 3.33575C15.4643 3.33575 14.3867 4.41329 14.3867 5.74249C14.3867 7.07168 15.4643 8.14922 16.7935 8.14922Z" stroke="#1A1A1A" stroke-width="2" stroke-linejoin="round"/>
<path d="M6.20752 14.4068C7.53671 14.4068 8.61425 13.3292 8.61425 12C8.61425 10.6708 7.53671 9.59329 6.20752 9.59329C4.87832 9.59329 3.80078 10.6708 3.80078 12C3.80078 13.3292 4.87832 14.4068 6.20752 14.4068Z" stroke="#1A1A1A" stroke-width="2" stroke-linejoin="round"/>
<path d="M14.3874 6.98169L8.29297 10.6741" stroke="#1A1A1A" stroke-width="2" stroke-linecap="round" stroke-linejoin="round"/>
<path d="M8.29297 13.2341L14.7143 17.0285" stroke="#1A1A1A" stroke-width="2" stroke-linecap="round" stroke-linejoin="round"/>
<path d="M16.7935 15.8508C18.1226 15.8508 19.2002 16.9283 19.2002 18.2575C19.2002 19.5867 18.1226 20.6642 16.7935 20.6642C15.4643 20.6642 14.3867 19.5867 14.3867 18.2575C14.3867 16.9283 15.4643 15.8508 16.7935 15.8508Z" stroke="#1A1A1A" stroke-width="2" stroke-linejoin="round"/>
</svg>
