<svg viewBox="0 0 33 33" fill="none" xmlns="http://www.w3.org/2000/svg">
<g clip-path="url(#clip0_15519_41580)">
<path d="M16.5 32.5C25.3366 32.5 32.5 25.3366 32.5 16.5C32.5 7.66344 25.3366 0.5 16.5 0.5C7.66344 0.5 0.5 7.66344 0.5 16.5C0.5 25.3366 7.66344 32.5 16.5 32.5Z" fill="#28A8E9"/>
<path d="M7.15973 16.3612L17.9343 11.9219C18.9979 11.4595 22.6048 9.9797 22.6048 9.9797C22.6048 9.9797 24.2696 9.3323 24.1308 10.9046C24.0846 11.552 23.7146 13.8178 23.3447 16.2687L22.1886 23.5288C22.1886 23.5288 22.0961 24.5924 21.31 24.7774C20.5239 24.9624 19.2291 24.13 18.9979 23.945C18.8129 23.8063 15.5297 21.7254 14.3274 20.708C14.0037 20.4306 13.6337 19.8756 14.3736 19.2283C16.0383 17.7022 18.0268 15.8063 19.2291 14.604C19.784 14.0491 20.3389 12.7543 18.0268 14.3265L11.5065 18.7196C11.5065 18.7196 10.7667 19.182 9.37938 18.7658C7.9921 18.3496 6.3736 17.7947 6.3736 17.7947C6.3736 17.7947 5.26377 17.1011 7.15973 16.3612Z" fill="white"/>
</g>
<defs>
<clipPath id="clip0_15519_41580">
<rect width="32" height="32" fill="white" transform="translate(0.5 0.5)"/>
</clipPath>
</defs>
</svg>
