<svg width="18" height="18" viewBox="0 0 18 18" fill="none" xmlns="http://www.w3.org/2000/svg">
<path d="M9 16.1875C12.9695 16.1875 16.1875 12.9695 16.1875 9C16.1875 5.03045 12.9695 1.8125 9 1.8125C5.03045 1.8125 1.8125 5.03045 1.8125 9C1.8125 12.9695 5.03045 16.1875 9 16.1875ZM9 17.75C4.16751 17.75 0.25 13.8325 0.25 9C0.25 4.16751 4.16751 0.25 9 0.25C13.8325 0.25 17.75 4.16751 17.75 9C17.75 13.8325 13.8325 17.75 9 17.75ZM9.87769 11.8125V8C9.87769 7.86193 9.76576 7.75 9.62769 7.75H7.78119C7.64312 7.75 7.53119 7.86193 7.53119 8V9.0625C7.53119 9.20057 7.64312 9.3125 7.78119 9.3125H8.31519V11.8125H7.78119C7.64312 11.8125 7.53119 11.9244 7.53119 12.0625V13.125C7.53119 13.2631 7.64312 13.375 7.78119 13.375H10.2187C10.3568 13.375 10.4687 13.2631 10.4687 13.125V12.0625C10.4687 11.9244 10.3568 11.8125 10.2187 11.8125H9.87769ZM9.00012 6.875C9.62144 6.875 10.1251 6.37132 10.1251 5.75C10.1251 5.12868 9.62144 4.625 9.00012 4.625C8.3788 4.625 7.87512 5.12868 7.87512 5.75C7.87512 6.37132 8.3788 6.875 9.00012 6.875Z" fill="#808080"/>
</svg>
