<svg viewBox="0 0 48 48" fill="none" xmlns="http://www.w3.org/2000/svg">
<path d="M34.4091 17.0602C33.6218 17.4091 32.7761 17.6448 31.8869 17.7513C32.794 17.2082 33.4898 16.3464 33.818 15.3206C32.9694 15.8241 32.0293 16.1899 31.0289 16.386C30.2275 15.5337 29.0866 15 27.8231 15C25.398 15 23.4311 16.9669 23.4311 19.3938C23.4311 19.7371 23.4707 20.0708 23.5443 20.3933C19.8925 20.2094 16.6575 18.4604 14.4907 15.8033C14.1135 16.4539 13.8967 17.2082 13.8967 18.0116C13.8967 19.5353 14.6727 20.8808 15.8503 21.6681C15.13 21.6445 14.453 21.4474 13.8609 21.1184V21.175C13.8609 23.303 15.3742 25.0785 17.3844 25.4821C17.0148 25.582 16.6273 25.6348 16.2275 25.6348C15.9446 25.6348 15.6684 25.6084 15.4006 25.5575C15.9597 27.3018 17.5815 28.5728 19.504 28.6068C18.0001 29.7854 16.1059 30.4878 14.0485 30.4878C13.694 30.4878 13.3442 30.4671 13 30.4265C14.9442 31.674 17.2524 32.4 19.7322 32.4C27.8127 32.4 32.2301 25.7074 32.2301 19.903C32.2301 19.7144 32.2254 19.524 32.2169 19.3354C33.075 18.715 33.8198 17.9427 34.4073 17.063L34.4091 17.0602Z" fill="#CECFD1"/>
</svg>
