<svg width="75" height="21" viewBox="0 0 75 21" fill="none" xmlns="http://www.w3.org/2000/svg">
<g clip-path="url(#clip0_5468_5380)">
<path d="M14.4375 18.499H1.5625C1.1481 18.499 0.750671 18.3343 0.457646 18.0413C0.16462 17.7483 0 17.3509 0 16.9365L0 12.4677C0 12.3019 0.065848 12.143 0.183058 12.0258C0.300269 11.9086 0.45924 11.8427 0.625 11.8427C0.79076 11.8427 0.949731 11.9086 1.06694 12.0258C1.18415 12.143 1.25 12.3019 1.25 12.4677V16.9365C1.25 17.0193 1.28292 17.0988 1.34153 17.1574C1.40013 17.216 1.47962 17.249 1.5625 17.249H14.4375C14.5204 17.249 14.5999 17.216 14.6585 17.1574C14.7171 17.0988 14.75 17.0193 14.75 16.9365V12.4677C14.75 12.3019 14.8158 12.143 14.9331 12.0258C15.0503 11.9086 15.2092 11.8427 15.375 11.8427C15.5408 11.8427 15.6997 11.9086 15.8169 12.0258C15.9342 12.143 16 12.3019 16 12.4677V16.9365C16 17.3509 15.8354 17.7483 15.5424 18.0413C15.2493 18.3343 14.8519 18.499 14.4375 18.499ZM12.25 7.99895C12.0851 7.99661 11.9279 7.92921 11.8125 7.81145L8 4.01458L4.1875 7.81145C4.0694 7.92956 3.90921 7.99591 3.74219 7.99591C3.57516 7.99591 3.41498 7.92956 3.29688 7.81145C3.17877 7.69335 3.11242 7.53317 3.11242 7.36614C3.11242 7.19912 3.17877 7.03893 3.29688 6.92083L7.5625 2.68645C7.62066 2.6274 7.68998 2.58051 7.76643 2.5485C7.84288 2.51648 7.92493 2.5 8.00781 2.5C8.09069 2.5 8.17275 2.51648 8.2492 2.5485C8.32565 2.58051 8.39497 2.6274 8.45312 2.68645L12.6875 6.93645C12.7732 7.02381 12.8313 7.13439 12.8547 7.25447C12.8781 7.37455 12.8657 7.49886 12.8191 7.61199C12.7726 7.72511 12.6938 7.82208 12.5926 7.89087C12.4915 7.95965 12.3723 7.99724 12.25 7.99895Z" fill="#051D17"/>
<path d="M8 14.8125C7.91792 14.8125 7.83665 14.7963 7.76082 14.7649C7.68499 14.7335 7.61609 14.6875 7.55806 14.6294C7.50002 14.5714 7.45398 14.5025 7.42258 14.4267C7.39117 14.3508 7.375 14.2696 7.375 14.1875V3.39062C7.375 3.22486 7.44085 3.06589 7.55806 2.94868C7.67527 2.83147 7.83424 2.76562 8 2.76562C8.16576 2.76562 8.32473 2.83147 8.44194 2.94868C8.55915 3.06589 8.625 3.22486 8.625 3.39062V14.1875C8.625 14.2696 8.60883 14.3508 8.57743 14.4267C8.54602 14.5025 8.49998 14.5714 8.44194 14.6294C8.38391 14.6875 8.31501 14.7335 8.23918 14.7649C8.16335 14.7963 8.08208 14.8125 8 14.8125Z" fill="#051D17"/>
</g>
<path d="M26.632 5.27V11.472C26.632 12.2093 26.8233 12.7647 27.206 13.138C27.598 13.5113 28.1393 13.698 28.83 13.698C29.53 13.698 30.0713 13.5113 30.454 13.138C30.846 12.7647 31.042 12.2093 31.042 11.472V5.27H32.638V11.444C32.638 12.2373 32.4653 12.9093 32.12 13.46C31.7747 14.0107 31.3127 14.4213 30.734 14.692C30.1553 14.9627 29.516 15.098 28.816 15.098C28.116 15.098 27.4767 14.9627 26.898 14.692C26.3287 14.4213 25.876 14.0107 25.54 13.46C25.204 12.9093 25.036 12.2373 25.036 11.444V5.27H26.632ZM36.312 8.42C36.5827 8.06533 36.9513 7.76667 37.418 7.524C37.8847 7.28133 38.412 7.16 39 7.16C39.672 7.16 40.2833 7.328 40.834 7.664C41.394 7.99067 41.8327 8.45267 42.15 9.05C42.4673 9.64733 42.626 10.3333 42.626 11.108C42.626 11.8827 42.4673 12.578 42.15 13.194C41.8327 13.8007 41.394 14.2767 40.834 14.622C40.2833 14.958 39.672 15.126 39 15.126C38.412 15.126 37.8893 15.0093 37.432 14.776C36.9747 14.5333 36.6013 14.2347 36.312 13.88V18.668H34.716V7.286H36.312V8.42ZM41.002 11.108C41.002 10.576 40.89 10.1187 40.666 9.736C40.4513 9.344 40.162 9.05 39.798 8.854C39.4433 8.64867 39.0607 8.546 38.65 8.546C38.2487 8.546 37.866 8.64867 37.502 8.854C37.1473 9.05933 36.858 9.358 36.634 9.75C36.4193 10.142 36.312 10.604 36.312 11.136C36.312 11.668 36.4193 12.1347 36.634 12.536C36.858 12.928 37.1473 13.2267 37.502 13.432C37.866 13.6373 38.2487 13.74 38.65 13.74C39.0607 13.74 39.4433 13.6373 39.798 13.432C40.162 13.2173 40.4513 12.9093 40.666 12.508C40.89 12.1067 41.002 11.64 41.002 11.108ZM45.8003 4.64V15H44.2043V4.64H45.8003ZM51.2417 15.126C50.5137 15.126 49.8557 14.9627 49.2677 14.636C48.6797 14.3 48.2177 13.8333 47.8817 13.236C47.5457 12.6293 47.3777 11.9293 47.3777 11.136C47.3777 10.352 47.5504 9.65667 47.8957 9.05C48.241 8.44333 48.7124 7.97667 49.3097 7.65C49.907 7.32333 50.5744 7.16 51.3117 7.16C52.049 7.16 52.7164 7.32333 53.3137 7.65C53.911 7.97667 54.3824 8.44333 54.7277 9.05C55.073 9.65667 55.2457 10.352 55.2457 11.136C55.2457 11.92 55.0684 12.6153 54.7137 13.222C54.359 13.8287 53.8737 14.3 53.2577 14.636C52.651 14.9627 51.979 15.126 51.2417 15.126ZM51.2417 13.74C51.6524 13.74 52.035 13.642 52.3897 13.446C52.7537 13.25 53.0477 12.956 53.2717 12.564C53.4957 12.172 53.6077 11.696 53.6077 11.136C53.6077 10.576 53.5004 10.1047 53.2857 9.722C53.071 9.33 52.7864 9.036 52.4317 8.84C52.077 8.644 51.6944 8.546 51.2837 8.546C50.873 8.546 50.4904 8.644 50.1357 8.84C49.7904 9.036 49.515 9.33 49.3097 9.722C49.1044 10.1047 49.0017 10.576 49.0017 11.136C49.0017 11.9667 49.2117 12.6107 49.6317 13.068C50.061 13.516 50.5977 13.74 51.2417 13.74ZM56.2914 11.108C56.2914 10.3333 56.4501 9.64733 56.7674 9.05C57.0941 8.45267 57.5328 7.99067 58.0834 7.664C58.6434 7.328 59.2594 7.16 59.9314 7.16C60.5381 7.16 61.0654 7.28133 61.5134 7.524C61.9708 7.75733 62.3348 8.05133 62.6054 8.406V7.286H64.2154V15H62.6054V13.852C62.3348 14.216 61.9661 14.5193 61.4994 14.762C61.0328 15.0047 60.5008 15.126 59.9034 15.126C59.2408 15.126 58.6341 14.958 58.0834 14.622C57.5328 14.2767 57.0941 13.8007 56.7674 13.194C56.4501 12.578 56.2914 11.8827 56.2914 11.108ZM62.6054 11.136C62.6054 10.604 62.4934 10.142 62.2694 9.75C62.0548 9.358 61.7701 9.05933 61.4154 8.854C61.0608 8.64867 60.6781 8.546 60.2674 8.546C59.8568 8.546 59.4741 8.64867 59.1194 8.854C58.7648 9.05 58.4754 9.344 58.2514 9.736C58.0368 10.1187 57.9294 10.576 57.9294 11.108C57.9294 11.64 58.0368 12.1067 58.2514 12.508C58.4754 12.9093 58.7648 13.2173 59.1194 13.432C59.4834 13.6373 59.8661 13.74 60.2674 13.74C60.6781 13.74 61.0608 13.6373 61.4154 13.432C61.7701 13.2267 62.0548 12.928 62.2694 12.536C62.4934 12.1347 62.6054 11.668 62.6054 11.136ZM65.7797 11.108C65.7797 10.3333 65.9384 9.64733 66.2557 9.05C66.5824 8.45267 67.0211 7.99067 67.5717 7.664C68.1317 7.328 68.7524 7.16 69.4337 7.16C69.9377 7.16 70.4324 7.272 70.9177 7.496C71.4124 7.71067 71.8044 8 72.0937 8.364V4.64H73.7037V15H72.0937V13.838C71.8324 14.2113 71.4684 14.5193 71.0017 14.762C70.5444 15.0047 70.0171 15.126 69.4197 15.126C68.7477 15.126 68.1317 14.958 67.5717 14.622C67.0211 14.2767 66.5824 13.8007 66.2557 13.194C65.9384 12.578 65.7797 11.8827 65.7797 11.108ZM72.0937 11.136C72.0937 10.604 71.9817 10.142 71.7577 9.75C71.5431 9.358 71.2584 9.05933 70.9037 8.854C70.5491 8.64867 70.1664 8.546 69.7557 8.546C69.3451 8.546 68.9624 8.64867 68.6077 8.854C68.2531 9.05 67.9637 9.344 67.7397 9.736C67.5251 10.1187 67.4177 10.576 67.4177 11.108C67.4177 11.64 67.5251 12.1067 67.7397 12.508C67.9637 12.9093 68.2531 13.2173 68.6077 13.432C68.9717 13.6373 69.3544 13.74 69.7557 13.74C70.1664 13.74 70.5491 13.6373 70.9037 13.432C71.2584 13.2267 71.5431 12.928 71.7577 12.536C71.9817 12.1347 72.0937 11.668 72.0937 11.136Z" fill="#051D17"/>
<defs>
<clipPath id="clip0_5468_5380">
<rect width="16" height="16" fill="white" transform="translate(0 2.5)"/>
</clipPath>
</defs>
</svg>
