<svg width="104" height="104" viewBox="0 0 104 104" fill="none" xmlns="http://www.w3.org/2000/svg">
<circle cx="52" cy="52" r="52" fill="#F2F6F7"/>
<path d="M52 30C39.9 30 30 39.9 30 52C30 64.1 39.9 74 52 74C64.1 74 74 64.1 74 52C74 39.9 64.1 30 52 30ZM60.8 53.5714L48.2286 61.2714C47.9143 61.4286 47.6 61.4286 47.2857 61.4286C46.9714 61.4286 46.8143 61.4286 46.5 61.2714C46.0286 60.9571 45.7143 60.4857 45.7143 59.8571V44.1429C45.7143 43.5143 46.0286 43.0429 46.5 42.7286C46.9714 42.4143 47.6 42.4143 48.0714 42.7286L60.6429 50.9C61.1143 51.2143 61.4286 51.6857 61.4286 52.3143C61.4286 52.7857 61.2714 53.4143 60.8 53.5714Z" fill="#ADC5C5"/>
</svg>
