<svg width="18" height="19" viewBox="0 0 18 19" fill="none" xmlns="http://www.w3.org/2000/svg">
<mask id="path-1-outside-1_1_681" maskUnits="userSpaceOnUse" x="0" y="0.5" width="18" height="18" fill="black">
<rect fill="white" y="0.5" width="18" height="18"/>
<path fill-rule="evenodd" clip-rule="evenodd" d="M5 1.5H14.3333V2.83333H15.6667V4.16667H17V13.5H14.3333V5.5H13V4.16667H5V1.5ZM13 6.83333H11.6667V5.5H2.33333V6.83333H1V16.1667H2.33333V17.5H11.6667V16.1667H13V6.83333Z"/>
</mask>
<path fill-rule="evenodd" clip-rule="evenodd" d="M5 1.5H14.3333V2.83333H15.6667V4.16667H17V13.5H14.3333V5.5H13V4.16667H5V1.5ZM13 6.83333H11.6667V5.5H2.33333V6.83333H1V16.1667H2.33333V17.5H11.6667V16.1667H13V6.83333Z" fill="white"/>
<path d="M14.3333 1.5H15.3333V0.5H14.3333V1.5ZM5 1.5V0.5H4V1.5H5ZM14.3333 2.83333H13.3333V3.83333H14.3333V2.83333ZM15.6667 2.83333H16.6667V1.83333H15.6667V2.83333ZM15.6667 4.16667H14.6667V5.16667H15.6667V4.16667ZM17 4.16667H18V3.16667H17V4.16667ZM17 13.5V14.5H18V13.5H17ZM14.3333 13.5H13.3333V14.5H14.3333V13.5ZM14.3333 5.5H15.3333V4.5H14.3333V5.5ZM13 5.5H12V6.5H13V5.5ZM13 4.16667H14V3.16667H13V4.16667ZM5 4.16667H4V5.16667H5V4.16667ZM11.6667 6.83333H10.6667V7.83333H11.6667V6.83333ZM13 6.83333H14V5.83333H13V6.83333ZM11.6667 5.5H12.6667V4.5H11.6667V5.5ZM2.33333 5.5V4.5H1.33333V5.5H2.33333ZM2.33333 6.83333V7.83333H3.33333V6.83333H2.33333ZM1 6.83333V5.83333H0V6.83333H1ZM1 16.1667H0V17.1667H1V16.1667ZM2.33333 16.1667H3.33333V15.1667H2.33333V16.1667ZM2.33333 17.5H1.33333V18.5H2.33333V17.5ZM11.6667 17.5V18.5H12.6667V17.5H11.6667ZM11.6667 16.1667V15.1667H10.6667V16.1667H11.6667ZM13 16.1667V17.1667H14V16.1667H13ZM14.3333 0.5H5V2.5H14.3333V0.5ZM15.3333 2.83333V1.5H13.3333V2.83333H15.3333ZM15.6667 1.83333H14.3333V3.83333H15.6667V1.83333ZM16.6667 4.16667V2.83333H14.6667V4.16667H16.6667ZM15.6667 5.16667H17V3.16667H15.6667V5.16667ZM16 4.16667V13.5H18V4.16667H16ZM17 12.5H14.3333V14.5H17V12.5ZM15.3333 13.5V5.5H13.3333V13.5H15.3333ZM13 6.5H14.3333V4.5H13V6.5ZM12 4.16667V5.5H14V4.16667H12ZM5 5.16667H13V3.16667H5V5.16667ZM4 1.5V4.16667H6V1.5H4ZM11.6667 7.83333H13V5.83333H11.6667V7.83333ZM10.6667 5.5V6.83333H12.6667V5.5H10.6667ZM2.33333 6.5H11.6667V4.5H2.33333V6.5ZM3.33333 6.83333V5.5H1.33333V6.83333H3.33333ZM1 7.83333H2.33333V5.83333H1V7.83333ZM2 16.1667V6.83333H0V16.1667H2ZM2.33333 15.1667H1V17.1667H2.33333V15.1667ZM3.33333 17.5V16.1667H1.33333V17.5H3.33333ZM11.6667 16.5H2.33333V18.5H11.6667V16.5ZM10.6667 16.1667V17.5H12.6667V16.1667H10.6667ZM13 15.1667H11.6667V17.1667H13V15.1667ZM12 6.83333V16.1667H14V6.83333H12Z" fill="#6B4700" mask="url(#path-1-outside-1_1_681)"/>
</svg>
