<svg width="278" height="185" viewBox="0 0 278 185" fill="none" xmlns="http://www.w3.org/2000/svg">
<path d="M2.00016 8.5H6.00016V9.5H7V10.5H8V14.5H7V15.5H6.00016V16.5H2.00016V15.5H1V14.5H0V10.5H1V9.5H2.00016V8.5Z" fill="#B1A7D0"/>
<path d="M17.05 17.2V15.1H22.65V13H18.45V11.6H17.05V8.8H18.45V7.4H24.75V9.5H19.15V10.9H24.05V12.3H24.75V15.8H24.05V17.2H17.05ZM26.8527 6.7H28.9527V9.5H33.1527V10.9H34.5527V17.2H32.4527V11.6H28.9527V17.2H26.8527V6.7ZM42.9555 9.5V10.9H44.3555V17.2H38.0555V15.8H36.6555V13.7H38.0555V12.3H42.2555V11.6H38.0555V9.5H42.9555ZM38.7555 15.1H42.2555V14.4H38.7555V15.1ZM46.4582 11.6V9.5H48.5582V10.9H49.2582V9.5H54.1582V11.6H49.9582V15.1H52.7582V17.2H46.4582V15.1H47.8582V11.6H46.4582ZM57.6609 17.2V15.8H56.2609V10.9H57.6609V9.5H62.5609V10.9H63.9609V13H62.5609V14.4H58.3609V15.1H62.5609V17.2H57.6609ZM58.3609 12.3H61.8609V11.6H58.3609V12.3ZM70.9582 9.5H73.0582V13.7H76.5582V9.5H78.6582V17.9H77.2582V19.3H72.3582V17.2H76.5582V15.8H72.3582V14.4H70.9582V9.5ZM82.1609 17.2V15.8H80.7609V10.9H82.1609V9.5H87.0609V10.9H88.4609V15.8H87.0609V17.2H82.1609ZM82.8609 15.1H86.3609V11.6H82.8609V15.1ZM91.9637 17.2V15.8H90.5637V9.5H92.6637V15.1H96.1637V9.5H98.2637V15.8H96.8637V17.2H91.9637ZM100.366 11.6V9.5H102.466V10.9H103.166V9.5H108.066V11.6H103.866V15.1H106.666V17.2H100.366V15.1H101.766V11.6H100.366ZM119.964 9.5V15.1H122.764V17.2H119.264V15.8H117.864V11.6H115.064V9.5H119.964ZM117.864 8.8V6.7H119.964V8.8H117.864ZM124.866 10.9H126.266V9.5H131.166V10.9H132.566V17.2H130.466V11.6H126.966V17.2H124.866V10.9ZM134.669 9.5H136.769V13.7H137.469V15.1H139.569V13.7H140.269V9.5H142.369V13.7H141.669V15.8H140.269V17.2H136.769V15.8H135.369V13.7H134.669V9.5ZM149.372 9.5V15.1H152.172V17.2H148.672V15.8H147.272V11.6H144.472V9.5H149.372ZM147.272 8.8V6.7H149.372V8.8H147.272ZM154.275 9.5H156.375V8.1H158.475V9.5H161.975V11.6H158.475V15.1H161.975V17.2H157.775V15.8H156.375V11.6H154.275V9.5ZM170.377 9.5V10.9H171.777V17.2H165.477V15.8H164.077V13.7H165.477V12.3H169.677V11.6H165.477V9.5H170.377ZM166.177 15.1H169.677V14.4H166.177V15.1ZM173.88 9.5H175.98V8.1H178.08V9.5H181.58V11.6H178.08V15.1H181.58V17.2H177.38V15.8H175.98V11.6H173.88V9.5ZM188.583 9.5V15.1H191.383V17.2H187.883V15.8H186.483V11.6H183.683V9.5H188.583ZM186.483 8.8V6.7H188.583V8.8H186.483ZM194.886 17.2V15.8H193.486V10.9H194.886V9.5H199.786V10.9H201.186V15.8H199.786V17.2H194.886ZM195.586 15.1H199.086V11.6H195.586V15.1ZM203.288 10.9H204.688V9.5H209.588V10.9H210.988V17.2H208.888V11.6H205.388V17.2H203.288V10.9ZM222.186 6.7V15.1H225.686V17.2H221.486V15.8H220.086V8.8H217.986V6.7H222.186ZM232.688 9.5V15.1H235.488V17.2H231.988V15.8H230.588V11.6H227.788V9.5H232.688ZM230.588 8.8V6.7H232.688V8.8H230.588ZM237.591 10.9H238.991V9.5H243.891V10.9H245.291V17.2H243.191V11.6H239.691V17.2H237.591V10.9ZM250.894 15.8V14.4H249.494V17.2H247.394V6.7H249.494V12.3H250.894V10.9H252.994V9.5H255.094V11.6H252.994V13H250.894V13.7H252.994V15.1H255.094V17.2H252.994V15.8H250.894ZM17.05 29.5H19.15V34.4H19.85V30.9H21.95V34.4H22.65V29.5H24.75V35.8H23.35V37.2H21.25V35.1H20.55V37.2H18.45V35.8H17.05V29.5ZM31.7527 29.5V35.1H34.5527V37.2H31.0527V35.8H29.6527V31.6H26.8527V29.5H31.7527ZM29.6527 28.8V26.7H31.7527V28.8H29.6527ZM36.6555 29.5H38.7555V28.1H40.8555V29.5H44.3555V31.6H40.8555V35.1H44.3555V37.2H40.1555V35.8H38.7555V31.6H36.6555V29.5ZM46.4582 26.7H48.5582V29.5H52.7582V30.9H54.1582V37.2H52.0582V31.6H48.5582V37.2H46.4582V26.7ZM61.1555 29.5H63.2555V33.7H66.7555V29.5H68.8555V37.9H67.4555V39.3H62.5555V37.2H66.7555V35.8H62.5555V34.4H61.1555V29.5ZM72.3582 37.2V35.8H70.9582V30.9H72.3582V29.5H77.2582V30.9H78.6582V35.8H77.2582V37.2H72.3582ZM73.0582 35.1H76.5582V31.6H73.0582V35.1ZM82.1609 37.2V35.8H80.7609V29.5H82.8609V35.1H86.3609V29.5H88.4609V35.8H87.0609V37.2H82.1609ZM90.5637 31.6V29.5H92.6637V30.9H93.3637V29.5H98.2637V31.6H94.0637V35.1H96.8637V37.2H90.5637V35.1H91.9637V31.6H90.5637ZM105.261 33V30.9H107.361V28.8H108.761V27.4H112.961V29.5H109.461V30.9H112.961V33H109.461V35.1H110.161V37.2H106.661V35.1H107.361V33H105.261ZM115.064 31.6V29.5H117.164V30.9H117.864V29.5H122.764V31.6H118.564V35.1H121.364V37.2H115.064V35.1H116.464V31.6H115.064ZM129.766 29.5V35.1H132.566V37.2H129.066V35.8H127.666V31.6H124.866V29.5H129.766ZM127.666 28.8V26.7H129.766V28.8H127.666ZM136.069 37.2V35.8H134.669V30.9H136.069V29.5H140.969V30.9H142.369V33H140.969V34.4H136.769V35.1H140.969V37.2H136.069ZM136.769 32.3H140.269V31.6H136.769V32.3ZM144.472 30.9H145.872V29.5H150.772V30.9H152.172V37.2H150.072V31.6H146.572V37.2H144.472V30.9ZM161.975 37.2H155.675V35.8H154.275V30.9H155.675V29.5H159.875V26.7H161.975V37.2ZM156.375 35.1H159.875V31.6H156.375V35.1ZM171.777 31.6H166.177V32.3H170.377V33.7H171.777V35.8H170.377V37.2H164.077V35.1H169.677V34.4H165.477V33H164.077V30.9H165.477V29.5H171.777V31.6Z" fill="#5C489D"/>
<path d="M2.00016 60.5H6.00016V61.5H7V62.5H8V66.5H7V67.5H6.00016V68.5H2.00016V67.5H1V66.5H0V62.5H1V61.5H2.00016V60.5Z" fill="#B1A7D0"/>
<path d="M19.15 59.4V62.9H20.69V63.6H21.39V62.9H22.65V59.4H24.75V64.3H23.49V65.7H22.09V69.2H19.99V65.7H18.59V64.3H17.05V59.4H19.15ZM28.2527 69.2V67.8H26.8527V62.9H28.2527V61.5H33.1527V62.9H34.5527V67.8H33.1527V69.2H28.2527ZM28.9527 67.1H32.4527V63.6H28.9527V67.1ZM38.0555 69.2V67.8H36.6555V61.5H38.7555V67.1H42.2555V61.5H44.3555V67.8H42.9555V69.2H38.0555ZM46.4582 63.6V61.5H48.5582V62.9H49.2582V61.5H54.1582V63.6H49.9582V67.1H52.7582V69.2H46.4582V67.1H47.8582V63.6H46.4582ZM61.1555 65V62.9H63.2555V60.8H64.6555V59.4H68.8555V61.5H65.3555V62.9H68.8555V65H65.3555V67.1H66.0555V69.2H62.5555V67.1H63.2555V65H61.1555ZM70.9582 63.6V61.5H73.0582V62.9H73.7582V61.5H78.6582V63.6H74.4582V67.1H77.2582V69.2H70.9582V67.1H72.3582V63.6H70.9582ZM85.6609 61.5V67.1H88.4609V69.2H84.9609V67.8H83.5609V63.6H80.7609V61.5H85.6609ZM83.5609 60.8V58.7H85.6609V60.8H83.5609ZM91.9637 69.2V67.8H90.5637V62.9H91.9637V61.5H96.8637V62.9H98.2637V65H96.8637V66.4H92.6637V67.1H96.8637V69.2H91.9637ZM92.6637 64.3H96.1637V63.6H92.6637V64.3ZM100.366 62.9H101.766V61.5H106.666V62.9H108.066V69.2H105.966V63.6H102.466V69.2H100.366V62.9ZM117.869 69.2H111.569V67.8H110.169V62.9H111.569V61.5H115.769V58.7H117.869V69.2ZM112.269 67.1H115.769V63.6H112.269V67.1ZM124.866 58.7H126.966V61.5H131.166V62.9H132.566V69.2H130.466V63.6H126.966V69.2H124.866V58.7ZM140.969 61.5V62.9H142.369V69.2H136.069V67.8H134.669V65.7H136.069V64.3H140.269V63.6H136.069V61.5H140.969ZM136.769 67.1H140.269V66.4H136.769V67.1ZM152.172 63.6H146.572V64.3H150.772V65.7H152.172V67.8H150.772V69.2H144.472V67.1H150.072V66.4H145.872V65H144.472V62.9H145.872V61.5H152.172V63.6ZM166.869 61.5V69.9H165.469V71.3H159.169V69.2H164.769V63.6H161.969V61.5H166.869ZM164.769 60.8V58.7H166.869V60.8H164.769ZM170.372 69.2V67.8H168.972V62.9H170.372V61.5H175.272V62.9H176.672V67.8H175.272V69.2H170.372ZM171.072 67.1H174.572V63.6H171.072V67.1ZM183.675 61.5V67.1H186.475V69.2H182.975V67.8H181.575V63.6H178.775V61.5H183.675ZM181.575 60.8V58.7H183.675V60.8H181.575ZM188.577 62.9H189.977V61.5H194.877V62.9H196.277V69.2H194.177V63.6H190.677V69.2H188.577V62.9ZM199.78 69.2V67.8H198.38V62.9H199.78V61.5H204.68V62.9H206.08V65H204.68V66.4H200.48V67.1H204.68V69.2H199.78ZM200.48 64.3H203.98V63.6H200.48V64.3ZM215.883 69.2H209.583V67.8H208.183V62.9H209.583V61.5H213.783V58.7H215.883V69.2ZM210.283 67.1H213.783V63.6H210.283V67.1ZM229.18 61.5V62.9H230.58V69.2H224.28V67.8H222.88V65.7H224.28V64.3H228.48V63.6H224.28V61.5H229.18ZM224.98 67.1H228.48V66.4H224.98V67.1ZM232.683 62.9H234.083V61.5H238.983V62.9H240.383V69.2H238.283V63.6H234.783V69.2H232.683V62.9ZM250.186 69.2H243.886V67.8H242.486V62.9H243.886V61.5H248.086V58.7H250.186V69.2ZM244.586 67.1H248.086V63.6H244.586V67.1ZM24.75 83.6H19.15V84.3H23.35V85.7H24.75V87.8H23.35V89.2H17.05V87.1H22.65V86.4H18.45V85H17.05V82.9H18.45V81.5H24.75V83.6ZM26.8527 81.5H28.9527V80.1H31.0527V81.5H34.5527V83.6H31.0527V87.1H34.5527V89.2H30.3527V87.8H28.9527V83.6H26.8527V81.5ZM42.9555 81.5V82.9H44.3555V89.2H38.0555V87.8H36.6555V85.7H38.0555V84.3H42.2555V83.6H38.0555V81.5H42.9555ZM38.7555 87.1H42.2555V86.4H38.7555V87.1ZM46.4582 83.6V81.5H48.5582V82.9H49.2582V81.5H54.1582V83.6H49.9582V87.1H52.7582V89.2H46.4582V87.1H47.8582V83.6H46.4582ZM56.2609 81.5H58.3609V80.1H60.4609V81.5H63.9609V83.6H60.4609V87.1H63.9609V89.2H59.7609V87.8H58.3609V83.6H56.2609V81.5ZM67.4637 89.2V87.8H66.0637V82.9H67.4637V81.5H72.3637V82.9H73.7637V85H72.3637V86.4H68.1637V87.1H72.3637V89.2H67.4637ZM68.1637 84.3H71.6637V83.6H68.1637V84.3ZM83.5664 89.2H77.2664V87.8H75.8664V82.9H77.2664V81.5H81.4664V78.7H83.5664V89.2ZM77.9664 87.1H81.4664V83.6H77.9664V87.1ZM90.5637 81.5H96.8637V82.9H98.2637V87.8H96.8637V89.2H92.6637V91.3H90.5637V81.5ZM92.6637 87.1H96.1637V83.6H92.6637V87.1ZM104.566 78.7V87.1H108.066V89.2H103.866V87.8H102.466V80.8H100.366V78.7H104.566ZM116.469 81.5V82.9H117.869V89.2H111.569V87.8H110.169V85.7H111.569V84.3H115.769V83.6H111.569V81.5H116.469ZM112.269 87.1H115.769V86.4H112.269V87.1ZM119.972 81.5H122.072V85.7H125.572V81.5H127.672V89.9H126.272V91.3H121.372V89.2H125.572V87.8H121.372V86.4H119.972V81.5ZM134.675 81.5V87.1H137.475V89.2H133.975V87.8H132.575V83.6H129.775V81.5H134.675ZM132.575 80.8V78.7H134.675V80.8H132.575ZM139.577 82.9H140.977V81.5H145.877V82.9H147.277V89.2H145.177V83.6H141.677V89.2H139.577V82.9ZM157.08 81.5V89.9H155.68V91.3H150.78V89.2H154.98V87.8H150.78V86.4H149.38V82.9H150.78V81.5H157.08ZM151.48 85.7H154.98V83.6H151.48V85.7ZM164.077 79.4H171.777V81.5H166.177V82.9H171.777V85H166.177V89.2H164.077V79.4ZM175.28 89.2V87.8H173.88V82.9H175.28V81.5H180.18V82.9H181.58V87.8H180.18V89.2H175.28ZM175.98 87.1H179.48V83.6H175.98V87.1ZM183.683 83.6V81.5H185.783V82.9H186.483V81.5H191.383V83.6H187.183V87.1H189.983V89.2H183.683V87.1H185.083V83.6H183.683ZM194.886 89.2V87.8H193.486V82.9H194.886V81.5H199.786V82.9H201.186V85H199.786V86.4H195.586V87.1H199.786V89.2H194.886ZM195.586 84.3H199.086V83.6H195.586V84.3ZM210.988 83.6H205.388V84.3H209.588V85.7H210.988V87.8H209.588V89.2H203.288V87.1H208.888V86.4H204.688V85H203.288V82.9H204.688V81.5H210.988V83.6ZM213.091 81.5H215.191V80.1H217.291V81.5H220.791V83.6H217.291V87.1H220.791V89.2H216.591V87.8H215.191V83.6H213.091V81.5Z" fill="#5C489D"/>
<path d="M2.00016 112.5H6.00016V113.5H7V114.5H8V118.5H7V119.5H6.00016V120.5H2.00016V119.5H1V118.5H0V114.5H1V113.5H2.00016V112.5Z" fill="#B1A7D0"/>
<path d="M19.15 111.4V114.9H20.69V115.6H21.39V114.9H22.65V111.4H24.75V116.3H23.49V117.7H22.09V121.2H19.99V117.7H18.59V116.3H17.05V111.4H19.15ZM28.2527 121.2V119.8H26.8527V114.9H28.2527V113.5H33.1527V114.9H34.5527V119.8H33.1527V121.2H28.2527ZM28.9527 119.1H32.4527V115.6H28.9527V119.1ZM38.0555 121.2V119.8H36.6555V113.5H38.7555V119.1H42.2555V113.5H44.3555V119.8H42.9555V121.2H38.0555ZM51.3527 115.6V113.5H53.4527V114.9H54.1527V113.5H59.0527V115.6H54.8527V119.1H57.6527V121.2H51.3527V119.1H52.7527V115.6H51.3527ZM62.5555 121.2V119.8H61.1555V114.9H62.5555V113.5H67.4555V114.9H68.8555V117H67.4555V118.4H63.2555V119.1H67.4555V121.2H62.5555ZM63.2555 116.3H66.7555V115.6H63.2555V116.3ZM78.6582 113.5V115.6H73.0582V119.1H78.6582V121.2H72.3582V119.8H70.9582V114.9H72.3582V113.5H78.6582ZM82.1609 121.2V119.8H80.7609V114.9H82.1609V113.5H87.0609V114.9H88.4609V117H87.0609V118.4H82.8609V119.1H87.0609V121.2H82.1609ZM82.8609 116.3H86.3609V115.6H82.8609V116.3ZM95.4637 113.5V119.1H98.2637V121.2H94.7637V119.8H93.3637V115.6H90.5637V113.5H95.4637ZM93.3637 112.8V110.7H95.4637V112.8H93.3637ZM100.366 113.5H102.466V117.7H103.166V119.1H105.266V117.7H105.966V113.5H108.066V117.7H107.366V119.8H105.966V121.2H102.466V119.8H101.066V117.7H100.366V113.5ZM111.569 121.2V119.8H110.169V114.9H111.569V113.5H116.469V114.9H117.869V117H116.469V118.4H112.269V119.1H116.469V121.2H111.569ZM112.269 116.3H115.769V115.6H112.269V116.3ZM153.569 121.2V119.8H152.169V114.9H153.569V113.5H158.469V114.9H159.869V119.8H158.469V121.2H153.569ZM154.269 119.1H157.769V115.6H154.269V119.1ZM161.972 117V114.9H164.072V112.8H165.472V111.4H169.672V113.5H166.172V114.9H169.672V117H166.172V119.1H166.872V121.2H163.372V119.1H164.072V117H161.972ZM176.669 113.5H178.769V112.1H180.869V113.5H184.369V115.6H180.869V119.1H184.369V121.2H180.169V119.8H178.769V115.6H176.669V113.5ZM186.472 110.7H188.572V113.5H192.772V114.9H194.172V121.2H192.072V115.6H188.572V121.2H186.472V110.7ZM197.675 121.2V119.8H196.275V114.9H197.675V113.5H202.575V114.9H203.975V117H202.575V118.4H198.375V119.1H202.575V121.2H197.675ZM198.375 116.3H201.875V115.6H198.375V116.3ZM218.672 113.5V121.9H217.272V123.3H212.372V121.2H216.572V119.8H212.372V118.4H210.972V114.9H212.372V113.5H218.672ZM213.072 117.7H216.572V115.6H213.072V117.7ZM222.175 121.2V119.8H220.775V114.9H222.175V113.5H227.075V114.9H228.475V119.8H227.075V121.2H222.175ZM222.875 119.1H226.375V115.6H222.875V119.1ZM234.777 110.7V119.1H238.277V121.2H234.077V119.8H232.677V112.8H230.577V110.7H234.777ZM248.08 121.2H241.78V119.8H240.38V114.9H241.78V113.5H245.98V110.7H248.08V121.2ZM242.48 119.1H245.98V115.6H242.48V119.1ZM251.583 121.2V119.8H250.183V114.9H251.583V113.5H256.483V114.9H257.883V117H256.483V118.4H252.283V119.1H256.483V121.2H251.583ZM252.283 116.3H255.783V115.6H252.283V116.3ZM259.986 114.9H261.386V113.5H266.286V114.9H267.686V121.2H265.586V115.6H262.086V121.2H259.986V114.9ZM17.05 137V134.9H19.15V132.8H20.55V131.4H24.75V133.5H21.25V134.9H24.75V137H21.25V139.1H21.95V141.2H18.45V139.1H19.15V137H17.05ZM26.8527 135.6V133.5H28.9527V134.9H29.6527V133.5H34.5527V135.6H30.3527V139.1H33.1527V141.2H26.8527V139.1H28.2527V135.6H26.8527ZM38.0555 141.2V139.8H36.6555V133.5H38.7555V139.1H42.2555V133.5H44.3555V139.8H42.9555V141.2H38.0555ZM51.3582 133.5V139.1H54.1582V141.2H50.6582V139.8H49.2582V135.6H46.4582V133.5H51.3582ZM49.2582 132.8V130.7H51.3582V132.8H49.2582ZM56.2609 133.5H58.3609V132.1H60.4609V133.5H63.9609V135.6H60.4609V139.1H63.9609V141.2H59.7609V139.8H58.3609V135.6H56.2609V133.5ZM73.7637 135.6H68.1637V136.3H72.3637V137.7H73.7637V139.8H72.3637V141.2H66.0637V139.1H71.6637V138.4H67.4637V137H66.0637V134.9H67.4637V133.5H73.7637V135.6ZM80.7609 133.5H82.8609V137.7H86.3609V133.5H88.4609V141.9H87.0609V143.3H82.1609V141.2H86.3609V139.8H82.1609V138.4H80.7609V133.5ZM91.9637 141.2V139.8H90.5637V134.9H91.9637V133.5H96.8637V134.9H98.2637V139.8H96.8637V141.2H91.9637ZM92.6637 139.1H96.1637V135.6H92.6637V139.1ZM101.766 141.2V139.8H100.366V133.5H102.466V139.1H105.966V133.5H108.066V139.8H106.666V141.2H101.766ZM110.169 135.6V133.5H112.269V134.9H112.969V133.5H117.869V135.6H113.669V139.1H116.469V141.2H110.169V139.1H111.569V135.6H110.169ZM124.866 137V134.9H126.966V132.8H128.366V131.4H132.566V133.5H129.066V134.9H132.566V137H129.066V139.1H129.766V141.2H126.266V139.1H126.966V137H124.866ZM134.669 135.6V133.5H136.769V134.9H137.469V133.5H142.369V135.6H138.169V139.1H140.969V141.2H134.669V139.1H136.069V135.6H134.669ZM149.372 133.5V139.1H152.172V141.2H148.672V139.8H147.272V135.6H144.472V133.5H149.372ZM147.272 132.8V130.7H149.372V132.8H147.272ZM155.675 141.2V139.8H154.275V134.9H155.675V133.5H160.575V134.9H161.975V137H160.575V138.4H156.375V139.1H160.575V141.2H155.675ZM156.375 136.3H159.875V135.6H156.375V136.3ZM164.077 134.9H165.477V133.5H170.377V134.9H171.777V141.2H169.677V135.6H166.177V141.2H164.077V134.9ZM181.58 141.2H175.28V139.8H173.88V134.9H175.28V133.5H179.48V130.7H181.58V141.2ZM175.98 139.1H179.48V135.6H175.98V139.1ZM188.577 130.7H190.677V133.5H194.877V134.9H196.277V141.2H194.177V135.6H190.677V141.2H188.577V130.7ZM204.68 133.5V134.9H206.08V141.2H199.78V139.8H198.38V137.7H199.78V136.3H203.98V135.6H199.78V133.5H204.68ZM200.48 139.1H203.98V138.4H200.48V139.1ZM208.183 135.6V133.5H210.283V134.9H210.983V133.5H215.883V135.6H211.683V139.1H214.483V141.2H208.183V139.1H209.583V135.6H208.183ZM217.986 133.5H220.086V137.7H220.786V139.1H222.886V137.7H223.586V133.5H225.686V137.7H224.986V139.8H223.586V141.2H220.086V139.8H218.686V137.7H217.986V133.5ZM229.188 141.2V139.8H227.788V134.9H229.188V133.5H234.088V134.9H235.488V137H234.088V138.4H229.888V139.1H234.088V141.2H229.188ZM229.888 136.3H233.388V135.6H229.888V136.3ZM245.291 135.6H239.691V136.3H243.891V137.7H245.291V139.8H243.891V141.2H237.591V139.1H243.191V138.4H238.991V137H237.591V134.9H238.991V133.5H245.291V135.6ZM247.394 133.5H249.494V132.1H251.594V133.5H255.094V135.6H251.594V139.1H255.094V141.2H250.894V139.8H249.494V135.6H247.394V133.5ZM264.896 135.6H259.296V136.3H263.496V137.7H264.896V139.8H263.496V141.2H257.196V139.1H262.796V138.4H258.596V137H257.196V134.9H258.596V133.5H264.896V135.6ZM269.099 139.1V141.2H266.999V139.1H269.099ZM19.15 151.4V154.9H20.69V155.6H21.39V154.9H22.65V151.4H24.75V156.3H23.49V157.7H22.09V161.2H19.99V157.7H18.59V156.3H17.05V151.4H19.15ZM28.2527 161.2V159.8H26.8527V154.9H28.2527V153.5H33.1527V154.9H34.5527V159.8H33.1527V161.2H28.2527ZM28.9527 159.1H32.4527V155.6H28.9527V159.1ZM38.0555 161.2V159.8H36.6555V153.5H38.7555V159.1H42.2555V153.5H44.3555V159.8H42.9555V161.2H38.0555ZM46.4582 155.6V153.5H48.5582V154.9H49.2582V153.5H54.1582V155.6H49.9582V159.1H52.7582V161.2H46.4582V159.1H47.8582V155.6H46.4582ZM61.1555 157V154.9H63.2555V152.8H64.6555V151.4H68.8555V153.5H65.3555V154.9H68.8555V157H65.3555V159.1H66.0555V161.2H62.5555V159.1H63.2555V157H61.1555ZM70.9582 155.6V153.5H73.0582V154.9H73.7582V153.5H78.6582V155.6H74.4582V159.1H77.2582V161.2H70.9582V159.1H72.3582V155.6H70.9582ZM85.6609 153.5V159.1H88.4609V161.2H84.9609V159.8H83.5609V155.6H80.7609V153.5H85.6609ZM83.5609 152.8V150.7H85.6609V152.8H83.5609ZM91.9637 161.2V159.8H90.5637V154.9H91.9637V153.5H96.8637V154.9H98.2637V157H96.8637V158.4H92.6637V159.1H96.8637V161.2H91.9637ZM92.6637 156.3H96.1637V155.6H92.6637V156.3ZM100.366 154.9H101.766V153.5H106.666V154.9H108.066V161.2H105.966V155.6H102.466V161.2H100.366V154.9ZM117.869 161.2H111.569V159.8H110.169V154.9H111.569V153.5H115.769V150.7H117.869V161.2ZM112.269 159.1H115.769V155.6H112.269V159.1ZM129.766 153.5V159.1H132.566V161.2H129.066V159.8H127.666V155.6H124.866V153.5H129.766ZM127.666 152.8V150.7H129.766V152.8H127.666ZM134.669 161.2V154.9H136.069V153.5H138.169V154.9H138.869V153.5H140.969V154.9H142.369V161.2H140.269V157H139.569V161.2H137.469V157H136.769V161.2H134.669ZM144.472 161.2V154.9H145.872V153.5H147.972V154.9H148.672V153.5H150.772V154.9H152.172V161.2H150.072V157H149.372V161.2H147.272V157H146.572V161.2H144.472ZM155.675 161.2V159.8H154.275V154.9H155.675V153.5H160.575V154.9H161.975V157H160.575V158.4H156.375V159.1H160.575V161.2H155.675ZM156.375 156.3H159.875V155.6H156.375V156.3ZM171.777 161.2H165.477V159.8H164.077V154.9H165.477V153.5H169.677V150.7H171.777V161.2ZM166.177 159.1H169.677V155.6H166.177V159.1ZM178.78 153.5V159.1H181.58V161.2H178.08V159.8H176.68V155.6H173.88V153.5H178.78ZM176.68 152.8V150.7H178.78V152.8H176.68ZM189.983 153.5V154.9H191.383V161.2H185.083V159.8H183.683V157.7H185.083V156.3H189.283V155.6H185.083V153.5H189.983ZM185.783 159.1H189.283V158.4H185.783V159.1ZM193.486 153.5H195.586V152.1H197.686V153.5H201.186V155.6H197.686V159.1H201.186V161.2H196.986V159.8H195.586V155.6H193.486V153.5ZM204.688 161.2V159.8H203.288V154.9H204.688V153.5H209.588V154.9H210.988V157H209.588V158.4H205.388V159.1H209.588V161.2H204.688ZM205.388 156.3H208.888V155.6H205.388V156.3ZM217.291 150.7V159.1H220.791V161.2H216.591V159.8H215.191V152.8H213.091V150.7H217.291ZM222.894 153.5H224.994V157.7H228.494V153.5H230.594V161.9H229.194V163.3H224.294V161.2H228.494V159.8H224.294V158.4H222.894V153.5ZM17.05 175.6V173.5H19.15V174.9H19.85V173.5H24.75V175.6H20.55V179.1H23.35V181.2H17.05V179.1H18.45V175.6H17.05ZM28.2527 181.2V179.8H26.8527V174.9H28.2527V173.5H33.1527V174.9H34.5527V177H33.1527V178.4H28.9527V179.1H33.1527V181.2H28.2527ZM28.9527 176.3H32.4527V175.6H28.9527V176.3ZM44.3555 173.5V175.6H38.7555V179.1H44.3555V181.2H38.0555V179.8H36.6555V174.9H38.0555V173.5H44.3555ZM47.8582 181.2V179.8H46.4582V174.9H47.8582V173.5H52.7582V174.9H54.1582V177H52.7582V178.4H48.5582V179.1H52.7582V181.2H47.8582ZM48.5582 176.3H52.0582V175.6H48.5582V176.3ZM61.1609 173.5V179.1H63.9609V181.2H60.4609V179.8H59.0609V175.6H56.2609V173.5H61.1609ZM59.0609 172.8V170.7H61.1609V172.8H59.0609ZM66.0637 173.5H68.1637V177.7H68.8637V179.1H70.9637V177.7H71.6637V173.5H73.7637V177.7H73.0637V179.8H71.6637V181.2H68.1637V179.8H66.7637V177.7H66.0637V173.5ZM77.2664 181.2V179.8H75.8664V174.9H77.2664V173.5H82.1664V174.9H83.5664V177H82.1664V178.4H77.9664V179.1H82.1664V181.2H77.2664ZM77.9664 176.3H81.4664V175.6H77.9664V176.3ZM93.3691 175.6H87.7691V176.3H91.9691V177.7H93.3691V179.8H91.9691V181.2H85.6691V179.1H91.2691V178.4H87.0691V177H85.6691V174.9H87.0691V173.5H93.3691V175.6ZM142.369 173.5V181.9H140.969V183.3H136.069V181.2H140.269V179.8H136.069V178.4H134.669V174.9H136.069V173.5H142.369ZM136.769 177.7H140.269V175.6H136.769V177.7ZM145.872 181.2V179.8H144.472V174.9H145.872V173.5H150.772V174.9H152.172V179.8H150.772V181.2H145.872ZM146.572 179.1H150.072V175.6H146.572V179.1ZM158.475 170.7V179.1H161.975V181.2H157.775V179.8H156.375V172.8H154.275V170.7H158.475ZM171.777 181.2H165.477V179.8H164.077V174.9H165.477V173.5H169.677V170.7H171.777V181.2ZM166.177 179.1H169.677V175.6H166.177V179.1ZM175.28 181.2V179.8H173.88V174.9H175.28V173.5H180.18V174.9H181.58V177H180.18V178.4H175.98V179.1H180.18V181.2H175.28ZM175.98 176.3H179.48V175.6H175.98V176.3ZM183.683 174.9H185.083V173.5H189.983V174.9H191.383V181.2H189.283V175.6H185.783V181.2H183.683V174.9ZM198.38 177V174.9H200.48V172.8H201.88V171.4H206.08V173.5H202.58V174.9H206.08V177H202.58V179.1H203.28V181.2H199.78V179.1H200.48V177H198.38ZM208.183 175.6V173.5H210.283V174.9H210.983V173.5H215.883V175.6H211.683V179.1H214.483V181.2H208.183V179.1H209.583V175.6H208.183ZM219.386 181.2V179.8H217.986V173.5H220.086V179.1H223.586V173.5H225.686V179.8H224.286V181.2H219.386ZM232.688 173.5V179.1H235.488V181.2H231.988V179.8H230.588V175.6H227.788V173.5H232.688ZM230.588 172.8V170.7H232.688V172.8H230.588ZM237.591 173.5H239.691V172.1H241.791V173.5H245.291V175.6H241.791V179.1H245.291V181.2H241.091V179.8H239.691V175.6H237.591V173.5ZM255.094 175.6H249.494V176.3H253.694V177.7H255.094V179.8H253.694V181.2H247.394V179.1H252.994V178.4H248.794V177H247.394V174.9H248.794V173.5H255.094V175.6ZM259.296 179.1V181.2H257.196V179.1H259.296Z" fill="#5C489D"/>
<path d="M124.866 121.2V119.1H130.466V117.7H124.866V115.6H130.466V113.5H124.866V111.4H131.166V112.8H132.566V116.3H131.866V117H132.566V119.8H131.166V121.2H124.866ZM136.069 119.1H137.469V117.7H138.869V115.6H138.169V117H136.069V115.6H134.669V112.8H136.069V112.1H138.169V112.8H139.569V114.9H140.269V112.8H140.969V111.4H143.069V114.2H142.369V115.6H140.969V117.7H141.669V116.3H143.769V117.7H145.169V120.5H143.769V121.2H141.669V120.5H140.269V118.4H139.569V120.5H138.169V121.2H136.069V119.1ZM136.769 114.9H137.469V114.2H136.769V114.9ZM142.369 119.1H143.069V118.4H142.369V119.1ZM105.266 179.1H108.066V181.2H100.366V179.1H103.166V174.9H101.066V172.8H103.166V171.4H105.266V179.1ZM111.569 181.2V179.8H110.169V172.8H111.569V171.4H116.469V172.8H117.869V179.8H116.469V181.2H111.569ZM112.269 179.1H115.769V177H114.369V178.4H112.269V179.1ZM112.269 176.3H113.669V174.9H115.769V173.5H112.269V176.3ZM121.372 181.2V179.8H119.972V172.8H121.372V171.4H126.272V172.8H127.672V179.8H126.272V181.2H121.372ZM122.072 179.1H125.572V177H124.172V178.4H122.072V179.1ZM122.072 176.3H123.472V174.9H125.572V173.5H122.072V176.3Z" fill="#FFA800"/>
<path d="M3 8.5H5V112.5H3V8.5Z" fill="#B1A7D0"/>
</svg>
