<svg width="19" height="19" viewBox="0 0 19 19" fill="none" xmlns="http://www.w3.org/2000/svg">
<mask id="path-1-outside-1_1_673" maskUnits="userSpaceOnUse" x="0.5" y="0.5" width="18" height="18" fill="black">
<rect fill="white" x="0.5" y="0.5" width="18" height="18"/>
<path fill-rule="evenodd" clip-rule="evenodd" d="M10.8333 1.5H8.16667V2.83333H6.83333V4.16667H5.5V6.83333H6.83333V8.16667H8.16667V9.5H10.8333V8.16667H12.1667V6.83333H13.5V4.16667H12.1667V2.83333H10.8333V1.5ZM4.16667 10.8333H13.5V13.5H12.1667V17.5H5.5H4.16667H2.83333H1.5V13.5H2.83333V12.1667H4.16667V10.8333ZM16.1667 13.5H14.8333V14.8333H13.5V16.1667H14.8333V17.5H16.1667V16.1667H17.5V14.8333H16.1667V13.5Z"/>
</mask>
<path fill-rule="evenodd" clip-rule="evenodd" d="M10.8333 1.5H8.16667V2.83333H6.83333V4.16667H5.5V6.83333H6.83333V8.16667H8.16667V9.5H10.8333V8.16667H12.1667V6.83333H13.5V4.16667H12.1667V2.83333H10.8333V1.5ZM4.16667 10.8333H13.5V13.5H12.1667V17.5H5.5H4.16667H2.83333H1.5V13.5H2.83333V12.1667H4.16667V10.8333ZM16.1667 13.5H14.8333V14.8333H13.5V16.1667H14.8333V17.5H16.1667V16.1667H17.5V14.8333H16.1667V13.5Z" fill="white"/>
<path d="M8.16667 1.5V0.5H7.16667V1.5H8.16667ZM10.8333 1.5H11.8333V0.5H10.8333V1.5ZM8.16667 2.83333V3.83333H9.16667V2.83333H8.16667ZM6.83333 2.83333V1.83333H5.83333V2.83333H6.83333ZM6.83333 4.16667V5.16667H7.83333V4.16667H6.83333ZM5.5 4.16667V3.16667H4.5V4.16667H5.5ZM5.5 6.83333H4.5V7.83333H5.5V6.83333ZM6.83333 6.83333H7.83333V5.83333H6.83333V6.83333ZM6.83333 8.16667H5.83333V9.16667H6.83333V8.16667ZM8.16667 8.16667H9.16667V7.16667H8.16667V8.16667ZM8.16667 9.5H7.16667V10.5H8.16667V9.5ZM10.8333 9.5V10.5H11.8333V9.5H10.8333ZM10.8333 8.16667V7.16667H9.83333V8.16667H10.8333ZM12.1667 8.16667V9.16667H13.1667V8.16667H12.1667ZM12.1667 6.83333V5.83333H11.1667V6.83333H12.1667ZM13.5 6.83333V7.83333H14.5V6.83333H13.5ZM13.5 4.16667H14.5V3.16667H13.5V4.16667ZM12.1667 4.16667H11.1667V5.16667H12.1667V4.16667ZM12.1667 2.83333H13.1667V1.83333H12.1667V2.83333ZM10.8333 2.83333H9.83333V3.83333H10.8333V2.83333ZM13.5 10.8333H14.5V9.83333H13.5V10.8333ZM4.16667 10.8333V9.83333H3.16667V10.8333H4.16667ZM13.5 13.5V14.5H14.5V13.5H13.5ZM12.1667 13.5V12.5H11.1667V13.5H12.1667ZM12.1667 17.5V18.5H13.1667V17.5H12.1667ZM1.5 17.5H0.5V18.5H1.5V17.5ZM1.5 13.5V12.5H0.5V13.5H1.5ZM2.83333 13.5V14.5H3.83333V13.5H2.83333ZM2.83333 12.1667V11.1667H1.83333V12.1667H2.83333ZM4.16667 12.1667V13.1667H5.16667V12.1667H4.16667ZM14.8333 13.5V12.5H13.8333V13.5H14.8333ZM16.1667 13.5H17.1667V12.5H16.1667V13.5ZM14.8333 14.8333V15.8333H15.8333V14.8333H14.8333ZM13.5 14.8333V13.8333H12.5V14.8333H13.5ZM13.5 16.1667H12.5V17.1667H13.5V16.1667ZM14.8333 16.1667H15.8333V15.1667H14.8333V16.1667ZM14.8333 17.5H13.8333V18.5H14.8333V17.5ZM16.1667 17.5V18.5H17.1667V17.5H16.1667ZM16.1667 16.1667V15.1667H15.1667V16.1667H16.1667ZM17.5 16.1667V17.1667H18.5V16.1667H17.5ZM17.5 14.8333H18.5V13.8333H17.5V14.8333ZM16.1667 14.8333H15.1667V15.8333H16.1667V14.8333ZM8.16667 2.5H10.8333V0.5H8.16667V2.5ZM9.16667 2.83333V1.5H7.16667V2.83333H9.16667ZM6.83333 3.83333H8.16667V1.83333H6.83333V3.83333ZM7.83333 4.16667V2.83333H5.83333V4.16667H7.83333ZM5.5 5.16667H6.83333V3.16667H5.5V5.16667ZM6.5 6.83333V4.16667H4.5V6.83333H6.5ZM6.83333 5.83333H5.5V7.83333H6.83333V5.83333ZM7.83333 8.16667V6.83333H5.83333V8.16667H7.83333ZM8.16667 7.16667H6.83333V9.16667H8.16667V7.16667ZM9.16667 9.5V8.16667H7.16667V9.5H9.16667ZM10.8333 8.5H8.16667V10.5H10.8333V8.5ZM9.83333 8.16667V9.5H11.8333V8.16667H9.83333ZM12.1667 7.16667H10.8333V9.16667H12.1667V7.16667ZM11.1667 6.83333V8.16667H13.1667V6.83333H11.1667ZM13.5 5.83333H12.1667V7.83333H13.5V5.83333ZM12.5 4.16667V6.83333H14.5V4.16667H12.5ZM12.1667 5.16667H13.5V3.16667H12.1667V5.16667ZM11.1667 2.83333V4.16667H13.1667V2.83333H11.1667ZM10.8333 3.83333H12.1667V1.83333H10.8333V3.83333ZM9.83333 1.5V2.83333H11.8333V1.5H9.83333ZM13.5 9.83333H4.16667V11.8333H13.5V9.83333ZM14.5 13.5V10.8333H12.5V13.5H14.5ZM12.1667 14.5H13.5V12.5H12.1667V14.5ZM13.1667 17.5V13.5H11.1667V17.5H13.1667ZM5.5 18.5H12.1667V16.5H5.5V18.5ZM4.16667 18.5H5.5V16.5H4.16667V18.5ZM2.83333 18.5H4.16667V16.5H2.83333V18.5ZM1.5 18.5H2.83333V16.5H1.5V18.5ZM0.5 13.5V17.5H2.5V13.5H0.5ZM2.83333 12.5H1.5V14.5H2.83333V12.5ZM1.83333 12.1667V13.5H3.83333V12.1667H1.83333ZM4.16667 11.1667H2.83333V13.1667H4.16667V11.1667ZM3.16667 10.8333V12.1667H5.16667V10.8333H3.16667ZM14.8333 14.5H16.1667V12.5H14.8333V14.5ZM15.8333 14.8333V13.5H13.8333V14.8333H15.8333ZM13.5 15.8333H14.8333V13.8333H13.5V15.8333ZM14.5 16.1667V14.8333H12.5V16.1667H14.5ZM14.8333 15.1667H13.5V17.1667H14.8333V15.1667ZM15.8333 17.5V16.1667H13.8333V17.5H15.8333ZM16.1667 16.5H14.8333V18.5H16.1667V16.5ZM15.1667 16.1667V17.5H17.1667V16.1667H15.1667ZM17.5 15.1667H16.1667V17.1667H17.5V15.1667ZM16.5 14.8333V16.1667H18.5V14.8333H16.5ZM16.1667 15.8333H17.5V13.8333H16.1667V15.8333ZM15.1667 13.5V14.8333H17.1667V13.5H15.1667Z" fill="#6B4700" mask="url(#path-1-outside-1_1_673)"/>
</svg>
