<svg width="36" height="45" viewBox="0 0 36 45" fill="none" xmlns="http://www.w3.org/2000/svg">
<g filter="url(#filter0_d_1_785)">
<path d="M2.5 6.5V5H4H4.5V4.5V3H6H6.5V2.5V1H29.5V2.5V3H30H31.5V4.5V5H32H33.5V6.5V7H34H35.5V30H34H33.5V30.5V32H32H31.5V32.5V34H30H29.5V34.5V36H6.5V34.5V34H6H4.5V32.5V32H4H2.5V30.5V30H2H0.5V7H2H2.5V6.5Z" fill="#F2F0F7" stroke="#F2F0F7"/>
<path fill-rule="evenodd" clip-rule="evenodd" d="M2 30.5H4V32.5H6V34.5H30V32.5H32V30.5H34V32.5V34.5H32V36.5H30V38.5H6V36.5H4V34.5H2V32.5V30.5Z" fill="#BBB2D6"/>
<path fill-rule="evenodd" clip-rule="evenodd" d="M2 26.5H0V34.5H2V36.5H4V38.5H6V40.5H30V38.5H32V36.5H34V34.5H36V26.5H34V34.5H32V36.5H30V38.5H6V36.5H4V34.5H2V26.5Z" fill="#9386BE"/>
<path fill-rule="evenodd" clip-rule="evenodd" d="M6 0.5H30V2.5H6V0.5ZM4 4.5V2.5H6V4.5H4ZM2 6.5H4V4.5H2V6.5ZM2 6.5V26.5H0V6.5H2ZM32 4.5H30V2.5H32V4.5ZM34 6.5H32V4.5H34V6.5ZM34 6.5H36V26.5H34V6.5Z" fill="#B1A7D0"/>
<path fill-rule="evenodd" clip-rule="evenodd" d="M30 2.5H28V4.5H30V6.5H32V8.5H34V6.5H32V4.5H30V2.5ZM4 28.5H2V30.5H4V32.5H6V34.5H8V32.5H6V30.5H4V28.5ZM34 28.5H32V30.5H30V32.5H28V34.5H30V32.5H32V30.5H34V28.5ZM6 2.5H8V4.5H6V2.5ZM4 6.5V4.5H6V6.5H4ZM4 6.5H2V8.5H4V6.5ZM28 6.5H8V8.5H6V28.5H8V30.5H28V28.5H30V8.5H28V6.5Z" fill="#D6D1E7"/>
<path fill-rule="evenodd" clip-rule="evenodd" d="M22 10.5H14V12.5H12V16.5H11H10V17.5H11V18.5H12V19.5H13V20.5H15V19.5H16V18.5H17V17.5H18V16.5H17H16V14.5H20V16.5H22V20.5H20V22.5H14V26.5H22V24.5H24V22.5H26V14.5H24V12.5H22V10.5Z" fill="#B1A7D0"/>
</g>
<defs>
<filter id="filter0_d_1_785" x="0" y="0.5" width="36" height="44" filterUnits="userSpaceOnUse" color-interpolation-filters="sRGB">
<feFlood flood-opacity="0" result="BackgroundImageFix"/>
<feColorMatrix in="SourceAlpha" type="matrix" values="0 0 0 0 0 0 0 0 0 0 0 0 0 0 0 0 0 0 127 0" result="hardAlpha"/>
<feOffset dy="4"/>
<feComposite in2="hardAlpha" operator="out"/>
<feColorMatrix type="matrix" values="0 0 0 0 0.627451 0 0 0 0 0.615686 0 0 0 0 0.968627 0 0 0 1 0"/>
<feBlend mode="normal" in2="BackgroundImageFix" result="effect1_dropShadow_1_785"/>
<feBlend mode="normal" in="SourceGraphic" in2="effect1_dropShadow_1_785" result="shape"/>
</filter>
</defs>
</svg>
