<svg width="308" height="100" viewBox="0 0 308 100" fill="none" xmlns="http://www.w3.org/2000/svg">
<g filter="url(#filter0_d_10_3051)">
<mask id="path-1-outside-1_10_3051" maskUnits="userSpaceOnUse" x="0.330078" y="0" width="308" height="96" fill="black">
<rect fill="white" x="0.330078" width="308" height="96"/>
<path d="M8.33008 1H1.33008V22.5H8.33008V1Z"/>
<path d="M10.8501 1H17.8501V4.5H21.3501V8H24.8501V1H31.8501V22.5H24.8501V19H21.3501V15.5H17.8501V22.5H10.8501V1Z"/>
<path d="M41.3701 1H34.3701V12H37.8701V19H41.3701V22.5H48.3701V19H51.8701V12H55.3701V1H48.3701V8H41.3701V1Z"/>
<path d="M57.8901 1H64.8901V22.5H57.8901V1Z"/>
<path d="M81.4102 1H67.4102V8.5H70.9102V22.5H77.9102V8.5H81.4102V1Z"/>
<path d="M97.9302 1H83.9302V22.5H97.9302V1Z"/>
<path d="M259.63 1H249.13V4.5H245.63V22.5H252.63V15.5H256.13V22.5H263.13V4.5H259.63V1Z"/>
<path d="M265.65 1H272.65V4.5H276.15V8H279.65V1H286.65V22.5H279.65V19H276.15V15.5H272.65V22.5H265.65V1Z"/>
<path fill-rule="evenodd" clip-rule="evenodd" d="M289.17 1H303.17V4.5H306.67V19H303.17V22.5H289.17V1ZM299.53 15H296.17V8.5H299.53V15Z"/>
<path d="M50.3999 37H64.3999V58.5H50.3999V37Z"/>
<path d="M80.9199 37H70.4199V40.5H66.9199V58.5H73.9199V51.5H77.4199V58.5H84.4199V40.5H80.9199V37Z"/>
<path d="M100.94 37H86.9399V58.5H93.9399V55H97.4399V58.5H104.44V51H100.94V48H104.44V40.5H100.94V37Z"/>
<path d="M106.96 37H113.96V40.5H117.46V44H120.96V37H127.96V58.5H120.96V55H117.46V51.5H113.96V58.5H106.96V37Z"/>
<path d="M140 37H154V40.5H157.5V48H154V51H157.5V58.5H150.5V55H147V58.5H140V37Z"/>
<path d="M160.02 37H174.02V58.5H160.02V37Z"/>
<path d="M183.54 37H176.54V55H180.04V58.5H194.04V55H197.54V37H190.54V40.5H183.54V37Z"/>
<path d="M203.56 37H214.06V40.5H217.56V58.5H210.56V51.5H207.06V58.5H200.06V40.5H203.56V37Z"/>
<path d="M220.08 37H234.08V40.5H237.58V48H234.08V51H237.58V58.5H230.58V55H227.08V58.5H220.08V37Z"/>
<path fill-rule="evenodd" clip-rule="evenodd" d="M254.1 37H240.1V58.5H254.1V55H257.6V40.5H254.1V37ZM247.1 51H250.46V44.5H247.1V51Z"/>
<path d="M96.1802 73H82.1802V80.5H85.6802V94.5H92.6802V80.5H96.1802V73Z"/>
<path fill-rule="evenodd" clip-rule="evenodd" d="M102.2 73H112.7V76.5H116.2V91H112.7V94.5H102.2V91H98.7002V76.5H102.2V73ZM109.2 86.8601H105.7V80.64H109.2V86.8601Z"/>
<path fill-rule="evenodd" clip-rule="evenodd" d="M136.22 73H122.22V76.5H118.72V91H122.22V94.5H132.72V91H136.22V73ZM129.22 80.5H125.72V87H129.22V80.5Z"/>
<path d="M138.74 73H152.74V94.5H138.74V73Z"/>
<path d="M169.26 73H155.26V80.5H158.76V94.5H165.76V80.5H169.26V73Z"/>
<path d="M171.78 73H178.78V80H182.28V73H189.28V94.5H182.28V87.5H178.78V94.5H171.78V73Z"/>
<path d="M205.8 73H191.8V94.5H205.8V73Z"/>
<path d="M208.32 73H222.32V76.5H225.82V84H222.32V87H225.82V94.5H218.82V91H215.32V94.5H208.32V73Z"/>
<path d="M123.97 1H109.97V22.5H116.97V15.5H123.97V1Z"/>
<path d="M126.49 1H140.49V4.5H143.99V12H140.49V15H143.99V22.5H136.99V19H133.49V22.5H126.49V1Z"/>
<path d="M146.51 1H153.51V22.5H146.51V1Z"/>
<path d="M170.03 1H156.03V22.5H170.03V1Z"/>
<path d="M172.55 1H179.55V4.5H183.05V8H186.55V1H193.55V22.5H186.55V19H183.05V15.5H179.55V22.5H172.55V1Z"/>
<path fill-rule="evenodd" clip-rule="evenodd" d="M210.07 1H196.07V22.5H210.07V19H213.57V4.5H210.07V1ZM203.07 15H206.43V8.5H203.07V15Z"/>
<path d="M233.59 1H219.59V4.5H216.09V12H219.59V15H216.09V22.5H230.09V19H233.59V11.5H230.09V8.5H233.59V1Z"/>
</mask>
<path d="M8.33008 1H1.33008V22.5H8.33008V1Z" fill="#8172B4"/>
<path d="M10.8501 1H17.8501V4.5H21.3501V8H24.8501V1H31.8501V22.5H24.8501V19H21.3501V15.5H17.8501V22.5H10.8501V1Z" fill="#8172B4"/>
<path d="M41.3701 1H34.3701V12H37.8701V19H41.3701V22.5H48.3701V19H51.8701V12H55.3701V1H48.3701V8H41.3701V1Z" fill="#8172B4"/>
<path d="M57.8901 1H64.8901V22.5H57.8901V1Z" fill="#8172B4"/>
<path d="M81.4102 1H67.4102V8.5H70.9102V22.5H77.9102V8.5H81.4102V1Z" fill="#8172B4"/>
<path d="M97.9302 1H83.9302V22.5H97.9302V1Z" fill="#8172B4"/>
<path d="M259.63 1H249.13V4.5H245.63V22.5H252.63V15.5H256.13V22.5H263.13V4.5H259.63V1Z" fill="#8172B4"/>
<path d="M265.65 1H272.65V4.5H276.15V8H279.65V1H286.65V22.5H279.65V19H276.15V15.5H272.65V22.5H265.65V1Z" fill="#8172B4"/>
<path fill-rule="evenodd" clip-rule="evenodd" d="M289.17 1H303.17V4.5H306.67V19H303.17V22.5H289.17V1ZM299.53 15H296.17V8.5H299.53V15Z" fill="#8172B4"/>
<path d="M50.3999 37H64.3999V58.5H50.3999V37Z" fill="#8172B4"/>
<path d="M80.9199 37H70.4199V40.5H66.9199V58.5H73.9199V51.5H77.4199V58.5H84.4199V40.5H80.9199V37Z" fill="#8172B4"/>
<path d="M100.94 37H86.9399V58.5H93.9399V55H97.4399V58.5H104.44V51H100.94V48H104.44V40.5H100.94V37Z" fill="#8172B4"/>
<path d="M106.96 37H113.96V40.5H117.46V44H120.96V37H127.96V58.5H120.96V55H117.46V51.5H113.96V58.5H106.96V37Z" fill="#8172B4"/>
<path d="M140 37H154V40.5H157.5V48H154V51H157.5V58.5H150.5V55H147V58.5H140V37Z" fill="#8172B4"/>
<path d="M160.02 37H174.02V58.5H160.02V37Z" fill="#8172B4"/>
<path d="M183.54 37H176.54V55H180.04V58.5H194.04V55H197.54V37H190.54V40.5H183.54V37Z" fill="#8172B4"/>
<path d="M203.56 37H214.06V40.5H217.56V58.5H210.56V51.5H207.06V58.5H200.06V40.5H203.56V37Z" fill="#8172B4"/>
<path d="M220.08 37H234.08V40.5H237.58V48H234.08V51H237.58V58.5H230.58V55H227.08V58.5H220.08V37Z" fill="#8172B4"/>
<path fill-rule="evenodd" clip-rule="evenodd" d="M254.1 37H240.1V58.5H254.1V55H257.6V40.5H254.1V37ZM247.1 51H250.46V44.5H247.1V51Z" fill="#8172B4"/>
<path d="M96.1802 73H82.1802V80.5H85.6802V94.5H92.6802V80.5H96.1802V73Z" fill="#8172B4"/>
<path fill-rule="evenodd" clip-rule="evenodd" d="M102.2 73H112.7V76.5H116.2V91H112.7V94.5H102.2V91H98.7002V76.5H102.2V73ZM109.2 86.8601H105.7V80.64H109.2V86.8601Z" fill="#8172B4"/>
<path fill-rule="evenodd" clip-rule="evenodd" d="M136.22 73H122.22V76.5H118.72V91H122.22V94.5H132.72V91H136.22V73ZM129.22 80.5H125.72V87H129.22V80.5Z" fill="#8172B4"/>
<path d="M138.74 73H152.74V94.5H138.74V73Z" fill="#8172B4"/>
<path d="M169.26 73H155.26V80.5H158.76V94.5H165.76V80.5H169.26V73Z" fill="#8172B4"/>
<path d="M171.78 73H178.78V80H182.28V73H189.28V94.5H182.28V87.5H178.78V94.5H171.78V73Z" fill="#8172B4"/>
<path d="M205.8 73H191.8V94.5H205.8V73Z" fill="#8172B4"/>
<path d="M208.32 73H222.32V76.5H225.82V84H222.32V87H225.82V94.5H218.82V91H215.32V94.5H208.32V73Z" fill="#8172B4"/>
<path d="M123.97 1H109.97V22.5H116.97V15.5H123.97V1Z" fill="#8172B4"/>
<path d="M126.49 1H140.49V4.5H143.99V12H140.49V15H143.99V22.5H136.99V19H133.49V22.5H126.49V1Z" fill="#8172B4"/>
<path d="M146.51 1H153.51V22.5H146.51V1Z" fill="#8172B4"/>
<path d="M170.03 1H156.03V22.5H170.03V1Z" fill="#8172B4"/>
<path d="M172.55 1H179.55V4.5H183.05V8H186.55V1H193.55V22.5H186.55V19H183.05V15.5H179.55V22.5H172.55V1Z" fill="#8172B4"/>
<path fill-rule="evenodd" clip-rule="evenodd" d="M210.07 1H196.07V22.5H210.07V19H213.57V4.5H210.07V1ZM203.07 15H206.43V8.5H203.07V15Z" fill="#8172B4"/>
<path d="M233.59 1H219.59V4.5H216.09V12H219.59V15H216.09V22.5H230.09V19H233.59V11.5H230.09V8.5H233.59V1Z" fill="#8172B4"/>
<path d="M8.33008 1H1.33008V22.5H8.33008V1Z" stroke="#5C489D" stroke-width="2" mask="url(#path-1-outside-1_10_3051)"/>
<path d="M10.8501 1H17.8501V4.5H21.3501V8H24.8501V1H31.8501V22.5H24.8501V19H21.3501V15.5H17.8501V22.5H10.8501V1Z" stroke="#5C489D" stroke-width="2" mask="url(#path-1-outside-1_10_3051)"/>
<path d="M41.3701 1H34.3701V12H37.8701V19H41.3701V22.5H48.3701V19H51.8701V12H55.3701V1H48.3701V8H41.3701V1Z" stroke="#5C489D" stroke-width="2" mask="url(#path-1-outside-1_10_3051)"/>
<path d="M57.8901 1H64.8901V22.5H57.8901V1Z" stroke="#5C489D" stroke-width="2" mask="url(#path-1-outside-1_10_3051)"/>
<path d="M81.4102 1H67.4102V8.5H70.9102V22.5H77.9102V8.5H81.4102V1Z" stroke="#5C489D" stroke-width="2" mask="url(#path-1-outside-1_10_3051)"/>
<path d="M97.9302 1H83.9302V22.5H97.9302V1Z" stroke="#5C489D" stroke-width="2" mask="url(#path-1-outside-1_10_3051)"/>
<path d="M259.63 1H249.13V4.5H245.63V22.5H252.63V15.5H256.13V22.5H263.13V4.5H259.63V1Z" stroke="#5C489D" stroke-width="2" mask="url(#path-1-outside-1_10_3051)"/>
<path d="M265.65 1H272.65V4.5H276.15V8H279.65V1H286.65V22.5H279.65V19H276.15V15.5H272.65V22.5H265.65V1Z" stroke="#5C489D" stroke-width="2" mask="url(#path-1-outside-1_10_3051)"/>
<path fill-rule="evenodd" clip-rule="evenodd" d="M289.17 1H303.17V4.5H306.67V19H303.17V22.5H289.17V1ZM299.53 15H296.17V8.5H299.53V15Z" stroke="#5C489D" stroke-width="2" mask="url(#path-1-outside-1_10_3051)"/>
<path d="M50.3999 37H64.3999V58.5H50.3999V37Z" stroke="#5C489D" stroke-width="2" mask="url(#path-1-outside-1_10_3051)"/>
<path d="M80.9199 37H70.4199V40.5H66.9199V58.5H73.9199V51.5H77.4199V58.5H84.4199V40.5H80.9199V37Z" stroke="#5C489D" stroke-width="2" mask="url(#path-1-outside-1_10_3051)"/>
<path d="M100.94 37H86.9399V58.5H93.9399V55H97.4399V58.5H104.44V51H100.94V48H104.44V40.5H100.94V37Z" stroke="#5C489D" stroke-width="2" mask="url(#path-1-outside-1_10_3051)"/>
<path d="M106.96 37H113.96V40.5H117.46V44H120.96V37H127.96V58.5H120.96V55H117.46V51.5H113.96V58.5H106.96V37Z" stroke="#5C489D" stroke-width="2" mask="url(#path-1-outside-1_10_3051)"/>
<path d="M140 37H154V40.5H157.5V48H154V51H157.5V58.5H150.5V55H147V58.5H140V37Z" stroke="#5C489D" stroke-width="2" mask="url(#path-1-outside-1_10_3051)"/>
<path d="M160.02 37H174.02V58.5H160.02V37Z" stroke="#5C489D" stroke-width="2" mask="url(#path-1-outside-1_10_3051)"/>
<path d="M183.54 37H176.54V55H180.04V58.5H194.04V55H197.54V37H190.54V40.5H183.54V37Z" stroke="#5C489D" stroke-width="2" mask="url(#path-1-outside-1_10_3051)"/>
<path d="M203.56 37H214.06V40.5H217.56V58.5H210.56V51.5H207.06V58.5H200.06V40.5H203.56V37Z" stroke="#5C489D" stroke-width="2" mask="url(#path-1-outside-1_10_3051)"/>
<path d="M220.08 37H234.08V40.5H237.58V48H234.08V51H237.58V58.5H230.58V55H227.08V58.5H220.08V37Z" stroke="#5C489D" stroke-width="2" mask="url(#path-1-outside-1_10_3051)"/>
<path fill-rule="evenodd" clip-rule="evenodd" d="M254.1 37H240.1V58.5H254.1V55H257.6V40.5H254.1V37ZM247.1 51H250.46V44.5H247.1V51Z" stroke="#5C489D" stroke-width="2" mask="url(#path-1-outside-1_10_3051)"/>
<path d="M96.1802 73H82.1802V80.5H85.6802V94.5H92.6802V80.5H96.1802V73Z" stroke="#5C489D" stroke-width="2" mask="url(#path-1-outside-1_10_3051)"/>
<path fill-rule="evenodd" clip-rule="evenodd" d="M102.2 73H112.7V76.5H116.2V91H112.7V94.5H102.2V91H98.7002V76.5H102.2V73ZM109.2 86.8601H105.7V80.64H109.2V86.8601Z" stroke="#5C489D" stroke-width="2" mask="url(#path-1-outside-1_10_3051)"/>
<path fill-rule="evenodd" clip-rule="evenodd" d="M136.22 73H122.22V76.5H118.72V91H122.22V94.5H132.72V91H136.22V73ZM129.22 80.5H125.72V87H129.22V80.5Z" stroke="#5C489D" stroke-width="2" mask="url(#path-1-outside-1_10_3051)"/>
<path d="M138.74 73H152.74V94.5H138.74V73Z" stroke="#5C489D" stroke-width="2" mask="url(#path-1-outside-1_10_3051)"/>
<path d="M169.26 73H155.26V80.5H158.76V94.5H165.76V80.5H169.26V73Z" stroke="#5C489D" stroke-width="2" mask="url(#path-1-outside-1_10_3051)"/>
<path d="M171.78 73H178.78V80H182.28V73H189.28V94.5H182.28V87.5H178.78V94.5H171.78V73Z" stroke="#5C489D" stroke-width="2" mask="url(#path-1-outside-1_10_3051)"/>
<path d="M205.8 73H191.8V94.5H205.8V73Z" stroke="#5C489D" stroke-width="2" mask="url(#path-1-outside-1_10_3051)"/>
<path d="M208.32 73H222.32V76.5H225.82V84H222.32V87H225.82V94.5H218.82V91H215.32V94.5H208.32V73Z" stroke="#5C489D" stroke-width="2" mask="url(#path-1-outside-1_10_3051)"/>
<path d="M123.97 1H109.97V22.5H116.97V15.5H123.97V1Z" stroke="#5C489D" stroke-width="2" mask="url(#path-1-outside-1_10_3051)"/>
<path d="M126.49 1H140.49V4.5H143.99V12H140.49V15H143.99V22.5H136.99V19H133.49V22.5H126.49V1Z" stroke="#5C489D" stroke-width="2" mask="url(#path-1-outside-1_10_3051)"/>
<path d="M146.51 1H153.51V22.5H146.51V1Z" stroke="#5C489D" stroke-width="2" mask="url(#path-1-outside-1_10_3051)"/>
<path d="M170.03 1H156.03V22.5H170.03V1Z" stroke="#5C489D" stroke-width="2" mask="url(#path-1-outside-1_10_3051)"/>
<path d="M172.55 1H179.55V4.5H183.05V8H186.55V1H193.55V22.5H186.55V19H183.05V15.5H179.55V22.5H172.55V1Z" stroke="#5C489D" stroke-width="2" mask="url(#path-1-outside-1_10_3051)"/>
<path fill-rule="evenodd" clip-rule="evenodd" d="M210.07 1H196.07V22.5H210.07V19H213.57V4.5H210.07V1ZM203.07 15H206.43V8.5H203.07V15Z" stroke="#5C489D" stroke-width="2" mask="url(#path-1-outside-1_10_3051)"/>
<path d="M233.59 1H219.59V4.5H216.09V12H219.59V15H216.09V22.5H230.09V19H233.59V11.5H230.09V8.5H233.59V1Z" stroke="#5C489D" stroke-width="2" mask="url(#path-1-outside-1_10_3051)"/>
<mask id="path-2-outside-2_10_3051" maskUnits="userSpaceOnUse" x="0.330078" y="0" width="308" height="92" fill="black">
<rect fill="white" x="0.330078" width="308" height="92"/>
<path d="M1.33008 1V18.5H8.33008V1H1.33008Z"/>
<path d="M10.8501 18.5V1H17.8501V4.5H21.3501V8H24.8501V1H31.8501V18.5H24.8501V15H21.3501V11.5H17.8501V18.5H10.8501Z"/>
<path d="M41.3701 15V18.5H48.3701V15H51.8701V8H55.3701V1H48.3701V8H41.3701V1H34.3701V8H37.8701V15H41.3701Z"/>
<path fill-rule="evenodd" clip-rule="evenodd" d="M289.17 18.5V1H303.17V4.5H306.67V15H303.17V18.5H289.17ZM296.17 15H299.53V4.5H296.17V15Z"/>
<path d="M50.3999 37V54.5H64.3999V51H57.3999V47.5H64.3999V44H57.3999V40.5H64.3999V37H50.3999Z"/>
<path fill-rule="evenodd" clip-rule="evenodd" d="M77.4199 47.5H73.9199V54.5H66.9199V40.5H70.4199V37H80.9199V40.5H84.4199V54.5H77.4199V47.5ZM73.9199 44H77.4199V40.64H73.9199V44Z"/>
<path fill-rule="evenodd" clip-rule="evenodd" d="M240.1 54.5V37H254.1V40.5H257.6V51H254.1V54.5H240.1ZM247.1 51H250.46V40.5H247.1V51Z"/>
<path d="M85.6802 76.5V90.5H92.6802V76.5H96.1802V73H82.1802V76.5H85.6802Z"/>
<path fill-rule="evenodd" clip-rule="evenodd" d="M102.2 90.5V87H98.7002V76.5H102.2V73H112.7V76.5H116.2V87H112.7V90.5H102.2ZM105.7 86.86H109.2V76.64H105.7V86.86Z"/>
<path d="M122.22 87V90.5H132.72V87H136.22V80H129.22V87H125.72V76.5H136.22V73H122.22V76.5H118.72V87H122.22Z"/>
<path d="M138.74 90.5V73H152.74V76.5H145.74V80H152.74V83.5H145.74V87H152.74V90.5H138.74Z"/>
<path d="M158.76 90.5H165.76V76.5H169.26V73H155.26V76.5H158.76V90.5Z"/>
<path d="M171.78 90.5V73H178.78V80H182.28V73H189.28V90.5H182.28V83.5H178.78V90.5H171.78Z"/>
<path d="M191.8 73V90.5H205.8V87H198.8V83.5H205.8V80H198.8V76.5H205.8V73H191.8Z"/>
<path fill-rule="evenodd" clip-rule="evenodd" d="M208.32 73V90.5H215.32V87H218.82V90.5H225.82V87H222.32V80H225.82V76.5H222.32V73H208.32ZM218.82 80H215.32V76.5H218.82V80Z"/>
<path fill-rule="evenodd" clip-rule="evenodd" d="M220.08 37V54.5H227.08V51H230.58V54.5H237.58V51H234.08V44H237.58V40.5H234.08V37H220.08ZM230.58 44H227.08V40.5H230.58V44Z"/>
<path fill-rule="evenodd" clip-rule="evenodd" d="M200.06 54.5V40.5H203.56V37H214.06V40.5H217.56V54.5H210.56V47.5H207.06V54.5H200.06ZM207.06 44H210.56V40.64H207.06V44Z"/>
<path d="M180.04 51V54.5H194.04V51H197.54V37H190.54V40.5H183.54V37H176.54V51H180.04Z"/>
<path d="M160.02 54.5V37H174.02V40.5H167.02V44H174.02V47.5H167.02V51H174.02V54.5H160.02Z"/>
<path fill-rule="evenodd" clip-rule="evenodd" d="M140 37V54.5H147V51H150.5V54.5H157.5V51H154V44H157.5V40.5H154V37H140ZM150.5 44H147V40.5H150.5V44Z"/>
<path d="M106.96 54.5V37H113.96V40.5H117.46V44H120.96V37H127.96V54.5H120.96V51H117.46V47.5H113.96V54.5H106.96Z"/>
<path fill-rule="evenodd" clip-rule="evenodd" d="M86.9399 37V54.5H93.9399V51H97.4399V54.5H104.44V51H100.94V44H104.44V40.5H100.94V37H86.9399ZM97.4399 44H93.9399V40.5H97.4399V44Z"/>
<path d="M265.65 1V18.5H272.65V11.5H276.15V15H279.65V18.5H286.65V1H279.65V8H276.15V4.5H272.65V1H265.65Z"/>
<path fill-rule="evenodd" clip-rule="evenodd" d="M245.63 18.5V4.5H249.13V1H259.63V4.5H263.13V18.5H256.13V11.5H252.63V18.5H245.63ZM252.63 8H256.13V4.64H252.63V8Z"/>
<path d="M216.09 15V18.5H230.09V15H233.59V11.5H230.09V8H223.09V4.5H233.59V1H219.59V4.5H216.09V8H219.59V11.5H226.59V15H216.09Z"/>
<path fill-rule="evenodd" clip-rule="evenodd" d="M196.07 18.5V1H210.07V4.5H213.57V15H210.07V18.5H196.07ZM203.07 15H206.43V4.5H203.07V15Z"/>
<path d="M172.55 1V18.5H179.55V11.5H183.05V15H186.55V18.5H193.55V1H186.55V8H183.05V4.5H179.55V1H172.55Z"/>
<path d="M156.03 18.5V1H170.03V4.5H163.03V8H170.03V11.5H163.03V15H170.03V18.5H156.03Z"/>
<path d="M146.51 1V18.5H153.51V1H146.51Z"/>
<path fill-rule="evenodd" clip-rule="evenodd" d="M126.49 18.5V1H140.49V4.5H143.99V8H140.49V15H143.99V18.5H136.99V15H133.49V18.5H126.49ZM133.49 8H136.99V4.5H133.49V8Z"/>
<path d="M109.97 1V18.5H116.97V11.5H123.97V8H116.97V4.5H123.97V1H109.97Z"/>
<path d="M83.9302 18.5V1H97.9302V4.5H90.9302V8H97.9302V11.5H90.9302V15H97.9302V18.5H83.9302Z"/>
<path d="M70.9102 4.5V18.5H77.9102V4.5H81.4102V1H67.4102V4.5H70.9102Z"/>
<path d="M57.8901 18.5V1H64.8901V18.5H57.8901Z"/>
</mask>
<path d="M1.33008 1V18.5H8.33008V1H1.33008Z" fill="white"/>
<path d="M10.8501 18.5V1H17.8501V4.5H21.3501V8H24.8501V1H31.8501V18.5H24.8501V15H21.3501V11.5H17.8501V18.5H10.8501Z" fill="white"/>
<path d="M41.3701 15V18.5H48.3701V15H51.8701V8H55.3701V1H48.3701V8H41.3701V1H34.3701V8H37.8701V15H41.3701Z" fill="white"/>
<path fill-rule="evenodd" clip-rule="evenodd" d="M289.17 18.5V1H303.17V4.5H306.67V15H303.17V18.5H289.17ZM296.17 15H299.53V4.5H296.17V15Z" fill="white"/>
<path d="M50.3999 37V54.5H64.3999V51H57.3999V47.5H64.3999V44H57.3999V40.5H64.3999V37H50.3999Z" fill="white"/>
<path fill-rule="evenodd" clip-rule="evenodd" d="M77.4199 47.5H73.9199V54.5H66.9199V40.5H70.4199V37H80.9199V40.5H84.4199V54.5H77.4199V47.5ZM73.9199 44H77.4199V40.64H73.9199V44Z" fill="white"/>
<path fill-rule="evenodd" clip-rule="evenodd" d="M240.1 54.5V37H254.1V40.5H257.6V51H254.1V54.5H240.1ZM247.1 51H250.46V40.5H247.1V51Z" fill="white"/>
<path d="M85.6802 76.5V90.5H92.6802V76.5H96.1802V73H82.1802V76.5H85.6802Z" fill="white"/>
<path fill-rule="evenodd" clip-rule="evenodd" d="M102.2 90.5V87H98.7002V76.5H102.2V73H112.7V76.5H116.2V87H112.7V90.5H102.2ZM105.7 86.86H109.2V76.64H105.7V86.86Z" fill="white"/>
<path d="M122.22 87V90.5H132.72V87H136.22V80H129.22V87H125.72V76.5H136.22V73H122.22V76.5H118.72V87H122.22Z" fill="white"/>
<path d="M138.74 90.5V73H152.74V76.5H145.74V80H152.74V83.5H145.74V87H152.74V90.5H138.74Z" fill="white"/>
<path d="M158.76 90.5H165.76V76.5H169.26V73H155.26V76.5H158.76V90.5Z" fill="white"/>
<path d="M171.78 90.5V73H178.78V80H182.28V73H189.28V90.5H182.28V83.5H178.78V90.5H171.78Z" fill="white"/>
<path d="M191.8 73V90.5H205.8V87H198.8V83.5H205.8V80H198.8V76.5H205.8V73H191.8Z" fill="white"/>
<path fill-rule="evenodd" clip-rule="evenodd" d="M208.32 73V90.5H215.32V87H218.82V90.5H225.82V87H222.32V80H225.82V76.5H222.32V73H208.32ZM218.82 80H215.32V76.5H218.82V80Z" fill="white"/>
<path fill-rule="evenodd" clip-rule="evenodd" d="M220.08 37V54.5H227.08V51H230.58V54.5H237.58V51H234.08V44H237.58V40.5H234.08V37H220.08ZM230.58 44H227.08V40.5H230.58V44Z" fill="white"/>
<path fill-rule="evenodd" clip-rule="evenodd" d="M200.06 54.5V40.5H203.56V37H214.06V40.5H217.56V54.5H210.56V47.5H207.06V54.5H200.06ZM207.06 44H210.56V40.64H207.06V44Z" fill="white"/>
<path d="M180.04 51V54.5H194.04V51H197.54V37H190.54V40.5H183.54V37H176.54V51H180.04Z" fill="white"/>
<path d="M160.02 54.5V37H174.02V40.5H167.02V44H174.02V47.5H167.02V51H174.02V54.5H160.02Z" fill="white"/>
<path fill-rule="evenodd" clip-rule="evenodd" d="M140 37V54.5H147V51H150.5V54.5H157.5V51H154V44H157.5V40.5H154V37H140ZM150.5 44H147V40.5H150.5V44Z" fill="white"/>
<path d="M106.96 54.5V37H113.96V40.5H117.46V44H120.96V37H127.96V54.5H120.96V51H117.46V47.5H113.96V54.5H106.96Z" fill="white"/>
<path fill-rule="evenodd" clip-rule="evenodd" d="M86.9399 37V54.5H93.9399V51H97.4399V54.5H104.44V51H100.94V44H104.44V40.5H100.94V37H86.9399ZM97.4399 44H93.9399V40.5H97.4399V44Z" fill="white"/>
<path d="M265.65 1V18.5H272.65V11.5H276.15V15H279.65V18.5H286.65V1H279.65V8H276.15V4.5H272.65V1H265.65Z" fill="white"/>
<path fill-rule="evenodd" clip-rule="evenodd" d="M245.63 18.5V4.5H249.13V1H259.63V4.5H263.13V18.5H256.13V11.5H252.63V18.5H245.63ZM252.63 8H256.13V4.64H252.63V8Z" fill="white"/>
<path d="M216.09 15V18.5H230.09V15H233.59V11.5H230.09V8H223.09V4.5H233.59V1H219.59V4.5H216.09V8H219.59V11.5H226.59V15H216.09Z" fill="white"/>
<path fill-rule="evenodd" clip-rule="evenodd" d="M196.07 18.5V1H210.07V4.5H213.57V15H210.07V18.5H196.07ZM203.07 15H206.43V4.5H203.07V15Z" fill="white"/>
<path d="M172.55 1V18.5H179.55V11.5H183.05V15H186.55V18.5H193.55V1H186.55V8H183.05V4.5H179.55V1H172.55Z" fill="white"/>
<path d="M156.03 18.5V1H170.03V4.5H163.03V8H170.03V11.5H163.03V15H170.03V18.5H156.03Z" fill="white"/>
<path d="M146.51 1V18.5H153.51V1H146.51Z" fill="white"/>
<path fill-rule="evenodd" clip-rule="evenodd" d="M126.49 18.5V1H140.49V4.5H143.99V8H140.49V15H143.99V18.5H136.99V15H133.49V18.5H126.49ZM133.49 8H136.99V4.5H133.49V8Z" fill="white"/>
<path d="M109.97 1V18.5H116.97V11.5H123.97V8H116.97V4.5H123.97V1H109.97Z" fill="white"/>
<path d="M83.9302 18.5V1H97.9302V4.5H90.9302V8H97.9302V11.5H90.9302V15H97.9302V18.5H83.9302Z" fill="white"/>
<path d="M70.9102 4.5V18.5H77.9102V4.5H81.4102V1H67.4102V4.5H70.9102Z" fill="white"/>
<path d="M57.8901 18.5V1H64.8901V18.5H57.8901Z" fill="white"/>
<path d="M1.33008 1V18.5H8.33008V1H1.33008Z" stroke="#5C489D" stroke-width="2" mask="url(#path-2-outside-2_10_3051)"/>
<path d="M10.8501 18.5V1H17.8501V4.5H21.3501V8H24.8501V1H31.8501V18.5H24.8501V15H21.3501V11.5H17.8501V18.5H10.8501Z" stroke="#5C489D" stroke-width="2" mask="url(#path-2-outside-2_10_3051)"/>
<path d="M41.3701 15V18.5H48.3701V15H51.8701V8H55.3701V1H48.3701V8H41.3701V1H34.3701V8H37.8701V15H41.3701Z" stroke="#5C489D" stroke-width="2" mask="url(#path-2-outside-2_10_3051)"/>
<path fill-rule="evenodd" clip-rule="evenodd" d="M289.17 18.5V1H303.17V4.5H306.67V15H303.17V18.5H289.17ZM296.17 15H299.53V4.5H296.17V15Z" stroke="#5C489D" stroke-width="2" mask="url(#path-2-outside-2_10_3051)"/>
<path d="M50.3999 37V54.5H64.3999V51H57.3999V47.5H64.3999V44H57.3999V40.5H64.3999V37H50.3999Z" stroke="#5C489D" stroke-width="2" mask="url(#path-2-outside-2_10_3051)"/>
<path fill-rule="evenodd" clip-rule="evenodd" d="M77.4199 47.5H73.9199V54.5H66.9199V40.5H70.4199V37H80.9199V40.5H84.4199V54.5H77.4199V47.5ZM73.9199 44H77.4199V40.64H73.9199V44Z" stroke="#5C489D" stroke-width="2" mask="url(#path-2-outside-2_10_3051)"/>
<path fill-rule="evenodd" clip-rule="evenodd" d="M240.1 54.5V37H254.1V40.5H257.6V51H254.1V54.5H240.1ZM247.1 51H250.46V40.5H247.1V51Z" stroke="#5C489D" stroke-width="2" mask="url(#path-2-outside-2_10_3051)"/>
<path d="M85.6802 76.5V90.5H92.6802V76.5H96.1802V73H82.1802V76.5H85.6802Z" stroke="#5C489D" stroke-width="2" mask="url(#path-2-outside-2_10_3051)"/>
<path fill-rule="evenodd" clip-rule="evenodd" d="M102.2 90.5V87H98.7002V76.5H102.2V73H112.7V76.5H116.2V87H112.7V90.5H102.2ZM105.7 86.86H109.2V76.64H105.7V86.86Z" stroke="#5C489D" stroke-width="2" mask="url(#path-2-outside-2_10_3051)"/>
<path d="M122.22 87V90.5H132.72V87H136.22V80H129.22V87H125.72V76.5H136.22V73H122.22V76.5H118.72V87H122.22Z" stroke="#5C489D" stroke-width="2" mask="url(#path-2-outside-2_10_3051)"/>
<path d="M138.74 90.5V73H152.74V76.5H145.74V80H152.74V83.5H145.74V87H152.74V90.5H138.74Z" stroke="#5C489D" stroke-width="2" mask="url(#path-2-outside-2_10_3051)"/>
<path d="M158.76 90.5H165.76V76.5H169.26V73H155.26V76.5H158.76V90.5Z" stroke="#5C489D" stroke-width="2" mask="url(#path-2-outside-2_10_3051)"/>
<path d="M171.78 90.5V73H178.78V80H182.28V73H189.28V90.5H182.28V83.5H178.78V90.5H171.78Z" stroke="#5C489D" stroke-width="2" mask="url(#path-2-outside-2_10_3051)"/>
<path d="M191.8 73V90.5H205.8V87H198.8V83.5H205.8V80H198.8V76.5H205.8V73H191.8Z" stroke="#5C489D" stroke-width="2" mask="url(#path-2-outside-2_10_3051)"/>
<path fill-rule="evenodd" clip-rule="evenodd" d="M208.32 73V90.5H215.32V87H218.82V90.5H225.82V87H222.32V80H225.82V76.5H222.32V73H208.32ZM218.82 80H215.32V76.5H218.82V80Z" stroke="#5C489D" stroke-width="2" mask="url(#path-2-outside-2_10_3051)"/>
<path fill-rule="evenodd" clip-rule="evenodd" d="M220.08 37V54.5H227.08V51H230.58V54.5H237.58V51H234.08V44H237.58V40.5H234.08V37H220.08ZM230.58 44H227.08V40.5H230.58V44Z" stroke="#5C489D" stroke-width="2" mask="url(#path-2-outside-2_10_3051)"/>
<path fill-rule="evenodd" clip-rule="evenodd" d="M200.06 54.5V40.5H203.56V37H214.06V40.5H217.56V54.5H210.56V47.5H207.06V54.5H200.06ZM207.06 44H210.56V40.64H207.06V44Z" stroke="#5C489D" stroke-width="2" mask="url(#path-2-outside-2_10_3051)"/>
<path d="M180.04 51V54.5H194.04V51H197.54V37H190.54V40.5H183.54V37H176.54V51H180.04Z" stroke="#5C489D" stroke-width="2" mask="url(#path-2-outside-2_10_3051)"/>
<path d="M160.02 54.5V37H174.02V40.5H167.02V44H174.02V47.5H167.02V51H174.02V54.5H160.02Z" stroke="#5C489D" stroke-width="2" mask="url(#path-2-outside-2_10_3051)"/>
<path fill-rule="evenodd" clip-rule="evenodd" d="M140 37V54.5H147V51H150.5V54.5H157.5V51H154V44H157.5V40.5H154V37H140ZM150.5 44H147V40.5H150.5V44Z" stroke="#5C489D" stroke-width="2" mask="url(#path-2-outside-2_10_3051)"/>
<path d="M106.96 54.5V37H113.96V40.5H117.46V44H120.96V37H127.96V54.5H120.96V51H117.46V47.5H113.96V54.5H106.96Z" stroke="#5C489D" stroke-width="2" mask="url(#path-2-outside-2_10_3051)"/>
<path fill-rule="evenodd" clip-rule="evenodd" d="M86.9399 37V54.5H93.9399V51H97.4399V54.5H104.44V51H100.94V44H104.44V40.5H100.94V37H86.9399ZM97.4399 44H93.9399V40.5H97.4399V44Z" stroke="#5C489D" stroke-width="2" mask="url(#path-2-outside-2_10_3051)"/>
<path d="M265.65 1V18.5H272.65V11.5H276.15V15H279.65V18.5H286.65V1H279.65V8H276.15V4.5H272.65V1H265.65Z" stroke="#5C489D" stroke-width="2" mask="url(#path-2-outside-2_10_3051)"/>
<path fill-rule="evenodd" clip-rule="evenodd" d="M245.63 18.5V4.5H249.13V1H259.63V4.5H263.13V18.5H256.13V11.5H252.63V18.5H245.63ZM252.63 8H256.13V4.64H252.63V8Z" stroke="#5C489D" stroke-width="2" mask="url(#path-2-outside-2_10_3051)"/>
<path d="M216.09 15V18.5H230.09V15H233.59V11.5H230.09V8H223.09V4.5H233.59V1H219.59V4.5H216.09V8H219.59V11.5H226.59V15H216.09Z" stroke="#5C489D" stroke-width="2" mask="url(#path-2-outside-2_10_3051)"/>
<path fill-rule="evenodd" clip-rule="evenodd" d="M196.07 18.5V1H210.07V4.5H213.57V15H210.07V18.5H196.07ZM203.07 15H206.43V4.5H203.07V15Z" stroke="#5C489D" stroke-width="2" mask="url(#path-2-outside-2_10_3051)"/>
<path d="M172.55 1V18.5H179.55V11.5H183.05V15H186.55V18.5H193.55V1H186.55V8H183.05V4.5H179.55V1H172.55Z" stroke="#5C489D" stroke-width="2" mask="url(#path-2-outside-2_10_3051)"/>
<path d="M156.03 18.5V1H170.03V4.5H163.03V8H170.03V11.5H163.03V15H170.03V18.5H156.03Z" stroke="#5C489D" stroke-width="2" mask="url(#path-2-outside-2_10_3051)"/>
<path d="M146.51 1V18.5H153.51V1H146.51Z" stroke="#5C489D" stroke-width="2" mask="url(#path-2-outside-2_10_3051)"/>
<path fill-rule="evenodd" clip-rule="evenodd" d="M126.49 18.5V1H140.49V4.5H143.99V8H140.49V15H143.99V18.5H136.99V15H133.49V18.5H126.49ZM133.49 8H136.99V4.5H133.49V8Z" stroke="#5C489D" stroke-width="2" mask="url(#path-2-outside-2_10_3051)"/>
<path d="M109.97 1V18.5H116.97V11.5H123.97V8H116.97V4.5H123.97V1H109.97Z" stroke="#5C489D" stroke-width="2" mask="url(#path-2-outside-2_10_3051)"/>
<path d="M83.9302 18.5V1H97.9302V4.5H90.9302V8H97.9302V11.5H90.9302V15H97.9302V18.5H83.9302Z" stroke="#5C489D" stroke-width="2" mask="url(#path-2-outside-2_10_3051)"/>
<path d="M70.9102 4.5V18.5H77.9102V4.5H81.4102V1H67.4102V4.5H70.9102Z" stroke="#5C489D" stroke-width="2" mask="url(#path-2-outside-2_10_3051)"/>
<path d="M57.8901 18.5V1H64.8901V18.5H57.8901Z" stroke="#5C489D" stroke-width="2" mask="url(#path-2-outside-2_10_3051)"/>
</g>
<defs>
<filter id="filter0_d_10_3051" x="0.330078" y="0" width="307.34" height="99.5" filterUnits="userSpaceOnUse" color-interpolation-filters="sRGB">
<feFlood flood-opacity="0" result="BackgroundImageFix"/>
<feColorMatrix in="SourceAlpha" type="matrix" values="0 0 0 0 0 0 0 0 0 0 0 0 0 0 0 0 0 0 127 0" result="hardAlpha"/>
<feOffset dy="4"/>
<feComposite in2="hardAlpha" operator="out"/>
<feColorMatrix type="matrix" values="0 0 0 0 0.627451 0 0 0 0 0.615686 0 0 0 0 0.968627 0 0 0 1 0"/>
<feBlend mode="normal" in2="BackgroundImageFix" result="effect1_dropShadow_10_3051"/>
<feBlend mode="normal" in="SourceGraphic" in2="effect1_dropShadow_10_3051" result="shape"/>
</filter>
</defs>
</svg>
