<svg xmlns="http://www.w3.org/2000/svg" width="308" height="92" viewBox="0 0 308 92" fill="none">
  <mask id="path-1-outside-1_10_3090" maskUnits="userSpaceOnUse" x="0.330078" y="0" width="308" height="92" fill="black">
    <rect fill="white" x="0.330078" width="308" height="92"/>
    <path d="M1.33008 1V18.5H8.33008V1H1.33008Z"/>
    <path d="M10.8501 18.5V1H17.8501V4.5H21.3501V8H24.8501V1H31.8501V18.5H24.8501V15H21.3501V11.5H17.8501V18.5H10.8501Z"/>
    <path d="M41.3701 15V18.5H48.3701V15H51.8701V8H55.3701V1H48.3701V8H41.3701V1H34.3701V8H37.8701V15H41.3701Z"/>
    <path fill-rule="evenodd" clip-rule="evenodd" d="M289.17 18.5V1H303.17V4.5H306.67V15H303.17V18.5H289.17ZM296.17 15H299.53V4.5H296.17V15Z"/>
    <path d="M50.3999 37V54.5H64.3999V51H57.3999V47.5H64.3999V44H57.3999V40.5H64.3999V37H50.3999Z"/>
    <path fill-rule="evenodd" clip-rule="evenodd" d="M77.4199 47.5H73.9199V54.5H66.9199V40.5H70.4199V37H80.9199V40.5H84.4199V54.5H77.4199V47.5ZM73.9199 44H77.4199V40.64H73.9199V44Z"/>
    <path fill-rule="evenodd" clip-rule="evenodd" d="M240.1 54.5V37H254.1V40.5H257.6V51H254.1V54.5H240.1ZM247.1 51H250.46V40.5H247.1V51Z"/>
    <path d="M85.6802 76.5V90.5H92.6802V76.5H96.1802V73H82.1802V76.5H85.6802Z"/>
    <path fill-rule="evenodd" clip-rule="evenodd" d="M102.2 90.5V87H98.7002V76.5H102.2V73H112.7V76.5H116.2V87H112.7V90.5H102.2ZM105.7 86.86H109.2V76.64H105.7V86.86Z"/>
    <path d="M122.22 87V90.5H132.72V87H136.22V80H129.22V87H125.72V76.5H136.22V73H122.22V76.5H118.72V87H122.22Z"/>
    <path d="M138.74 90.5V73H152.74V76.5H145.74V80H152.74V83.5H145.74V87H152.74V90.5H138.74Z"/>
    <path d="M158.76 90.5H165.76V76.5H169.26V73H155.26V76.5H158.76V90.5Z"/>
    <path d="M171.78 90.5V73H178.78V80H182.28V73H189.28V90.5H182.28V83.5H178.78V90.5H171.78Z"/>
    <path d="M191.8 73V90.5H205.8V87H198.8V83.5H205.8V80H198.8V76.5H205.8V73H191.8Z"/>
    <path fill-rule="evenodd" clip-rule="evenodd" d="M208.32 73V90.5H215.32V87H218.82V90.5H225.82V87H222.32V80H225.82V76.5H222.32V73H208.32ZM218.82 80H215.32V76.5H218.82V80Z"/>
    <path fill-rule="evenodd" clip-rule="evenodd" d="M220.08 37V54.5H227.08V51H230.58V54.5H237.58V51H234.08V44H237.58V40.5H234.08V37H220.08ZM230.58 44H227.08V40.5H230.58V44Z"/>
    <path fill-rule="evenodd" clip-rule="evenodd" d="M200.06 54.5V40.5H203.56V37H214.06V40.5H217.56V54.5H210.56V47.5H207.06V54.5H200.06ZM207.06 44H210.56V40.64H207.06V44Z"/>
    <path d="M180.04 51V54.5H194.04V51H197.54V37H190.54V40.5H183.54V37H176.54V51H180.04Z"/>
    <path d="M160.02 54.5V37H174.02V40.5H167.02V44H174.02V47.5H167.02V51H174.02V54.5H160.02Z"/>
    <path fill-rule="evenodd" clip-rule="evenodd" d="M140 37V54.5H147V51H150.5V54.5H157.5V51H154V44H157.5V40.5H154V37H140ZM150.5 44H147V40.5H150.5V44Z"/>
    <path d="M106.96 54.5V37H113.96V40.5H117.46V44H120.96V37H127.96V54.5H120.96V51H117.46V47.5H113.96V54.5H106.96Z"/>
    <path fill-rule="evenodd" clip-rule="evenodd" d="M86.9399 37V54.5H93.9399V51H97.4399V54.5H104.44V51H100.94V44H104.44V40.5H100.94V37H86.9399ZM97.4399 44H93.9399V40.5H97.4399V44Z"/>
    <path d="M265.65 1V18.5H272.65V11.5H276.15V15H279.65V18.5H286.65V1H279.65V8H276.15V4.5H272.65V1H265.65Z"/>
    <path fill-rule="evenodd" clip-rule="evenodd" d="M245.63 18.5V4.5H249.13V1H259.63V4.5H263.13V18.5H256.13V11.5H252.63V18.5H245.63ZM252.63 8H256.13V4.64H252.63V8Z"/>
    <path d="M216.09 15V18.5H230.09V15H233.59V11.5H230.09V8H223.09V4.5H233.59V1H219.59V4.5H216.09V8H219.59V11.5H226.59V15H216.09Z"/>
    <path fill-rule="evenodd" clip-rule="evenodd" d="M196.07 18.5V1H210.07V4.5H213.57V15H210.07V18.5H196.07ZM203.07 15H206.43V4.5H203.07V15Z"/>
    <path d="M172.55 1V18.5H179.55V11.5H183.05V15H186.55V18.5H193.55V1H186.55V8H183.05V4.5H179.55V1H172.55Z"/>
    <path d="M156.03 18.5V1H170.03V4.5H163.03V8H170.03V11.5H163.03V15H170.03V18.5H156.03Z"/>
    <path d="M146.51 1V18.5H153.51V1H146.51Z"/>
    <path fill-rule="evenodd" clip-rule="evenodd" d="M126.49 18.5V1H140.49V4.5H143.99V8H140.49V15H143.99V18.5H136.99V15H133.49V18.5H126.49ZM133.49 8H136.99V4.5H133.49V8Z"/>
    <path d="M109.97 1V18.5H116.97V11.5H123.97V8H116.97V4.5H123.97V1H109.97Z"/>
    <path d="M83.9302 18.5V1H97.9302V4.5H90.9302V8H97.9302V11.5H90.9302V15H97.9302V18.5H83.9302Z"/>
    <path d="M70.9102 4.5V18.5H77.9102V4.5H81.4102V1H67.4102V4.5H70.9102Z"/>
    <path d="M57.8901 18.5V1H64.8901V18.5H57.8901Z"/>
  </mask>
  <path d="M1.33008 1V18.5H8.33008V1H1.33008Z" fill="white"/>
  <path d="M10.8501 18.5V1H17.8501V4.5H21.3501V8H24.8501V1H31.8501V18.5H24.8501V15H21.3501V11.5H17.8501V18.5H10.8501Z" fill="white"/>
  <path d="M41.3701 15V18.5H48.3701V15H51.8701V8H55.3701V1H48.3701V8H41.3701V1H34.3701V8H37.8701V15H41.3701Z" fill="white"/>
  <path fill-rule="evenodd" clip-rule="evenodd" d="M289.17 18.5V1H303.17V4.5H306.67V15H303.17V18.5H289.17ZM296.17 15H299.53V4.5H296.17V15Z" fill="white"/>
  <path d="M50.3999 37V54.5H64.3999V51H57.3999V47.5H64.3999V44H57.3999V40.5H64.3999V37H50.3999Z" fill="white"/>
  <path fill-rule="evenodd" clip-rule="evenodd" d="M77.4199 47.5H73.9199V54.5H66.9199V40.5H70.4199V37H80.9199V40.5H84.4199V54.5H77.4199V47.5ZM73.9199 44H77.4199V40.64H73.9199V44Z" fill="white"/>
  <path fill-rule="evenodd" clip-rule="evenodd" d="M240.1 54.5V37H254.1V40.5H257.6V51H254.1V54.5H240.1ZM247.1 51H250.46V40.5H247.1V51Z" fill="white"/>
  <path d="M85.6802 76.5V90.5H92.6802V76.5H96.1802V73H82.1802V76.5H85.6802Z" fill="white"/>
  <path fill-rule="evenodd" clip-rule="evenodd" d="M102.2 90.5V87H98.7002V76.5H102.2V73H112.7V76.5H116.2V87H112.7V90.5H102.2ZM105.7 86.86H109.2V76.64H105.7V86.86Z" fill="white"/>
  <path d="M122.22 87V90.5H132.72V87H136.22V80H129.22V87H125.72V76.5H136.22V73H122.22V76.5H118.72V87H122.22Z" fill="white"/>
  <path d="M138.74 90.5V73H152.74V76.5H145.74V80H152.74V83.5H145.74V87H152.74V90.5H138.74Z" fill="white"/>
  <path d="M158.76 90.5H165.76V76.5H169.26V73H155.26V76.5H158.76V90.5Z" fill="white"/>
  <path d="M171.78 90.5V73H178.78V80H182.28V73H189.28V90.5H182.28V83.5H178.78V90.5H171.78Z" fill="white"/>
  <path d="M191.8 73V90.5H205.8V87H198.8V83.5H205.8V80H198.8V76.5H205.8V73H191.8Z" fill="white"/>
  <path fill-rule="evenodd" clip-rule="evenodd" d="M208.32 73V90.5H215.32V87H218.82V90.5H225.82V87H222.32V80H225.82V76.5H222.32V73H208.32ZM218.82 80H215.32V76.5H218.82V80Z" fill="white"/>
  <path fill-rule="evenodd" clip-rule="evenodd" d="M220.08 37V54.5H227.08V51H230.58V54.5H237.58V51H234.08V44H237.58V40.5H234.08V37H220.08ZM230.58 44H227.08V40.5H230.58V44Z" fill="white"/>
  <path fill-rule="evenodd" clip-rule="evenodd" d="M200.06 54.5V40.5H203.56V37H214.06V40.5H217.56V54.5H210.56V47.5H207.06V54.5H200.06ZM207.06 44H210.56V40.64H207.06V44Z" fill="white"/>
  <path d="M180.04 51V54.5H194.04V51H197.54V37H190.54V40.5H183.54V37H176.54V51H180.04Z" fill="white"/>
  <path d="M160.02 54.5V37H174.02V40.5H167.02V44H174.02V47.5H167.02V51H174.02V54.5H160.02Z" fill="white"/>
  <path fill-rule="evenodd" clip-rule="evenodd" d="M140 37V54.5H147V51H150.5V54.5H157.5V51H154V44H157.5V40.5H154V37H140ZM150.5 44H147V40.5H150.5V44Z" fill="white"/>
  <path d="M106.96 54.5V37H113.96V40.5H117.46V44H120.96V37H127.96V54.5H120.96V51H117.46V47.5H113.96V54.5H106.96Z" fill="white"/>
  <path fill-rule="evenodd" clip-rule="evenodd" d="M86.9399 37V54.5H93.9399V51H97.4399V54.5H104.44V51H100.94V44H104.44V40.5H100.94V37H86.9399ZM97.4399 44H93.9399V40.5H97.4399V44Z" fill="white"/>
  <path d="M265.65 1V18.5H272.65V11.5H276.15V15H279.65V18.5H286.65V1H279.65V8H276.15V4.5H272.65V1H265.65Z" fill="white"/>
  <path fill-rule="evenodd" clip-rule="evenodd" d="M245.63 18.5V4.5H249.13V1H259.63V4.5H263.13V18.5H256.13V11.5H252.63V18.5H245.63ZM252.63 8H256.13V4.64H252.63V8Z" fill="white"/>
  <path d="M216.09 15V18.5H230.09V15H233.59V11.5H230.09V8H223.09V4.5H233.59V1H219.59V4.5H216.09V8H219.59V11.5H226.59V15H216.09Z" fill="white"/>
  <path fill-rule="evenodd" clip-rule="evenodd" d="M196.07 18.5V1H210.07V4.5H213.57V15H210.07V18.5H196.07ZM203.07 15H206.43V4.5H203.07V15Z" fill="white"/>
  <path d="M172.55 1V18.5H179.55V11.5H183.05V15H186.55V18.5H193.55V1H186.55V8H183.05V4.5H179.55V1H172.55Z" fill="white"/>
  <path d="M156.03 18.5V1H170.03V4.5H163.03V8H170.03V11.5H163.03V15H170.03V18.5H156.03Z" fill="white"/>
  <path d="M146.51 1V18.5H153.51V1H146.51Z" fill="white"/>
  <path fill-rule="evenodd" clip-rule="evenodd" d="M126.49 18.5V1H140.49V4.5H143.99V8H140.49V15H143.99V18.5H136.99V15H133.49V18.5H126.49ZM133.49 8H136.99V4.5H133.49V8Z" fill="white"/>
  <path d="M109.97 1V18.5H116.97V11.5H123.97V8H116.97V4.5H123.97V1H109.97Z" fill="white"/>
  <path d="M83.9302 18.5V1H97.9302V4.5H90.9302V8H97.9302V11.5H90.9302V15H97.9302V18.5H83.9302Z" fill="white"/>
  <path d="M70.9102 4.5V18.5H77.9102V4.5H81.4102V1H67.4102V4.5H70.9102Z" fill="white"/>
  <path d="M57.8901 18.5V1H64.8901V18.5H57.8901Z" fill="white"/>
  <path d="M1.33008 1V18.5H8.33008V1H1.33008Z" stroke="#5C489D" stroke-width="2" mask="url(#path-1-outside-1_10_3090)"/>
  <path d="M10.8501 18.5V1H17.8501V4.5H21.3501V8H24.8501V1H31.8501V18.5H24.8501V15H21.3501V11.5H17.8501V18.5H10.8501Z" stroke="#5C489D" stroke-width="2" mask="url(#path-1-outside-1_10_3090)"/>
  <path d="M41.3701 15V18.5H48.3701V15H51.8701V8H55.3701V1H48.3701V8H41.3701V1H34.3701V8H37.8701V15H41.3701Z" stroke="#5C489D" stroke-width="2" mask="url(#path-1-outside-1_10_3090)"/>
  <path fill-rule="evenodd" clip-rule="evenodd" d="M289.17 18.5V1H303.17V4.5H306.67V15H303.17V18.5H289.17ZM296.17 15H299.53V4.5H296.17V15Z" stroke="#5C489D" stroke-width="2" mask="url(#path-1-outside-1_10_3090)"/>
  <path d="M50.3999 37V54.5H64.3999V51H57.3999V47.5H64.3999V44H57.3999V40.5H64.3999V37H50.3999Z" stroke="#5C489D" stroke-width="2" mask="url(#path-1-outside-1_10_3090)"/>
  <path fill-rule="evenodd" clip-rule="evenodd" d="M77.4199 47.5H73.9199V54.5H66.9199V40.5H70.4199V37H80.9199V40.5H84.4199V54.5H77.4199V47.5ZM73.9199 44H77.4199V40.64H73.9199V44Z" stroke="#5C489D" stroke-width="2" mask="url(#path-1-outside-1_10_3090)"/>
  <path fill-rule="evenodd" clip-rule="evenodd" d="M240.1 54.5V37H254.1V40.5H257.6V51H254.1V54.5H240.1ZM247.1 51H250.46V40.5H247.1V51Z" stroke="#5C489D" stroke-width="2" mask="url(#path-1-outside-1_10_3090)"/>
  <path d="M85.6802 76.5V90.5H92.6802V76.5H96.1802V73H82.1802V76.5H85.6802Z" stroke="#5C489D" stroke-width="2" mask="url(#path-1-outside-1_10_3090)"/>
  <path fill-rule="evenodd" clip-rule="evenodd" d="M102.2 90.5V87H98.7002V76.5H102.2V73H112.7V76.5H116.2V87H112.7V90.5H102.2ZM105.7 86.86H109.2V76.64H105.7V86.86Z" stroke="#5C489D" stroke-width="2" mask="url(#path-1-outside-1_10_3090)"/>
  <path d="M122.22 87V90.5H132.72V87H136.22V80H129.22V87H125.72V76.5H136.22V73H122.22V76.5H118.72V87H122.22Z" stroke="#5C489D" stroke-width="2" mask="url(#path-1-outside-1_10_3090)"/>
  <path d="M138.74 90.5V73H152.74V76.5H145.74V80H152.74V83.5H145.74V87H152.74V90.5H138.74Z" stroke="#5C489D" stroke-width="2" mask="url(#path-1-outside-1_10_3090)"/>
  <path d="M158.76 90.5H165.76V76.5H169.26V73H155.26V76.5H158.76V90.5Z" stroke="#5C489D" stroke-width="2" mask="url(#path-1-outside-1_10_3090)"/>
  <path d="M171.78 90.5V73H178.78V80H182.28V73H189.28V90.5H182.28V83.5H178.78V90.5H171.78Z" stroke="#5C489D" stroke-width="2" mask="url(#path-1-outside-1_10_3090)"/>
  <path d="M191.8 73V90.5H205.8V87H198.8V83.5H205.8V80H198.8V76.5H205.8V73H191.8Z" stroke="#5C489D" stroke-width="2" mask="url(#path-1-outside-1_10_3090)"/>
  <path fill-rule="evenodd" clip-rule="evenodd" d="M208.32 73V90.5H215.32V87H218.82V90.5H225.82V87H222.32V80H225.82V76.5H222.32V73H208.32ZM218.82 80H215.32V76.5H218.82V80Z" stroke="#5C489D" stroke-width="2" mask="url(#path-1-outside-1_10_3090)"/>
  <path fill-rule="evenodd" clip-rule="evenodd" d="M220.08 37V54.5H227.08V51H230.58V54.5H237.58V51H234.08V44H237.58V40.5H234.08V37H220.08ZM230.58 44H227.08V40.5H230.58V44Z" stroke="#5C489D" stroke-width="2" mask="url(#path-1-outside-1_10_3090)"/>
  <path fill-rule="evenodd" clip-rule="evenodd" d="M200.06 54.5V40.5H203.56V37H214.06V40.5H217.56V54.5H210.56V47.5H207.06V54.5H200.06ZM207.06 44H210.56V40.64H207.06V44Z" stroke="#5C489D" stroke-width="2" mask="url(#path-1-outside-1_10_3090)"/>
  <path d="M180.04 51V54.5H194.04V51H197.54V37H190.54V40.5H183.54V37H176.54V51H180.04Z" stroke="#5C489D" stroke-width="2" mask="url(#path-1-outside-1_10_3090)"/>
  <path d="M160.02 54.5V37H174.02V40.5H167.02V44H174.02V47.5H167.02V51H174.02V54.5H160.02Z" stroke="#5C489D" stroke-width="2" mask="url(#path-1-outside-1_10_3090)"/>
  <path fill-rule="evenodd" clip-rule="evenodd" d="M140 37V54.5H147V51H150.5V54.5H157.5V51H154V44H157.5V40.5H154V37H140ZM150.5 44H147V40.5H150.5V44Z" stroke="#5C489D" stroke-width="2" mask="url(#path-1-outside-1_10_3090)"/>
  <path d="M106.96 54.5V37H113.96V40.5H117.46V44H120.96V37H127.96V54.5H120.96V51H117.46V47.5H113.96V54.5H106.96Z" stroke="#5C489D" stroke-width="2" mask="url(#path-1-outside-1_10_3090)"/>
  <path fill-rule="evenodd" clip-rule="evenodd" d="M86.9399 37V54.5H93.9399V51H97.4399V54.5H104.44V51H100.94V44H104.44V40.5H100.94V37H86.9399ZM97.4399 44H93.9399V40.5H97.4399V44Z" stroke="#5C489D" stroke-width="2" mask="url(#path-1-outside-1_10_3090)"/>
  <path d="M265.65 1V18.5H272.65V11.5H276.15V15H279.65V18.5H286.65V1H279.65V8H276.15V4.5H272.65V1H265.65Z" stroke="#5C489D" stroke-width="2" mask="url(#path-1-outside-1_10_3090)"/>
  <path fill-rule="evenodd" clip-rule="evenodd" d="M245.63 18.5V4.5H249.13V1H259.63V4.5H263.13V18.5H256.13V11.5H252.63V18.5H245.63ZM252.63 8H256.13V4.64H252.63V8Z" stroke="#5C489D" stroke-width="2" mask="url(#path-1-outside-1_10_3090)"/>
  <path d="M216.09 15V18.5H230.09V15H233.59V11.5H230.09V8H223.09V4.5H233.59V1H219.59V4.5H216.09V8H219.59V11.5H226.59V15H216.09Z" stroke="#5C489D" stroke-width="2" mask="url(#path-1-outside-1_10_3090)"/>
  <path fill-rule="evenodd" clip-rule="evenodd" d="M196.07 18.5V1H210.07V4.5H213.57V15H210.07V18.5H196.07ZM203.07 15H206.43V4.5H203.07V15Z" stroke="#5C489D" stroke-width="2" mask="url(#path-1-outside-1_10_3090)"/>
  <path d="M172.55 1V18.5H179.55V11.5H183.05V15H186.55V18.5H193.55V1H186.55V8H183.05V4.5H179.55V1H172.55Z" stroke="#5C489D" stroke-width="2" mask="url(#path-1-outside-1_10_3090)"/>
  <path d="M156.03 18.5V1H170.03V4.5H163.03V8H170.03V11.5H163.03V15H170.03V18.5H156.03Z" stroke="#5C489D" stroke-width="2" mask="url(#path-1-outside-1_10_3090)"/>
  <path d="M146.51 1V18.5H153.51V1H146.51Z" stroke="#5C489D" stroke-width="2" mask="url(#path-1-outside-1_10_3090)"/>
  <path fill-rule="evenodd" clip-rule="evenodd" d="M126.49 18.5V1H140.49V4.5H143.99V8H140.49V15H143.99V18.5H136.99V15H133.49V18.5H126.49ZM133.49 8H136.99V4.5H133.49V8Z" stroke="#5C489D" stroke-width="2" mask="url(#path-1-outside-1_10_3090)"/>
  <path d="M109.97 1V18.5H116.97V11.5H123.97V8H116.97V4.5H123.97V1H109.97Z" stroke="#5C489D" stroke-width="2" mask="url(#path-1-outside-1_10_3090)"/>
  <path d="M83.9302 18.5V1H97.9302V4.5H90.9302V8H97.9302V11.5H90.9302V15H97.9302V18.5H83.9302Z" stroke="#5C489D" stroke-width="2" mask="url(#path-1-outside-1_10_3090)"/>
  <path d="M70.9102 4.5V18.5H77.9102V4.5H81.4102V1H67.4102V4.5H70.9102Z" stroke="#5C489D" stroke-width="2" mask="url(#path-1-outside-1_10_3090)"/>
  <path d="M57.8901 18.5V1H64.8901V18.5H57.8901Z" stroke="#5C489D" stroke-width="2" mask="url(#path-1-outside-1_10_3090)"/>
</svg>