<svg width="24" height="25" viewBox="0 0 24 25" fill="none" xmlns="http://www.w3.org/2000/svg">
<g id="close">
<g id="shape">
<path d="M3.29244 4.16025C2.90252 4.54774 2.90252 5.17599 3.29244 5.56348L10.5879 12.8135L3.29244 20.0636C2.90252 20.4511 2.90252 21.0793 3.29244 21.4668C3.68236 21.8543 4.31454 21.8543 4.70446 21.4668L11.9999 14.2168L19.2953 21.4668C19.6852 21.8543 20.3174 21.8543 20.7073 21.4668C21.0972 21.0793 21.0972 20.4511 20.7073 20.0636L13.4119 12.8135L20.7073 5.56348C21.0972 5.17599 21.0972 4.54774 20.7073 4.16025C20.3174 3.77276 19.6852 3.77276 19.2953 4.16025L11.9999 11.4103L4.70446 4.16025C4.31454 3.77276 3.68236 3.77276 3.29244 4.16025Z" fill="#051D17"/>
<path d="M3.29244 5.56348L3.11621 5.74081L3.29244 5.56348ZM10.5879 12.8135L10.7641 12.9908L10.9425 12.8135L10.7641 12.6362L10.5879 12.8135ZM3.29244 20.0636L3.46866 20.2409L3.29244 20.0636ZM4.70446 21.4668L4.88068 21.6441L4.70446 21.4668ZM11.9999 14.2168L12.1761 14.0394L11.9999 13.8643L11.8237 14.0394L11.9999 14.2168ZM19.2953 21.4668L19.4715 21.2895L19.2953 21.4668ZM20.7073 20.0636L20.5311 20.2409L20.7073 20.0636ZM13.4119 12.8135L13.2357 12.6362L13.0572 12.8135L13.2357 12.9908L13.4119 12.8135ZM20.7073 5.56348L20.8835 5.74081L20.7073 5.56348ZM19.2953 4.16025L19.4715 4.33758L19.2953 4.16025ZM11.9999 11.4103L11.8237 11.5876L11.9999 11.7627L12.1761 11.5876L11.9999 11.4103ZM4.70446 4.16025L4.52823 4.33758L4.70446 4.16025ZM3.46866 5.38615C3.17711 5.09642 3.17711 4.62731 3.46866 4.33758L3.11621 3.98292C2.62793 4.46817 2.62793 5.25556 3.11621 5.74081L3.46866 5.38615ZM10.7641 12.6362L3.46866 5.38615L3.11621 5.74081L10.4116 12.9908L10.7641 12.6362ZM3.46866 20.2409L10.7641 12.9908L10.4116 12.6362L3.11621 19.8862L3.46866 20.2409ZM3.46866 21.2895C3.17711 20.9997 3.17711 20.5306 3.46866 20.2409L3.11621 19.8862C2.62793 20.3715 2.62793 21.1589 3.11621 21.6441L3.46866 21.2895ZM4.52823 21.2895C4.23582 21.5801 3.76108 21.5801 3.46866 21.2895L3.11621 21.6441C3.60363 22.1285 4.39326 22.1285 4.88068 21.6441L4.52823 21.2895ZM11.8237 14.0394L4.52823 21.2895L4.88068 21.6441L12.1761 14.3941L11.8237 14.0394ZM19.4715 21.2895L12.1761 14.0394L11.8237 14.3941L19.1191 21.6441L19.4715 21.2895ZM20.5311 21.2895C20.2387 21.5801 19.7639 21.5801 19.4715 21.2895L19.1191 21.6441C19.6065 22.1285 20.3961 22.1285 20.8835 21.6441L20.5311 21.2895ZM20.5311 20.2409C20.8226 20.5306 20.8226 20.9997 20.5311 21.2895L20.8835 21.6441C21.3718 21.1589 21.3718 20.3715 20.8835 19.8862L20.5311 20.2409ZM13.2357 12.9908L20.5311 20.2409L20.8835 19.8862L13.5881 12.6362L13.2357 12.9908ZM20.5311 5.38615L13.2357 12.6362L13.5881 12.9908L20.8835 5.74081L20.5311 5.38615ZM20.5311 4.33758C20.8226 4.62731 20.8226 5.09642 20.5311 5.38615L20.8835 5.74081C21.3718 5.25556 21.3718 4.46817 20.8835 3.98292L20.5311 4.33758ZM19.4715 4.33758C19.7639 4.04698 20.2387 4.04698 20.5311 4.33758L20.8835 3.98292C20.3961 3.49853 19.6065 3.49853 19.1191 3.98292L19.4715 4.33758ZM12.1761 11.5876L19.4715 4.33758L19.1191 3.98292L11.8237 11.233L12.1761 11.5876ZM4.52823 4.33758L11.8237 11.5876L12.1761 11.233L4.88068 3.98292L4.52823 4.33758ZM3.46866 4.33758C3.76108 4.04698 4.23582 4.04698 4.52823 4.33758L4.88068 3.98292C4.39326 3.49853 3.60363 3.49853 3.11621 3.98292L3.46866 4.33758Z" fill="#051D17"/>
</g>
</g>
</svg>
