<svg xmlns="http://www.w3.org/2000/svg" width="28" height="28" viewBox="0 0 28 28" fill="none">
  <path d="M13.9269 1.67676C7.16151 1.67676 1.67694 7.16132 1.67694 13.9268C1.67694 20.6922 7.16151 26.1768 13.9269 26.1768C20.6924 26.1768 26.1769 20.6922 26.1769 13.9268C26.1769 7.16132 20.6924 1.67676 13.9269 1.67676ZM13.7915 4.06968C13.8365 4.06908 13.8817 4.06878 13.9269 4.06878C13.9722 4.06878 14.0174 4.06908 14.0626 4.06969C14.2475 4.10854 14.4974 4.23455 14.8059 4.56069C15.1999 4.97738 15.6079 5.64222 15.9748 6.55936C16.6087 8.14407 17.0523 10.3123 17.1591 12.7739H10.6949C10.8017 10.3123 11.2453 8.14407 11.8792 6.55936C12.2461 5.64222 12.6541 4.97738 13.0481 4.56069C13.3566 4.23455 13.6065 4.10853 13.7915 4.06968ZM17.7219 4.81971C20.9626 6.16097 23.3389 9.16839 23.7826 12.7739H19.4669C19.3589 10.0684 18.8741 7.59898 18.1157 5.70301C17.9934 5.39733 17.8622 5.10197 17.7219 4.81971ZM23.7993 15.0797C23.3985 18.784 20.9605 21.8775 17.6287 23.2168C17.8045 22.8801 17.9667 22.5229 18.1157 22.1505C18.8741 20.2546 19.3589 17.7852 19.4669 15.0797H23.7993ZM10.2254 23.2169C6.89343 21.8776 4.45538 18.7841 4.05456 15.0797H8.38713C8.49505 17.7852 8.97994 20.2546 9.73832 22.1505C9.8873 22.523 10.0495 22.8801 10.2254 23.2169ZM4.07133 12.7739C4.51503 9.16834 6.89136 6.16088 10.1321 4.81965C9.99182 5.10193 9.8606 5.39731 9.73832 5.70301C8.97994 7.59898 8.49505 10.0684 8.38713 12.7739H4.07133ZM11.8792 21.2942C11.2453 19.7095 10.8017 17.5412 10.6949 15.0797H17.1591C17.0523 17.5412 16.6087 19.7095 15.9748 21.2942C15.6079 22.2113 15.1999 22.8762 14.8059 23.2928C14.4141 23.7071 14.1167 23.7985 13.927 23.7985C13.7373 23.7985 13.4399 23.7071 13.0481 23.2928C12.6541 22.8762 12.2461 22.2113 11.8792 21.2942Z" fill="#1A1A1A"/>
</svg>
