<svg width="16" height="16" viewBox="0 0 16 16" fill="none" xmlns="http://www.w3.org/2000/svg">
<path d="M1.875 13.625C1.875 13.9011 2.09886 14.125 2.375 14.125L13.625 14.125C13.9011 14.125 14.125 13.9011 14.125 13.625V9.19309C14.125 9.08264 14.0355 8.99309 13.925 8.99309H13.075C12.9645 8.99309 12.875 9.08264 12.875 9.19309V12.875L3.125 12.875L3.125 3.125L6.8022 3.125C6.91265 3.125 7.0022 3.03546 7.0022 2.925V2.075C7.0022 1.96454 6.91265 1.875 6.8022 1.875H2.375C2.09886 1.875 1.875 2.09886 1.875 2.375V13.625ZM13.646 2.13922C13.7683 2.12981 13.8702 2.23168 13.8607 2.35397L13.5584 6.28395C13.5453 6.45432 13.3384 6.53086 13.2176 6.41003L11.8456 5.03805L6.88654 9.99713C6.80843 10.0752 6.6818 10.0752 6.6037 9.99713L6.00266 9.39609C5.92455 9.31798 5.92455 9.19135 6.00266 9.11325L10.9617 4.15416L9.58993 2.78236C9.46911 2.66153 9.54565 2.45463 9.71601 2.44152L13.646 2.13922Z" />
</svg>
