<svg xmlns="http://www.w3.org/2000/svg" width="58" height="20" viewBox="0 0 58 20" fill="none">
  <g filter="url(#filter0_d_1_353)">
    <path d="M1 1H0.5V1.5V14.5V15H1H9H9.5V14.5V13H11H11.5V12.5V3.5V3H11H9.5V1.5V1H9H1ZM12.44 1H11.94V1.5V14.5V15H12.44H16.44H16.94V14.5V13H17.94V14.5V15H18.44H22.44H22.94V14.5V9.5V9V8.5V3.5V3H22.44H20.94V1.5V1H20.44H12.44ZM25.88 1H25.38V1.5V3H23.88H23.38V3.5V12.5V13H23.88H25.38V14.5V15H25.88H31.88H32.38V14.5V13H33.88H34.38V12.5V3.5V3H33.88H32.38V1.5V1H31.88H25.88ZM35.32 1H34.82V1.5V14.5V15H35.32H39.32H39.82V14.5V11H43.32H43.82V10.5V9H45.32H45.82V8.5V3.5V3H45.32H43.82V1.5V1H43.32H35.32ZM57.26 1.5V1H56.76H48.76H48.26V1.5V3H46.76H46.26V3.5V8.5V9V9.5V14.5V15H46.76H54.76H55.26V14.5V13H56.76H57.26V12.5V7.5V7V6.5V1.5ZM6.42 7V9H5.5V7H6.42ZM28.38 8.92001V7.08H29.38V8.92001H28.38Z" fill="#8172B4" stroke="#5C489D"/>
    <path d="M1 1H0.5V1.5V11.5V12H1H9H9.5V11.5V10H11H11.5V9.5V3.5V3H11H9.5V1.5V1H9H1ZM11.94 11.5V12H12.44H16.44H16.94V11.5V10H17.94V11.5V12H18.44H22.44H22.94V11.5V9.5V9H22.44H20.94V6H22.44H22.94V5.5V3.5V3H22.44H20.94V1.5V1H20.44H12.44H11.94V1.5V11.5ZM23.88 10H25.38V11.5V12H25.88H31.88H32.38V11.5V10H33.88H34.38V9.5V3.5V3H33.88H32.38V1.5V1H31.88H25.88H25.38V1.5V3H23.88H23.38V3.5V9.5V10H23.88ZM34.82 11.5V12H35.32H39.32H39.82V11.5V8H43.32H43.82V7.5V6H45.32H45.82V5.5V3.5V3H45.32H43.82V1.5V1H43.32H35.32H34.82V1.5V11.5ZM46.26 11.5V12H46.76H54.76H55.26V11.5V10H56.76H57.26V9.5V7.5V7H56.76H55.26V5.5V5H54.76H51.26V4H56.76H57.26V3.5V1.5V1H56.76H48.76H48.26V1.5V3H46.76H46.26V3.5V5.5V6H46.76H48.26V7.5V8H48.76H52.26V9H46.76H46.26V9.5V11.5ZM6.42 9H5.5V4H6.42V9ZM17.94 4V5H16.94V4H17.94ZM29.38 8.92H28.38V4.08H29.38V8.92ZM40.74 4V5H39.82V4H40.74Z" fill="white" stroke="#5C489D"/>
  </g>
  <defs>
    <filter id="filter0_d_1_353" x="0" y="0.5" width="57.7598" height="20" filterUnits="userSpaceOnUse" color-interpolation-filters="sRGB">
      <feFlood flood-opacity="0" result="BackgroundImageFix"/>
      <feColorMatrix in="SourceAlpha" type="matrix" values="0 0 0 0 0 0 0 0 0 0 0 0 0 0 0 0 0 0 127 0" result="hardAlpha"/>
      <feOffset dy="4"/>
      <feComposite in2="hardAlpha" operator="out"/>
      <feColorMatrix type="matrix" values="0 0 0 0 0.839216 0 0 0 0 0.819608 0 0 0 0 0.905882 0 0 0 1 0"/>
      <feBlend mode="normal" in2="BackgroundImageFix" result="effect1_dropShadow_1_353"/>
      <feBlend mode="normal" in="SourceGraphic" in2="effect1_dropShadow_1_353" result="shape"/>
    </filter>
  </defs>
</svg>