<svg xmlns="http://www.w3.org/2000/svg" width="58" height="19" viewBox="0 0 58 19" fill="none">
  <g filter="url(#filter0_d_1_6247)">
    <path d="M1 0.5H0.5V1V14V14.5H1H9H9.5V14V12.5H11H11.5V12V3V2.5H11H9.5V1V0.5H9H1ZM12.44 0.5H11.94V1V14V14.5H12.44H16.44H16.94V14V12.5H17.94V14V14.5H18.44H22.44H22.94V14V9V8.5V8V3V2.5H22.44H20.94V1V0.5H20.44H12.44ZM25.88 0.5H25.38V1V2.5H23.88H23.38V3V12V12.5H23.88H25.38V14V14.5H25.88H31.88H32.38V14V12.5H33.88H34.38V12V3V2.5H33.88H32.38V1V0.5H31.88H25.88ZM35.32 0.5H34.82V1V14V14.5H35.32H39.32H39.82V14V10.5H43.32H43.82V10V8.5H45.32H45.82V8V3V2.5H45.32H43.82V1V0.5H43.32H35.32ZM57.26 1V0.5H56.76H48.76H48.26V1V2.5H46.76H46.26V3V8V8.5V9V14V14.5H46.76H54.76H55.26V14V12.5H56.76H57.26V12V7V6.5V6V1ZM6.42 6.5V8.5H5.5V6.5H6.42ZM28.38 8.42001V6.58H29.38V8.42001H28.38Z" fill="#9386BE" stroke="#7969AF"/>
    <path d="M1 0.5H0.5V1V11V11.5H1H9H9.5V11V9.5H11H11.5V9V3V2.5H11H9.5V1V0.5H9H1ZM11.94 11V11.5H12.44H16.44H16.94V11V9.5H17.94V11V11.5H18.44H22.44H22.94V11V9V8.5H22.44H20.94V5.5H22.44H22.94V5V3V2.5H22.44H20.94V1V0.5H20.44H12.44H11.94V1V11ZM23.88 9.5H25.38V11V11.5H25.88H31.88H32.38V11V9.5H33.88H34.38V9V3V2.5H33.88H32.38V1V0.5H31.88H25.88H25.38V1V2.5H23.88H23.38V3V9V9.5H23.88ZM34.82 11V11.5H35.32H39.32H39.82V11V7.5H43.32H43.82V7V5.5H45.32H45.82V5V3V2.5H45.32H43.82V1V0.5H43.32H35.32H34.82V1V11ZM46.26 11V11.5H46.76H54.76H55.26V11V9.5H56.76H57.26V9V7V6.5H56.76H55.26V5V4.5H54.76H51.26V3.5H56.76H57.26V3V1V0.5H56.76H48.76H48.26V1V2.5H46.76H46.26V3V5V5.5H46.76H48.26V7V7.5H48.76H52.26V8.5H46.76H46.26V9V11ZM6.42 8.5H5.5V3.5H6.42V8.5ZM17.94 3.5V4.5H16.94V3.5H17.94ZM29.38 8.42H28.38V3.58H29.38V8.42ZM40.74 3.5V4.5H39.82V3.5H40.74Z" fill="white" stroke="#7969AF"/>
  </g>
  <defs>
    <filter id="filter0_d_1_6247" x="0" y="0" width="57.7598" height="19" filterUnits="userSpaceOnUse" color-interpolation-filters="sRGB">
      <feFlood flood-opacity="0" result="BackgroundImageFix"/>
      <feColorMatrix in="SourceAlpha" type="matrix" values="0 0 0 0 0 0 0 0 0 0 0 0 0 0 0 0 0 0 127 0" result="hardAlpha"/>
      <feOffset dy="4"/>
      <feComposite in2="hardAlpha" operator="out"/>
      <feColorMatrix type="matrix" values="0 0 0 0 0.839216 0 0 0 0 0.819608 0 0 0 0 0.905882 0 0 0 1 0"/>
      <feBlend mode="normal" in2="BackgroundImageFix" result="effect1_dropShadow_1_6247"/>
      <feBlend mode="normal" in="SourceGraphic" in2="effect1_dropShadow_1_6247" result="shape"/>
    </filter>
  </defs>
</svg>