<svg xmlns="http://www.w3.org/2000/svg" width="73" height="20" viewBox="0 0 73 20" fill="none">
  <g filter="url(#filter0_d_1_974)">
    <path d="M10.1802 1.5V1H9.68018H1.68018H1.18018V1.5V14.5V15H1.68018H5.68018H6.18018V14.5V11H9.68018H10.1802V10.5V1.5ZM11.1202 1H10.6202V1.5V14.5V15H11.1202H15.1202H15.6202V14.5V13H16.6202V14.5V15H17.1202H21.1202H21.6202V14.5V9.5V9V8.5V3.5V3H21.1202H19.6202V1.5V1H19.1202H11.1202ZM22.5602 1H22.0602V1.5V14.5V15H22.5602H26.5602H27.0602V14.5V1.5V1H26.5602H22.5602ZM36.5002 1.5V1H36.0002H28.0002H27.5002V1.5V14.5V15H28.0002H36.0002H36.5002V14.5V1.5ZM37.4402 1H36.9402V1.5V14.5V15H37.4402H41.4402H41.9402V14.5V11H42.9402V12.5V13H43.4402H44.9402V14.5V15H45.4402H49.4402H49.9402V14.5V1.5V1H49.4402H45.4402H44.9402V1.5V5H43.9402V3.5V3H43.4402H41.9402V1.5V1H41.4402H37.4402ZM59.3802 1.5V1H58.8802H50.8802H50.3802V1.5V14.5V15H50.8802H58.8802H59.3802V14.5V13H60.8802H61.3802V12.5V3.5V3H60.8802H59.3802V1.5ZM72.8202 1.5V1H72.3202H64.3202H63.8202V1.5V3H62.3202H61.8202V3.5V8.5V9V9.5V14.5V15H62.3202H70.3202H70.8202V14.5V13H72.3202H72.8202V12.5V7.5V7V6.5V1.5ZM55.3802 7H56.3002V9H55.3802V7Z" fill="#8172B4" stroke="#5C489D"/>
    <path d="M1.68018 1H1.18018V1.5V11.5V12H1.68018H5.68018H6.18018V11.5V8H9.68018H10.1802V7.5V5.5V5H9.68018H6.18018V4H9.68018H10.1802V3.5V1.5V1H9.68018H1.68018ZM10.6202 11.5V12H11.1202H15.1202H15.6202V11.5V10H16.6202V11.5V12H17.1202H21.1202H21.6202V11.5V9.5V9H21.1202H19.6202V6H21.1202H21.6202V5.5V3.5V3H21.1202H19.6202V1.5V1H19.1202H11.1202H10.6202V1.5V11.5ZM22.5602 1H22.0602V1.5V11.5V12H22.5602H26.5602H27.0602V11.5V1.5V1H26.5602H22.5602ZM27.5002 11.5V12H28.0002H36.0002H36.5002V11.5V9.5V9H36.0002H32.5002V8H36.0002H36.5002V7.5V5.5V5H36.0002H32.5002V4H36.0002H36.5002V3.5V1.5V1H36.0002H28.0002H27.5002V1.5V11.5ZM37.4402 1H36.9402V1.5V11.5V12H37.4402H41.4402H41.9402V11.5V8H42.9402V9.5V10H43.4402H44.9402V11.5V12H45.4402H49.4402H49.9402V11.5V1.5V1H49.4402H45.4402H44.9402V1.5V5H43.9402V3.5V3H43.4402H41.9402V1.5V1H41.4402H37.4402ZM50.3802 11.5V12H50.8802H58.8802H59.3802V11.5V10H60.8802H61.3802V9.5V3.5V3H60.8802H59.3802V1.5V1H58.8802H50.8802H50.3802V1.5V11.5ZM61.8202 11.5V12H62.3202H70.3202H70.8202V11.5V10H72.3202H72.8202V9.5V7.5V7H72.3202H70.8202V5.5V5H70.3202H66.8202V4H72.3202H72.8202V3.5V1.5V1H72.3202H64.3202H63.8202V1.5V3H62.3202H61.8202V3.5V5.5V6H62.3202H63.8202V7.5V8H64.3202H67.8202V9H62.3202H61.8202V9.5V11.5ZM16.6202 4V5H15.6202V4H16.6202ZM56.3002 4V9H55.3802V4H56.3002Z" fill="white" stroke="#5C489D"/>
  </g>
  <defs>
    <filter id="filter0_d_1_974" x="0.680176" y="0.5" width="72.6401" height="20" filterUnits="userSpaceOnUse" color-interpolation-filters="sRGB">
      <feFlood flood-opacity="0" result="BackgroundImageFix"/>
      <feColorMatrix in="SourceAlpha" type="matrix" values="0 0 0 0 0 0 0 0 0 0 0 0 0 0 0 0 0 0 127 0" result="hardAlpha"/>
      <feOffset dy="4"/>
      <feComposite in2="hardAlpha" operator="out"/>
      <feColorMatrix type="matrix" values="0 0 0 0 0.839216 0 0 0 0 0.819608 0 0 0 0 0.905882 0 0 0 1 0"/>
      <feBlend mode="normal" in2="BackgroundImageFix" result="effect1_dropShadow_1_974"/>
      <feBlend mode="normal" in="SourceGraphic" in2="effect1_dropShadow_1_974" result="shape"/>
    </filter>
  </defs>
</svg>