<svg xmlns="http://www.w3.org/2000/svg" width="73" height="19" viewBox="0 0 73 19" fill="none">
  <g filter="url(#filter0_d_1_6207)">
    <path d="M9.5 1V0.5H9H1H0.5V1V14V14.5H1H5H5.5V14V10.5H9H9.5V10V1ZM10.44 0.5H9.94V1V14V14.5H10.44H14.44H14.94V14V12.5H15.94V14V14.5H16.44H20.44H20.94V14V9V8.5V8V3V2.5H20.44H18.94V1V0.5H18.44H10.44ZM21.88 0.5H21.38V1V14V14.5H21.88H25.88H26.38V14V1V0.5H25.88H21.88ZM35.82 1V0.5H35.32H27.32H26.82V1V14V14.5H27.32H35.32H35.82V14V1ZM36.76 0.5H36.26V1V14V14.5H36.76H40.76H41.26V14V10.5H42.26V12V12.5H42.76H44.26V14V14.5H44.76H48.76H49.26V14V1V0.5H48.76H44.76H44.26V1V4.5H43.26V3V2.5H42.76H41.26V1V0.5H40.76H36.76ZM58.7 1V0.5H58.2H50.2H49.7V1V14V14.5H50.2H58.2H58.7V14V12.5H60.2H60.7V12V3V2.5H60.2H58.7V1ZM72.14 1V0.5H71.64H63.64H63.14V1V2.5H61.64H61.14V3V8V8.5V9V14V14.5H61.64H69.64H70.14V14V12.5H71.64H72.14V12V7V6.5V6V1ZM54.7 6.5H55.62V8.5H54.7V6.5Z" fill="#9386BE" stroke="#7969AF"/>
    <path d="M1 0.5H0.5V1V11V11.5H1H5H5.5V11V7.5H9H9.5V7V5V4.5H9H5.5V3.5H9H9.5V3V1V0.5H9H1ZM9.94 11V11.5H10.44H14.44H14.94V11V9.5H15.94V11V11.5H16.44H20.44H20.94V11V9V8.5H20.44H18.94V5.5H20.44H20.94V5V3V2.5H20.44H18.94V1V0.5H18.44H10.44H9.94V1V11ZM21.88 0.5H21.38V1V11V11.5H21.88H25.88H26.38V11V1V0.5H25.88H21.88ZM26.82 11V11.5H27.32H35.32H35.82V11V9V8.5H35.32H31.82V7.5H35.32H35.82V7V5V4.5H35.32H31.82V3.5H35.32H35.82V3V1V0.5H35.32H27.32H26.82V1V11ZM36.76 0.5H36.26V1V11V11.5H36.76H40.76H41.26V11V7.5H42.26V9V9.5H42.76H44.26V11V11.5H44.76H48.76H49.26V11V1V0.5H48.76H44.76H44.26V1V4.5H43.26V3V2.5H42.76H41.26V1V0.5H40.76H36.76ZM49.7 11V11.5H50.2H58.2H58.7V11V9.5H60.2H60.7V9V3V2.5H60.2H58.7V1V0.5H58.2H50.2H49.7V1V11ZM61.14 11V11.5H61.64H69.64H70.14V11V9.5H71.64H72.14V9V7V6.5H71.64H70.14V5V4.5H69.64H66.14V3.5H71.64H72.14V3V1V0.5H71.64H63.64H63.14V1V2.5H61.64H61.14V3V5V5.5H61.64H63.14V7V7.5H63.64H67.14V8.5H61.64H61.14V9V11ZM15.94 3.5V4.5H14.94V3.5H15.94ZM55.62 3.5V8.5H54.7V3.5H55.62Z" fill="white" stroke="#7969AF"/>
  </g>
  <defs>
    <filter id="filter0_d_1_6207" x="0" y="0" width="72.6401" height="19" filterUnits="userSpaceOnUse" color-interpolation-filters="sRGB">
      <feFlood flood-opacity="0" result="BackgroundImageFix"/>
      <feColorMatrix in="SourceAlpha" type="matrix" values="0 0 0 0 0 0 0 0 0 0 0 0 0 0 0 0 0 0 127 0" result="hardAlpha"/>
      <feOffset dy="4"/>
      <feComposite in2="hardAlpha" operator="out"/>
      <feColorMatrix type="matrix" values="0 0 0 0 0.839216 0 0 0 0 0.819608 0 0 0 0 0.905882 0 0 0 1 0"/>
      <feBlend mode="normal" in2="BackgroundImageFix" result="effect1_dropShadow_1_6207"/>
      <feBlend mode="normal" in="SourceGraphic" in2="effect1_dropShadow_1_6207" result="shape"/>
    </filter>
  </defs>
</svg>