<svg width="32" height="32" viewBox="0 0 32 32" fill="none" xmlns="http://www.w3.org/2000/svg">
<path d="M6.32494 6.32494C5.89169 6.75818 5.89169 7.46062 6.32494 7.89386L14.4311 16L6.32494 24.1061C5.89169 24.5394 5.89169 25.2418 6.32494 25.6751C6.75818 26.1083 7.46062 26.1083 7.89386 25.6751L16 17.5689L24.1061 25.6751C24.5394 26.1083 25.2418 26.1083 25.6751 25.6751C26.1083 25.2418 26.1083 24.5394 25.6751 24.1061L17.5689 16L25.6751 7.89387C26.1083 7.46062 26.1083 6.75818 25.6751 6.32494C25.2418 5.89169 24.5394 5.89169 24.1061 6.32494L16 14.4311L7.89387 6.32494C7.46062 5.89169 6.75818 5.89169 6.32494 6.32494Z" fill="#BDC1C1"/>
<path d="M6.32494 7.89386L6.14816 8.07064L6.32494 7.89386ZM14.4311 16L14.6078 16.1768L14.7846 16L14.6078 15.8232L14.4311 16ZM6.32494 24.1061L6.50171 24.2829L6.32494 24.1061ZM7.89386 25.6751L8.07064 25.8518L7.89386 25.6751ZM16 17.5689L16.1768 17.3922L16 17.2154L15.8232 17.3922L16 17.5689ZM24.1061 25.6751L24.2829 25.4983L24.1061 25.6751ZM17.5689 16L17.3922 15.8232L17.2154 16L17.3922 16.1768L17.5689 16ZM25.6751 7.89387L25.8518 8.07064L25.6751 7.89387ZM24.1061 6.32494L24.2829 6.50171V6.50171L24.1061 6.32494ZM16 14.4311L15.8232 14.6078L16 14.7846L16.1768 14.6078L16 14.4311ZM7.89387 6.32494L7.71709 6.50171L7.89387 6.32494ZM6.50171 7.71709C6.1661 7.38147 6.1661 6.83733 6.50171 6.50171L6.14816 6.14816C5.61728 6.67904 5.61728 7.53976 6.14816 8.07064L6.50171 7.71709ZM14.6078 15.8232L6.50171 7.71709L6.14816 8.07064L14.2543 16.1768L14.6078 15.8232ZM6.50171 24.2829L14.6078 16.1768L14.2543 15.8232L6.14816 23.9294L6.50171 24.2829ZM6.50171 25.4983C6.1661 25.1627 6.1661 24.6185 6.50171 24.2829L6.14816 23.9294C5.61728 24.4602 5.61728 25.321 6.14816 25.8518L6.50171 25.4983ZM7.71709 25.4983C7.38147 25.8339 6.83733 25.8339 6.50171 25.4983L6.14816 25.8518C6.67904 26.3827 7.53976 26.3827 8.07064 25.8518L7.71709 25.4983ZM15.8232 17.3922L7.71709 25.4983L8.07064 25.8518L16.1768 17.7457L15.8232 17.3922ZM24.2829 25.4983L16.1768 17.3922L15.8232 17.7457L23.9294 25.8518L24.2829 25.4983ZM25.4983 25.4983C25.1627 25.8339 24.6185 25.8339 24.2829 25.4983L23.9294 25.8518C24.4602 26.3827 25.321 26.3827 25.8518 25.8518L25.4983 25.4983ZM25.4983 24.2829C25.8339 24.6185 25.8339 25.1627 25.4983 25.4983L25.8518 25.8518C26.3827 25.321 26.3827 24.4602 25.8518 23.9294L25.4983 24.2829ZM17.3922 16.1768L25.4983 24.2829L25.8518 23.9294L17.7457 15.8232L17.3922 16.1768ZM25.4983 7.71709L17.3922 15.8232L17.7457 16.1768L25.8518 8.07064L25.4983 7.71709ZM25.4983 6.50171C25.8339 6.83733 25.8339 7.38147 25.4983 7.71709L25.8518 8.07064C26.3827 7.53976 26.3827 6.67904 25.8518 6.14816L25.4983 6.50171ZM24.2829 6.50171C24.6185 6.1661 25.1627 6.1661 25.4983 6.50171L25.8518 6.14816C25.321 5.61728 24.4602 5.61728 23.9294 6.14816L24.2829 6.50171ZM16.1768 14.6078L24.2829 6.50171L23.9294 6.14816L15.8232 14.2543L16.1768 14.6078ZM7.71709 6.50171L15.8232 14.6078L16.1768 14.2543L8.07064 6.14816L7.71709 6.50171ZM6.50171 6.50171C6.83733 6.1661 7.38147 6.1661 7.71709 6.50171L8.07064 6.14816C7.53976 5.61728 6.67904 5.61728 6.14816 6.14816L6.50171 6.50171Z" fill="#BDC1C1"/>
</svg>
