<svg width="32" height="32" viewBox="0 0 32 32" fill="none" xmlns="http://www.w3.org/2000/svg">
<path d="M25.2136 23.3348C27.0125 21.0834 27.9918 18.2815 27.9889 15.3937C27.9896 10.2456 24.9051 5.60405 20.1737 3.63361C15.4424 1.66317 9.99611 2.75195 6.37478 6.39221C2.75345 10.0325 1.67032 15.5072 3.63052 20.2633C5.59072 25.0194 10.2082 28.12 15.3295 28.1193C18.2122 28.1228 21.0088 27.1314 23.2516 25.3108L26.0817 28.1193C26.3418 28.3892 26.6983 28.5438 27.0721 28.5487C27.446 28.5535 27.8063 28.4084 28.0733 28.1453C28.6134 27.5853 28.601 26.6917 28.0456 26.147L25.2136 23.3348ZM4.66802 15.3302C4.66802 11.5196 6.70088 7.99838 10.0008 6.09306C13.3008 4.18773 17.3665 4.18773 20.6665 6.09306C23.9665 7.99838 25.9993 11.5196 25.9993 15.3302C25.9993 21.2215 21.2237 25.9974 15.3327 25.9974C9.44164 25.9974 4.66602 21.2215 4.66602 15.3302H4.66802ZM19.5204 14.2132H16.4478V11.1445C16.4478 10.5125 15.9479 9.9974 15.3327 9.9974C14.7175 9.9974 14.2175 10.5125 14.2175 11.1445V14.2149H11.1467C10.5218 14.2074 10.0086 14.7068 9.99935 15.3316C9.99935 15.9484 10.5145 16.4448 11.1467 16.4448H14.2175V19.5152C14.2175 20.1472 14.7175 20.6641 15.3327 20.6641C15.9479 20.6641 16.4478 20.1472 16.4478 19.5152V16.4448H19.5187C20.1429 16.4524 20.6558 15.954 20.666 15.3299C20.6576 14.7054 20.145 14.2057 19.5204 14.2132Z" fill="#BDC1C1"/>
</svg>
