<svg width="32" height="32" viewBox="0 0 32 32" fill="none" xmlns="http://www.w3.org/2000/svg">
<path d="M25.2145 23.3388C27.0135 21.0873 27.9928 18.2854 27.9899 15.3976C27.9906 10.2495 24.9061 5.60795 20.1747 3.63751C15.4434 1.66707 9.99709 2.75586 6.37576 6.39612C2.75443 10.0364 1.6713 15.5111 3.6315 20.2672C5.59169 25.0233 10.2091 28.1239 15.3305 28.1232C18.2132 28.1267 21.0098 27.1353 23.2525 25.3147L26.0827 28.1232C26.3428 28.3931 26.6993 28.5477 27.0731 28.5526C27.4469 28.5575 27.8073 28.4123 28.0743 28.1493C28.6144 27.5892 28.6019 26.6956 28.0465 26.1509L25.2145 23.3388ZM4.66899 15.3341C4.66899 11.5235 6.70186 8.00229 10.0018 6.09696C13.3018 4.19164 17.3675 4.19164 20.6675 6.09696C23.9675 8.00229 26.0003 11.5235 26.0003 15.3341C26.0003 21.2255 21.2247 26.0013 15.3337 26.0013C9.44262 26.0013 4.66699 21.2255 4.66699 15.3341H4.66899ZM16.4488 14.2171L14.2185 14.2188H11.1477C10.5228 14.2113 10.0096 14.7107 10.0003 15.3355C10.0003 15.9523 10.5155 16.4487 11.1477 16.4487H14.2185H16.4488H19.5197C20.1439 16.4563 20.6568 15.9579 20.667 15.3338C20.6586 14.7093 20.1459 14.2096 19.5214 14.2171H16.4488Z" fill="#BDC1C1"/>
</svg>
