<svg width="36" height="40" viewBox="0 0 36 40" fill="none" xmlns="http://www.w3.org/2000/svg">
<path d="M2.5 6V4.5H4H4.5V4V2.5H6H6.5V2V0.5H29.5V2V2.5H30H31.5V4V4.5H32H33.5V6V6.5H34H35.5V29.5H34H33.5V30V31.5H32H31.5V32V33.5H30H29.5V34V35.5H6.5V34V33.5H6H4.5V32V31.5H4H2.5V30V29.5H2H0.5V6.5H2H2.5V6Z" fill="#F2F0F7" stroke="#F2F0F7"/>
<path fill-rule="evenodd" clip-rule="evenodd" d="M2 30H4V32H6V34H30V32H32V30H34V32V34H32V36H30V38H6V36H4V34H2V32V30Z" fill="#BBB2D6"/>
<path fill-rule="evenodd" clip-rule="evenodd" d="M2 26H0V34H2V36H4V38H6V40H30V38H32V36H34V34H36V26H34V34H32V36H30V38H6V36H4V34H2V26Z" fill="#9386BE"/>
<path fill-rule="evenodd" clip-rule="evenodd" d="M6 0H30V2H6V0ZM4 4V2H6V4H4ZM2 6H4V4H2V6ZM2 6V26H0V6H2ZM32 4H30V2H32V4ZM34 6H32V4H34V6ZM34 6H36V26H34V6Z" fill="#B1A7D0"/>
<path fill-rule="evenodd" clip-rule="evenodd" d="M30 2H28V4H30V6H32V8H34V6H32V4H30V2ZM4 28H2V30H4V32H6V34H8V32H6V30H4V28ZM34 28H32V30H30V32H28V34H30V32H32V30H34V28ZM6 2H8V4H6V2ZM4 6V4H6V6H4ZM4 6H2V8H4V6ZM28 6H8V8H6V28H8V30H28V28H30V8H28V6Z" fill="#D6D1E7"/>
<path fill-rule="evenodd" clip-rule="evenodd" d="M10 10H14V12H16V14H20V12H22V10H26V14H24V16H22V20H24V22H26V26H22V24H20V22H16V24H14V26H10V22H12V20H14V16H12V14H10V10Z" fill="#B1A7D0"/>
</svg>
