<svg xmlns="http://www.w3.org/2000/svg" width="32" height="32" viewBox="0 0 32 32" fill="none">
  <path d="M6.00002 2V0L26 5.36442e-06V2.00001H28V4.00001H30V6.00001H32V26H30V28H28V30H26V32H6V30H4V28H2L2.00002 26H0L2.06083e-05 6.00001L2.00002 6V4H4.00002V2H6.00002Z" fill="white"/>
  <path fill-rule="evenodd" clip-rule="evenodd" d="M16.6868 10.3354C17.7734 10.3354 18.6543 9.4545 18.6543 8.36788C18.6543 7.28127 17.7734 6.40039 16.6868 6.40039C15.6002 6.40039 14.7193 7.28127 14.7193 8.36788C14.7193 9.4545 15.6002 10.3354 16.6868 10.3354ZM25.574 16.0002C25.574 18.2109 23.7819 20.0031 21.5712 20.0031C19.3605 20.0031 17.5684 18.2109 17.5684 16.0002C17.5684 13.7895 19.3605 11.9974 21.5712 11.9974C23.7819 11.9974 25.574 13.7895 25.574 16.0002ZM18.6544 23.6323C18.6544 24.7189 17.7735 25.5997 16.6869 25.5997C15.6003 25.5997 14.7194 24.7189 14.7194 23.6323C14.7194 22.5456 15.6003 21.6648 16.6869 21.6648C17.7735 21.6648 18.6544 22.5456 18.6544 23.6323ZM6.61167 10.4713C6.03499 11.9978 6.84913 13.7278 8.37563 14.3045C9.3933 14.6776 10.4788 14.4741 11.259 13.8296C11.9714 13.3207 12.8873 13.1511 13.7693 13.4903C14.3459 13.6939 14.7869 14.067 15.0922 14.5419L15.1262 14.6098C15.2618 14.8133 15.4654 15.0169 15.7368 15.0847C16.3474 15.3222 17.0597 14.9829 17.2633 14.3723C17.5007 13.7617 17.1615 13.0494 16.5509 12.8458C16.2795 12.7441 16.0081 12.7441 15.7368 12.8458C15.194 13.0154 14.5834 13.0154 14.0067 12.8119C13.1587 12.5066 12.582 11.8282 12.3445 11.0479L12.3106 10.9801C12.3106 10.9462 12.3106 10.9123 12.2767 10.9123V10.8444C12.0392 9.89459 11.3947 9.08045 10.411 8.74123C8.88446 8.13063 7.15443 8.91084 6.61167 10.4713ZM8.37563 17.6963C6.84913 18.273 6.03499 20.003 6.61167 21.5295C7.18835 23.0899 8.88446 23.8701 10.411 23.2595C11.3947 22.9203 12.0392 22.1062 12.2767 21.1564V21.0885C12.3106 21.0885 12.3106 21.0546 12.3106 21.0207L12.3445 20.9528C12.582 20.1726 13.1587 19.4942 14.0067 19.1889C14.5834 18.9853 15.194 18.9853 15.7368 19.155C16.0081 19.2567 16.2795 19.2567 16.5509 19.155C17.1615 18.9514 17.5007 18.2391 17.2633 17.6285C17.0597 17.0179 16.3474 16.6786 15.7368 16.9161C15.4654 16.9839 15.2618 17.1875 15.1262 17.391L15.0922 17.4588C14.7869 17.9338 14.3459 18.3069 13.7693 18.5104C12.8873 18.8497 11.9714 18.68 11.259 18.1712C10.4788 17.5267 9.3933 17.3232 8.37563 17.6963Z" fill="#266CD3"/>
</svg>