<svg xmlns="http://www.w3.org/2000/svg" width="6" height="15" viewBox="0 0 6 15" fill="none">
  <g filter="url(#filter0_d_1_6168)">
    <path d="M2.8335 4V3.5H2.3335H1.3335H0.833496V4V10V10.5H1.3335H2.3335H2.8335V10V9.5H3.3335H3.8335V9V8.5H4.3335H4.8335V8V6V5.5H4.3335H3.8335V5V4.5H3.3335H2.8335V4Z" fill="#8172B4" stroke="#5C489D"/>
    <path d="M2.8335 1V0.5H2.3335H1.3335H0.833496V1V7V7.5H1.3335H2.3335H2.8335V7V6.5H3.3335H3.8335V6V5.5H4.3335H4.8335V5V3V2.5H4.3335H3.8335V2V1.5H3.3335H2.8335V1Z" fill="white" stroke="#5C489D"/>
  </g>
  <defs>
    <filter id="filter0_d_1_6168" x="0.333496" y="0" width="5" height="15" filterUnits="userSpaceOnUse" color-interpolation-filters="sRGB">
      <feFlood flood-opacity="0" result="BackgroundImageFix"/>
      <feColorMatrix in="SourceAlpha" type="matrix" values="0 0 0 0 0 0 0 0 0 0 0 0 0 0 0 0 0 0 127 0" result="hardAlpha"/>
      <feOffset dy="4"/>
      <feComposite in2="hardAlpha" operator="out"/>
      <feColorMatrix type="matrix" values="0 0 0 0 0.839216 0 0 0 0 0.819608 0 0 0 0 0.905882 0 0 0 1 0"/>
      <feBlend mode="normal" in2="BackgroundImageFix" result="effect1_dropShadow_1_6168"/>
      <feBlend mode="normal" in="SourceGraphic" in2="effect1_dropShadow_1_6168" result="shape"/>
    </filter>
  </defs>
</svg>