<svg viewBox="0 0 40 40" fill="none" xmlns="http://www.w3.org/2000/svg">
<path d="M32.328 35.1417L32.328 35.1422L32.3398 35.1403C32.8222 35.0631 33.15 34.5561 33.15 34C33.15 33.4013 32.765 32.85 32.218 32.85H7.78196V32.8495L7.77008 32.8505L7.67199 32.8583L7.67195 32.8578L7.66016 32.8597C7.17777 32.9369 6.85 33.4439 6.85 34C6.85 34.5987 7.23499 35.15 7.78196 35.15H32.218V35.1505L32.2299 35.1495L32.328 35.1417Z" fill="#BDC1C1" stroke="#BDC1C1" stroke-width="0.3"/>
<path d="M20.5827 17.0382L20.583 17.0379L20.5743 17.0311C20.2317 16.7647 19.7494 16.7926 19.4364 17.1125L14.1184 22.5496L14.1181 22.5493L14.1111 22.5577L14.0384 22.6437L14.0381 22.6435L14.0317 22.6523C13.7721 23.0093 13.7892 23.5226 14.0924 23.8597L14.0921 23.86L14.1 23.8676L14.1807 23.9451L14.1804 23.9454L14.1891 23.9525C14.5313 24.2353 15.0271 24.215 15.3475 23.8875L15.3475 23.8875L20.0447 19.0843L24.6464 23.8812L24.6462 23.8815L24.6544 23.8888L24.7374 23.9635L24.7371 23.9638L24.746 23.9707C25.0971 24.242 25.5919 24.2041 25.9017 23.8662C26.238 23.4994 26.232 22.9148 25.8877 22.5559L20.6716 17.1188L20.6718 17.1186L20.6638 17.1113L20.5827 17.0382Z" fill="#BDC1C1" stroke="#BDC1C1" stroke-width="0.3"/>
<path d="M21.1417 18.6743L21.1422 18.6743L21.1403 18.6625C21.0632 18.1791 20.5565 17.85 20 17.85C19.4008 17.85 18.85 18.2365 18.85 18.7845V29.2155H18.8495L18.8505 29.2273L18.8583 29.3257L18.8578 29.3257L18.8597 29.3375C18.9368 29.8209 19.4435 30.15 20 30.15C20.5992 30.15 21.15 29.7635 21.15 29.2155V18.7845H21.1505L21.1495 18.7727L21.1417 18.6743Z" fill="#BDC1C1" stroke="#BDC1C1" stroke-width="0.3"/>
<path d="M20.0747 4.84999L20.073 4.85001L19.7857 4.8532L19.784 4.85324C17.2791 4.90948 15.2134 5.69753 13.6111 7.20097C12.0272 8.68722 10.9081 10.8613 10.2555 13.6852L10.2128 13.6866L10.211 13.6866C10.162 13.6889 10.112 13.6916 10.0609 13.6949L10.0609 13.6948L10.0584 13.695L9.74326 13.7204L9.74326 13.7204L9.74104 13.7206C7.41833 13.9425 5.69067 14.8837 4.54542 16.2967C3.40203 17.7075 2.85 19.5749 2.85 21.6332C2.85 23.5251 3.58642 25.1583 4.89565 26.317C6.2036 27.4745 8.07322 28.15 10.3284 28.15H11.9061V28.1503L11.9154 28.1497L12.0093 28.1439L12.0093 28.1442L12.0186 28.143C12.4619 28.0874 12.8045 27.709 12.8045 27.2505C12.8045 26.754 12.4025 26.3511 11.9061 26.3511H10.3294H10.3284L10.0801 26.3479C10.0797 26.3478 10.0793 26.3478 10.079 26.3478C8.35787 26.3027 7.00029 25.7903 6.07504 24.9621C5.15129 24.1352 4.64685 22.9836 4.64685 21.6332C4.64685 19.973 5.06679 18.5299 5.92781 17.4609C6.78681 16.3945 8.09735 15.6847 9.9117 15.5114C10.3574 15.4688 10.6593 15.4711 10.8076 15.4995C11.294 15.5926 11.7637 15.2741 11.8582 14.7877C12.397 12.0138 13.3458 9.98131 14.7055 8.64291C16.0616 7.30802 17.8411 6.64894 20.0747 6.64894C22.3093 6.64894 24.096 7.30879 25.4645 8.64524C26.8366 9.98512 27.803 12.0194 28.3646 14.7946C28.4457 15.1953 28.7865 15.491 29.1944 15.5141C29.9583 15.5573 30.7165 15.6849 31.4702 15.8972C33.8905 16.5793 35.5655 18.9127 35.3312 21.553C35.3312 21.5532 35.3311 21.5533 35.3311 21.5535L35.2828 22.0537C35.2828 22.0539 35.2828 22.0541 35.2827 22.0543C35.2094 22.7405 35.1261 23.1708 34.9604 23.6622C34.668 24.5294 34.1885 25.1957 33.4482 25.6483C32.7044 26.1031 31.6829 26.3511 30.2917 26.3511H28.188V26.3508L28.1787 26.3514L28.0848 26.3572L28.0848 26.3569L28.0754 26.3581C27.6321 26.4136 27.2896 26.792 27.2896 27.2505C27.2896 27.7471 27.6916 28.15 28.188 28.15L30.2917 28.15L30.2936 28.15L30.5947 28.1463L30.5966 28.1463C32.2519 28.1057 33.5675 27.7308 34.5722 27.0603C35.5785 26.3887 36.2614 25.4282 36.6628 24.2375C36.8599 23.6531 36.963 23.1562 37.0444 22.4698L37.0446 22.468L37.0959 21.9843L37.0961 21.9823L37.1209 21.7134L37.1209 21.7129C37.4334 18.1967 35.1971 15.0787 31.957 14.1656L31.957 14.1656L31.9544 14.1649L31.5197 14.0507L31.5197 14.0507L31.5171 14.05C31.0764 13.9426 30.6335 13.8598 30.1885 13.8016L30.1885 13.8015L30.1857 13.8012L29.9819 13.7784L29.9792 13.7661L29.9788 13.7643C29.2933 10.8449 28.1195 8.61419 26.4595 7.11301C24.7972 5.60973 22.6605 4.85 20.0747 4.84999Z" fill="#BDC1C1" stroke="#BDC1C1" stroke-width="0.3"/>
</svg>
