<svg width="8" height="8" viewBox="0 0 8 8" fill="none" xmlns="http://www.w3.org/2000/svg">
<path d="M2.05535 0.641132C1.95771 0.543501 1.79942 0.543501 1.70179 0.641132L0.641132 1.70179C0.543501 1.79942 0.543501 1.95771 0.641132 2.05535L2.58568 3.99989L0.641132 5.94443C0.543501 6.04206 0.543501 6.20036 0.641132 6.29799L1.70179 7.35865C1.79942 7.45628 1.95771 7.45628 2.05535 7.35865L3.99989 5.4141L5.94443 7.35865C6.04206 7.45628 6.20036 7.45628 6.29799 7.35865L7.35865 6.29799C7.45628 6.20036 7.45628 6.04206 7.35865 5.94443L5.4141 3.99989L7.35865 2.05535C7.45628 1.95771 7.45628 1.79942 7.35865 1.70179L6.29799 0.641132C6.20036 0.543501 6.04206 0.543501 5.94443 0.641132L3.99989 2.58568L2.05535 0.641132Z" fill="#B8B8B8"/>
</svg>
